<svg width="545" height="220" viewBox="0 0 545 220" fill="none" xmlns="http://www.w3.org/2000/svg">
<path d="M111.203 212V175.859H10.2344V139.719C26.7344 108.219 53.875 64.6719 91.6562 9.07812H151.562V141.828H178V175.859H151.562V212H111.203ZM47.5 141.969V143.094H112.047V39.1719H111.203C95.5469 62.0469 82.9844 81.125 73.5156 96.4062C64.0469 111.594 55.375 126.781 47.5 141.969ZM469.234 212V175.859H368.266V139.719C384.766 108.219 411.906 64.6719 449.688 9.07812H509.594V141.828H536.031V175.859H509.594V212H469.234ZM405.531 141.969V143.094H470.078V39.1719H469.234C453.578 62.0469 441.016 81.125 431.547 96.4062C422.078 111.594 413.406 126.781 405.531 141.969Z" fill="#CF0F3F"/>
<path d="M365.813 17.1876C346.563 -2.06244 268.188 2.75006 216.969 53.9688C165.75 105.188 160.938 183.219 180.188 202.813C199.438 222.063 277.813 217.25 329.031 166.031C380.25 114.813 385.063 36.7813 365.813 17.1876Z" fill="#E8E8E8"/>
<path d="M362.375 48.125C357.219 59.4688 351.719 70.125 345.188 80.7813C332.813 101.063 318.031 120.656 302.562 138.875C288.125 156.063 270.937 174.281 250.312 184.25C239.656 189.406 228.656 190.094 217.656 192.5C207.687 194.906 195.313 200.75 193.938 210.031C224.188 219.313 286.062 209 329.031 166.031C370.281 124.781 381.281 66.3438 374.063 34.7188C369.25 37.8125 365.469 41.9375 362.375 48.125" fill="#C5D4D8"/>
<path d="M296.718 10.6563C291.562 11.6875 286.405 13.0625 281.249 14.7813C260.28 24.75 238.624 40.2188 221.437 57.0625C170.905 107.938 167.124 184.594 176.749 193.875C190.499 207.625 258.905 187.688 307.374 133.031C347.249 88.3438 365.812 39.1875 367.874 19.5938C366.843 18.9063 366.155 17.875 365.812 17.1875C355.155 6.87503 327.999 3.43753 296.718 10.6563V10.6563ZM299.468 125.125C255.468 169.125 199.78 181.844 187.405 169.469C177.437 159.5 188.093 102.094 232.093 58.0938C276.093 13.75 332.812 2.75004 343.468 13.75C355.843 26.125 343.468 81.125 299.468 125.125" fill="#4B53A2"/>
<path d="M220.407 93.1562C204.594 118.594 200.469 143 206.657 149.188C212.844 155.375 237.25 150.906 262.688 135.438C241.032 146.438 220.407 147.813 214.219 141.969C208.032 135.437 209.407 114.813 220.407 93.1562" fill="#CB2C41"/>
<path d="M265.438 48.1251C287.094 37.1251 307.719 35.7501 313.906 41.5938C320.094 47.4376 318.375 68.4063 307.375 90.0626C323.188 64.6251 327.313 40.2188 321.125 34.0313C315.281 28.1876 290.875 32.3126 265.438 48.1251" fill="#CB2C41"/>
<path d="M367.531 19.5937C365.469 39.5312 346.906 88.3438 307.031 133.031C258.563 187.688 190.5 207.969 176.75 193.875C167.469 184.594 170.906 107.938 221.781 57.0625C238.969 39.875 260.625 24.75 281.594 14.7812C259.25 22 236.219 34.7187 216.969 53.9687C165.75 105.187 160.938 183.563 180.188 202.813C186.375 209 199.094 212.781 214.563 213.125C244.125 204.531 288.469 184.938 326.281 131.656C347.938 102.094 364.781 68.75 376.125 49.5C375.438 36.4375 372.344 26.125 367.531 19.5937" fill="#CB2C41"/>
</svg>
