<svg width="20" height="20" viewBox="0 0 20 20" fill="none" xmlns="http://www.w3.org/2000/svg">
<path d="M18.4912 1.51004C17.9312 0.950039 16.3412 0.540039 14.3312 0.540039C11.2512 0.540039 7.18123 1.50004 4.35123 4.33004C-0.338774 9.03004 0.101227 17.07 1.51123 18.49C2.07123 19.05 3.66123 19.46 5.67123 19.46C8.75123 19.46 12.8212 18.5 15.6512 15.67C20.3412 10.97 19.9012 2.93004 18.4912 1.51004ZM5.76123 5.76004C8.40123 3.12004 12.1112 2.64004 13.7912 2.57004C11.7412 3.51004 9.33123 5.02004 7.18123 7.18004C5.26936 9.1062 3.70618 11.3495 2.56123 13.81C2.66123 11.33 3.44123 8.07004 5.76123 5.76004ZM14.2412 14.24C11.6012 16.88 7.89123 17.36 6.21123 17.43C8.26123 16.49 10.6712 14.98 12.8212 12.82C14.9812 10.66 16.4912 8.24004 17.4412 6.19004C17.3412 8.67004 16.5612 11.93 14.2412 14.24Z" fill="#CF0F3F"/>
</svg>
