<svg width="104" height="72" viewBox="0 0 104 72" fill="none" xmlns="http://www.w3.org/2000/svg">
<path d="M101.705 11.2748C101.108 9.09555 99.9447 7.10881 98.3298 5.51241C96.715 3.916 94.7052 2.76563 92.5007 2.17584C84.43 0 51.9481 0 51.9481 0C51.9481 0 19.4647 0.0658614 11.394 2.2417C9.18941 2.83153 7.17963 3.98196 5.56476 5.57844C3.94989 7.17492 2.78628 9.16174 2.1898 11.341C-0.251395 25.5166 -1.19838 47.1168 2.25683 60.7252C2.85337 62.9044 4.01701 64.8912 5.63187 66.4876C7.24674 68.084 9.25649 69.2344 11.461 69.8242C19.5317 72 52.0144 72 52.0144 72C52.0144 72 84.4966 72 92.5669 69.8242C94.7715 69.2344 96.7813 68.0841 98.3963 66.4877C100.011 64.8913 101.175 62.9045 101.771 60.7252C104.346 46.5296 105.14 24.9431 101.705 11.2752V11.2748Z" fill="#FF0000"/>
<path d="M41.6089 51.4284L68.5555 35.9999L41.6093 20.5714L41.6089 51.4284Z" fill="white"/>
</svg>
