<svg width="13" height="14" viewBox="0 0 13 14" fill="none" xmlns="http://www.w3.org/2000/svg">
<path d="M4.04688 7.875H2.95312C2.77266 7.875 2.625 7.72734 2.625 7.54688V6.45312C2.625 6.27266 2.77266 6.125 2.95312 6.125H4.04688C4.22734 6.125 4.375 6.27266 4.375 6.45312V7.54688C4.375 7.72734 4.22734 7.875 4.04688 7.875ZM7 7.54688V6.45312C7 6.27266 6.85234 6.125 6.67188 6.125H5.57812C5.39766 6.125 5.25 6.27266 5.25 6.45312V7.54688C5.25 7.72734 5.39766 7.875 5.57812 7.875H6.67188C6.85234 7.875 7 7.72734 7 7.54688ZM9.625 7.54688V6.45312C9.625 6.27266 9.47734 6.125 9.29688 6.125H8.20312C8.02266 6.125 7.875 6.27266 7.875 6.45312V7.54688C7.875 7.72734 8.02266 7.875 8.20312 7.875H9.29688C9.47734 7.875 9.625 7.72734 9.625 7.54688ZM7 10.1719V9.07812C7 8.89766 6.85234 8.75 6.67188 8.75H5.57812C5.39766 8.75 5.25 8.89766 5.25 9.07812V10.1719C5.25 10.3523 5.39766 10.5 5.57812 10.5H6.67188C6.85234 10.5 7 10.3523 7 10.1719ZM4.375 10.1719V9.07812C4.375 8.89766 4.22734 8.75 4.04688 8.75H2.95312C2.77266 8.75 2.625 8.89766 2.625 9.07812V10.1719C2.625 10.3523 2.77266 10.5 2.95312 10.5H4.04688C4.22734 10.5 4.375 10.3523 4.375 10.1719ZM9.625 10.1719V9.07812C9.625 8.89766 9.47734 8.75 9.29688 8.75H8.20312C8.02266 8.75 7.875 8.89766 7.875 9.07812V10.1719C7.875 10.3523 8.02266 10.5 8.20312 10.5H9.29688C9.47734 10.5 9.625 10.3523 9.625 10.1719ZM12.25 3.0625V12.6875C12.25 13.4121 11.6621 14 10.9375 14H1.3125C0.587891 14 0 13.4121 0 12.6875V3.0625C0 2.33789 0.587891 1.75 1.3125 1.75H2.625V0.328125C2.625 0.147656 2.77266 0 2.95312 0H4.04688C4.22734 0 4.375 0.147656 4.375 0.328125V1.75H7.875V0.328125C7.875 0.147656 8.02266 0 8.20312 0H9.29688C9.47734 0 9.625 0.147656 9.625 0.328125V1.75H10.9375C11.6621 1.75 12.25 2.33789 12.25 3.0625ZM10.9375 12.5234V4.375H1.3125V12.5234C1.3125 12.6137 1.38633 12.6875 1.47656 12.6875H10.7734C10.8637 12.6875 10.9375 12.6137 10.9375 12.5234Z" fill="white"/>
</svg>
