<svg width="13" height="14" viewBox="0 0 13 14" fill="none" xmlns="http://www.w3.org/2000/svg">
<path d="M12.3333 2.02312H9.5L9.08333 1.37568C8.5 0.48551 7.58331 0 6.49997 0C5.41664 0 4.5 0.48551 3.91667 1.37568L3.5 2.02312H0.666655C0.333322 2.02312 0 2.26589 0 2.67051C0 3.07514 0.249989 3.3179 0.666655 3.3179H1.75003V11.5723C1.75003 12.948 2.83336 14 4.25002 14H8.74998C10.1666 14 11.25 12.948 11.25 11.5723V3.3179H12.3333C12.6666 3.3179 13 3.07514 13 2.67051C13 2.26589 12.6666 2.02312 12.3333 2.02312ZM4.99999 2.02312C5.33332 1.53757 5.91664 1.21387 6.49997 1.21387C7.08331 1.21387 7.66668 1.53757 8.00001 2.02312H4.99999ZM5.50002 10.8439C5.50002 11.1676 5.24998 11.4913 4.83331 11.4913C4.49998 11.4913 4.16666 11.2485 4.16666 10.8439V5.66474C4.16666 5.34104 4.41665 5.0173 4.83331 5.0173C5.16664 5.0173 5.50002 5.26012 5.50002 5.66474V10.8439ZM8.74998 10.8439C8.74998 11.1676 8.49999 11.4913 8.08332 11.4913C7.74999 11.4913 7.41667 11.2485 7.41667 10.8439V5.66474C7.41667 5.34104 7.66666 5.0173 8.08332 5.0173C8.41666 5.0173 8.74998 5.26012 8.74998 5.66474V10.8439Z" fill="#D21C4B"/>
</svg>
