<svg width="13" height="16" viewBox="0 0 13 16" fill="none" xmlns="http://www.w3.org/2000/svg">
<path opacity="0.4" d="M6.17181 0.00407228C2.98436 0.115611 0.336378 2.5957 0.030462 5.76143C-0.032037 6.39457 0.00414668 7.00803 0.115987 7.59525C0.115987 7.59525 0.125855 7.66414 0.15875 7.79536C0.257432 8.23495 0.405456 8.66143 0.589664 9.06165C1.2311 10.5773 2.71463 13.1131 6.04353 15.8721C6.24747 16.0426 6.54681 16.0426 6.75404 15.8721C10.0829 13.1164 11.5665 10.5805 12.2112 9.05837C12.3987 8.65814 12.5434 8.23495 12.6421 7.79208C12.6717 7.66414 12.6849 7.59197 12.6849 7.59197C12.7605 7.1983 12.8 6.7948 12.8 6.38145C12.8 2.77941 9.80992 -0.123869 6.17181 0.00407228ZM6.39878 9.55701C4.68171 9.55701 3.29028 8.16934 3.29028 6.4569C3.29028 4.74446 4.68171 3.35679 6.39878 3.35679C8.11586 3.35679 9.50729 4.74446 9.50729 6.4569C9.50729 8.16934 8.11586 9.55701 6.39878 9.55701Z" fill="#1A1A1A"/>
</svg>
