<svg width="18" height="16" viewBox="0 0 18 16" fill="none" xmlns="http://www.w3.org/2000/svg">
<path fill-rule="evenodd" clip-rule="evenodd" d="M0.601562 1.9998C0.601562 1.33706 1.13882 0.799805 1.80156 0.799805H16.2016C16.8643 0.799805 17.4016 1.33706 17.4016 1.9998C17.4016 2.66255 16.8643 3.1998 16.2016 3.1998H1.80156C1.13882 3.1998 0.601562 2.66255 0.601562 1.9998Z" fill="#CF0F3F"/>
<path fill-rule="evenodd" clip-rule="evenodd" d="M0.601562 7.9998C0.601562 7.33706 1.13882 6.7998 1.80156 6.7998H16.2016C16.8643 6.7998 17.4016 7.33706 17.4016 7.9998C17.4016 8.66255 16.8643 9.19981 16.2016 9.19981H1.80156C1.13882 9.19981 0.601562 8.66255 0.601562 7.9998Z" fill="#CF0F3F"/>
<path fill-rule="evenodd" clip-rule="evenodd" d="M0.601562 13.9998C0.601562 13.3371 1.13882 12.7998 1.80156 12.7998H9.00156C9.6643 12.7998 10.2016 13.3371 10.2016 13.9998C10.2016 14.6625 9.6643 15.1998 9.00156 15.1998H1.80156C1.13882 15.1998 0.601562 14.6625 0.601562 13.9998Z" fill="#CF0F3F"/>
</svg>
