<svg width="18" height="16" viewBox="0 0 18 16" fill="none" xmlns="http://www.w3.org/2000/svg">
<path d="M17.25 2H14V0.75C14 0.334375 13.6656 0 13.25 0H4.75C4.33437 0 4 0.334375 4 0.75V2H0.75C0.334375 2 0 2.33437 0 2.75V4.5C0 5.61562 0.703125 6.7625 1.93438 7.64687C2.91875 8.35625 4.11562 8.80625 5.37187 8.95C6.35312 10.5781 7.5 11.25 7.5 11.25V13.5H6C4.89687 13.5 4 14.1469 4 15.25V15.625C4 15.8313 4.16875 16 4.375 16H13.625C13.8313 16 14 15.8313 14 15.625V15.25C14 14.1469 13.1031 13.5 12 13.5H10.5V11.25C10.5 11.25 11.6469 10.5781 12.6281 8.95C13.8875 8.80625 15.0844 8.35625 16.0656 7.64687C17.2937 6.7625 18 5.61562 18 4.5V2.75C18 2.33437 17.6656 2 17.25 2ZM3.10313 6.025C2.34063 5.475 2 4.8625 2 4.5V4H4.00625C4.0375 5.01875 4.1875 5.9125 4.40625 6.69375C3.93438 6.53125 3.49375 6.30625 3.10313 6.025ZM16 4.5C16 5.00313 15.4469 5.62813 14.8969 6.025C14.5063 6.30625 14.0625 6.53125 13.5906 6.69375C13.8094 5.9125 13.9594 5.01875 13.9906 4H16V4.5Z" fill="url(#paint0_linear_56_2439)"/>
<defs>
<linearGradient id="paint0_linear_56_2439" x1="18" y1="4.93765e-07" x2="1.8094" y2="18.0026" gradientUnits="userSpaceOnUse">
<stop stop-color="#FF7F7F"/>
<stop offset="1" stop-color="#FFD17F"/>
</linearGradient>
</defs>
</svg>
