<svg width="387" height="232" viewBox="0 0 387 232" fill="none" xmlns="http://www.w3.org/2000/svg">
<path d="M304.717 216H303.674V208.506H299.15V216H298.09V207.545H304.717V216ZM308.766 210.686C308.293 210.686 307.9 210.85 307.588 211.178C307.279 211.502 307.109 211.92 307.078 212.432H310.389C310.377 211.916 310.223 211.496 309.926 211.172C309.629 210.848 309.242 210.686 308.766 210.686ZM310.365 214.254H311.367C311.277 214.793 310.996 215.236 310.523 215.584C310.055 215.932 309.49 216.105 308.83 216.105C307.959 216.105 307.273 215.824 306.773 215.262C306.273 214.699 306.023 213.938 306.023 212.977C306.023 212.023 306.273 211.256 306.773 210.674C307.277 210.092 307.947 209.801 308.783 209.801C309.604 209.801 310.252 210.076 310.729 210.627C311.205 211.178 311.443 211.916 311.443 212.842V213.229H307.072V213.287C307.072 213.873 307.232 214.342 307.553 214.693C307.873 215.045 308.307 215.221 308.854 215.221C309.236 215.221 309.562 215.133 309.832 214.957C310.102 214.781 310.279 214.547 310.365 214.254ZM317.619 211.781H316.611C316.518 211.465 316.34 211.205 316.078 211.002C315.816 210.799 315.482 210.697 315.076 210.697C314.545 210.697 314.119 210.904 313.799 211.318C313.479 211.729 313.318 212.273 313.318 212.953C313.318 213.645 313.479 214.193 313.799 214.6C314.123 215.006 314.553 215.209 315.088 215.209C315.486 215.209 315.816 215.115 316.078 214.928C316.344 214.74 316.525 214.477 316.623 214.137H317.631C317.529 214.723 317.248 215.197 316.787 215.561C316.326 215.924 315.758 216.105 315.082 216.105C314.23 216.105 313.551 215.822 313.043 215.256C312.535 214.686 312.281 213.918 312.281 212.953C312.281 212.004 312.535 211.242 313.043 210.668C313.551 210.09 314.227 209.801 315.07 209.801C315.77 209.801 316.344 209.992 316.793 210.375C317.246 210.758 317.521 211.227 317.619 211.781ZM323.338 216H322.33V213.369H322.242C321.875 213.686 321.383 213.844 320.766 213.844C320.051 213.844 319.5 213.646 319.113 213.252C318.73 212.857 318.539 212.326 318.539 211.658V209.906H319.547V211.646C319.547 212.053 319.654 212.373 319.869 212.607C320.084 212.838 320.393 212.953 320.795 212.953C321.463 212.953 321.975 212.754 322.33 212.355V209.906H323.338V216ZM326.789 215.238C327.27 215.238 327.672 215.09 327.996 214.793C328.324 214.492 328.488 214.123 328.488 213.686V213.188L326.859 213.287C326.449 213.314 326.131 213.414 325.904 213.586C325.682 213.758 325.57 213.988 325.57 214.277C325.57 214.566 325.682 214.799 325.904 214.975C326.127 215.15 326.422 215.238 326.789 215.238ZM326.561 216.105C325.955 216.105 325.465 215.938 325.09 215.602C324.719 215.266 324.533 214.824 324.533 214.277C324.533 213.754 324.725 213.336 325.107 213.023C325.494 212.711 326.039 212.535 326.742 212.496L328.488 212.396V211.887C328.488 211.516 328.371 211.225 328.137 211.014C327.902 210.803 327.574 210.697 327.152 210.697C326.766 210.697 326.451 210.783 326.209 210.955C325.967 211.123 325.812 211.359 325.746 211.664H324.762C324.797 211.121 325.031 210.676 325.465 210.328C325.902 209.977 326.473 209.801 327.176 209.801C327.891 209.801 328.457 209.98 328.875 210.34C329.297 210.699 329.508 211.182 329.508 211.787V216H328.541V214.951H328.518C328.334 215.299 328.064 215.578 327.709 215.789C327.354 216 326.971 216.105 326.561 216.105ZM334.928 216V213.258H331.922V216H330.914V209.906H331.922V212.42H334.928V209.906H335.936V216H334.928ZM339.902 216.105C339.051 216.105 338.367 215.822 337.852 215.256C337.336 214.686 337.078 213.918 337.078 212.953C337.078 211.988 337.336 211.223 337.852 210.656C338.367 210.086 339.051 209.801 339.902 209.801C340.75 209.801 341.432 210.086 341.947 210.656C342.463 211.223 342.721 211.988 342.721 212.953C342.721 213.914 342.463 214.68 341.947 215.25C341.432 215.82 340.75 216.105 339.902 216.105ZM338.596 214.611C338.92 215.01 339.355 215.209 339.902 215.209C340.449 215.209 340.883 215.012 341.203 214.617C341.523 214.219 341.684 213.664 341.684 212.953C341.684 212.242 341.523 211.689 341.203 211.295C340.883 210.896 340.449 210.697 339.902 210.697C339.355 210.697 338.92 210.896 338.596 211.295C338.275 211.693 338.115 212.246 338.115 212.953C338.115 213.66 338.275 214.213 338.596 214.611ZM345.92 212.789L348.85 216H347.537L344.906 213.07H344.859V216H343.852V209.906H344.859V212.602H344.906L347.508 209.906H348.768L345.92 212.789ZM352.113 216.105C351.262 216.105 350.578 215.822 350.062 215.256C349.547 214.686 349.289 213.918 349.289 212.953C349.289 211.988 349.547 211.223 350.062 210.656C350.578 210.086 351.262 209.801 352.113 209.801C352.961 209.801 353.643 210.086 354.158 210.656C354.674 211.223 354.932 211.988 354.932 212.953C354.932 213.914 354.674 214.68 354.158 215.25C353.643 215.82 352.961 216.105 352.113 216.105ZM350.807 214.611C351.131 215.01 351.566 215.209 352.113 215.209C352.66 215.209 353.094 215.012 353.414 214.617C353.734 214.219 353.895 213.664 353.895 212.953C353.895 212.242 353.734 211.689 353.414 211.295C353.094 210.896 352.66 210.697 352.113 210.697C351.566 210.697 351.131 210.896 350.807 211.295C350.486 211.693 350.326 212.246 350.326 212.953C350.326 213.66 350.486 214.213 350.807 214.611ZM360.018 216V210.744H357.07V216H356.062V209.906H361.031V216H360.018ZM367.506 211.781H366.498C366.404 211.465 366.227 211.205 365.965 211.002C365.703 210.799 365.369 210.697 364.963 210.697C364.432 210.697 364.006 210.904 363.686 211.318C363.365 211.729 363.205 212.273 363.205 212.953C363.205 213.645 363.365 214.193 363.686 214.6C364.01 215.006 364.439 215.209 364.975 215.209C365.373 215.209 365.703 215.115 365.965 214.928C366.23 214.74 366.412 214.477 366.51 214.137H367.518C367.416 214.723 367.135 215.197 366.674 215.561C366.213 215.924 365.645 216.105 364.969 216.105C364.117 216.105 363.438 215.822 362.93 215.256C362.422 214.686 362.168 213.918 362.168 212.953C362.168 212.004 362.422 211.242 362.93 210.668C363.438 210.09 364.113 209.801 364.957 209.801C365.656 209.801 366.23 209.992 366.68 210.375C367.133 210.758 367.408 211.227 367.506 211.781ZM370.646 212.789L373.576 216H372.264L369.633 213.07H369.586V216H368.578V209.906H369.586V212.602H369.633L372.234 209.906H373.494L370.646 212.789ZM375.434 216H374.426V209.906H375.434V214.441H375.48L378.527 209.906H379.535V216H378.527V211.465H378.48L375.434 216ZM381.973 216H380.965V209.906H381.973V214.441H382.02L385.066 209.906H386.074V216H385.066V211.465H385.02L381.973 216ZM381.744 207.27H382.494C382.494 207.617 382.598 207.906 382.805 208.137C383.016 208.367 383.291 208.482 383.631 208.482C383.971 208.482 384.244 208.367 384.451 208.137C384.662 207.906 384.768 207.617 384.768 207.27H385.518C385.518 207.809 385.342 208.246 384.99 208.582C384.643 208.918 384.189 209.086 383.631 209.086C383.072 209.086 382.617 208.918 382.266 208.582C381.918 208.246 381.744 207.809 381.744 207.27ZM336.527 222.801C337.309 222.801 337.938 223.088 338.414 223.662C338.895 224.236 339.135 225 339.135 225.953C339.135 226.902 338.896 227.666 338.42 228.244C337.943 228.818 337.32 229.105 336.551 229.105C336.121 229.105 335.736 229.008 335.396 228.812C335.057 228.617 334.795 228.35 334.611 228.01H334.588V231.033H333.568V222.906H334.535V223.938H334.559C334.75 223.586 335.018 223.309 335.361 223.105C335.705 222.902 336.094 222.801 336.527 222.801ZM336.328 228.209C336.871 228.209 337.301 228.006 337.617 227.6C337.934 227.193 338.092 226.645 338.092 225.953C338.092 225.262 337.934 224.713 337.617 224.307C337.301 223.9 336.871 223.697 336.328 223.697C335.805 223.697 335.383 223.904 335.062 224.318C334.742 224.732 334.582 225.277 334.582 225.953C334.582 226.633 334.742 227.18 335.062 227.594C335.383 228.004 335.805 228.209 336.328 228.209ZM344.045 226.047H340.201V225.098H344.045V226.047ZM349.424 229V226.258H346.418V229H345.41V222.906H346.418V225.42H349.424V222.906H350.432V229H349.424Z" fill="#C31844"/>
<path d="M280.906 73.6699H279.928V72H273.219V63.5449H274.273V71.0508H278.797V63.5449H279.852V71.0508H280.906V73.6699ZM284.422 66.6855C283.949 66.6855 283.557 66.8496 283.244 67.1777C282.936 67.502 282.766 67.9199 282.734 68.4316H286.045C286.033 67.916 285.879 67.4961 285.582 67.1719C285.285 66.8477 284.898 66.6855 284.422 66.6855ZM286.021 70.2539H287.023C286.934 70.793 286.652 71.2363 286.18 71.584C285.711 71.9316 285.146 72.1055 284.486 72.1055C283.615 72.1055 282.93 71.8242 282.43 71.2617C281.93 70.6992 281.68 69.9375 281.68 68.9766C281.68 68.0234 281.93 67.2559 282.43 66.6738C282.934 66.0918 283.604 65.8008 284.439 65.8008C285.26 65.8008 285.908 66.0762 286.385 66.627C286.861 67.1777 287.1 67.916 287.1 68.8418V69.2285H282.729V69.2871C282.729 69.873 282.889 70.3418 283.209 70.6934C283.529 71.0449 283.963 71.2207 284.51 71.2207C284.893 71.2207 285.219 71.1328 285.488 70.957C285.758 70.7812 285.936 70.5469 286.021 70.2539ZM289.625 69.3105C289.598 69.6621 289.559 69.9727 289.508 70.2422C289.461 70.5117 289.393 70.7637 289.303 70.998C289.213 71.2324 289.102 71.4258 288.969 71.5781C288.84 71.7266 288.678 71.8438 288.482 71.9297C288.291 72.0117 288.068 72.0527 287.814 72.0527C287.674 72.0527 287.553 72.0312 287.451 71.9883V71.0684C287.545 71.0996 287.648 71.1152 287.762 71.1152C288.047 71.1152 288.26 70.9609 288.4 70.6523C288.541 70.3398 288.631 69.8848 288.67 69.2871L288.904 65.9062H292.895V72H291.887V66.7441H289.812L289.625 69.3105ZM295.344 72H294.336V65.9062H295.344V70.4414H295.391L298.438 65.9062H299.445V72H298.438V67.4648H298.391L295.344 72ZM304.889 72V69.2578H301.883V72H300.875V65.9062H301.883V68.4199H304.889V65.9062H305.896V72H304.889ZM312.377 67.7812H311.369C311.275 67.4648 311.098 67.2051 310.836 67.002C310.574 66.7988 310.24 66.6973 309.834 66.6973C309.303 66.6973 308.877 66.9043 308.557 67.3184C308.236 67.7285 308.076 68.2734 308.076 68.9531C308.076 69.6445 308.236 70.1934 308.557 70.5996C308.881 71.0059 309.311 71.209 309.846 71.209C310.244 71.209 310.574 71.1152 310.836 70.9277C311.102 70.7402 311.283 70.4766 311.381 70.1367H312.389C312.287 70.7227 312.006 71.1973 311.545 71.5605C311.084 71.9238 310.516 72.1055 309.84 72.1055C308.988 72.1055 308.309 71.8223 307.801 71.2559C307.293 70.6855 307.039 69.918 307.039 68.9531C307.039 68.0039 307.293 67.2422 307.801 66.668C308.309 66.0898 308.984 65.8008 309.828 65.8008C310.527 65.8008 311.102 65.9922 311.551 66.375C312.004 66.7578 312.279 67.2266 312.377 67.7812ZM315.518 68.7891L318.447 72H317.135L314.504 69.0703H314.457V72H313.449V65.9062H314.457V68.6016H314.504L317.105 65.9062H318.365L315.518 68.7891ZM320.305 72H319.297V65.9062H320.305V70.4414H320.352L323.398 65.9062H324.406V72H323.398V67.4648H323.352L320.305 72ZM326.844 72H325.836V65.9062H326.844V70.4414H326.891L329.938 65.9062H330.945V72H329.938V67.4648H329.891L326.844 72ZM326.615 63.2695H327.365C327.365 63.6172 327.469 63.9062 327.676 64.1367C327.887 64.3672 328.162 64.4824 328.502 64.4824C328.842 64.4824 329.115 64.3672 329.322 64.1367C329.533 63.9062 329.639 63.6172 329.639 63.2695H330.389C330.389 63.8086 330.213 64.2461 329.861 64.582C329.514 64.918 329.061 65.0859 328.502 65.0859C327.943 65.0859 327.488 64.918 327.137 64.582C326.789 64.2461 326.615 63.8086 326.615 63.2695ZM296.527 78.8008C297.309 78.8008 297.938 79.0879 298.414 79.6621C298.895 80.2363 299.135 81 299.135 81.9531C299.135 82.9023 298.896 83.666 298.42 84.2441C297.943 84.8184 297.32 85.1055 296.551 85.1055C296.121 85.1055 295.736 85.0078 295.396 84.8125C295.057 84.6172 294.795 84.3496 294.611 84.0098H294.588V87.0332H293.568V78.9062H294.535V79.9375H294.559C294.75 79.5859 295.018 79.3086 295.361 79.1055C295.705 78.9023 296.094 78.8008 296.527 78.8008ZM296.328 84.209C296.871 84.209 297.301 84.0059 297.617 83.5996C297.934 83.1934 298.092 82.6445 298.092 81.9531C298.092 81.2617 297.934 80.7129 297.617 80.3066C297.301 79.9004 296.871 79.6973 296.328 79.6973C295.805 79.6973 295.383 79.9043 295.062 80.3184C294.742 80.7324 294.582 81.2773 294.582 81.9531C294.582 82.6328 294.742 83.1797 295.062 83.5938C295.383 84.0039 295.805 84.209 296.328 84.209ZM304.045 82.0469H300.201V81.0977H304.045V82.0469ZM309.424 85V82.2578H306.418V85H305.41V78.9062H306.418V81.4199H309.424V78.9062H310.432V85H309.424Z" fill="#C31844"/>
<path d="M182.488 152.051V153H177.25V144.545H182.488V145.494H178.305V148.207H182.271V149.145H178.305V152.051H182.488ZM187.756 147.744H184.844V153H183.836V146.906H187.756V147.744ZM191.16 153.105C190.309 153.105 189.625 152.822 189.109 152.256C188.594 151.686 188.336 150.918 188.336 149.953C188.336 148.988 188.594 148.223 189.109 147.656C189.625 147.086 190.309 146.801 191.16 146.801C192.008 146.801 192.689 147.086 193.205 147.656C193.721 148.223 193.979 148.988 193.979 149.953C193.979 150.914 193.721 151.68 193.205 152.25C192.689 152.82 192.008 153.105 191.16 153.105ZM189.854 151.611C190.178 152.01 190.613 152.209 191.16 152.209C191.707 152.209 192.141 152.012 192.461 151.617C192.781 151.219 192.941 150.664 192.941 149.953C192.941 149.242 192.781 148.689 192.461 148.295C192.141 147.896 191.707 147.697 191.16 147.697C190.613 147.697 190.178 147.896 189.854 148.295C189.533 148.693 189.373 149.246 189.373 149.953C189.373 150.66 189.533 151.213 189.854 151.611ZM198.074 146.801C198.855 146.801 199.484 147.088 199.961 147.662C200.441 148.236 200.682 149 200.682 149.953C200.682 150.902 200.443 151.666 199.967 152.244C199.49 152.818 198.867 153.105 198.098 153.105C197.668 153.105 197.283 153.008 196.943 152.812C196.604 152.617 196.342 152.35 196.158 152.01H196.135V155.033H195.115V146.906H196.082V147.938H196.105C196.297 147.586 196.564 147.309 196.908 147.105C197.252 146.902 197.641 146.801 198.074 146.801ZM197.875 152.209C198.418 152.209 198.848 152.006 199.164 151.6C199.48 151.193 199.639 150.645 199.639 149.953C199.639 149.262 199.48 148.713 199.164 148.307C198.848 147.9 198.418 147.697 197.875 147.697C197.352 147.697 196.93 147.904 196.609 148.318C196.289 148.732 196.129 149.277 196.129 149.953C196.129 150.633 196.289 151.18 196.609 151.594C196.93 152.004 197.352 152.209 197.875 152.209ZM203.207 150.311C203.18 150.662 203.141 150.973 203.09 151.242C203.043 151.512 202.975 151.764 202.885 151.998C202.795 152.232 202.684 152.426 202.551 152.578C202.422 152.727 202.26 152.844 202.064 152.93C201.873 153.012 201.65 153.053 201.396 153.053C201.256 153.053 201.135 153.031 201.033 152.988V152.068C201.127 152.1 201.23 152.115 201.344 152.115C201.629 152.115 201.842 151.961 201.982 151.652C202.123 151.34 202.213 150.885 202.252 150.287L202.486 146.906H206.477V153H205.469V147.744H203.395L203.207 150.311ZM213.133 153V146.906H214.141V153H213.133ZM210.062 149.689H208.926V152.162H210.062C210.457 152.162 210.771 152.049 211.006 151.822C211.244 151.596 211.363 151.297 211.363 150.926C211.363 150.551 211.244 150.252 211.006 150.029C210.771 149.803 210.457 149.689 210.062 149.689ZM207.918 153V146.906H208.926V148.852H210.08C210.779 148.852 211.336 149.039 211.75 149.414C212.164 149.789 212.371 150.293 212.371 150.926C212.371 151.559 212.164 152.062 211.75 152.438C211.336 152.812 210.779 153 210.08 153H207.918ZM217.639 149.789L220.568 153H219.256L216.625 150.07H216.578V153H215.57V146.906H216.578V149.602H216.625L219.227 146.906H220.486L217.639 149.789ZM226.346 148.781H225.338C225.244 148.465 225.066 148.205 224.805 148.002C224.543 147.799 224.209 147.697 223.803 147.697C223.271 147.697 222.846 147.904 222.525 148.318C222.205 148.729 222.045 149.273 222.045 149.953C222.045 150.645 222.205 151.193 222.525 151.6C222.85 152.006 223.279 152.209 223.814 152.209C224.213 152.209 224.543 152.115 224.805 151.928C225.07 151.74 225.252 151.477 225.35 151.137H226.357C226.256 151.723 225.975 152.197 225.514 152.561C225.053 152.924 224.484 153.105 223.809 153.105C222.957 153.105 222.277 152.822 221.77 152.256C221.262 151.686 221.008 150.918 221.008 149.953C221.008 149.004 221.262 148.242 221.77 147.668C222.277 147.09 222.953 146.801 223.797 146.801C224.496 146.801 225.07 146.992 225.52 147.375C225.973 147.758 226.248 148.227 226.346 148.781ZM229.486 149.789L232.416 153H231.104L228.473 150.07H228.426V153H227.418V146.906H228.426V149.602H228.473L231.074 146.906H232.334L229.486 149.789ZM234.273 153H233.266V146.906H234.273V151.441H234.32L237.367 146.906H238.375V153H237.367V148.465H237.32L234.273 153ZM240.812 153H239.805V146.906H240.812V151.441H240.859L243.906 146.906H244.914V153H243.906V148.465H243.859L240.812 153ZM240.584 144.27H241.334C241.334 144.617 241.438 144.906 241.645 145.137C241.855 145.367 242.131 145.482 242.471 145.482C242.811 145.482 243.084 145.367 243.291 145.137C243.502 144.906 243.607 144.617 243.607 144.27H244.357C244.357 144.809 244.182 145.246 243.83 145.582C243.482 145.918 243.029 146.086 242.471 146.086C241.912 146.086 241.457 145.918 241.105 145.582C240.758 145.246 240.584 144.809 240.584 144.27ZM205.527 159.801C206.309 159.801 206.938 160.088 207.414 160.662C207.895 161.236 208.135 162 208.135 162.953C208.135 163.902 207.896 164.666 207.42 165.244C206.943 165.818 206.32 166.105 205.551 166.105C205.121 166.105 204.736 166.008 204.396 165.812C204.057 165.617 203.795 165.35 203.611 165.01H203.588V168.033H202.568V159.906H203.535V160.938H203.559C203.75 160.586 204.018 160.309 204.361 160.105C204.705 159.902 205.094 159.801 205.527 159.801ZM205.328 165.209C205.871 165.209 206.301 165.006 206.617 164.6C206.934 164.193 207.092 163.645 207.092 162.953C207.092 162.262 206.934 161.713 206.617 161.307C206.301 160.9 205.871 160.697 205.328 160.697C204.805 160.697 204.383 160.904 204.062 161.318C203.742 161.732 203.582 162.277 203.582 162.953C203.582 163.633 203.742 164.18 204.062 164.594C204.383 165.004 204.805 165.209 205.328 165.209ZM213.045 163.047H209.201V162.098H213.045V163.047ZM218.424 166V163.258H215.418V166H214.41V159.906H215.418V162.42H218.424V159.906H219.432V166H218.424Z" fill="#C31844"/>
<path d="M176.711 31.1504V30.2129H177.854C178.369 30.2129 178.791 30.0723 179.119 29.791C179.447 29.5059 179.611 29.1426 179.611 28.7012C179.611 28.2637 179.461 27.918 179.16 27.6641C178.859 27.4102 178.449 27.2832 177.93 27.2832C177.406 27.2832 176.982 27.4102 176.658 27.6641C176.338 27.918 176.156 28.2676 176.113 28.7129H175.088C175.143 27.9785 175.426 27.4004 175.938 26.9785C176.453 26.5566 177.131 26.3457 177.971 26.3457C178.76 26.3457 179.408 26.5586 179.916 26.9844C180.428 27.4062 180.684 27.9473 180.684 28.6074C180.684 29.0762 180.537 29.4922 180.244 29.8555C179.955 30.2188 179.578 30.457 179.113 30.5703V30.6172C179.676 30.6914 180.119 30.918 180.443 31.2969C180.768 31.6719 180.93 32.1465 180.93 32.7207C180.93 33.416 180.643 34.0039 180.068 34.4844C179.494 34.9609 178.789 35.1992 177.953 35.1992C177.062 35.1992 176.334 34.9805 175.768 34.543C175.201 34.1016 174.898 33.5195 174.859 32.7969H175.879C175.926 33.2422 176.135 33.5977 176.506 33.8633C176.881 34.1289 177.359 34.2617 177.941 34.2617C178.508 34.2617 178.967 34.1172 179.318 33.8281C179.67 33.5352 179.846 33.1562 179.846 32.6914C179.846 32.207 179.674 31.8301 179.33 31.5605C178.986 31.2871 178.51 31.1504 177.9 31.1504H176.711ZM184.533 29.6855C184.061 29.6855 183.668 29.8496 183.355 30.1777C183.047 30.502 182.877 30.9199 182.846 31.4316H186.156C186.145 30.916 185.99 30.4961 185.693 30.1719C185.396 29.8477 185.01 29.6855 184.533 29.6855ZM186.133 33.2539H187.135C187.045 33.793 186.764 34.2363 186.291 34.584C185.822 34.9316 185.258 35.1055 184.598 35.1055C183.727 35.1055 183.041 34.8242 182.541 34.2617C182.041 33.6992 181.791 32.9375 181.791 31.9766C181.791 31.0234 182.041 30.2559 182.541 29.6738C183.045 29.0918 183.715 28.8008 184.551 28.8008C185.371 28.8008 186.02 29.0762 186.496 29.627C186.973 30.1777 187.211 30.916 187.211 31.8418V32.2285H182.84V32.2871C182.84 32.873 183 33.3418 183.32 33.6934C183.641 34.0449 184.074 34.2207 184.621 34.2207C185.004 34.2207 185.33 34.1328 185.6 33.957C185.869 33.7812 186.047 33.5469 186.133 33.2539ZM191.307 28.8008C192.088 28.8008 192.717 29.0879 193.193 29.6621C193.674 30.2363 193.914 31 193.914 31.9531C193.914 32.9023 193.676 33.666 193.199 34.2441C192.723 34.8184 192.1 35.1055 191.33 35.1055C190.9 35.1055 190.516 35.0078 190.176 34.8125C189.836 34.6172 189.574 34.3496 189.391 34.0098H189.367V37.0332H188.348V28.9062H189.314V29.9375H189.338C189.529 29.5859 189.797 29.3086 190.141 29.1055C190.484 28.9023 190.873 28.8008 191.307 28.8008ZM191.107 34.209C191.65 34.209 192.08 34.0059 192.396 33.5996C192.713 33.1934 192.871 32.6445 192.871 31.9531C192.871 31.2617 192.713 30.7129 192.396 30.3066C192.08 29.9004 191.65 29.6973 191.107 29.6973C190.584 29.6973 190.162 29.9043 189.842 30.3184C189.521 30.7324 189.361 31.2773 189.361 31.9531C189.361 32.6328 189.521 33.1797 189.842 33.5938C190.162 34.0039 190.584 34.209 191.107 34.209ZM199.059 35V32.2578H196.053V35H195.045V28.9062H196.053V31.4199H199.059V28.9062H200.066V35H199.059ZM204.033 35.1055C203.182 35.1055 202.498 34.8223 201.982 34.2559C201.467 33.6855 201.209 32.918 201.209 31.9531C201.209 30.9883 201.467 30.2227 201.982 29.6562C202.498 29.0859 203.182 28.8008 204.033 28.8008C204.881 28.8008 205.562 29.0859 206.078 29.6562C206.594 30.2227 206.852 30.9883 206.852 31.9531C206.852 32.9141 206.594 33.6797 206.078 34.25C205.562 34.8203 204.881 35.1055 204.033 35.1055ZM202.727 33.6113C203.051 34.0098 203.486 34.209 204.033 34.209C204.58 34.209 205.014 34.0117 205.334 33.6172C205.654 33.2188 205.814 32.6641 205.814 31.9531C205.814 31.2422 205.654 30.6895 205.334 30.2949C205.014 29.8965 204.58 29.6973 204.033 29.6973C203.486 29.6973 203.051 29.8965 202.727 30.2949C202.406 30.6934 202.246 31.2461 202.246 31.9531C202.246 32.6602 202.406 33.2129 202.727 33.6113ZM211.902 29.7441H208.99V35H207.982V28.9062H211.902V29.7441ZM215.975 28.8008C216.756 28.8008 217.385 29.0879 217.861 29.6621C218.342 30.2363 218.582 31 218.582 31.9531C218.582 32.9023 218.344 33.666 217.867 34.2441C217.391 34.8184 216.768 35.1055 215.998 35.1055C215.568 35.1055 215.184 35.0078 214.844 34.8125C214.504 34.6172 214.242 34.3496 214.059 34.0098H214.035V37.0332H213.016V28.9062H213.982V29.9375H214.006C214.197 29.5859 214.465 29.3086 214.809 29.1055C215.152 28.9023 215.541 28.8008 215.975 28.8008ZM215.775 34.209C216.318 34.209 216.748 34.0059 217.064 33.5996C217.381 33.1934 217.539 32.6445 217.539 31.9531C217.539 31.2617 217.381 30.7129 217.064 30.3066C216.748 29.9004 216.318 29.6973 215.775 29.6973C215.252 29.6973 214.83 29.9043 214.51 30.3184C214.189 30.7324 214.029 31.2773 214.029 31.9531C214.029 32.6328 214.189 33.1797 214.51 33.5938C214.83 34.0039 215.252 34.209 215.775 34.209ZM221.729 34.2383C222.209 34.2383 222.611 34.0898 222.936 33.793C223.264 33.4922 223.428 33.123 223.428 32.6855V32.1875L221.799 32.2871C221.389 32.3145 221.07 32.4141 220.844 32.5859C220.621 32.7578 220.51 32.9883 220.51 33.2773C220.51 33.5664 220.621 33.7988 220.844 33.9746C221.066 34.1504 221.361 34.2383 221.729 34.2383ZM221.5 35.1055C220.895 35.1055 220.404 34.9375 220.029 34.6016C219.658 34.2656 219.473 33.8242 219.473 33.2773C219.473 32.7539 219.664 32.3359 220.047 32.0234C220.434 31.7109 220.979 31.5352 221.682 31.4961L223.428 31.3965V30.8867C223.428 30.5156 223.311 30.2246 223.076 30.0137C222.842 29.8027 222.514 29.6973 222.092 29.6973C221.705 29.6973 221.391 29.7832 221.148 29.9551C220.906 30.123 220.752 30.3594 220.686 30.6641H219.701C219.736 30.1211 219.971 29.6758 220.404 29.3281C220.842 28.9766 221.412 28.8008 222.115 28.8008C222.83 28.8008 223.396 28.9805 223.814 29.3398C224.236 29.6992 224.447 30.1816 224.447 30.7871V35H223.48V33.9512H223.457C223.273 34.2988 223.004 34.5781 222.648 34.7891C222.293 35 221.91 35.1055 221.5 35.1055ZM229.896 34.1621V29.7441H227.611L227.424 32.3105C227.365 33.1465 227.199 33.748 226.926 34.1152V34.1621H229.896ZM226.199 36.6113H225.25V34.1621H225.76C226.17 33.8926 226.41 33.2676 226.48 32.2871L226.715 28.9062H230.91V34.1621H231.877V36.6113H230.928V35H226.199V36.6113ZM237.836 30.7812H236.828C236.734 30.4648 236.557 30.2051 236.295 30.002C236.033 29.7988 235.699 29.6973 235.293 29.6973C234.762 29.6973 234.336 29.9043 234.016 30.3184C233.695 30.7285 233.535 31.2734 233.535 31.9531C233.535 32.6445 233.695 33.1934 234.016 33.5996C234.34 34.0059 234.77 34.209 235.305 34.209C235.703 34.209 236.033 34.1152 236.295 33.9277C236.561 33.7402 236.742 33.4766 236.84 33.1367H237.848C237.746 33.7227 237.465 34.1973 237.004 34.5605C236.543 34.9238 235.975 35.1055 235.299 35.1055C234.447 35.1055 233.768 34.8223 233.26 34.2559C232.752 33.6855 232.498 32.918 232.498 31.9531C232.498 31.0039 232.752 30.2422 233.26 29.668C233.768 29.0898 234.443 28.8008 235.287 28.8008C235.986 28.8008 236.561 28.9922 237.01 29.375C237.463 29.7578 237.738 30.2266 237.836 30.7812ZM240.977 31.7891L243.906 35H242.594L239.963 32.0703H239.916V35H238.908V28.9062H239.916V31.6016H239.963L242.564 28.9062H243.824L240.977 31.7891ZM245.764 35H244.756V28.9062H245.764V33.4414H245.811L248.857 28.9062H249.865V35H248.857V30.4648H248.811L245.764 35ZM252.303 35H251.295V28.9062H252.303V33.4414H252.35L255.396 28.9062H256.404V35H255.396V30.4648H255.35L252.303 35ZM252.074 26.2695H252.824C252.824 26.6172 252.928 26.9062 253.135 27.1367C253.346 27.3672 253.621 27.4824 253.961 27.4824C254.301 27.4824 254.574 27.3672 254.781 27.1367C254.992 26.9062 255.098 26.6172 255.098 26.2695H255.848C255.848 26.8086 255.672 27.2461 255.32 27.582C254.973 27.918 254.52 28.0859 253.961 28.0859C253.402 28.0859 252.947 27.918 252.596 27.582C252.248 27.2461 252.074 26.8086 252.074 26.2695ZM211.527 41.8008C212.309 41.8008 212.938 42.0879 213.414 42.6621C213.895 43.2363 214.135 44 214.135 44.9531C214.135 45.9023 213.896 46.666 213.42 47.2441C212.943 47.8184 212.32 48.1055 211.551 48.1055C211.121 48.1055 210.736 48.0078 210.396 47.8125C210.057 47.6172 209.795 47.3496 209.611 47.0098H209.588V50.0332H208.568V41.9062H209.535V42.9375H209.559C209.75 42.5859 210.018 42.3086 210.361 42.1055C210.705 41.9023 211.094 41.8008 211.527 41.8008ZM211.328 47.209C211.871 47.209 212.301 47.0059 212.617 46.5996C212.934 46.1934 213.092 45.6445 213.092 44.9531C213.092 44.2617 212.934 43.7129 212.617 43.3066C212.301 42.9004 211.871 42.6973 211.328 42.6973C210.805 42.6973 210.383 42.9043 210.062 43.3184C209.742 43.7324 209.582 44.2773 209.582 44.9531C209.582 45.6328 209.742 46.1797 210.062 46.5938C210.383 47.0039 210.805 47.209 211.328 47.209ZM219.045 45.0469H215.201V44.0977H219.045V45.0469ZM224.424 48V45.2578H221.418V48H220.41V41.9062H221.418V44.4199H224.424V41.9062H225.432V48H224.424Z" fill="#C31844"/>
<path d="M107.129 8.58789L111.365 13H109.918L106.016 8.89258H105.969V13H104.914V4.54492H105.969V8.44141H106.016L109.648 4.54492H110.973L107.129 8.58789ZM114.055 12.2383C114.535 12.2383 114.938 12.0898 115.262 11.793C115.59 11.4922 115.754 11.123 115.754 10.6855V10.1875L114.125 10.2871C113.715 10.3145 113.396 10.4141 113.17 10.5859C112.947 10.7578 112.836 10.9883 112.836 11.2773C112.836 11.5664 112.947 11.7988 113.17 11.9746C113.393 12.1504 113.688 12.2383 114.055 12.2383ZM113.826 13.1055C113.221 13.1055 112.73 12.9375 112.355 12.6016C111.984 12.2656 111.799 11.8242 111.799 11.2773C111.799 10.7539 111.99 10.3359 112.373 10.0234C112.76 9.71094 113.305 9.53516 114.008 9.49609L115.754 9.39648V8.88672C115.754 8.51562 115.637 8.22461 115.402 8.01367C115.168 7.80273 114.84 7.69727 114.418 7.69727C114.031 7.69727 113.717 7.7832 113.475 7.95508C113.232 8.12305 113.078 8.35938 113.012 8.66406H112.027C112.062 8.12109 112.297 7.67578 112.73 7.32812C113.168 6.97656 113.738 6.80078 114.441 6.80078C115.156 6.80078 115.723 6.98047 116.141 7.33984C116.562 7.69922 116.773 8.18164 116.773 8.78711V13H115.807V11.9512H115.783C115.6 12.2988 115.33 12.5781 114.975 12.7891C114.619 13 114.236 13.1055 113.826 13.1055ZM122.1 7.74414H119.188V13H118.18V6.90625H122.1V7.74414ZM124.93 12.2383C125.41 12.2383 125.812 12.0898 126.137 11.793C126.465 11.4922 126.629 11.123 126.629 10.6855V10.1875L125 10.2871C124.59 10.3145 124.271 10.4141 124.045 10.5859C123.822 10.7578 123.711 10.9883 123.711 11.2773C123.711 11.5664 123.822 11.7988 124.045 11.9746C124.268 12.1504 124.562 12.2383 124.93 12.2383ZM124.701 13.1055C124.096 13.1055 123.605 12.9375 123.23 12.6016C122.859 12.2656 122.674 11.8242 122.674 11.2773C122.674 10.7539 122.865 10.3359 123.248 10.0234C123.635 9.71094 124.18 9.53516 124.883 9.49609L126.629 9.39648V8.88672C126.629 8.51562 126.512 8.22461 126.277 8.01367C126.043 7.80273 125.715 7.69727 125.293 7.69727C124.906 7.69727 124.592 7.7832 124.35 7.95508C124.107 8.12305 123.953 8.35938 123.887 8.66406H122.902C122.938 8.12109 123.172 7.67578 123.605 7.32812C124.043 6.97656 124.613 6.80078 125.316 6.80078C126.031 6.80078 126.598 6.98047 127.016 7.33984C127.438 7.69922 127.648 8.18164 127.648 8.78711V13H126.682V11.9512H126.658C126.475 12.2988 126.205 12.5781 125.85 12.7891C125.494 13 125.111 13.1055 124.701 13.1055ZM130.684 10.3105C130.656 10.6621 130.617 10.9727 130.566 11.2422C130.52 11.5117 130.451 11.7637 130.361 11.998C130.271 12.2324 130.16 12.4258 130.027 12.5781C129.898 12.7266 129.736 12.8438 129.541 12.9297C129.35 13.0117 129.127 13.0527 128.873 13.0527C128.732 13.0527 128.611 13.0312 128.51 12.9883V12.0684C128.604 12.0996 128.707 12.1152 128.82 12.1152C129.105 12.1152 129.318 11.9609 129.459 11.6523C129.6 11.3398 129.689 10.8848 129.729 10.2871L129.963 6.90625H133.953V13H132.945V7.74414H130.871L130.684 10.3105ZM137.539 9.68945H136.402V12.1621H137.539C137.934 12.1621 138.248 12.0488 138.482 11.8223C138.721 11.5957 138.84 11.2969 138.84 10.9258C138.84 10.5508 138.721 10.252 138.482 10.0293C138.248 9.80273 137.934 9.68945 137.539 9.68945ZM135.395 13V6.90625H136.402V8.85156H137.557C138.256 8.85156 138.812 9.03906 139.227 9.41406C139.641 9.78906 139.848 10.293 139.848 10.9258C139.848 11.5586 139.641 12.0625 139.227 12.4375C138.812 12.8125 138.256 13 137.557 13H135.395ZM144.975 13V10.2578H141.969V13H140.961V6.90625H141.969V9.41992H144.975V6.90625H145.982V13H144.975ZM148.426 13H147.418V6.90625H148.426V11.4414H148.473L151.52 6.90625H152.527V13H151.52V8.46484H151.473L148.426 13ZM159.84 14.6113H158.891V13H153.957V6.90625H154.965V12.1621H157.859V6.90625H158.867V12.1621H159.84V14.6113ZM162.822 9.78906L165.752 13H164.439L161.809 10.0703H161.762V13H160.754V6.90625H161.762V9.60156H161.809L164.41 6.90625H165.67L162.822 9.78906ZM167.609 13H166.602V6.90625H167.609V11.4414H167.656L170.703 6.90625H171.711V13H170.703V8.46484H170.656L167.609 13ZM174.148 13H173.141V6.90625H174.148V11.4414H174.195L177.242 6.90625H178.25V13H177.242V8.46484H177.195L174.148 13ZM173.92 4.26953H174.67C174.67 4.61719 174.773 4.90625 174.98 5.13672C175.191 5.36719 175.467 5.48242 175.807 5.48242C176.146 5.48242 176.42 5.36719 176.627 5.13672C176.838 4.90625 176.943 4.61719 176.943 4.26953H177.693C177.693 4.80859 177.518 5.24609 177.166 5.58203C176.818 5.91797 176.365 6.08594 175.807 6.08594C175.248 6.08594 174.793 5.91797 174.441 5.58203C174.094 5.24609 173.92 4.80859 173.92 4.26953ZM136.027 19.8008C136.809 19.8008 137.438 20.0879 137.914 20.6621C138.395 21.2363 138.635 22 138.635 22.9531C138.635 23.9023 138.396 24.666 137.92 25.2441C137.443 25.8184 136.82 26.1055 136.051 26.1055C135.621 26.1055 135.236 26.0078 134.896 25.8125C134.557 25.6172 134.295 25.3496 134.111 25.0098H134.088V28.0332H133.068V19.9062H134.035V20.9375H134.059C134.25 20.5859 134.518 20.3086 134.861 20.1055C135.205 19.9023 135.594 19.8008 136.027 19.8008ZM135.828 25.209C136.371 25.209 136.801 25.0059 137.117 24.5996C137.434 24.1934 137.592 23.6445 137.592 22.9531C137.592 22.2617 137.434 21.7129 137.117 21.3066C136.801 20.9004 136.371 20.6973 135.828 20.6973C135.305 20.6973 134.883 20.9043 134.562 21.3184C134.242 21.7324 134.082 22.2773 134.082 22.9531C134.082 23.6328 134.242 24.1797 134.562 24.5938C134.883 25.0039 135.305 25.209 135.828 25.209ZM143.545 23.0469H139.701V22.0977H143.545V23.0469ZM148.924 26V23.2578H145.918V26H144.91V19.9062H145.918V22.4199H148.924V19.9062H149.932V26H148.924Z" fill="#C31844"/>
<path d="M6.53906 11L5.68945 8.58008H2.32617L1.47656 11H0.369141L3.48633 2.54492H4.5293L7.64648 11H6.53906ZM3.99023 3.82812L2.63672 7.68359H5.37891L4.02539 3.82812H3.99023ZM10.5996 11.1055C9.92773 11.1055 9.37109 10.9531 8.92969 10.6484C8.48828 10.3398 8.24219 9.92969 8.19141 9.41797H9.22266C9.28125 9.68359 9.42969 9.89062 9.66797 10.0391C9.91016 10.1875 10.2207 10.2617 10.5996 10.2617C11.0332 10.2617 11.3711 10.1699 11.6133 9.98633C11.8555 9.79883 11.9766 9.55273 11.9766 9.24805C11.9766 8.9082 11.8633 8.6582 11.6367 8.49805C11.4102 8.33398 11.0645 8.25195 10.5996 8.25195H9.68555V7.41992H10.5996C11.3809 7.41992 11.7715 7.12305 11.7715 6.5293C11.7715 6.26367 11.6738 6.05078 11.4785 5.89062C11.2871 5.73047 11.002 5.65039 10.623 5.65039C10.2637 5.65039 9.9668 5.72266 9.73242 5.86719C9.49805 6.01172 9.35938 6.20508 9.31641 6.44727H8.32617C8.39258 5.94336 8.63086 5.54297 9.04102 5.24609C9.45117 4.94922 9.97852 4.80078 10.623 4.80078C11.3027 4.80078 11.8301 4.95117 12.2051 5.25195C12.5801 5.54883 12.7676 5.94727 12.7676 6.44727C12.7676 6.75977 12.6738 7.03906 12.4863 7.28516C12.3027 7.53125 12.0605 7.68945 11.7598 7.75977V7.80664C12.1543 7.89258 12.4551 8.05859 12.6621 8.30469C12.873 8.54688 12.9785 8.8457 12.9785 9.20117C12.9785 9.77148 12.7598 10.2324 12.3223 10.584C11.8887 10.9316 11.3145 11.1055 10.5996 11.1055ZM16.6758 11.1055C15.8242 11.1055 15.1406 10.8223 14.625 10.2559C14.1094 9.68555 13.8516 8.91797 13.8516 7.95312C13.8516 6.98828 14.1094 6.22266 14.625 5.65625C15.1406 5.08594 15.8242 4.80078 16.6758 4.80078C17.5234 4.80078 18.2051 5.08594 18.7207 5.65625C19.2363 6.22266 19.4941 6.98828 19.4941 7.95312C19.4941 8.91406 19.2363 9.67969 18.7207 10.25C18.2051 10.8203 17.5234 11.1055 16.6758 11.1055ZM15.3691 9.61133C15.6934 10.0098 16.1289 10.209 16.6758 10.209C17.2227 10.209 17.6562 10.0117 17.9766 9.61719C18.2969 9.21875 18.457 8.66406 18.457 7.95312C18.457 7.24219 18.2969 6.68945 17.9766 6.29492C17.6562 5.89648 17.2227 5.69727 16.6758 5.69727C16.1289 5.69727 15.6934 5.89648 15.3691 6.29492C15.0488 6.69336 14.8887 7.24609 14.8887 7.95312C14.8887 8.66016 15.0488 9.21289 15.3691 9.61133ZM23.0918 5.73242H21.6328V7.4375H22.9395C23.6973 7.4375 24.0762 7.14844 24.0762 6.57031C24.0762 6.30078 23.9922 6.09375 23.8242 5.94922C23.6562 5.80469 23.4121 5.73242 23.0918 5.73242ZM23.0215 8.25781H21.6328V10.1738H23.2031C23.5703 10.1738 23.8516 10.0938 24.0469 9.93359C24.2422 9.76953 24.3398 9.5332 24.3398 9.22461C24.3398 8.58008 23.9004 8.25781 23.0215 8.25781ZM20.625 11V4.90625H23.2324C23.8027 4.90625 24.252 5.04492 24.5801 5.32227C24.9082 5.59961 25.0723 5.98047 25.0723 6.46484C25.0723 6.77344 24.9746 7.05469 24.7793 7.30859C24.5879 7.5625 24.3516 7.71875 24.0703 7.77734V7.82422C24.4531 7.87891 24.7598 8.03516 24.9902 8.29297C25.2246 8.55078 25.3418 8.86914 25.3418 9.24805C25.3418 9.78711 25.1543 10.2148 24.7793 10.5312C24.4082 10.8438 23.8984 11 23.25 11H20.625ZM31.5527 6.78125H30.5449C30.4512 6.46484 30.2734 6.20508 30.0117 6.00195C29.75 5.79883 29.416 5.69727 29.0098 5.69727C28.4785 5.69727 28.0527 5.9043 27.7324 6.31836C27.4121 6.72852 27.252 7.27344 27.252 7.95312C27.252 8.64453 27.4121 9.19336 27.7324 9.59961C28.0566 10.0059 28.4863 10.209 29.0215 10.209C29.4199 10.209 29.75 10.1152 30.0117 9.92773C30.2773 9.74023 30.459 9.47656 30.5566 9.13672H31.5645C31.4629 9.72266 31.1816 10.1973 30.7207 10.5605C30.2598 10.9238 29.6914 11.1055 29.0156 11.1055C28.1641 11.1055 27.4844 10.8223 26.9766 10.2559C26.4688 9.68555 26.2148 8.91797 26.2148 7.95312C26.2148 7.00391 26.4688 6.24219 26.9766 5.66797C27.4844 5.08984 28.1602 4.80078 29.0039 4.80078C29.7031 4.80078 30.2773 4.99219 30.7266 5.375C31.1797 5.75781 31.4551 6.22656 31.5527 6.78125ZM34.6934 7.78906L37.623 11H36.3105L33.6797 8.07031H33.6328V11H32.625V4.90625H33.6328V7.60156H33.6797L36.2812 4.90625H37.541L34.6934 7.78906ZM39.4805 11H38.4727V4.90625H39.4805V9.44141H39.5273L42.5742 4.90625H43.582V11H42.5742V6.46484H42.5273L39.4805 11ZM46.0195 11H45.0117V4.90625H46.0195V9.44141H46.0664L49.1133 4.90625H50.1211V11H49.1133V6.46484H49.0664L46.0195 11ZM45.791 2.26953H46.541C46.541 2.61719 46.6445 2.90625 46.8516 3.13672C47.0625 3.36719 47.3379 3.48242 47.6777 3.48242C48.0176 3.48242 48.291 3.36719 48.498 3.13672C48.709 2.90625 48.8145 2.61719 48.8145 2.26953H49.5645C49.5645 2.80859 49.3887 3.24609 49.0371 3.58203C48.6895 3.91797 48.2363 4.08594 47.6777 4.08594C47.1191 4.08594 46.6641 3.91797 46.3125 3.58203C45.9648 3.24609 45.791 2.80859 45.791 2.26953ZM20.0273 17.8008C20.8086 17.8008 21.4375 18.0879 21.9141 18.6621C22.3945 19.2363 22.6348 20 22.6348 20.9531C22.6348 21.9023 22.3965 22.666 21.9199 23.2441C21.4434 23.8184 20.8203 24.1055 20.0508 24.1055C19.6211 24.1055 19.2363 24.0078 18.8965 23.8125C18.5566 23.6172 18.2949 23.3496 18.1113 23.0098H18.0879V26.0332H17.0684V17.9062H18.0352V18.9375H18.0586C18.25 18.5859 18.5176 18.3086 18.8613 18.1055C19.2051 17.9023 19.5938 17.8008 20.0273 17.8008ZM19.8281 23.209C20.3711 23.209 20.8008 23.0059 21.1172 22.5996C21.4336 22.1934 21.5918 21.6445 21.5918 20.9531C21.5918 20.2617 21.4336 19.7129 21.1172 19.3066C20.8008 18.9004 20.3711 18.6973 19.8281 18.6973C19.3047 18.6973 18.8828 18.9043 18.5625 19.3184C18.2422 19.7324 18.082 20.2773 18.082 20.9531C18.082 21.6328 18.2422 22.1797 18.5625 22.5938C18.8828 23.0039 19.3047 23.209 19.8281 23.209ZM27.5449 21.0469H23.7012V20.0977H27.5449V21.0469ZM32.9238 24V21.2578H29.918V24H28.9102V17.9062H29.918V20.4199H32.9238V17.9062H33.9316V24H32.9238Z" fill="#C31844"/>
</svg>
