<svg width="303" height="306" viewBox="0 0 303 306" fill="none" xmlns="http://www.w3.org/2000/svg">
<path d="M242.838 14.582C243.537 13.7969 244.486 13.4043 245.686 13.4043C246.885 13.4043 247.834 13.7969 248.533 14.582C249.232 15.3672 249.582 16.4316 249.582 17.7754C249.582 19.1191 249.232 20.1836 248.533 20.9688C247.834 21.75 246.885 22.1406 245.686 22.1406C244.486 22.1406 243.537 21.75 242.838 20.9688C242.139 20.1836 241.789 19.1191 241.789 17.7754C241.789 16.4316 242.139 15.3672 242.838 14.582ZM247.736 15.2969C247.232 14.6836 246.549 14.377 245.686 14.377C244.822 14.377 244.137 14.6836 243.629 15.2969C243.125 15.9062 242.873 16.7324 242.873 17.7754C242.873 18.8145 243.125 19.6406 243.629 20.2539C244.137 20.8633 244.822 21.168 245.686 21.168C246.549 21.168 247.232 20.8633 247.736 20.2539C248.244 19.6406 248.498 18.8145 248.498 17.7754C248.498 16.7324 248.244 15.9062 247.736 15.2969ZM253.461 22.1055C252.523 22.1055 251.812 21.7949 251.328 21.1738C250.848 20.5527 250.607 19.6387 250.607 18.4316C250.607 16.7402 250.855 15.5195 251.352 14.7695C251.852 14.0195 252.689 13.623 253.865 13.5801L254.316 13.5625C255.027 13.5273 255.557 13.418 255.904 13.2344V14.125C255.807 14.2148 255.613 14.293 255.324 14.3594C255.035 14.4258 254.715 14.4668 254.363 14.4824L253.912 14.5C253.486 14.5156 253.131 14.5742 252.846 14.6758C252.564 14.7773 252.33 14.9395 252.143 15.1621C251.959 15.3848 251.816 15.6504 251.715 15.959C251.613 16.2637 251.531 16.6543 251.469 17.1309H251.516C251.711 16.7754 251.99 16.5039 252.354 16.3164C252.721 16.1289 253.141 16.0352 253.613 16.0352C254.438 16.0352 255.092 16.3047 255.576 16.8438C256.064 17.3789 256.309 18.1016 256.309 19.0117C256.309 19.9688 256.055 20.7246 255.547 21.2793C255.039 21.8301 254.344 22.1055 253.461 22.1055ZM252.125 20.6348C252.441 21.0137 252.887 21.2031 253.461 21.2031C254.035 21.2031 254.479 21.0137 254.791 20.6348C255.107 20.252 255.266 19.7109 255.266 19.0117C255.266 18.3477 255.107 17.834 254.791 17.4707C254.479 17.1074 254.035 16.9258 253.461 16.9258C252.887 16.9258 252.441 17.1074 252.125 17.4707C251.809 17.834 251.65 18.3477 251.65 19.0117C251.65 19.7109 251.809 20.252 252.125 20.6348ZM258.84 19.3105C258.812 19.6621 258.773 19.9727 258.723 20.2422C258.676 20.5117 258.607 20.7637 258.518 20.998C258.428 21.2324 258.316 21.4258 258.184 21.5781C258.055 21.7266 257.893 21.8438 257.697 21.9297C257.506 22.0117 257.283 22.0527 257.029 22.0527C256.889 22.0527 256.768 22.0312 256.666 21.9883V21.0684C256.76 21.0996 256.863 21.1152 256.977 21.1152C257.262 21.1152 257.475 20.9609 257.615 20.6523C257.756 20.3398 257.846 19.8848 257.885 19.2871L258.119 15.9062H262.109V22H261.102V16.7441H259.027L258.84 19.3105ZM264.559 22H263.551V15.9062H264.559V20.4414H264.605L267.652 15.9062H268.66V22H267.652V17.4648H267.605L264.559 22ZM272.557 16.7324H271.098V18.4375H272.404C273.162 18.4375 273.541 18.1484 273.541 17.5703C273.541 17.3008 273.457 17.0938 273.289 16.9492C273.121 16.8047 272.877 16.7324 272.557 16.7324ZM272.486 19.2578H271.098V21.1738H272.668C273.035 21.1738 273.316 21.0938 273.512 20.9336C273.707 20.7695 273.805 20.5332 273.805 20.2246C273.805 19.5801 273.365 19.2578 272.486 19.2578ZM270.09 22V15.9062H272.697C273.268 15.9062 273.717 16.0449 274.045 16.3223C274.373 16.5996 274.537 16.9805 274.537 17.4648C274.537 17.7734 274.439 18.0547 274.244 18.3086C274.053 18.5625 273.816 18.7188 273.535 18.7773V18.8242C273.918 18.8789 274.225 19.0352 274.455 19.293C274.689 19.5508 274.807 19.8691 274.807 20.248C274.807 20.7871 274.619 21.2148 274.244 21.5312C273.873 21.8438 273.363 22 272.715 22H270.09ZM281.018 17.7812H280.01C279.916 17.4648 279.738 17.2051 279.477 17.002C279.215 16.7988 278.881 16.6973 278.475 16.6973C277.943 16.6973 277.518 16.9043 277.197 17.3184C276.877 17.7285 276.717 18.2734 276.717 18.9531C276.717 19.6445 276.877 20.1934 277.197 20.5996C277.521 21.0059 277.951 21.209 278.486 21.209C278.885 21.209 279.215 21.1152 279.477 20.9277C279.742 20.7402 279.924 20.4766 280.021 20.1367H281.029C280.928 20.7227 280.646 21.1973 280.186 21.5605C279.725 21.9238 279.156 22.1055 278.48 22.1055C277.629 22.1055 276.949 21.8223 276.441 21.2559C275.934 20.6855 275.68 19.918 275.68 18.9531C275.68 18.0039 275.934 17.2422 276.441 16.668C276.949 16.0898 277.625 15.8008 278.469 15.8008C279.168 15.8008 279.742 15.9922 280.191 16.375C280.645 16.7578 280.92 17.2266 281.018 17.7812ZM284.158 18.7891L287.088 22H285.775L283.145 19.0703H283.098V22H282.09V15.9062H283.098V18.6016H283.145L285.746 15.9062H287.006L284.158 18.7891ZM288.945 22H287.938V15.9062H288.945V20.4414H288.992L292.039 15.9062H293.047V22H292.039V17.4648H291.992L288.945 22ZM295.484 22H294.477V15.9062H295.484V20.4414H295.531L298.578 15.9062H299.586V22H298.578V17.4648H298.531L295.484 22ZM295.256 13.2695H296.006C296.006 13.6172 296.109 13.9062 296.316 14.1367C296.527 14.3672 296.803 14.4824 297.143 14.4824C297.482 14.4824 297.756 14.3672 297.963 14.1367C298.174 13.9062 298.279 13.6172 298.279 13.2695H299.029C299.029 13.8086 298.854 14.2461 298.502 14.582C298.154 14.918 297.701 15.0859 297.143 15.0859C296.584 15.0859 296.129 14.918 295.777 14.582C295.43 14.2461 295.256 13.8086 295.256 13.2695ZM266.527 28.8008C267.309 28.8008 267.938 29.0879 268.414 29.6621C268.895 30.2363 269.135 31 269.135 31.9531C269.135 32.9023 268.896 33.666 268.42 34.2441C267.943 34.8184 267.32 35.1055 266.551 35.1055C266.121 35.1055 265.736 35.0078 265.396 34.8125C265.057 34.6172 264.795 34.3496 264.611 34.0098H264.588V37.0332H263.568V28.9062H264.535V29.9375H264.559C264.75 29.5859 265.018 29.3086 265.361 29.1055C265.705 28.9023 266.094 28.8008 266.527 28.8008ZM266.328 34.209C266.871 34.209 267.301 34.0059 267.617 33.5996C267.934 33.1934 268.092 32.6445 268.092 31.9531C268.092 31.2617 267.934 30.7129 267.617 30.3066C267.301 29.9004 266.871 29.6973 266.328 29.6973C265.805 29.6973 265.383 29.9043 265.062 30.3184C264.742 30.7324 264.582 31.2773 264.582 31.9531C264.582 32.6328 264.742 33.1797 265.062 33.5938C265.383 34.0039 265.805 34.209 266.328 34.209ZM274.045 32.0469H270.201V31.0977H274.045V32.0469ZM279.424 35V32.2578H276.418V35H275.41V28.9062H276.418V31.4199H279.424V28.9062H280.432V35H279.424Z" fill="#C31844"/>
<path d="M165.611 99H164.627V92.4844H164.586L161.891 98.9414H161L158.305 92.4844H158.264V99H157.279V90.5449H158.504L161.422 97.5996H161.469L164.387 90.5449H165.611V99ZM169.736 99.1055C168.885 99.1055 168.201 98.8223 167.686 98.2559C167.17 97.6855 166.912 96.918 166.912 95.9531C166.912 94.9883 167.17 94.2227 167.686 93.6562C168.201 93.0859 168.885 92.8008 169.736 92.8008C170.584 92.8008 171.266 93.0859 171.781 93.6562C172.297 94.2227 172.555 94.9883 172.555 95.9531C172.555 96.9141 172.297 97.6797 171.781 98.25C171.266 98.8203 170.584 99.1055 169.736 99.1055ZM168.43 97.6113C168.754 98.0098 169.189 98.209 169.736 98.209C170.283 98.209 170.717 98.0117 171.037 97.6172C171.357 97.2188 171.518 96.6641 171.518 95.9531C171.518 95.2422 171.357 94.6895 171.037 94.2949C170.717 93.8965 170.283 93.6973 169.736 93.6973C169.189 93.6973 168.754 93.8965 168.43 94.2949C168.109 94.6934 167.949 95.2461 167.949 95.9531C167.949 96.6602 168.109 97.2129 168.43 97.6113ZM176.65 92.8008C177.432 92.8008 178.061 93.0879 178.537 93.6621C179.018 94.2363 179.258 95 179.258 95.9531C179.258 96.9023 179.02 97.666 178.543 98.2441C178.066 98.8184 177.443 99.1055 176.674 99.1055C176.244 99.1055 175.859 99.0078 175.52 98.8125C175.18 98.6172 174.918 98.3496 174.734 98.0098H174.711V101.033H173.691V92.9062H174.658V93.9375H174.682C174.873 93.5859 175.141 93.3086 175.484 93.1055C175.828 92.9023 176.217 92.8008 176.65 92.8008ZM176.451 98.209C176.994 98.209 177.424 98.0059 177.74 97.5996C178.057 97.1934 178.215 96.6445 178.215 95.9531C178.215 95.2617 178.057 94.7129 177.74 94.3066C177.424 93.9004 176.994 93.6973 176.451 93.6973C175.928 93.6973 175.506 93.9043 175.186 94.3184C174.865 94.7324 174.705 95.2773 174.705 95.9531C174.705 96.6328 174.865 97.1797 175.186 97.5938C175.506 98.0039 175.928 98.209 176.451 98.209ZM182.92 99.1055C182.068 99.1055 181.385 98.8223 180.869 98.2559C180.354 97.6855 180.096 96.918 180.096 95.9531C180.096 94.9883 180.354 94.2227 180.869 93.6562C181.385 93.0859 182.068 92.8008 182.92 92.8008C183.768 92.8008 184.449 93.0859 184.965 93.6562C185.48 94.2227 185.738 94.9883 185.738 95.9531C185.738 96.9141 185.48 97.6797 184.965 98.25C184.449 98.8203 183.768 99.1055 182.92 99.1055ZM181.613 97.6113C181.938 98.0098 182.373 98.209 182.92 98.209C183.467 98.209 183.9 98.0117 184.221 97.6172C184.541 97.2188 184.701 96.6641 184.701 95.9531C184.701 95.2422 184.541 94.6895 184.221 94.2949C183.9 93.8965 183.467 93.6973 182.92 93.6973C182.373 93.6973 181.938 93.8965 181.613 94.2949C181.293 94.6934 181.133 95.2461 181.133 95.9531C181.133 96.6602 181.293 97.2129 181.613 97.6113ZM188.902 99.1055C188.23 99.1055 187.674 98.9531 187.232 98.6484C186.791 98.3398 186.545 97.9297 186.494 97.418H187.525C187.584 97.6836 187.732 97.8906 187.971 98.0391C188.213 98.1875 188.523 98.2617 188.902 98.2617C189.336 98.2617 189.674 98.1699 189.916 97.9863C190.158 97.7988 190.279 97.5527 190.279 97.248C190.279 96.9082 190.166 96.6582 189.939 96.498C189.713 96.334 189.367 96.252 188.902 96.252H187.988V95.4199H188.902C189.684 95.4199 190.074 95.123 190.074 94.5293C190.074 94.2637 189.977 94.0508 189.781 93.8906C189.59 93.7305 189.305 93.6504 188.926 93.6504C188.566 93.6504 188.27 93.7227 188.035 93.8672C187.801 94.0117 187.662 94.2051 187.619 94.4473H186.629C186.695 93.9434 186.934 93.543 187.344 93.2461C187.754 92.9492 188.281 92.8008 188.926 92.8008C189.605 92.8008 190.133 92.9512 190.508 93.252C190.883 93.5488 191.07 93.9473 191.07 94.4473C191.07 94.7598 190.977 95.0391 190.789 95.2852C190.605 95.5312 190.363 95.6895 190.062 95.7598V95.8066C190.457 95.8926 190.758 96.0586 190.965 96.3047C191.176 96.5469 191.281 96.8457 191.281 97.2012C191.281 97.7715 191.062 98.2324 190.625 98.584C190.191 98.9316 189.617 99.1055 188.902 99.1055ZM194.979 99.1055C194.127 99.1055 193.443 98.8223 192.928 98.2559C192.412 97.6855 192.154 96.918 192.154 95.9531C192.154 94.9883 192.412 94.2227 192.928 93.6562C193.443 93.0859 194.127 92.8008 194.979 92.8008C195.826 92.8008 196.508 93.0859 197.023 93.6562C197.539 94.2227 197.797 94.9883 197.797 95.9531C197.797 96.9141 197.539 97.6797 197.023 98.25C196.508 98.8203 195.826 99.1055 194.979 99.1055ZM193.672 97.6113C193.996 98.0098 194.432 98.209 194.979 98.209C195.525 98.209 195.959 98.0117 196.279 97.6172C196.6 97.2188 196.76 96.6641 196.76 95.9531C196.76 95.2422 196.6 94.6895 196.279 94.2949C195.959 93.8965 195.525 93.6973 194.979 93.6973C194.432 93.6973 193.996 93.8965 193.672 94.2949C193.352 94.6934 193.191 95.2461 193.191 95.9531C193.191 96.6602 193.352 97.2129 193.672 97.6113ZM201.395 93.7324H199.936V95.4375H201.242C202 95.4375 202.379 95.1484 202.379 94.5703C202.379 94.3008 202.295 94.0938 202.127 93.9492C201.959 93.8047 201.715 93.7324 201.395 93.7324ZM201.324 96.2578H199.936V98.1738H201.506C201.873 98.1738 202.154 98.0938 202.35 97.9336C202.545 97.7695 202.643 97.5332 202.643 97.2246C202.643 96.5801 202.203 96.2578 201.324 96.2578ZM198.928 99V92.9062H201.535C202.105 92.9062 202.555 93.0449 202.883 93.3223C203.211 93.5996 203.375 93.9805 203.375 94.4648C203.375 94.7734 203.277 95.0547 203.082 95.3086C202.891 95.5625 202.654 95.7188 202.373 95.7773V95.8242C202.756 95.8789 203.062 96.0352 203.293 96.293C203.527 96.5508 203.645 96.8691 203.645 97.248C203.645 97.7871 203.457 98.2148 203.082 98.5312C202.711 98.8438 202.201 99 201.553 99H198.928ZM209.855 94.7812H208.848C208.754 94.4648 208.576 94.2051 208.314 94.002C208.053 93.7988 207.719 93.6973 207.312 93.6973C206.781 93.6973 206.355 93.9043 206.035 94.3184C205.715 94.7285 205.555 95.2734 205.555 95.9531C205.555 96.6445 205.715 97.1934 206.035 97.5996C206.359 98.0059 206.789 98.209 207.324 98.209C207.723 98.209 208.053 98.1152 208.314 97.9277C208.58 97.7402 208.762 97.4766 208.859 97.1367H209.867C209.766 97.7227 209.484 98.1973 209.023 98.5605C208.562 98.9238 207.994 99.1055 207.318 99.1055C206.467 99.1055 205.787 98.8223 205.279 98.2559C204.771 97.6855 204.518 96.918 204.518 95.9531C204.518 95.0039 204.771 94.2422 205.279 93.668C205.787 93.0898 206.463 92.8008 207.307 92.8008C208.006 92.8008 208.58 92.9922 209.029 93.375C209.482 93.7578 209.758 94.2266 209.855 94.7812ZM212.996 95.7891L215.926 99H214.613L211.982 96.0703H211.936V99H210.928V92.9062H211.936V95.6016H211.982L214.584 92.9062H215.844L212.996 95.7891ZM217.783 99H216.775V92.9062H217.783V97.4414H217.83L220.877 92.9062H221.885V99H220.877V94.4648H220.83L217.783 99ZM224.322 99H223.314V92.9062H224.322V97.4414H224.369L227.416 92.9062H228.424V99H227.416V94.4648H227.369L224.322 99ZM224.094 90.2695H224.844C224.844 90.6172 224.947 90.9062 225.154 91.1367C225.365 91.3672 225.641 91.4824 225.98 91.4824C226.32 91.4824 226.594 91.3672 226.801 91.1367C227.012 90.9062 227.117 90.6172 227.117 90.2695H227.867C227.867 90.8086 227.691 91.2461 227.34 91.582C226.992 91.918 226.539 92.0859 225.98 92.0859C225.422 92.0859 224.967 91.918 224.615 91.582C224.268 91.2461 224.094 90.8086 224.094 90.2695ZM188.527 105.801C189.309 105.801 189.938 106.088 190.414 106.662C190.895 107.236 191.135 108 191.135 108.953C191.135 109.902 190.896 110.666 190.42 111.244C189.943 111.818 189.32 112.105 188.551 112.105C188.121 112.105 187.736 112.008 187.396 111.812C187.057 111.617 186.795 111.35 186.611 111.01H186.588V114.033H185.568V105.906H186.535V106.938H186.559C186.75 106.586 187.018 106.309 187.361 106.105C187.705 105.902 188.094 105.801 188.527 105.801ZM188.328 111.209C188.871 111.209 189.301 111.006 189.617 110.6C189.934 110.193 190.092 109.645 190.092 108.953C190.092 108.262 189.934 107.713 189.617 107.307C189.301 106.9 188.871 106.697 188.328 106.697C187.805 106.697 187.383 106.904 187.062 107.318C186.742 107.732 186.582 108.277 186.582 108.953C186.582 109.633 186.742 110.18 187.062 110.594C187.383 111.004 187.805 111.209 188.328 111.209ZM196.045 109.047H192.201V108.098H196.045V109.047ZM201.424 112V109.258H198.418V112H197.41V105.906H198.418V108.42H201.424V105.906H202.432V112H201.424Z" fill="#C31844"/>
<path d="M184.662 241.67H183.684V240H176.975V231.545H178.029V239.051H182.553V231.545H183.607V239.051H184.662V241.67ZM186.736 240H185.729V233.906H186.736V238.441H186.783L189.83 233.906H190.838V240H189.83V235.465H189.783L186.736 240ZM193.275 240H192.268V233.906H193.504L195.672 238.652H195.719L197.898 233.906H199.088V240H198.074V235.676H198.033L196.064 239.824H195.285L193.316 235.676H193.275V240ZM202.146 237.311C202.119 237.662 202.08 237.973 202.029 238.242C201.982 238.512 201.914 238.764 201.824 238.998C201.734 239.232 201.623 239.426 201.49 239.578C201.361 239.727 201.199 239.844 201.004 239.93C200.812 240.012 200.59 240.053 200.336 240.053C200.195 240.053 200.074 240.031 199.973 239.988V239.068C200.066 239.1 200.17 239.115 200.283 239.115C200.568 239.115 200.781 238.961 200.922 238.652C201.062 238.34 201.152 237.885 201.191 237.287L201.426 233.906H205.416V240H204.408V234.744H202.334L202.146 237.311ZM209.049 236.994H210.215V234.744H209.049C208.65 234.744 208.334 234.848 208.1 235.055C207.869 235.262 207.754 235.547 207.754 235.91C207.754 236.23 207.871 236.492 208.105 236.695C208.344 236.895 208.658 236.994 209.049 236.994ZM210.215 240V237.832H209.137L207.59 240H206.424L208.123 237.645C207.689 237.52 207.35 237.307 207.104 237.006C206.861 236.705 206.74 236.346 206.74 235.928C206.74 235.303 206.947 234.811 207.361 234.451C207.779 234.088 208.34 233.906 209.043 233.906H211.223V240H210.215ZM216.672 240V237.258H213.666V240H212.658V233.906H213.666V236.42H216.672V233.906H217.68V240H216.672ZM224.16 235.781H223.152C223.059 235.465 222.881 235.205 222.619 235.002C222.357 234.799 222.023 234.697 221.617 234.697C221.086 234.697 220.66 234.904 220.34 235.318C220.02 235.729 219.859 236.273 219.859 236.953C219.859 237.645 220.02 238.193 220.34 238.6C220.664 239.006 221.094 239.209 221.629 239.209C222.027 239.209 222.357 239.115 222.619 238.928C222.885 238.74 223.066 238.477 223.164 238.137H224.172C224.07 238.723 223.789 239.197 223.328 239.561C222.867 239.924 222.299 240.105 221.623 240.105C220.771 240.105 220.092 239.822 219.584 239.256C219.076 238.686 218.822 237.918 218.822 236.953C218.822 236.004 219.076 235.242 219.584 234.668C220.092 234.09 220.768 233.801 221.611 233.801C222.311 233.801 222.885 233.992 223.334 234.375C223.787 234.758 224.062 235.227 224.16 235.781ZM227.301 236.789L230.23 240H228.918L226.287 237.07H226.24V240H225.232V233.906H226.24V236.602H226.287L228.889 233.906H230.148L227.301 236.789ZM232.088 240H231.08V233.906H232.088V238.441H232.135L235.182 233.906H236.189V240H235.182V235.465H235.135L232.088 240ZM238.627 240H237.619V233.906H238.627V238.441H238.674L241.721 233.906H242.729V240H241.721V235.465H241.674L238.627 240ZM238.398 231.27H239.148C239.148 231.617 239.252 231.906 239.459 232.137C239.67 232.367 239.945 232.482 240.285 232.482C240.625 232.482 240.898 232.367 241.105 232.137C241.316 231.906 241.422 231.617 241.422 231.27H242.172C242.172 231.809 241.996 232.246 241.645 232.582C241.297 232.918 240.844 233.086 240.285 233.086C239.727 233.086 239.271 232.918 238.92 232.582C238.572 232.246 238.398 231.809 238.398 231.27ZM205.527 246.801C206.309 246.801 206.938 247.088 207.414 247.662C207.895 248.236 208.135 249 208.135 249.953C208.135 250.902 207.896 251.666 207.42 252.244C206.943 252.818 206.32 253.105 205.551 253.105C205.121 253.105 204.736 253.008 204.396 252.812C204.057 252.617 203.795 252.35 203.611 252.01H203.588V255.033H202.568V246.906H203.535V247.938H203.559C203.75 247.586 204.018 247.309 204.361 247.105C204.705 246.902 205.094 246.801 205.527 246.801ZM205.328 252.209C205.871 252.209 206.301 252.006 206.617 251.6C206.934 251.193 207.092 250.645 207.092 249.953C207.092 249.262 206.934 248.713 206.617 248.307C206.301 247.9 205.871 247.697 205.328 247.697C204.805 247.697 204.383 247.904 204.062 248.318C203.742 248.732 203.582 249.277 203.582 249.953C203.582 250.633 203.742 251.18 204.062 251.594C204.383 252.004 204.805 252.209 205.328 252.209ZM213.045 250.047H209.201V249.098H213.045V250.047ZM218.424 253V250.258H215.418V253H214.41V246.906H215.418V249.42H218.424V246.906H219.432V253H218.424Z" fill="#C31844"/>
<path d="M143.145 290H139.951V281.545H143.156C143.879 281.545 144.463 281.738 144.908 282.125C145.357 282.512 145.582 283.021 145.582 283.654C145.582 284.096 145.439 284.496 145.154 284.855C144.873 285.211 144.529 285.426 144.123 285.5V285.547C144.697 285.621 145.154 285.846 145.494 286.221C145.838 286.596 146.01 287.064 146.01 287.627C146.01 288.373 145.756 288.955 145.248 289.373C144.744 289.791 144.043 290 143.145 290ZM141.006 282.477V285.189H142.588C143.213 285.189 143.689 285.068 144.018 284.826C144.35 284.584 144.516 284.234 144.516 283.777C144.516 283.359 144.377 283.039 144.1 282.816C143.822 282.59 143.428 282.477 142.916 282.477H141.006ZM141.006 289.068H142.986C143.623 289.068 144.105 288.941 144.434 288.688C144.762 288.434 144.926 288.062 144.926 287.574C144.926 286.59 144.246 286.098 142.887 286.098H141.006V289.068ZM149.689 290.105C148.838 290.105 148.154 289.822 147.639 289.256C147.123 288.686 146.865 287.918 146.865 286.953C146.865 285.988 147.123 285.223 147.639 284.656C148.154 284.086 148.838 283.801 149.689 283.801C150.537 283.801 151.219 284.086 151.734 284.656C152.25 285.223 152.508 285.988 152.508 286.953C152.508 287.914 152.25 288.68 151.734 289.25C151.219 289.82 150.537 290.105 149.689 290.105ZM148.383 288.611C148.707 289.01 149.143 289.209 149.689 289.209C150.236 289.209 150.67 289.012 150.99 288.617C151.311 288.219 151.471 287.664 151.471 286.953C151.471 286.242 151.311 285.689 150.99 285.295C150.67 284.896 150.236 284.697 149.689 284.697C149.143 284.697 148.707 284.896 148.383 285.295C148.062 285.693 147.902 286.246 147.902 286.953C147.902 287.66 148.062 288.213 148.383 288.611ZM155.033 287.311C155.006 287.662 154.967 287.973 154.916 288.242C154.869 288.512 154.801 288.764 154.711 288.998C154.621 289.232 154.51 289.426 154.377 289.578C154.248 289.727 154.086 289.844 153.891 289.93C153.699 290.012 153.477 290.053 153.223 290.053C153.082 290.053 152.961 290.031 152.859 289.988V289.068C152.953 289.1 153.057 289.115 153.17 289.115C153.455 289.115 153.668 288.961 153.809 288.652C153.949 288.34 154.039 287.885 154.078 287.287L154.312 283.906H158.303V290H157.295V284.744H155.221L155.033 287.311ZM163.664 284.744H160.752V290H159.744V283.906H163.664V284.744ZM167.068 290.105C166.217 290.105 165.533 289.822 165.018 289.256C164.502 288.686 164.244 287.918 164.244 286.953C164.244 285.988 164.502 285.223 165.018 284.656C165.533 284.086 166.217 283.801 167.068 283.801C167.916 283.801 168.598 284.086 169.113 284.656C169.629 285.223 169.887 285.988 169.887 286.953C169.887 287.914 169.629 288.68 169.113 289.25C168.598 289.82 167.916 290.105 167.068 290.105ZM165.762 288.611C166.086 289.01 166.521 289.209 167.068 289.209C167.615 289.209 168.049 289.012 168.369 288.617C168.689 288.219 168.85 287.664 168.85 286.953C168.85 286.242 168.689 285.689 168.369 285.295C168.049 284.896 167.615 284.697 167.068 284.697C166.521 284.697 166.086 284.896 165.762 285.295C165.441 285.693 165.281 286.246 165.281 286.953C165.281 287.66 165.441 288.213 165.762 288.611ZM174.943 289.162V284.744H172.658L172.471 287.311C172.412 288.146 172.246 288.748 171.973 289.115V289.162H174.943ZM171.246 291.611H170.297V289.162H170.807C171.217 288.893 171.457 288.268 171.527 287.287L171.762 283.906H175.957V289.162H176.924V291.611H175.975V290H171.246V291.611ZM180.369 290.105C179.518 290.105 178.834 289.822 178.318 289.256C177.803 288.686 177.545 287.918 177.545 286.953C177.545 285.988 177.803 285.223 178.318 284.656C178.834 284.086 179.518 283.801 180.369 283.801C181.217 283.801 181.898 284.086 182.414 284.656C182.93 285.223 183.188 285.988 183.188 286.953C183.188 287.914 182.93 288.68 182.414 289.25C181.898 289.82 181.217 290.105 180.369 290.105ZM179.062 288.611C179.387 289.01 179.822 289.209 180.369 289.209C180.916 289.209 181.35 289.012 181.67 288.617C181.99 288.219 182.15 287.664 182.15 286.953C182.15 286.242 181.99 285.689 181.67 285.295C181.35 284.896 180.916 284.697 180.369 284.697C179.822 284.697 179.387 284.896 179.062 285.295C178.742 285.693 178.582 286.246 178.582 286.953C178.582 287.66 178.742 288.213 179.062 288.611ZM188.332 290V287.258H185.326V290H184.318V283.906H185.326V286.42H188.332V283.906H189.34V290H188.332ZM195.82 285.781H194.812C194.719 285.465 194.541 285.205 194.279 285.002C194.018 284.799 193.684 284.697 193.277 284.697C192.746 284.697 192.32 284.904 192 285.318C191.68 285.729 191.52 286.273 191.52 286.953C191.52 287.645 191.68 288.193 192 288.6C192.324 289.006 192.754 289.209 193.289 289.209C193.688 289.209 194.018 289.115 194.279 288.928C194.545 288.74 194.727 288.477 194.824 288.137H195.832C195.73 288.723 195.449 289.197 194.988 289.561C194.527 289.924 193.959 290.105 193.283 290.105C192.432 290.105 191.752 289.822 191.244 289.256C190.736 288.686 190.482 287.918 190.482 286.953C190.482 286.004 190.736 285.242 191.244 284.668C191.752 284.09 192.428 283.801 193.271 283.801C193.971 283.801 194.545 283.992 194.994 284.375C195.447 284.758 195.723 285.227 195.82 285.781ZM198.961 286.789L201.891 290H200.578L197.947 287.07H197.9V290H196.893V283.906H197.9V286.602H197.947L200.549 283.906H201.809L198.961 286.789ZM205.154 290.105C204.303 290.105 203.619 289.822 203.104 289.256C202.588 288.686 202.33 287.918 202.33 286.953C202.33 285.988 202.588 285.223 203.104 284.656C203.619 284.086 204.303 283.801 205.154 283.801C206.002 283.801 206.684 284.086 207.199 284.656C207.715 285.223 207.973 285.988 207.973 286.953C207.973 287.914 207.715 288.68 207.199 289.25C206.684 289.82 206.002 290.105 205.154 290.105ZM203.848 288.611C204.172 289.01 204.607 289.209 205.154 289.209C205.701 289.209 206.135 289.012 206.455 288.617C206.775 288.219 206.936 287.664 206.936 286.953C206.936 286.242 206.775 285.689 206.455 285.295C206.135 284.896 205.701 284.697 205.154 284.697C204.607 284.697 204.172 284.896 203.848 285.295C203.527 285.693 203.367 286.246 203.367 286.953C203.367 287.66 203.527 288.213 203.848 288.611ZM210.111 290H209.104V283.906H210.111V288.441H210.158L213.205 283.906H214.213V290H213.205V285.465H213.158L210.111 290ZM209.883 281.27H210.633C210.633 281.617 210.736 281.906 210.943 282.137C211.154 282.367 211.43 282.482 211.77 282.482C212.109 282.482 212.383 282.367 212.59 282.137C212.801 281.906 212.906 281.617 212.906 281.27H213.656C213.656 281.809 213.48 282.246 213.129 282.582C212.781 282.918 212.328 283.086 211.77 283.086C211.211 283.086 210.756 282.918 210.404 282.582C210.057 282.246 209.883 281.809 209.883 281.27ZM171.527 296.801C172.309 296.801 172.938 297.088 173.414 297.662C173.895 298.236 174.135 299 174.135 299.953C174.135 300.902 173.896 301.666 173.42 302.244C172.943 302.818 172.32 303.105 171.551 303.105C171.121 303.105 170.736 303.008 170.396 302.812C170.057 302.617 169.795 302.35 169.611 302.01H169.588V305.033H168.568V296.906H169.535V297.938H169.559C169.75 297.586 170.018 297.309 170.361 297.105C170.705 296.902 171.094 296.801 171.527 296.801ZM171.328 302.209C171.871 302.209 172.301 302.006 172.617 301.6C172.934 301.193 173.092 300.645 173.092 299.953C173.092 299.262 172.934 298.713 172.617 298.307C172.301 297.9 171.871 297.697 171.328 297.697C170.805 297.697 170.383 297.904 170.062 298.318C169.742 298.732 169.582 299.277 169.582 299.953C169.582 300.633 169.742 301.18 170.062 301.594C170.383 302.004 170.805 302.209 171.328 302.209ZM179.045 300.047H175.201V299.098H179.045V300.047ZM184.424 303V300.258H181.418V303H180.41V296.906H181.418V299.42H184.424V296.906H185.432V303H184.424Z" fill="#C31844"/>
<path d="M138.51 11H137.525V4.48438H137.484L134.789 10.9414H133.898L131.203 4.48438H131.162V11H130.178V2.54492H131.402L134.32 9.59961H134.367L137.285 2.54492H138.51V11ZM141.111 11H140.104V4.90625H141.111V9.44141H141.158L144.205 4.90625H145.213V11H144.205V6.46484H144.158L141.111 11ZM148.271 8.31055C148.244 8.66211 148.205 8.97266 148.154 9.24219C148.107 9.51172 148.039 9.76367 147.949 9.99805C147.859 10.2324 147.748 10.4258 147.615 10.5781C147.486 10.7266 147.324 10.8438 147.129 10.9297C146.938 11.0117 146.715 11.0527 146.461 11.0527C146.32 11.0527 146.199 11.0312 146.098 10.9883V10.0684C146.191 10.0996 146.295 10.1152 146.408 10.1152C146.693 10.1152 146.906 9.96094 147.047 9.65234C147.188 9.33984 147.277 8.88477 147.316 8.28711L147.551 4.90625H151.541V11H150.533V5.74414H148.459L148.271 8.31055ZM157.846 11.1055C157.037 11.1055 156.389 10.8535 155.9 10.3496C155.412 9.8457 155.141 9.14844 155.086 8.25781H153.99V11H152.982V4.90625H153.99V7.41992H155.109C155.199 6.59961 155.484 5.95898 155.965 5.49805C156.445 5.0332 157.072 4.80078 157.846 4.80078C158.701 4.80078 159.375 5.08203 159.867 5.64453C160.363 6.20312 160.611 6.97266 160.611 7.95312C160.611 8.92969 160.363 9.69922 159.867 10.2617C159.375 10.8242 158.701 11.1055 157.846 11.1055ZM156.568 9.61719C156.869 10.0078 157.295 10.2031 157.846 10.2031C158.396 10.2031 158.82 10.0078 159.117 9.61719C159.418 9.22266 159.568 8.66797 159.568 7.95312C159.568 7.23438 159.418 6.67969 159.117 6.28906C158.82 5.89844 158.396 5.70312 157.846 5.70312C157.295 5.70312 156.869 5.89844 156.568 6.28906C156.271 6.67969 156.123 7.23438 156.123 7.95312C156.123 8.66797 156.271 9.22266 156.568 9.61719ZM165.973 4.90625V5.74414H164.004V11H162.996V5.74414H161.027V4.90625H165.973ZM167.924 11H166.916V4.90625H167.924V9.44141H167.971L171.018 4.90625H172.025V11H171.018V6.46484H170.971L167.924 11ZM177.469 11V8.25781H174.463V11H173.455V4.90625H174.463V7.41992H177.469V4.90625H178.477V11H177.469ZM184.957 6.78125H183.949C183.855 6.46484 183.678 6.20508 183.416 6.00195C183.154 5.79883 182.82 5.69727 182.414 5.69727C181.883 5.69727 181.457 5.9043 181.137 6.31836C180.816 6.72852 180.656 7.27344 180.656 7.95312C180.656 8.64453 180.816 9.19336 181.137 9.59961C181.461 10.0059 181.891 10.209 182.426 10.209C182.824 10.209 183.154 10.1152 183.416 9.92773C183.682 9.74023 183.863 9.47656 183.961 9.13672H184.969C184.867 9.72266 184.586 10.1973 184.125 10.5605C183.664 10.9238 183.096 11.1055 182.42 11.1055C181.568 11.1055 180.889 10.8223 180.381 10.2559C179.873 9.68555 179.619 8.91797 179.619 7.95312C179.619 7.00391 179.873 6.24219 180.381 5.66797C180.889 5.08984 181.564 4.80078 182.408 4.80078C183.107 4.80078 183.682 4.99219 184.131 5.375C184.584 5.75781 184.859 6.22656 184.957 6.78125ZM188.098 7.78906L191.027 11H189.715L187.084 8.07031H187.037V11H186.029V4.90625H187.037V7.60156H187.084L189.686 4.90625H190.945L188.098 7.78906ZM192.885 11H191.877V4.90625H192.885V9.44141H192.932L195.979 4.90625H196.986V11H195.979V6.46484H195.932L192.885 11ZM199.424 11H198.416V4.90625H199.424V9.44141H199.471L202.518 4.90625H203.525V11H202.518V6.46484H202.471L199.424 11ZM199.195 2.26953H199.945C199.945 2.61719 200.049 2.90625 200.256 3.13672C200.467 3.36719 200.742 3.48242 201.082 3.48242C201.422 3.48242 201.695 3.36719 201.902 3.13672C202.113 2.90625 202.219 2.61719 202.219 2.26953H202.969C202.969 2.80859 202.793 3.24609 202.441 3.58203C202.094 3.91797 201.641 4.08594 201.082 4.08594C200.523 4.08594 200.068 3.91797 199.717 3.58203C199.369 3.24609 199.195 2.80859 199.195 2.26953ZM162.527 17.8008C163.309 17.8008 163.938 18.0879 164.414 18.6621C164.895 19.2363 165.135 20 165.135 20.9531C165.135 21.9023 164.896 22.666 164.42 23.2441C163.943 23.8184 163.32 24.1055 162.551 24.1055C162.121 24.1055 161.736 24.0078 161.396 23.8125C161.057 23.6172 160.795 23.3496 160.611 23.0098H160.588V26.0332H159.568V17.9062H160.535V18.9375H160.559C160.75 18.5859 161.018 18.3086 161.361 18.1055C161.705 17.9023 162.094 17.8008 162.527 17.8008ZM162.328 23.209C162.871 23.209 163.301 23.0059 163.617 22.5996C163.934 22.1934 164.092 21.6445 164.092 20.9531C164.092 20.2617 163.934 19.7129 163.617 19.3066C163.301 18.9004 162.871 18.6973 162.328 18.6973C161.805 18.6973 161.383 18.9043 161.062 19.3184C160.742 19.7324 160.582 20.2773 160.582 20.9531C160.582 21.6328 160.742 22.1797 161.062 22.5938C161.383 23.0039 161.805 23.209 162.328 23.209ZM170.045 21.0469H166.201V20.0977H170.045V21.0469ZM175.424 24V21.2578H172.418V24H171.41V17.9062H172.418V20.4199H175.424V17.9062H176.432V24H175.424Z" fill="#C31844"/>
<path d="M28.4824 142.463C28.4824 143.209 28.2285 143.818 27.7207 144.291C27.2168 144.764 26.5684 145 25.7754 145H22.6992V136.545H27.6387V137.494H23.7539V139.914H25.7637C26.5605 139.914 27.2129 140.152 27.7207 140.629C28.2285 141.102 28.4824 141.713 28.4824 142.463ZM23.7539 144.051H25.5C26.1055 144.051 26.5723 143.914 26.9004 143.641C27.2324 143.363 27.3984 142.971 27.3984 142.463C27.3984 141.951 27.2324 141.557 26.9004 141.279C26.5723 141.002 26.1055 140.863 25.5 140.863H23.7539V144.051ZM32.3555 139.686C31.8828 139.686 31.4902 139.85 31.1777 140.178C30.8691 140.502 30.6992 140.92 30.668 141.432H33.9785C33.9668 140.916 33.8125 140.496 33.5156 140.172C33.2188 139.848 32.832 139.686 32.3555 139.686ZM33.9551 143.254H34.957C34.8672 143.793 34.5859 144.236 34.1133 144.584C33.6445 144.932 33.0801 145.105 32.4199 145.105C31.5488 145.105 30.8633 144.824 30.3633 144.262C29.8633 143.699 29.6133 142.938 29.6133 141.977C29.6133 141.023 29.8633 140.256 30.3633 139.674C30.8672 139.092 31.5371 138.801 32.373 138.801C33.1934 138.801 33.8418 139.076 34.3184 139.627C34.7949 140.178 35.0332 140.916 35.0332 141.842V142.229H30.6621V142.287C30.6621 142.873 30.8223 143.342 31.1426 143.693C31.4629 144.045 31.8965 144.221 32.4434 144.221C32.8262 144.221 33.1523 144.133 33.4219 143.957C33.6914 143.781 33.8691 143.547 33.9551 143.254ZM37.5586 142.311C37.5312 142.662 37.4922 142.973 37.4414 143.242C37.3945 143.512 37.3262 143.764 37.2363 143.998C37.1465 144.232 37.0352 144.426 36.9023 144.578C36.7734 144.727 36.6113 144.844 36.416 144.93C36.2246 145.012 36.002 145.053 35.748 145.053C35.6074 145.053 35.4863 145.031 35.3848 144.988V144.068C35.4785 144.1 35.582 144.115 35.6953 144.115C35.9805 144.115 36.1934 143.961 36.334 143.652C36.4746 143.34 36.5645 142.885 36.6035 142.287L36.8379 138.906H40.8281V145H39.8203V139.744H37.7461L37.5586 142.311ZM44.8008 145.105C43.9492 145.105 43.2656 144.822 42.75 144.256C42.2344 143.686 41.9766 142.918 41.9766 141.953C41.9766 140.988 42.2344 140.223 42.75 139.656C43.2656 139.086 43.9492 138.801 44.8008 138.801C45.6484 138.801 46.3301 139.086 46.8457 139.656C47.3613 140.223 47.6191 140.988 47.6191 141.953C47.6191 142.914 47.3613 143.68 46.8457 144.25C46.3301 144.82 45.6484 145.105 44.8008 145.105ZM43.4941 143.611C43.8184 144.01 44.2539 144.209 44.8008 144.209C45.3477 144.209 45.7812 144.012 46.1016 143.617C46.4219 143.219 46.582 142.664 46.582 141.953C46.582 141.242 46.4219 140.689 46.1016 140.295C45.7812 139.896 45.3477 139.697 44.8008 139.697C44.2539 139.697 43.8184 139.896 43.4941 140.295C43.1738 140.693 43.0137 141.246 43.0137 141.953C43.0137 142.66 43.1738 143.213 43.4941 143.611ZM52.5293 142.047H48.6855V141.098H52.5293V142.047ZM3.27539 154.789L6.20508 158H4.89258L2.26172 155.07H2.21484V158H1.20703V151.906H2.21484V154.602H2.26172L4.86328 151.906H6.12305L3.27539 154.789ZM8.89453 157.238C9.375 157.238 9.77734 157.09 10.1016 156.793C10.4297 156.492 10.5938 156.123 10.5938 155.686V155.188L8.96484 155.287C8.55469 155.314 8.23633 155.414 8.00977 155.586C7.78711 155.758 7.67578 155.988 7.67578 156.277C7.67578 156.566 7.78711 156.799 8.00977 156.975C8.23242 157.15 8.52734 157.238 8.89453 157.238ZM8.66602 158.105C8.06055 158.105 7.57031 157.938 7.19531 157.602C6.82422 157.266 6.63867 156.824 6.63867 156.277C6.63867 155.754 6.83008 155.336 7.21289 155.023C7.59961 154.711 8.14453 154.535 8.84766 154.496L10.5938 154.396V153.887C10.5938 153.516 10.4766 153.225 10.2422 153.014C10.0078 152.803 9.67969 152.697 9.25781 152.697C8.87109 152.697 8.55664 152.783 8.31445 152.955C8.07227 153.123 7.91797 153.359 7.85156 153.664H6.86719C6.90234 153.121 7.13672 152.676 7.57031 152.328C8.00781 151.977 8.57812 151.801 9.28125 151.801C9.99609 151.801 10.5625 151.98 10.9805 152.34C11.4023 152.699 11.6133 153.182 11.6133 153.787V158H10.6465V156.951H10.623C10.4395 157.299 10.1699 157.578 9.81445 157.789C9.45898 158 9.07617 158.105 8.66602 158.105ZM14.6484 155.311C14.6211 155.662 14.582 155.973 14.5312 156.242C14.4844 156.512 14.416 156.764 14.3262 156.998C14.2363 157.232 14.125 157.426 13.9922 157.578C13.8633 157.727 13.7012 157.844 13.5059 157.93C13.3145 158.012 13.0918 158.053 12.8379 158.053C12.6973 158.053 12.5762 158.031 12.4746 157.988V157.068C12.5684 157.1 12.6719 157.115 12.7852 157.115C13.0703 157.115 13.2832 156.961 13.4238 156.652C13.5645 156.34 13.6543 155.885 13.6934 155.287L13.9277 151.906H17.918V158H16.9102V152.744H14.8359L14.6484 155.311ZM20.3672 158H19.3594V151.906H20.3672V156.441H20.4141L23.4609 151.906H24.4688V158H23.4609V153.465H23.4141L20.3672 158ZM30.3574 151.906V152.744H28.3887V158H27.3809V152.744H25.4121V151.906H30.3574ZM33.7676 152.732H32.3086V154.438H33.6152C34.373 154.438 34.752 154.148 34.752 153.57C34.752 153.301 34.668 153.094 34.5 152.949C34.332 152.805 34.0879 152.732 33.7676 152.732ZM33.6973 155.258H32.3086V157.174H33.8789C34.2461 157.174 34.5273 157.094 34.7227 156.934C34.918 156.77 35.0156 156.533 35.0156 156.225C35.0156 155.58 34.5762 155.258 33.6973 155.258ZM31.3008 158V151.906H33.9082C34.4785 151.906 34.9277 152.045 35.2559 152.322C35.584 152.6 35.748 152.98 35.748 153.465C35.748 153.773 35.6504 154.055 35.4551 154.309C35.2637 154.562 35.0273 154.719 34.7461 154.777V154.824C35.1289 154.879 35.4355 155.035 35.666 155.293C35.9004 155.551 36.0176 155.869 36.0176 156.248C36.0176 156.787 35.8301 157.215 35.4551 157.531C35.084 157.844 34.5742 158 33.9258 158H31.3008ZM38.1914 158H37.1836V151.906H38.1914V156.441H38.2383L41.2852 151.906H42.293V158H41.2852V153.465H41.2383L38.1914 158ZM47.7363 158V155.258H44.7305V158H43.7227V151.906H44.7305V154.42H47.7363V151.906H48.7441V158H47.7363ZM55.2246 153.781H54.2168C54.123 153.465 53.9453 153.205 53.6836 153.002C53.4219 152.799 53.0879 152.697 52.6816 152.697C52.1504 152.697 51.7246 152.904 51.4043 153.318C51.084 153.729 50.9238 154.273 50.9238 154.953C50.9238 155.645 51.084 156.193 51.4043 156.6C51.7285 157.006 52.1582 157.209 52.6934 157.209C53.0918 157.209 53.4219 157.115 53.6836 156.928C53.9492 156.74 54.1309 156.477 54.2285 156.137H55.2363C55.1348 156.723 54.8535 157.197 54.3926 157.561C53.9316 157.924 53.3633 158.105 52.6875 158.105C51.8359 158.105 51.1562 157.822 50.6484 157.256C50.1406 156.686 49.8867 155.918 49.8867 154.953C49.8867 154.004 50.1406 153.242 50.6484 152.668C51.1562 152.09 51.832 151.801 52.6758 151.801C53.375 151.801 53.9492 151.992 54.3984 152.375C54.8516 152.758 55.127 153.227 55.2246 153.781ZM58.3652 154.789L61.2949 158H59.9824L57.3516 155.07H57.3047V158H56.2969V151.906H57.3047V154.602H57.3516L59.9531 151.906H61.2129L58.3652 154.789ZM63.1523 158H62.1445V151.906H63.1523V156.441H63.1992L66.2461 151.906H67.2539V158H66.2461V153.465H66.1992L63.1523 158ZM69.6914 158H68.6836V151.906H69.6914V156.441H69.7383L72.7852 151.906H73.793V158H72.7852V153.465H72.7383L69.6914 158ZM69.4629 149.27H70.2129C70.2129 149.617 70.3164 149.906 70.5234 150.137C70.7344 150.367 71.0098 150.482 71.3496 150.482C71.6895 150.482 71.9629 150.367 72.1699 150.137C72.3809 149.906 72.4863 149.617 72.4863 149.27H73.2363C73.2363 149.809 73.0605 150.246 72.709 150.582C72.3613 150.918 71.9082 151.086 71.3496 151.086C70.791 151.086 70.3359 150.918 69.9844 150.582C69.6367 150.246 69.4629 149.809 69.4629 149.27ZM32.0273 164.801C32.8086 164.801 33.4375 165.088 33.9141 165.662C34.3945 166.236 34.6348 167 34.6348 167.953C34.6348 168.902 34.3965 169.666 33.9199 170.244C33.4434 170.818 32.8203 171.105 32.0508 171.105C31.6211 171.105 31.2363 171.008 30.8965 170.812C30.5566 170.617 30.2949 170.35 30.1113 170.01H30.0879V173.033H29.0684V164.906H30.0352V165.938H30.0586C30.25 165.586 30.5176 165.309 30.8613 165.105C31.2051 164.902 31.5938 164.801 32.0273 164.801ZM31.8281 170.209C32.3711 170.209 32.8008 170.006 33.1172 169.6C33.4336 169.193 33.5918 168.645 33.5918 167.953C33.5918 167.262 33.4336 166.713 33.1172 166.307C32.8008 165.9 32.3711 165.697 31.8281 165.697C31.3047 165.697 30.8828 165.904 30.5625 166.318C30.2422 166.732 30.082 167.277 30.082 167.953C30.082 168.633 30.2422 169.18 30.5625 169.594C30.8828 170.004 31.3047 170.209 31.8281 170.209ZM39.5449 168.047H35.7012V167.098H39.5449V168.047ZM44.9238 171V168.258H41.918V171H40.9102V164.906H41.918V167.42H44.9238V164.906H45.9316V171H44.9238Z" fill="#C31844"/>
<path d="M94.125 133H93.0703V125.494H90.4043V124.545H96.791V125.494H94.125V133ZM98.7012 132.238C99.1816 132.238 99.584 132.09 99.9082 131.793C100.236 131.492 100.4 131.123 100.4 130.686V130.188L98.7715 130.287C98.3613 130.314 98.043 130.414 97.8164 130.586C97.5938 130.758 97.4824 130.988 97.4824 131.277C97.4824 131.566 97.5938 131.799 97.8164 131.975C98.0391 132.15 98.334 132.238 98.7012 132.238ZM98.4727 133.105C97.8672 133.105 97.377 132.938 97.002 132.602C96.6309 132.266 96.4453 131.824 96.4453 131.277C96.4453 130.754 96.6367 130.336 97.0195 130.023C97.4062 129.711 97.9512 129.535 98.6543 129.496L100.4 129.396V128.887C100.4 128.516 100.283 128.225 100.049 128.014C99.8145 127.803 99.4863 127.697 99.0645 127.697C98.6777 127.697 98.3633 127.783 98.1211 127.955C97.8789 128.123 97.7246 128.359 97.6582 128.664H96.6738C96.709 128.121 96.9434 127.676 97.377 127.328C97.8145 126.977 98.3848 126.801 99.0879 126.801C99.8027 126.801 100.369 126.98 100.787 127.34C101.209 127.699 101.42 128.182 101.42 128.787V133H100.453V131.951H100.43C100.246 132.299 99.9766 132.578 99.6211 132.789C99.2656 133 98.8828 133.105 98.4727 133.105ZM108.709 134.611H107.76V133H102.826V126.906H103.834V132.162H106.729V126.906H107.736V132.162H108.709V134.611ZM110.631 133H109.623V126.906H110.631V131.441H110.678L113.725 126.906H114.732V133H113.725V128.465H113.678L110.631 133ZM120.176 133V130.258H117.17V133H116.162V126.906H117.17V129.42H120.176V126.906H121.184V133H120.176ZM127.664 128.781H126.656C126.562 128.465 126.385 128.205 126.123 128.002C125.861 127.799 125.527 127.697 125.121 127.697C124.59 127.697 124.164 127.904 123.844 128.318C123.523 128.729 123.363 129.273 123.363 129.953C123.363 130.645 123.523 131.193 123.844 131.6C124.168 132.006 124.598 132.209 125.133 132.209C125.531 132.209 125.861 132.115 126.123 131.928C126.389 131.74 126.57 131.477 126.668 131.137H127.676C127.574 131.723 127.293 132.197 126.832 132.561C126.371 132.924 125.803 133.105 125.127 133.105C124.275 133.105 123.596 132.822 123.088 132.256C122.58 131.686 122.326 130.918 122.326 129.953C122.326 129.004 122.58 128.242 123.088 127.668C123.596 127.09 124.271 126.801 125.115 126.801C125.814 126.801 126.389 126.992 126.838 127.375C127.291 127.758 127.566 128.227 127.664 128.781ZM130.805 129.789L133.734 133H132.422L129.791 130.07H129.744V133H128.736V126.906H129.744V129.602H129.791L132.393 126.906H133.652L130.805 129.789ZM135.592 133H134.584V126.906H135.592V131.441H135.639L138.686 126.906H139.693V133H138.686V128.465H138.639L135.592 133ZM142.131 133H141.123V126.906H142.131V131.441H142.178L145.225 126.906H146.232V133H145.225V128.465H145.178L142.131 133ZM141.902 124.27H142.652C142.652 124.617 142.756 124.906 142.963 125.137C143.174 125.367 143.449 125.482 143.789 125.482C144.129 125.482 144.402 125.367 144.609 125.137C144.82 124.906 144.926 124.617 144.926 124.27H145.676C145.676 124.809 145.5 125.246 145.148 125.582C144.801 125.918 144.348 126.086 143.789 126.086C143.23 126.086 142.775 125.918 142.424 125.582C142.076 125.246 141.902 124.809 141.902 124.27ZM113.027 139.801C113.809 139.801 114.438 140.088 114.914 140.662C115.395 141.236 115.635 142 115.635 142.953C115.635 143.902 115.396 144.666 114.92 145.244C114.443 145.818 113.82 146.105 113.051 146.105C112.621 146.105 112.236 146.008 111.896 145.812C111.557 145.617 111.295 145.35 111.111 145.01H111.088V148.033H110.068V139.906H111.035V140.938H111.059C111.25 140.586 111.518 140.309 111.861 140.105C112.205 139.902 112.594 139.801 113.027 139.801ZM112.828 145.209C113.371 145.209 113.801 145.006 114.117 144.6C114.434 144.193 114.592 143.645 114.592 142.953C114.592 142.262 114.434 141.713 114.117 141.307C113.801 140.9 113.371 140.697 112.828 140.697C112.305 140.697 111.883 140.904 111.562 141.318C111.242 141.732 111.082 142.277 111.082 142.953C111.082 143.633 111.242 144.18 111.562 144.594C111.883 145.004 112.305 145.209 112.828 145.209ZM120.545 143.047H116.701V142.098H120.545V143.047ZM125.924 146V143.258H122.918V146H121.91V139.906H122.918V142.42H125.924V139.906H126.932V146H125.924Z" fill="#C31844"/>
</svg>
