<svg width="266" height="169" viewBox="0 0 266 169" fill="none" xmlns="http://www.w3.org/2000/svg">
<path d="M25.9355 135.463C25.9355 136.209 25.6816 136.818 25.1738 137.291C24.6699 137.764 24.0215 138 23.2285 138H20.1523V129.545H25.0918V130.494H21.207V132.914H23.2168C24.0137 132.914 24.666 133.152 25.1738 133.629C25.6816 134.102 25.9355 134.713 25.9355 135.463ZM21.207 137.051H22.9531C23.5586 137.051 24.0254 136.914 24.3535 136.641C24.6855 136.363 24.8516 135.971 24.8516 135.463C24.8516 134.951 24.6855 134.557 24.3535 134.279C24.0254 134.002 23.5586 133.863 22.9531 133.863H21.207V137.051ZM29.2578 137.238C29.7383 137.238 30.1406 137.09 30.4648 136.793C30.793 136.492 30.957 136.123 30.957 135.686V135.188L29.3281 135.287C28.918 135.314 28.5996 135.414 28.373 135.586C28.1504 135.758 28.0391 135.988 28.0391 136.277C28.0391 136.566 28.1504 136.799 28.373 136.975C28.5957 137.15 28.8906 137.238 29.2578 137.238ZM29.0293 138.105C28.4238 138.105 27.9336 137.938 27.5586 137.602C27.1875 137.266 27.002 136.824 27.002 136.277C27.002 135.754 27.1934 135.336 27.5762 135.023C27.9629 134.711 28.5078 134.535 29.2109 134.496L30.957 134.396V133.887C30.957 133.516 30.8398 133.225 30.6055 133.014C30.3711 132.803 30.043 132.697 29.6211 132.697C29.2344 132.697 28.9199 132.783 28.6777 132.955C28.4355 133.123 28.2812 133.359 28.2148 133.664H27.2305C27.2656 133.121 27.5 132.676 27.9336 132.328C28.3711 131.977 28.9414 131.801 29.6445 131.801C30.3594 131.801 30.9258 131.98 31.3438 132.34C31.7656 132.699 31.9766 133.182 31.9766 133.787V138H31.0098V136.951H30.9863C30.8027 137.299 30.5332 137.578 30.1777 137.789C29.8223 138 29.4395 138.105 29.0293 138.105ZM37.3027 132.744H34.3906V138H33.3828V131.906H37.3027V132.744ZM40.1328 137.238C40.6133 137.238 41.0156 137.09 41.3398 136.793C41.668 136.492 41.832 136.123 41.832 135.686V135.188L40.2031 135.287C39.793 135.314 39.4746 135.414 39.248 135.586C39.0254 135.758 38.9141 135.988 38.9141 136.277C38.9141 136.566 39.0254 136.799 39.248 136.975C39.4707 137.15 39.7656 137.238 40.1328 137.238ZM39.9043 138.105C39.2988 138.105 38.8086 137.938 38.4336 137.602C38.0625 137.266 37.877 136.824 37.877 136.277C37.877 135.754 38.0684 135.336 38.4512 135.023C38.8379 134.711 39.3828 134.535 40.0859 134.496L41.832 134.396V133.887C41.832 133.516 41.7148 133.225 41.4805 133.014C41.2461 132.803 40.918 132.697 40.4961 132.697C40.1094 132.697 39.7949 132.783 39.5527 132.955C39.3105 133.123 39.1562 133.359 39.0898 133.664H38.1055C38.1406 133.121 38.375 132.676 38.8086 132.328C39.2461 131.977 39.8164 131.801 40.5195 131.801C41.2344 131.801 41.8008 131.98 42.2188 132.34C42.6406 132.699 42.8516 133.182 42.8516 133.787V138H41.8848V136.951H41.8613C41.6777 137.299 41.4082 137.578 41.0527 137.789C40.6973 138 40.3145 138.105 39.9043 138.105ZM46.707 132.686C46.2344 132.686 45.8418 132.85 45.5293 133.178C45.2207 133.502 45.0508 133.92 45.0195 134.432H48.3301C48.3184 133.916 48.1641 133.496 47.8672 133.172C47.5703 132.848 47.1836 132.686 46.707 132.686ZM48.3066 136.254H49.3086C49.2188 136.793 48.9375 137.236 48.4648 137.584C47.9961 137.932 47.4316 138.105 46.7715 138.105C45.9004 138.105 45.2148 137.824 44.7148 137.262C44.2148 136.699 43.9648 135.938 43.9648 134.977C43.9648 134.023 44.2148 133.256 44.7148 132.674C45.2188 132.092 45.8887 131.801 46.7246 131.801C47.5449 131.801 48.1934 132.076 48.6699 132.627C49.1465 133.178 49.3848 133.916 49.3848 134.842V135.229H45.0137V135.287C45.0137 135.873 45.1738 136.342 45.4941 136.693C45.8145 137.045 46.248 137.221 46.7949 137.221C47.1777 137.221 47.5039 137.133 47.7734 136.957C48.043 136.781 48.2207 136.547 48.3066 136.254ZM52.9824 132.732H51.5234V134.438H52.8301C53.5879 134.438 53.9668 134.148 53.9668 133.57C53.9668 133.301 53.8828 133.094 53.7148 132.949C53.5469 132.805 53.3027 132.732 52.9824 132.732ZM52.9121 135.258H51.5234V137.174H53.0938C53.4609 137.174 53.7422 137.094 53.9375 136.934C54.1328 136.77 54.2305 136.533 54.2305 136.225C54.2305 135.58 53.791 135.258 52.9121 135.258ZM50.5156 138V131.906H53.123C53.6934 131.906 54.1426 132.045 54.4707 132.322C54.7988 132.6 54.9629 132.98 54.9629 133.465C54.9629 133.773 54.8652 134.055 54.6699 134.309C54.4785 134.562 54.2422 134.719 53.9609 134.777V134.824C54.3438 134.879 54.6504 135.035 54.8809 135.293C55.1152 135.551 55.2324 135.869 55.2324 136.248C55.2324 136.787 55.0449 137.215 54.6699 137.531C54.2988 137.844 53.7891 138 53.1406 138H50.5156ZM61.4434 133.781H60.4355C60.3418 133.465 60.1641 133.205 59.9023 133.002C59.6406 132.799 59.3066 132.697 58.9004 132.697C58.3691 132.697 57.9434 132.904 57.623 133.318C57.3027 133.729 57.1426 134.273 57.1426 134.953C57.1426 135.645 57.3027 136.193 57.623 136.6C57.9473 137.006 58.377 137.209 58.9121 137.209C59.3105 137.209 59.6406 137.115 59.9023 136.928C60.168 136.74 60.3496 136.477 60.4473 136.137H61.4551C61.3535 136.723 61.0723 137.197 60.6113 137.561C60.1504 137.924 59.582 138.105 58.9062 138.105C58.0547 138.105 57.375 137.822 56.8672 137.256C56.3594 136.686 56.1055 135.918 56.1055 134.953C56.1055 134.004 56.3594 133.242 56.8672 132.668C57.375 132.09 58.0508 131.801 58.8945 131.801C59.5938 131.801 60.168 131.992 60.6172 132.375C61.0703 132.758 61.3457 133.227 61.4434 133.781ZM64.584 134.789L67.5137 138H66.2012L63.5703 135.07H63.5234V138H62.5156V131.906H63.5234V134.602H63.5703L66.1719 131.906H67.4316L64.584 134.789ZM69.3711 138H68.3633V131.906H69.3711V136.441H69.418L72.4648 131.906H73.4727V138H72.4648V133.465H72.418L69.3711 138ZM75.9102 138H74.9023V131.906H75.9102V136.441H75.957L79.0039 131.906H80.0117V138H79.0039V133.465H78.957L75.9102 138ZM75.6816 129.27H76.4316C76.4316 129.617 76.5352 129.906 76.7422 130.137C76.9531 130.367 77.2285 130.482 77.5684 130.482C77.9082 130.482 78.1816 130.367 78.3887 130.137C78.5996 129.906 78.7051 129.617 78.7051 129.27H79.4551C79.4551 129.809 79.2793 130.246 78.9277 130.582C78.5801 130.918 78.127 131.086 77.5684 131.086C77.0098 131.086 76.5547 130.918 76.2031 130.582C75.8555 130.246 75.6816 129.809 75.6816 129.27ZM44.5273 144.801C45.3086 144.801 45.9375 145.088 46.4141 145.662C46.8945 146.236 47.1348 147 47.1348 147.953C47.1348 148.902 46.8965 149.666 46.4199 150.244C45.9434 150.818 45.3203 151.105 44.5508 151.105C44.1211 151.105 43.7363 151.008 43.3965 150.812C43.0566 150.617 42.7949 150.35 42.6113 150.01H42.5879V153.033H41.5684V144.906H42.5352V145.938H42.5586C42.75 145.586 43.0176 145.309 43.3613 145.105C43.7051 144.902 44.0938 144.801 44.5273 144.801ZM44.3281 150.209C44.8711 150.209 45.3008 150.006 45.6172 149.6C45.9336 149.193 46.0918 148.645 46.0918 147.953C46.0918 147.262 45.9336 146.713 45.6172 146.307C45.3008 145.9 44.8711 145.697 44.3281 145.697C43.8047 145.697 43.3828 145.904 43.0625 146.318C42.7422 146.732 42.582 147.277 42.582 147.953C42.582 148.633 42.7422 149.18 43.0625 149.594C43.3828 150.004 43.8047 150.209 44.3281 150.209ZM52.0449 148.047H48.2012V147.098H52.0449V148.047ZM57.4238 151V148.258H54.418V151H53.4102V144.906H54.418V147.42H57.4238V144.906H58.4316V151H57.4238Z" fill="#C31844"/>
<path d="M81.084 153H77.8906V144.545H81.0957C81.8184 144.545 82.4023 144.738 82.8477 145.125C83.2969 145.512 83.5215 146.021 83.5215 146.654C83.5215 147.096 83.3789 147.496 83.0938 147.855C82.8125 148.211 82.4688 148.426 82.0625 148.5V148.547C82.6367 148.621 83.0938 148.846 83.4336 149.221C83.7773 149.596 83.9492 150.064 83.9492 150.627C83.9492 151.373 83.6953 151.955 83.1875 152.373C82.6836 152.791 81.9824 153 81.084 153ZM78.9453 145.477V148.189H80.5273C81.1523 148.189 81.6289 148.068 81.957 147.826C82.2891 147.584 82.4551 147.234 82.4551 146.777C82.4551 146.359 82.3164 146.039 82.0391 145.816C81.7617 145.59 81.3672 145.477 80.8555 145.477H78.9453ZM78.9453 152.068H80.9258C81.5625 152.068 82.0449 151.941 82.373 151.688C82.7012 151.434 82.8652 151.062 82.8652 150.574C82.8652 149.59 82.1855 149.098 80.8262 149.098H78.9453V152.068ZM87.5469 147.686C87.0742 147.686 86.6816 147.85 86.3691 148.178C86.0605 148.502 85.8906 148.92 85.8594 149.432H89.1699C89.1582 148.916 89.0039 148.496 88.707 148.172C88.4102 147.848 88.0234 147.686 87.5469 147.686ZM89.1465 151.254H90.1484C90.0586 151.793 89.7773 152.236 89.3047 152.584C88.8359 152.932 88.2715 153.105 87.6113 153.105C86.7402 153.105 86.0547 152.824 85.5547 152.262C85.0547 151.699 84.8047 150.938 84.8047 149.977C84.8047 149.023 85.0547 148.256 85.5547 147.674C86.0586 147.092 86.7285 146.801 87.5645 146.801C88.3848 146.801 89.0332 147.076 89.5098 147.627C89.9863 148.178 90.2246 148.916 90.2246 149.842V150.229H85.8535V150.287C85.8535 150.873 86.0137 151.342 86.334 151.693C86.6543 152.045 87.0879 152.221 87.6348 152.221C88.0176 152.221 88.3438 152.133 88.6133 151.957C88.8828 151.781 89.0605 151.547 89.1465 151.254ZM96.4004 148.781H95.3926C95.2988 148.465 95.1211 148.205 94.8594 148.002C94.5977 147.799 94.2637 147.697 93.8574 147.697C93.3262 147.697 92.9004 147.904 92.5801 148.318C92.2598 148.729 92.0996 149.273 92.0996 149.953C92.0996 150.645 92.2598 151.193 92.5801 151.6C92.9043 152.006 93.334 152.209 93.8691 152.209C94.2676 152.209 94.5977 152.115 94.8594 151.928C95.125 151.74 95.3066 151.477 95.4043 151.137H96.4121C96.3105 151.723 96.0293 152.197 95.5684 152.561C95.1074 152.924 94.5391 153.105 93.8633 153.105C93.0117 153.105 92.332 152.822 91.8242 152.256C91.3164 151.686 91.0625 150.918 91.0625 149.953C91.0625 149.004 91.3164 148.242 91.8242 147.668C92.332 147.09 93.0078 146.801 93.8516 146.801C94.5508 146.801 95.125 146.992 95.5742 147.375C96.0273 147.758 96.3027 148.227 96.4004 148.781ZM99.9219 147.686C99.4492 147.686 99.0566 147.85 98.7441 148.178C98.4355 148.502 98.2656 148.92 98.2344 149.432H101.545C101.533 148.916 101.379 148.496 101.082 148.172C100.785 147.848 100.398 147.686 99.9219 147.686ZM101.521 151.254H102.523C102.434 151.793 102.152 152.236 101.68 152.584C101.211 152.932 100.646 153.105 99.9863 153.105C99.1152 153.105 98.4297 152.824 97.9297 152.262C97.4297 151.699 97.1797 150.938 97.1797 149.977C97.1797 149.023 97.4297 148.256 97.9297 147.674C98.4336 147.092 99.1035 146.801 99.9395 146.801C100.76 146.801 101.408 147.076 101.885 147.627C102.361 148.178 102.6 148.916 102.6 149.842V150.229H98.2285V150.287C98.2285 150.873 98.3887 151.342 98.709 151.693C99.0293 152.045 99.4629 152.221 100.01 152.221C100.393 152.221 100.719 152.133 100.988 151.957C101.258 151.781 101.436 151.547 101.521 151.254ZM105.125 150.311C105.098 150.662 105.059 150.973 105.008 151.242C104.961 151.512 104.893 151.764 104.803 151.998C104.713 152.232 104.602 152.426 104.469 152.578C104.34 152.727 104.178 152.844 103.982 152.93C103.791 153.012 103.568 153.053 103.314 153.053C103.174 153.053 103.053 153.031 102.951 152.988V152.068C103.045 152.1 103.148 152.115 103.262 152.115C103.547 152.115 103.76 151.961 103.9 151.652C104.041 151.34 104.131 150.885 104.17 150.287L104.404 146.906H108.395V153H107.387V147.744H105.312L105.125 150.311ZM112.367 153.105C111.516 153.105 110.832 152.822 110.316 152.256C109.801 151.686 109.543 150.918 109.543 149.953C109.543 148.988 109.801 148.223 110.316 147.656C110.832 147.086 111.516 146.801 112.367 146.801C113.215 146.801 113.896 147.086 114.412 147.656C114.928 148.223 115.186 148.988 115.186 149.953C115.186 150.914 114.928 151.68 114.412 152.25C113.896 152.82 113.215 153.105 112.367 153.105ZM111.061 151.611C111.385 152.01 111.82 152.209 112.367 152.209C112.914 152.209 113.348 152.012 113.668 151.617C113.988 151.219 114.148 150.664 114.148 149.953C114.148 149.242 113.988 148.689 113.668 148.295C113.348 147.896 112.914 147.697 112.367 147.697C111.82 147.697 111.385 147.896 111.061 148.295C110.74 148.693 110.58 149.246 110.58 149.953C110.58 150.66 110.74 151.213 111.061 151.611ZM118.783 147.732H117.324V149.438H118.631C119.389 149.438 119.768 149.148 119.768 148.57C119.768 148.301 119.684 148.094 119.516 147.949C119.348 147.805 119.104 147.732 118.783 147.732ZM118.713 150.258H117.324V152.174H118.895C119.262 152.174 119.543 152.094 119.738 151.934C119.934 151.77 120.031 151.533 120.031 151.225C120.031 150.58 119.592 150.258 118.713 150.258ZM116.316 153V146.906H118.924C119.494 146.906 119.943 147.045 120.271 147.322C120.6 147.6 120.764 147.98 120.764 148.465C120.764 148.773 120.666 149.055 120.471 149.309C120.279 149.562 120.043 149.719 119.762 149.777V149.824C120.145 149.879 120.451 150.035 120.682 150.293C120.916 150.551 121.033 150.869 121.033 151.248C121.033 151.787 120.846 152.215 120.471 152.531C120.1 152.844 119.59 153 118.941 153H116.316ZM127.244 148.781H126.236C126.143 148.465 125.965 148.205 125.703 148.002C125.441 147.799 125.107 147.697 124.701 147.697C124.17 147.697 123.744 147.904 123.424 148.318C123.104 148.729 122.943 149.273 122.943 149.953C122.943 150.645 123.104 151.193 123.424 151.6C123.748 152.006 124.178 152.209 124.713 152.209C125.111 152.209 125.441 152.115 125.703 151.928C125.969 151.74 126.15 151.477 126.248 151.137H127.256C127.154 151.723 126.873 152.197 126.412 152.561C125.951 152.924 125.383 153.105 124.707 153.105C123.855 153.105 123.176 152.822 122.668 152.256C122.16 151.686 121.906 150.918 121.906 149.953C121.906 149.004 122.16 148.242 122.668 147.668C123.176 147.09 123.852 146.801 124.695 146.801C125.395 146.801 125.969 146.992 126.418 147.375C126.871 147.758 127.146 148.227 127.244 148.781ZM130.385 149.789L133.314 153H132.002L129.371 150.07H129.324V153H128.316V146.906H129.324V149.602H129.371L131.973 146.906H133.232L130.385 149.789ZM135.172 153H134.164V146.906H135.172V151.441H135.219L138.266 146.906H139.273V153H138.266V148.465H138.219L135.172 153ZM141.711 153H140.703V146.906H141.711V151.441H141.758L144.805 146.906H145.812V153H144.805V148.465H144.758L141.711 153ZM141.482 144.27H142.232C142.232 144.617 142.336 144.906 142.543 145.137C142.754 145.367 143.029 145.482 143.369 145.482C143.709 145.482 143.982 145.367 144.189 145.137C144.4 144.906 144.506 144.617 144.506 144.27H145.256C145.256 144.809 145.08 145.246 144.729 145.582C144.381 145.918 143.928 146.086 143.369 146.086C142.811 146.086 142.355 145.918 142.004 145.582C141.656 145.246 141.482 144.809 141.482 144.27ZM107.527 159.801C108.309 159.801 108.938 160.088 109.414 160.662C109.895 161.236 110.135 162 110.135 162.953C110.135 163.902 109.896 164.666 109.42 165.244C108.943 165.818 108.32 166.105 107.551 166.105C107.121 166.105 106.736 166.008 106.396 165.812C106.057 165.617 105.795 165.35 105.611 165.01H105.588V168.033H104.568V159.906H105.535V160.938H105.559C105.75 160.586 106.018 160.309 106.361 160.105C106.705 159.902 107.094 159.801 107.527 159.801ZM107.328 165.209C107.871 165.209 108.301 165.006 108.617 164.6C108.934 164.193 109.092 163.645 109.092 162.953C109.092 162.262 108.934 161.713 108.617 161.307C108.301 160.9 107.871 160.697 107.328 160.697C106.805 160.697 106.383 160.904 106.062 161.318C105.742 161.732 105.582 162.277 105.582 162.953C105.582 163.633 105.742 164.18 106.062 164.594C106.383 165.004 106.805 165.209 107.328 165.209ZM115.045 163.047H111.201V162.098H115.045V163.047ZM120.424 166V163.258H117.418V166H116.41V159.906H117.418V162.42H120.424V159.906H121.432V166H120.424Z" fill="#C31844"/>
<path d="M169.283 25.5879L173.52 30H172.072L168.17 25.8926H168.123V30H167.068V21.5449H168.123V25.4414H168.17L171.803 21.5449H173.127L169.283 25.5879ZM176.549 30.1055C175.697 30.1055 175.014 29.8223 174.498 29.2559C173.982 28.6855 173.725 27.918 173.725 26.9531C173.725 25.9883 173.982 25.2227 174.498 24.6562C175.014 24.0859 175.697 23.8008 176.549 23.8008C177.396 23.8008 178.078 24.0859 178.594 24.6562C179.109 25.2227 179.367 25.9883 179.367 26.9531C179.367 27.9141 179.109 28.6797 178.594 29.25C178.078 29.8203 177.396 30.1055 176.549 30.1055ZM175.242 28.6113C175.566 29.0098 176.002 29.209 176.549 29.209C177.096 29.209 177.529 29.0117 177.85 28.6172C178.17 28.2188 178.33 27.6641 178.33 26.9531C178.33 26.2422 178.17 25.6895 177.85 25.2949C177.529 24.8965 177.096 24.6973 176.549 24.6973C176.002 24.6973 175.566 24.8965 175.242 25.2949C174.922 25.6934 174.762 26.2461 174.762 26.9531C174.762 27.6602 174.922 28.2129 175.242 28.6113ZM184.512 30V27.2578H181.506V30H180.498V23.9062H181.506V26.4199H184.512V23.9062H185.52V30H184.512ZM192 25.7812H190.992C190.898 25.4648 190.721 25.2051 190.459 25.002C190.197 24.7988 189.863 24.6973 189.457 24.6973C188.926 24.6973 188.5 24.9043 188.18 25.3184C187.859 25.7285 187.699 26.2734 187.699 26.9531C187.699 27.6445 187.859 28.1934 188.18 28.5996C188.504 29.0059 188.934 29.209 189.469 29.209C189.867 29.209 190.197 29.1152 190.459 28.9277C190.725 28.7402 190.906 28.4766 191.004 28.1367H192.012C191.91 28.7227 191.629 29.1973 191.168 29.5605C190.707 29.9238 190.139 30.1055 189.463 30.1055C188.611 30.1055 187.932 29.8223 187.424 29.2559C186.916 28.6855 186.662 27.918 186.662 26.9531C186.662 26.0039 186.916 25.2422 187.424 24.668C187.932 24.0898 188.607 23.8008 189.451 23.8008C190.15 23.8008 190.725 23.9922 191.174 24.375C191.627 24.7578 191.902 25.2266 192 25.7812ZM197.414 23.9062V24.7441H195.445V30H194.438V24.7441H192.469V23.9062H197.414ZM200.139 29.2383C200.619 29.2383 201.021 29.0898 201.346 28.793C201.674 28.4922 201.838 28.123 201.838 27.6855V27.1875L200.209 27.2871C199.799 27.3145 199.48 27.4141 199.254 27.5859C199.031 27.7578 198.92 27.9883 198.92 28.2773C198.92 28.5664 199.031 28.7988 199.254 28.9746C199.477 29.1504 199.771 29.2383 200.139 29.2383ZM199.91 30.1055C199.305 30.1055 198.814 29.9375 198.439 29.6016C198.068 29.2656 197.883 28.8242 197.883 28.2773C197.883 27.7539 198.074 27.3359 198.457 27.0234C198.844 26.7109 199.389 26.5352 200.092 26.4961L201.838 26.3965V25.8867C201.838 25.5156 201.721 25.2246 201.486 25.0137C201.252 24.8027 200.924 24.6973 200.502 24.6973C200.115 24.6973 199.801 24.7832 199.559 24.9551C199.316 25.123 199.162 25.3594 199.096 25.6641H198.111C198.146 25.1211 198.381 24.6758 198.814 24.3281C199.252 23.9766 199.822 23.8008 200.525 23.8008C201.24 23.8008 201.807 23.9805 202.225 24.3398C202.646 24.6992 202.857 25.1816 202.857 25.7871V30H201.891V28.9512H201.867C201.684 29.2988 201.414 29.5781 201.059 29.7891C200.703 30 200.32 30.1055 199.91 30.1055ZM208.277 30V27.2578H205.271V30H204.264V23.9062H205.271V26.4199H208.277V23.9062H209.285V30H208.277ZM215.18 23.9062V24.7441H213.211V30H212.203V24.7441H210.234V23.9062H215.18ZM217.131 30H216.123V23.9062H217.131V28.4414H217.178L220.225 23.9062H221.232V30H220.225V25.4648H220.178L217.131 30ZM226.676 30V27.2578H223.67V30H222.662V23.9062H223.67V26.4199H226.676V23.9062H227.684V30H226.676ZM231.65 30.1055C230.799 30.1055 230.115 29.8223 229.6 29.2559C229.084 28.6855 228.826 27.918 228.826 26.9531C228.826 25.9883 229.084 25.2227 229.6 24.6562C230.115 24.0859 230.799 23.8008 231.65 23.8008C232.498 23.8008 233.18 24.0859 233.695 24.6562C234.211 25.2227 234.469 25.9883 234.469 26.9531C234.469 27.9141 234.211 28.6797 233.695 29.25C233.18 29.8203 232.498 30.1055 231.65 30.1055ZM230.344 28.6113C230.668 29.0098 231.104 29.209 231.65 29.209C232.197 29.209 232.631 29.0117 232.951 28.6172C233.271 28.2188 233.432 27.6641 233.432 26.9531C233.432 26.2422 233.271 25.6895 232.951 25.2949C232.631 24.8965 232.197 24.6973 231.65 24.6973C231.104 24.6973 230.668 24.8965 230.344 25.2949C230.023 25.6934 229.863 26.2461 229.863 26.9531C229.863 27.6602 230.023 28.2129 230.344 28.6113ZM238.066 24.7324H236.607V26.4375H237.914C238.672 26.4375 239.051 26.1484 239.051 25.5703C239.051 25.3008 238.967 25.0938 238.799 24.9492C238.631 24.8047 238.387 24.7324 238.066 24.7324ZM237.996 27.2578H236.607V29.1738H238.178C238.545 29.1738 238.826 29.0938 239.021 28.9336C239.217 28.7695 239.314 28.5332 239.314 28.2246C239.314 27.5801 238.875 27.2578 237.996 27.2578ZM235.6 30V23.9062H238.207C238.777 23.9062 239.227 24.0449 239.555 24.3223C239.883 24.5996 240.047 24.9805 240.047 25.4648C240.047 25.7734 239.949 26.0547 239.754 26.3086C239.562 26.5625 239.326 26.7188 239.045 26.7773V26.8242C239.428 26.8789 239.734 27.0352 239.965 27.293C240.199 27.5508 240.316 27.8691 240.316 28.248C240.316 28.7871 240.129 29.2148 239.754 29.5312C239.383 29.8438 238.873 30 238.225 30H235.6ZM246.527 25.7812H245.52C245.426 25.4648 245.248 25.2051 244.986 25.002C244.725 24.7988 244.391 24.6973 243.984 24.6973C243.453 24.6973 243.027 24.9043 242.707 25.3184C242.387 25.7285 242.227 26.2734 242.227 26.9531C242.227 27.6445 242.387 28.1934 242.707 28.5996C243.031 29.0059 243.461 29.209 243.996 29.209C244.395 29.209 244.725 29.1152 244.986 28.9277C245.252 28.7402 245.434 28.4766 245.531 28.1367H246.539C246.438 28.7227 246.156 29.1973 245.695 29.5605C245.234 29.9238 244.666 30.1055 243.99 30.1055C243.139 30.1055 242.459 29.8223 241.951 29.2559C241.443 28.6855 241.189 27.918 241.189 26.9531C241.189 26.0039 241.443 25.2422 241.951 24.668C242.459 24.0898 243.135 23.8008 243.979 23.8008C244.678 23.8008 245.252 23.9922 245.701 24.375C246.154 24.7578 246.43 25.2266 246.527 25.7812ZM249.668 26.7891L252.598 30H251.285L248.654 27.0703H248.607V30H247.6V23.9062H248.607V26.6016H248.654L251.256 23.9062H252.516L249.668 26.7891ZM254.455 30H253.447V23.9062H254.455V28.4414H254.502L257.549 23.9062H258.557V30H257.549V25.4648H257.502L254.455 30ZM260.994 30H259.986V23.9062H260.994V28.4414H261.041L264.088 23.9062H265.096V30H264.088V25.4648H264.041L260.994 30ZM260.766 21.2695H261.516C261.516 21.6172 261.619 21.9062 261.826 22.1367C262.037 22.3672 262.312 22.4824 262.652 22.4824C262.992 22.4824 263.266 22.3672 263.473 22.1367C263.684 21.9062 263.789 21.6172 263.789 21.2695H264.539C264.539 21.8086 264.363 22.2461 264.012 22.582C263.664 22.918 263.211 23.0859 262.652 23.0859C262.094 23.0859 261.639 22.918 261.287 22.582C260.939 22.2461 260.766 21.8086 260.766 21.2695ZM210.527 36.8008C211.309 36.8008 211.938 37.0879 212.414 37.6621C212.895 38.2363 213.135 39 213.135 39.9531C213.135 40.9023 212.896 41.666 212.42 42.2441C211.943 42.8184 211.32 43.1055 210.551 43.1055C210.121 43.1055 209.736 43.0078 209.396 42.8125C209.057 42.6172 208.795 42.3496 208.611 42.0098H208.588V45.0332H207.568V36.9062H208.535V37.9375H208.559C208.75 37.5859 209.018 37.3086 209.361 37.1055C209.705 36.9023 210.094 36.8008 210.527 36.8008ZM210.328 42.209C210.871 42.209 211.301 42.0059 211.617 41.5996C211.934 41.1934 212.092 40.6445 212.092 39.9531C212.092 39.2617 211.934 38.7129 211.617 38.3066C211.301 37.9004 210.871 37.6973 210.328 37.6973C209.805 37.6973 209.383 37.9043 209.062 38.3184C208.742 38.7324 208.582 39.2773 208.582 39.9531C208.582 40.6328 208.742 41.1797 209.062 41.5938C209.383 42.0039 209.805 42.209 210.328 42.209ZM218.045 40.0469H214.201V39.0977H218.045V40.0469ZM223.424 43V40.2578H220.418V43H219.41V36.9062H220.418V39.4199H223.424V36.9062H224.432V43H223.424Z" fill="#C31844"/>
<path d="M1.81836 38.582C2.51758 37.7969 3.4668 37.4043 4.66602 37.4043C5.86523 37.4043 6.81445 37.7969 7.51367 38.582C8.21289 39.3672 8.5625 40.4316 8.5625 41.7754C8.5625 43.1191 8.21289 44.1836 7.51367 44.9688C6.81445 45.75 5.86523 46.1406 4.66602 46.1406C3.4668 46.1406 2.51758 45.75 1.81836 44.9688C1.11914 44.1836 0.769531 43.1191 0.769531 41.7754C0.769531 40.4316 1.11914 39.3672 1.81836 38.582ZM6.7168 39.2969C6.21289 38.6836 5.5293 38.377 4.66602 38.377C3.80273 38.377 3.11719 38.6836 2.60938 39.2969C2.10547 39.9062 1.85352 40.7324 1.85352 41.7754C1.85352 42.8145 2.10547 43.6406 2.60938 44.2539C3.11719 44.8633 3.80273 45.168 4.66602 45.168C5.5293 45.168 6.21289 44.8633 6.7168 44.2539C7.22461 43.6406 7.47852 42.8145 7.47852 41.7754C7.47852 40.7324 7.22461 39.9062 6.7168 39.2969ZM11.8965 42.7891L14.8262 46H13.5137L10.8828 43.0703H10.8359V46H9.82812V39.9062H10.8359V42.6016H10.8828L13.4844 39.9062H14.7441L11.8965 42.7891ZM20.0176 39.9062V40.7441H18.0488V46H17.041V40.7441H15.0723V39.9062H20.0176ZM22.9766 42.9941H24.1426V40.7441H22.9766C22.5781 40.7441 22.2617 40.8477 22.0273 41.0547C21.7969 41.2617 21.6816 41.5469 21.6816 41.9102C21.6816 42.2305 21.7988 42.4922 22.0332 42.6953C22.2715 42.8945 22.5859 42.9941 22.9766 42.9941ZM24.1426 46V43.832H23.0645L21.5176 46H20.3516L22.0508 43.6445C21.6172 43.5195 21.2773 43.3066 21.0312 43.0059C20.7891 42.7051 20.668 42.3457 20.668 41.9277C20.668 41.3027 20.875 40.8105 21.2891 40.4512C21.707 40.0879 22.2676 39.9062 22.9707 39.9062H25.1504V46H24.1426ZM29.1992 46.1055C28.2617 46.1055 27.5508 45.7949 27.0664 45.1738C26.5859 44.5527 26.3457 43.6387 26.3457 42.4316C26.3457 40.7402 26.5938 39.5195 27.0898 38.7695C27.5898 38.0195 28.4277 37.623 29.6035 37.5801L30.0547 37.5625C30.7656 37.5273 31.2949 37.418 31.6426 37.2344V38.125C31.5449 38.2148 31.3516 38.293 31.0625 38.3594C30.7734 38.4258 30.4531 38.4668 30.1016 38.4824L29.6504 38.5C29.2246 38.5156 28.8691 38.5742 28.584 38.6758C28.3027 38.7773 28.0684 38.9395 27.8809 39.1621C27.6973 39.3848 27.5547 39.6504 27.4531 39.959C27.3516 40.2637 27.2695 40.6543 27.207 41.1309H27.2539C27.4492 40.7754 27.7285 40.5039 28.0918 40.3164C28.459 40.1289 28.8789 40.0352 29.3516 40.0352C30.1758 40.0352 30.8301 40.3047 31.3145 40.8438C31.8027 41.3789 32.0469 42.1016 32.0469 43.0117C32.0469 43.9688 31.793 44.7246 31.2852 45.2793C30.7773 45.8301 30.082 46.1055 29.1992 46.1055ZM27.8633 44.6348C28.1797 45.0137 28.625 45.2031 29.1992 45.2031C29.7734 45.2031 30.2168 45.0137 30.5293 44.6348C30.8457 44.252 31.0039 43.7109 31.0039 43.0117C31.0039 42.3477 30.8457 41.834 30.5293 41.4707C30.2168 41.1074 29.7734 40.9258 29.1992 40.9258C28.625 40.9258 28.1797 41.1074 27.8633 41.4707C27.5469 41.834 27.3887 42.3477 27.3887 43.0117C27.3887 43.7109 27.5469 44.252 27.8633 44.6348ZM36.1484 39.8008C36.9297 39.8008 37.5586 40.0879 38.0352 40.6621C38.5156 41.2363 38.7559 42 38.7559 42.9531C38.7559 43.9023 38.5176 44.666 38.041 45.2441C37.5645 45.8184 36.9414 46.1055 36.1719 46.1055C35.7422 46.1055 35.3574 46.0078 35.0176 45.8125C34.6777 45.6172 34.416 45.3496 34.2324 45.0098H34.209V48.0332H33.1895V39.9062H34.1562V40.9375H34.1797C34.3711 40.5859 34.6387 40.3086 34.9824 40.1055C35.3262 39.9023 35.7148 39.8008 36.1484 39.8008ZM35.9492 45.209C36.4922 45.209 36.9219 45.0059 37.2383 44.5996C37.5547 44.1934 37.7129 43.6445 37.7129 42.9531C37.7129 42.2617 37.5547 41.7129 37.2383 41.3066C36.9219 40.9004 36.4922 40.6973 35.9492 40.6973C35.4258 40.6973 35.0039 40.9043 34.6836 41.3184C34.3633 41.7324 34.2031 42.2773 34.2031 42.9531C34.2031 43.6328 34.3633 44.1797 34.6836 44.5938C35.0039 45.0039 35.4258 45.209 35.9492 45.209ZM42.0312 42.6895H40.8945V45.1621H42.0312C42.4258 45.1621 42.7402 45.0488 42.9746 44.8223C43.2129 44.5957 43.332 44.2969 43.332 43.9258C43.332 43.5508 43.2129 43.252 42.9746 43.0293C42.7402 42.8027 42.4258 42.6895 42.0312 42.6895ZM39.8867 46V39.9062H40.8945V41.8516H42.0488C42.748 41.8516 43.3047 42.0391 43.7188 42.4141C44.1328 42.7891 44.3398 43.293 44.3398 43.9258C44.3398 44.5586 44.1328 45.0625 43.7188 45.4375C43.3047 45.8125 42.748 46 42.0488 46H39.8867ZM50.498 41.7812H49.4902C49.3965 41.4648 49.2188 41.2051 48.957 41.002C48.6953 40.7988 48.3613 40.6973 47.9551 40.6973C47.4238 40.6973 46.998 40.9043 46.6777 41.3184C46.3574 41.7285 46.1973 42.2734 46.1973 42.9531C46.1973 43.6445 46.3574 44.1934 46.6777 44.5996C47.002 45.0059 47.4316 45.209 47.9668 45.209C48.3652 45.209 48.6953 45.1152 48.957 44.9277C49.2227 44.7402 49.4043 44.4766 49.502 44.1367H50.5098C50.4082 44.7227 50.127 45.1973 49.666 45.5605C49.2051 45.9238 48.6367 46.1055 47.9609 46.1055C47.1094 46.1055 46.4297 45.8223 45.9219 45.2559C45.4141 44.6855 45.1602 43.918 45.1602 42.9531C45.1602 42.0039 45.4141 41.2422 45.9219 40.668C46.4297 40.0898 47.1055 39.8008 47.9492 39.8008C48.6484 39.8008 49.2227 39.9922 49.6719 40.375C50.125 40.7578 50.4004 41.2266 50.498 41.7812ZM53.6387 42.7891L56.5684 46H55.2559L52.625 43.0703H52.5781V46H51.5703V39.9062H52.5781V42.6016H52.625L55.2266 39.9062H56.4863L53.6387 42.7891ZM58.4258 46H57.418V39.9062H58.4258V44.4414H58.4727L61.5195 39.9062H62.5273V46H61.5195V41.4648H61.4727L58.4258 46ZM64.9648 46H63.957V39.9062H64.9648V44.4414H65.0117L68.0586 39.9062H69.0664V46H68.0586V41.4648H68.0117L64.9648 46ZM64.7363 37.2695H65.4863C65.4863 37.6172 65.5898 37.9062 65.7969 38.1367C66.0078 38.3672 66.2832 38.4824 66.623 38.4824C66.9629 38.4824 67.2363 38.3672 67.4434 38.1367C67.6543 37.9062 67.7598 37.6172 67.7598 37.2695H68.5098C68.5098 37.8086 68.334 38.2461 67.9824 38.582C67.6348 38.918 67.1816 39.0859 66.623 39.0859C66.0645 39.0859 65.6094 38.918 65.2578 38.582C64.9102 38.2461 64.7363 37.8086 64.7363 37.2695ZM29.5273 52.8008C30.3086 52.8008 30.9375 53.0879 31.4141 53.6621C31.8945 54.2363 32.1348 55 32.1348 55.9531C32.1348 56.9023 31.8965 57.666 31.4199 58.2441C30.9434 58.8184 30.3203 59.1055 29.5508 59.1055C29.1211 59.1055 28.7363 59.0078 28.3965 58.8125C28.0566 58.6172 27.7949 58.3496 27.6113 58.0098H27.5879V61.0332H26.5684V52.9062H27.5352V53.9375H27.5586C27.75 53.5859 28.0176 53.3086 28.3613 53.1055C28.7051 52.9023 29.0938 52.8008 29.5273 52.8008ZM29.3281 58.209C29.8711 58.209 30.3008 58.0059 30.6172 57.5996C30.9336 57.1934 31.0918 56.6445 31.0918 55.9531C31.0918 55.2617 30.9336 54.7129 30.6172 54.3066C30.3008 53.9004 29.8711 53.6973 29.3281 53.6973C28.8047 53.6973 28.3828 53.9043 28.0625 54.3184C27.7422 54.7324 27.582 55.2773 27.582 55.9531C27.582 56.6328 27.7422 57.1797 28.0625 57.5938C28.3828 58.0039 28.8047 58.209 29.3281 58.209ZM37.0449 56.0469H33.2012V55.0977H37.0449V56.0469ZM42.4238 59V56.2578H39.418V59H38.4102V52.9062H39.418V55.4199H42.4238V52.9062H43.4316V59H42.4238Z" fill="#C31844"/>
<path d="M117.373 11.0586C117.162 11.0586 117.006 11.0332 116.904 10.9824V10.0332C117.029 10.0645 117.186 10.0801 117.373 10.0801C117.689 10.0801 117.957 10.0098 118.176 9.86914C118.395 9.72852 118.588 9.50391 118.756 9.19531L115.867 2.54492H116.992L119.26 8.02344H119.354L121.568 2.54492H122.664L120.074 8.58008C119.672 9.51758 119.275 10.166 118.885 10.5254C118.498 10.8809 117.994 11.0586 117.373 11.0586ZM127.984 6.78125H126.977C126.883 6.46484 126.705 6.20508 126.443 6.00195C126.182 5.79883 125.848 5.69727 125.441 5.69727C124.91 5.69727 124.484 5.9043 124.164 6.31836C123.844 6.72852 123.684 7.27344 123.684 7.95312C123.684 8.64453 123.844 9.19336 124.164 9.59961C124.488 10.0059 124.918 10.209 125.453 10.209C125.852 10.209 126.182 10.1152 126.443 9.92773C126.709 9.74023 126.891 9.47656 126.988 9.13672H127.996C127.895 9.72266 127.613 10.1973 127.152 10.5605C126.691 10.9238 126.123 11.1055 125.447 11.1055C124.596 11.1055 123.916 10.8223 123.408 10.2559C122.9 9.68555 122.646 8.91797 122.646 7.95312C122.646 7.00391 122.9 6.24219 123.408 5.66797C123.916 5.08984 124.592 4.80078 125.436 4.80078C126.135 4.80078 126.709 4.99219 127.158 5.375C127.611 5.75781 127.887 6.22656 127.984 6.78125ZM133.398 4.90625V5.74414H131.43V11H130.422V5.74414H128.453V4.90625H133.398ZM136.486 7.68945H135.35V10.1621H136.486C136.881 10.1621 137.195 10.0488 137.43 9.82227C137.668 9.5957 137.787 9.29688 137.787 8.92578C137.787 8.55078 137.668 8.25195 137.43 8.0293C137.195 7.80273 136.881 7.68945 136.486 7.68945ZM134.342 11V4.90625H135.35V6.85156H136.504C137.203 6.85156 137.76 7.03906 138.174 7.41406C138.588 7.78906 138.795 8.29297 138.795 8.92578C138.795 9.55859 138.588 10.0625 138.174 10.4375C137.76 10.8125 137.203 11 136.504 11H134.342ZM143.688 8.04688H139.844V7.09766H143.688V8.04688ZM105.906 20.8887C105.875 21.4121 105.816 21.8359 105.73 22.1602C105.648 22.4844 105.51 22.7656 105.314 23.0039V23.0508H109.416V16.4941H106.182L105.906 20.8887ZM104.359 24V25.6699H103.381V23.0508H104.008C104.301 22.8945 104.516 22.6387 104.652 22.2832C104.793 21.9238 104.881 21.4512 104.916 20.8652L105.238 15.5449H110.471V23.0508H111.525V25.6699H110.547V24H104.359ZM115.123 24.1055C114.271 24.1055 113.588 23.8223 113.072 23.2559C112.557 22.6855 112.299 21.918 112.299 20.9531C112.299 19.9883 112.557 19.2227 113.072 18.6562C113.588 18.0859 114.271 17.8008 115.123 17.8008C115.971 17.8008 116.652 18.0859 117.168 18.6562C117.684 19.2227 117.941 19.9883 117.941 20.9531C117.941 21.9141 117.684 22.6797 117.168 23.25C116.652 23.8203 115.971 24.1055 115.123 24.1055ZM113.816 22.6113C114.141 23.0098 114.576 23.209 115.123 23.209C115.67 23.209 116.104 23.0117 116.424 22.6172C116.744 22.2188 116.904 21.6641 116.904 20.9531C116.904 20.2422 116.744 19.6895 116.424 19.2949C116.104 18.8965 115.67 18.6973 115.123 18.6973C114.576 18.6973 114.141 18.8965 113.816 19.2949C113.496 19.6934 113.336 20.2461 113.336 20.9531C113.336 21.6602 113.496 22.2129 113.816 22.6113ZM123.086 24V21.2578H120.08V24H119.072V17.9062H120.08V20.4199H123.086V17.9062H124.094V24H123.086ZM127.979 18.6855C127.506 18.6855 127.113 18.8496 126.801 19.1777C126.492 19.502 126.322 19.9199 126.291 20.4316H129.602C129.59 19.916 129.436 19.4961 129.139 19.1719C128.842 18.8477 128.455 18.6855 127.979 18.6855ZM129.578 22.2539H130.58C130.49 22.793 130.209 23.2363 129.736 23.584C129.268 23.9316 128.703 24.1055 128.043 24.1055C127.172 24.1055 126.486 23.8242 125.986 23.2617C125.486 22.6992 125.236 21.9375 125.236 20.9766C125.236 20.0234 125.486 19.2559 125.986 18.6738C126.49 18.0918 127.16 17.8008 127.996 17.8008C128.816 17.8008 129.465 18.0762 129.941 18.627C130.418 19.1777 130.656 19.916 130.656 20.8418V21.2285H126.285V21.2871C126.285 21.873 126.445 22.3418 126.766 22.6934C127.086 23.0449 127.52 23.2207 128.066 23.2207C128.449 23.2207 128.775 23.1328 129.045 22.957C129.314 22.7812 129.492 22.5469 129.578 22.2539ZM137.67 25.6113H136.721V24H131.787V17.9062H132.795V23.1621H135.689V17.9062H136.697V23.1621H137.67V25.6113ZM140.652 20.7891L143.582 24H142.27L139.639 21.0703H139.592V24H138.584V17.9062H139.592V20.6016H139.639L142.24 17.9062H143.5L140.652 20.7891ZM145.439 24H144.432V17.9062H145.439V22.4414H145.486L148.533 17.9062H149.541V24H148.533V19.4648H148.486L145.439 24ZM151.979 24H150.971V17.9062H151.979V22.4414H152.025L155.072 17.9062H156.08V24H155.072V19.4648H155.025L151.979 24ZM151.75 15.2695H152.5C152.5 15.6172 152.604 15.9062 152.811 16.1367C153.021 16.3672 153.297 16.4824 153.637 16.4824C153.977 16.4824 154.25 16.3672 154.457 16.1367C154.668 15.9062 154.773 15.6172 154.773 15.2695H155.523C155.523 15.8086 155.348 16.2461 154.996 16.582C154.648 16.918 154.195 17.0859 153.637 17.0859C153.078 17.0859 152.623 16.918 152.271 16.582C151.924 16.2461 151.75 15.8086 151.75 15.2695ZM124.527 30.8008C125.309 30.8008 125.938 31.0879 126.414 31.6621C126.895 32.2363 127.135 33 127.135 33.9531C127.135 34.9023 126.896 35.666 126.42 36.2441C125.943 36.8184 125.32 37.1055 124.551 37.1055C124.121 37.1055 123.736 37.0078 123.396 36.8125C123.057 36.6172 122.795 36.3496 122.611 36.0098H122.588V39.0332H121.568V30.9062H122.535V31.9375H122.559C122.75 31.5859 123.018 31.3086 123.361 31.1055C123.705 30.9023 124.094 30.8008 124.527 30.8008ZM124.328 36.209C124.871 36.209 125.301 36.0059 125.617 35.5996C125.934 35.1934 126.092 34.6445 126.092 33.9531C126.092 33.2617 125.934 32.7129 125.617 32.3066C125.301 31.9004 124.871 31.6973 124.328 31.6973C123.805 31.6973 123.383 31.9043 123.062 32.3184C122.742 32.7324 122.582 33.2773 122.582 33.9531C122.582 34.6328 122.742 35.1797 123.062 35.5938C123.383 36.0039 123.805 36.209 124.328 36.209ZM132.045 34.0469H128.201V33.0977H132.045V34.0469ZM137.424 37V34.2578H134.418V37H133.41V30.9062H134.418V33.4199H137.424V30.9062H138.432V37H137.424Z" fill="#C31844"/>
<path d="M125.598 78.1406C124.43 78.1406 123.502 77.748 122.814 76.9629C122.131 76.1738 121.789 75.1094 121.789 73.7695C121.789 72.4414 122.135 71.3828 122.826 70.5938C123.518 69.8008 124.441 69.4043 125.598 69.4043C126.496 69.4043 127.262 69.6504 127.895 70.1426C128.531 70.6309 128.928 71.2812 129.084 72.0938H128.006C127.854 71.5703 127.559 71.1543 127.121 70.8457C126.684 70.5332 126.176 70.377 125.598 70.377C124.773 70.377 124.113 70.6855 123.617 71.3027C123.121 71.9199 122.873 72.7422 122.873 73.7695C122.873 74.8086 123.119 75.6348 123.611 76.248C124.104 76.8613 124.768 77.168 125.604 77.168C126.201 77.168 126.709 77.0352 127.127 76.7695C127.545 76.5039 127.838 76.1289 128.006 75.6445H129.084C128.877 76.4492 128.473 77.0664 127.871 77.4961C127.27 77.9258 126.512 78.1406 125.598 78.1406ZM132.734 72.6855C132.262 72.6855 131.869 72.8496 131.557 73.1777C131.248 73.502 131.078 73.9199 131.047 74.4316H134.357C134.346 73.916 134.191 73.4961 133.895 73.1719C133.598 72.8477 133.211 72.6855 132.734 72.6855ZM134.334 76.2539H135.336C135.246 76.793 134.965 77.2363 134.492 77.584C134.023 77.9316 133.459 78.1055 132.799 78.1055C131.928 78.1055 131.242 77.8242 130.742 77.2617C130.242 76.6992 129.992 75.9375 129.992 74.9766C129.992 74.0234 130.242 73.2559 130.742 72.6738C131.246 72.0918 131.916 71.8008 132.752 71.8008C133.572 71.8008 134.221 72.0762 134.697 72.627C135.174 73.1777 135.412 73.916 135.412 74.8418V75.2285H131.041V75.2871C131.041 75.873 131.201 76.3418 131.521 76.6934C131.842 77.0449 132.275 77.2207 132.822 77.2207C133.205 77.2207 133.531 77.1328 133.801 76.957C134.07 76.7812 134.248 76.5469 134.334 76.2539ZM137.551 78H136.543V71.9062H137.779L139.947 76.6523H139.994L142.174 71.9062H143.363V78H142.35V73.6758H142.309L140.34 77.8242H139.561L137.592 73.6758H137.551V78ZM145.801 78H144.793V71.9062H145.801V76.4414H145.848L148.895 71.9062H149.902V78H148.895V73.4648H148.848L145.801 78ZM155.111 75.0469H151.268V74.0977H155.111V75.0469ZM106.977 87.7891L109.906 91H108.594L105.963 88.0703H105.916V91H104.908V84.9062H105.916V87.6016H105.963L108.564 84.9062H109.824L106.977 87.7891ZM112.596 90.2383C113.076 90.2383 113.479 90.0898 113.803 89.793C114.131 89.4922 114.295 89.123 114.295 88.6855V88.1875L112.666 88.2871C112.256 88.3145 111.938 88.4141 111.711 88.5859C111.488 88.7578 111.377 88.9883 111.377 89.2773C111.377 89.5664 111.488 89.7988 111.711 89.9746C111.934 90.1504 112.229 90.2383 112.596 90.2383ZM112.367 91.1055C111.762 91.1055 111.271 90.9375 110.896 90.6016C110.525 90.2656 110.34 89.8242 110.34 89.2773C110.34 88.7539 110.531 88.3359 110.914 88.0234C111.301 87.7109 111.846 87.5352 112.549 87.4961L114.295 87.3965V86.8867C114.295 86.5156 114.178 86.2246 113.943 86.0137C113.709 85.8027 113.381 85.6973 112.959 85.6973C112.572 85.6973 112.258 85.7832 112.016 85.9551C111.773 86.123 111.619 86.3594 111.553 86.6641H110.568C110.604 86.1211 110.838 85.6758 111.271 85.3281C111.709 84.9766 112.279 84.8008 112.982 84.8008C113.697 84.8008 114.264 84.9805 114.682 85.3398C115.104 85.6992 115.314 86.1816 115.314 86.7871V91H114.348V89.9512H114.324C114.141 90.2988 113.871 90.5781 113.516 90.7891C113.16 91 112.777 91.1055 112.367 91.1055ZM119.686 84.8008C120.467 84.8008 121.096 85.0879 121.572 85.6621C122.053 86.2363 122.293 87 122.293 87.9531C122.293 88.9023 122.055 89.666 121.578 90.2441C121.102 90.8184 120.479 91.1055 119.709 91.1055C119.279 91.1055 118.895 91.0078 118.555 90.8125C118.215 90.6172 117.953 90.3496 117.77 90.0098H117.746V93.0332H116.727V84.9062H117.693V85.9375H117.717C117.908 85.5859 118.176 85.3086 118.52 85.1055C118.863 84.9023 119.252 84.8008 119.686 84.8008ZM119.486 90.209C120.029 90.209 120.459 90.0059 120.775 89.5996C121.092 89.1934 121.25 88.6445 121.25 87.9531C121.25 87.2617 121.092 86.7129 120.775 86.3066C120.459 85.9004 120.029 85.6973 119.486 85.6973C118.963 85.6973 118.541 85.9043 118.221 86.3184C117.9 86.7324 117.74 87.2773 117.74 87.9531C117.74 88.6328 117.9 89.1797 118.221 89.5938C118.541 90.0039 118.963 90.209 119.486 90.209ZM125.439 90.2383C125.92 90.2383 126.322 90.0898 126.646 89.793C126.975 89.4922 127.139 89.123 127.139 88.6855V88.1875L125.51 88.2871C125.1 88.3145 124.781 88.4141 124.555 88.5859C124.332 88.7578 124.221 88.9883 124.221 89.2773C124.221 89.5664 124.332 89.7988 124.555 89.9746C124.777 90.1504 125.072 90.2383 125.439 90.2383ZM125.211 91.1055C124.605 91.1055 124.115 90.9375 123.74 90.6016C123.369 90.2656 123.184 89.8242 123.184 89.2773C123.184 88.7539 123.375 88.3359 123.758 88.0234C124.145 87.7109 124.689 87.5352 125.393 87.4961L127.139 87.3965V86.8867C127.139 86.5156 127.021 86.2246 126.787 86.0137C126.553 85.8027 126.225 85.6973 125.803 85.6973C125.416 85.6973 125.102 85.7832 124.859 85.9551C124.617 86.123 124.463 86.3594 124.396 86.6641H123.412C123.447 86.1211 123.682 85.6758 124.115 85.3281C124.553 84.9766 125.123 84.8008 125.826 84.8008C126.541 84.8008 127.107 84.9805 127.525 85.3398C127.947 85.6992 128.158 86.1816 128.158 86.7871V91H127.191V89.9512H127.168C126.984 90.2988 126.715 90.5781 126.359 90.7891C126.004 91 125.621 91.1055 125.211 91.1055ZM131.633 87.7891L134.562 91H133.25L130.619 88.0703H130.572V91H129.564V84.9062H130.572V87.6016H130.619L133.221 84.9062H134.48L131.633 87.7891ZM137.826 91.1055C136.975 91.1055 136.291 90.8223 135.775 90.2559C135.26 89.6855 135.002 88.918 135.002 87.9531C135.002 86.9883 135.26 86.2227 135.775 85.6562C136.291 85.0859 136.975 84.8008 137.826 84.8008C138.674 84.8008 139.355 85.0859 139.871 85.6562C140.387 86.2227 140.645 86.9883 140.645 87.9531C140.645 88.9141 140.387 89.6797 139.871 90.25C139.355 90.8203 138.674 91.1055 137.826 91.1055ZM136.52 89.6113C136.844 90.0098 137.279 90.209 137.826 90.209C138.373 90.209 138.807 90.0117 139.127 89.6172C139.447 89.2188 139.607 88.6641 139.607 87.9531C139.607 87.2422 139.447 86.6895 139.127 86.2949C138.807 85.8965 138.373 85.6973 137.826 85.6973C137.279 85.6973 136.844 85.8965 136.52 86.2949C136.199 86.6934 136.039 87.2461 136.039 87.9531C136.039 88.6602 136.199 89.2129 136.52 89.6113ZM144.74 84.8008C145.521 84.8008 146.15 85.0879 146.627 85.6621C147.107 86.2363 147.348 87 147.348 87.9531C147.348 88.9023 147.109 89.666 146.633 90.2441C146.156 90.8184 145.533 91.1055 144.764 91.1055C144.334 91.1055 143.949 91.0078 143.609 90.8125C143.27 90.6172 143.008 90.3496 142.824 90.0098H142.801V93.0332H141.781V84.9062H142.748V85.9375H142.771C142.963 85.5859 143.23 85.3086 143.574 85.1055C143.918 84.9023 144.307 84.8008 144.74 84.8008ZM144.541 90.209C145.084 90.209 145.514 90.0059 145.83 89.5996C146.146 89.1934 146.305 88.6445 146.305 87.9531C146.305 87.2617 146.146 86.7129 145.83 86.3066C145.514 85.9004 145.084 85.6973 144.541 85.6973C144.018 85.6973 143.596 85.9043 143.275 86.3184C142.955 86.7324 142.795 87.2773 142.795 87.9531C142.795 88.6328 142.955 89.1797 143.275 89.5938C143.596 90.0039 144.018 90.209 144.541 90.209ZM153.523 86.7812H152.516C152.422 86.4648 152.244 86.2051 151.982 86.002C151.721 85.7988 151.387 85.6973 150.98 85.6973C150.449 85.6973 150.023 85.9043 149.703 86.3184C149.383 86.7285 149.223 87.2734 149.223 87.9531C149.223 88.6445 149.383 89.1934 149.703 89.5996C150.027 90.0059 150.457 90.209 150.992 90.209C151.391 90.209 151.721 90.1152 151.982 89.9277C152.248 89.7402 152.43 89.4766 152.527 89.1367H153.535C153.434 89.7227 153.152 90.1973 152.691 90.5605C152.23 90.9238 151.662 91.1055 150.986 91.1055C150.135 91.1055 149.455 90.8223 148.947 90.2559C148.439 89.6855 148.186 88.918 148.186 87.9531C148.186 87.0039 148.439 86.2422 148.947 85.668C149.455 85.0898 150.131 84.8008 150.975 84.8008C151.674 84.8008 152.248 84.9922 152.697 85.375C153.15 85.7578 153.426 86.2266 153.523 86.7812ZM156.664 87.7891L159.594 91H158.281L155.65 88.0703H155.604V91H154.596V84.9062H155.604V87.6016H155.65L158.252 84.9062H159.512L156.664 87.7891ZM161.451 91H160.443V84.9062H161.451V89.4414H161.498L164.545 84.9062H165.553V91H164.545V86.4648H164.498L161.451 91ZM167.99 91H166.982V84.9062H167.99V89.4414H168.037L171.084 84.9062H172.092V91H171.084V86.4648H171.037L167.99 91ZM167.762 82.2695H168.512C168.512 82.6172 168.615 82.9062 168.822 83.1367C169.033 83.3672 169.309 83.4824 169.648 83.4824C169.988 83.4824 170.262 83.3672 170.469 83.1367C170.68 82.9062 170.785 82.6172 170.785 82.2695H171.535C171.535 82.8086 171.359 83.2461 171.008 83.582C170.66 83.918 170.207 84.0859 169.648 84.0859C169.09 84.0859 168.635 83.918 168.283 83.582C167.936 83.2461 167.762 82.8086 167.762 82.2695ZM133.027 97.8008C133.809 97.8008 134.438 98.0879 134.914 98.6621C135.395 99.2363 135.635 100 135.635 100.953C135.635 101.902 135.396 102.666 134.92 103.244C134.443 103.818 133.82 104.105 133.051 104.105C132.621 104.105 132.236 104.008 131.896 103.812C131.557 103.617 131.295 103.35 131.111 103.01H131.088V106.033H130.068V97.9062H131.035V98.9375H131.059C131.25 98.5859 131.518 98.3086 131.861 98.1055C132.205 97.9023 132.594 97.8008 133.027 97.8008ZM132.828 103.209C133.371 103.209 133.801 103.006 134.117 102.6C134.434 102.193 134.592 101.645 134.592 100.953C134.592 100.262 134.434 99.7129 134.117 99.3066C133.801 98.9004 133.371 98.6973 132.828 98.6973C132.305 98.6973 131.883 98.9043 131.562 99.3184C131.242 99.7324 131.082 100.277 131.082 100.953C131.082 101.633 131.242 102.18 131.562 102.594C131.883 103.004 132.305 103.209 132.828 103.209ZM140.545 101.047H136.701V100.098H140.545V101.047ZM145.924 104V101.258H142.918V104H141.91V97.9062H142.918V100.42H145.924V97.9062H146.932V104H145.924Z" fill="#C31844"/>
</svg>
