<svg width="969" height="992" viewBox="0 0 969 992" fill="none" xmlns="http://www.w3.org/2000/svg" class="map-page__map-svg" id="root-map">
    <!-- СЕВЕРО-ЗАПАДНАЯ КОНФЕРЕНЦИЯ -->
    <path
        d="M307.341 381.307H285.852L281.855 388.804V392.801L284.353 400.797L295.348 414.291V421.287L276.357 424.286L289.85 432.781L296.347 429.283H298.846L303.343 440.777V449.773L287.851 447.774V460.267L280.355 472.261L276.357 489.253L269.861 490.252H263.864L262.365 493.75L267.362 498.748V510.742L261.365 516.739L250.371 537.228L249.871 551.221L257.367 557.718L263.364 557.218L266.862 554.72H269.861L277.357 565.214H282.854L285.852 562.716L284.353 556.719L286.352 550.722L292.849 545.724H304.843L315.337 550.222L324.832 559.217H330.829L332.328 548.723L339.325 541.726L345.821 538.228L352.818 537.728L363.312 541.726L375.806 544.725H382.802V537.728L387.8 535.229L386.3 529.732L381.303 522.236L379.804 496.749L387.3 491.751L388.799 487.254V479.758L385.801 472.261H393.797L400.793 461.767L400.293 455.77V444.775L404.291 427.784L408.789 425.285H421.782L427.279 408.294L433.276 398.798V395.3L428.778 387.804V380.808L426.779 376.81L420.783 375.81L417.784 377.809H412.287L403.791 370.813L397.794 376.81L390.798 375.31V368.314L386.3 361.817H365.811L360.314 355.32L354.817 359.818V368.314H350.819L346.321 366.315L344.322 371.312H337.326V366.815L322.334 361.317L319.335 366.815L324.333 373.311L325.832 377.809L323.833 380.308H319.335L312.339 377.809L307.341 381.307Z"
        fill="#E9EBEF" stroke="#333333" stroke-width="2" />

    <!-- СЕВЕРО-ВОСТОЧНАЯ КОНФЕРЕНЦИЯ -->
    <path
        d="M707.135 306.346H715.131L713.132 313.342L724.626 326.835V336.83L722.627 341.328L711.633 349.324L710.134 353.322L710.633 361.318L715.631 374.311V379.808L714.131 382.807H708.135L705.636 385.306V388.804L677.151 400.298L675.152 399.299L673.652 400.798L671.653 403.297L659.16 400.298L649.665 400.798L642.668 403.796L639.17 409.793L633.673 412.792H632.174L624.178 419.289V427.784L634.673 452.272L627.177 455.27L619.181 456.77L625.178 483.756L619.181 486.255L612.684 492.252H608.186L607.687 505.245L609.686 508.244H622.179L628.176 512.242L635.672 508.743L652.663 508.244L656.161 505.245H659.66L664.657 511.742L682.648 512.242L688.645 524.735L693.642 533.731L700.139 543.226L710.134 548.723L718.129 550.222L719.629 557.719L706.635 558.218V562.716H701.138L695.141 567.214L690.644 568.713L686.646 567.214L682.148 564.715H676.651L674.152 556.719L674.652 551.722L677.65 547.724L674.152 543.726L669.655 528.233L667.656 518.238L665.157 515.24L663.158 519.738L665.157 527.234L664.657 537.229L655.162 530.732L654.163 531.732L662.158 541.727L656.661 551.722V562.716H651.164L638.671 554.72L636.672 556.719L649.165 566.714V570.212L644.168 574.71H641.669L632.674 571.212L631.674 573.211L641.169 578.708L638.671 585.205L623.678 598.698L620.68 608.693L625.178 613.69V623.685H622.679L624.178 630.182L628.176 634.68L638.171 633.68L645.667 631.181L652.663 631.681L656.661 636.179L657.161 643.175L651.164 644.675L643.168 649.172L639.17 654.17V666.663L630.675 677.158L627.676 672.66H624.678L617.681 676.159L606.187 675.659L598.192 669.162H594.194L590.695 672.66L588.197 668.662L584.199 671.161H579.701L576.703 664.664V654.669L555.714 654.17L536.224 655.169L513.236 655.669L497.744 637.678L502.241 630.182L502.741 616.689L500.242 615.189L510.237 605.694L522.231 606.194L530.227 610.192L535.224 608.193L545.719 609.692H553.715L560.211 605.195L564.709 606.194L567.208 601.696V589.203L562.71 587.204L559.711 582.706L560.211 553.721L561.71 551.222V545.725L548.717 538.228L548.217 512.741H539.722L537.723 516.24V526.234H527.728L526.729 528.233L523.73 531.232L514.235 532.731L513.735 544.725H495.745L492.746 543.226V540.727L494.245 534.23L492.246 532.731H490.247L487.249 535.23H480.752L477.754 533.231V531.732L485.25 525.735L484.251 518.738L478.254 518.238L473.756 516.24L471.757 518.738L461.262 521.737L445.271 527.734L436.275 532.731L433.777 529.733L421.783 533.231L421.283 540.727L394.797 539.228L387.801 535.23L386.301 529.733L381.304 522.236L379.805 496.749L387.301 491.752L388.8 487.754V479.758L385.802 472.262H393.797L400.794 461.767L400.294 455.77V444.776L404.292 427.784L408.79 425.285H421.783L427.28 408.294L433.277 398.799V395.301L428.779 387.804V384.806L432.278 388.304L438.274 387.804L445.271 382.807L452.267 380.808L461.262 379.808L464.761 375.311L468.759 371.813L475.255 371.313V372.812H478.753L481.752 368.314L487.249 362.817L492.246 356.32L499.243 350.323L511.736 335.831L519.732 325.836L528.728 312.842L538.223 302.348H546.218L555.714 309.344H558.212L575.703 291.353L582.7 284.856L584.699 283.357H588.197L592.195 287.855L593.194 291.853H601.19L600.191 331.833H605.688V330.333L637.171 330.833V329.334L644.667 329.834L649.665 334.831L655.662 336.83L661.159 329.334H665.157V318.34H667.156V307.345L671.154 305.846L673.652 307.345L681.149 309.344H700.638L707.135 306.346Z"
        fill="#E9EBEF" stroke="#333333" stroke-width="2" />

    <!-- СЕВЕРНАЯ КОНФЕРЕНЦИЯ -->
    <path
        d="M307.342 381.308H285.853L284.354 375.311L282.355 369.314L276.857 364.316L255.369 361.318L254.369 359.819L265.363 337.33L266.863 327.335L276.857 317.84L277.357 315.341L275.858 313.342V311.343L281.855 306.346H284.354L291.35 311.343L296.847 313.342L301.345 318.34H305.343L320.835 303.347L320.335 300.349L319.835 290.853H315.338L312.839 294.851L309.341 298.849H304.343L298.346 292.852H291.85L280.356 288.854L277.857 284.857L278.856 278.86L271.36 269.364H266.363L262.365 263.367L265.363 261.368V258.37L263.364 256.371L262.865 253.372L266.363 252.873L271.36 256.371L274.359 257.37H279.356L288.851 251.373L294.848 254.372L299.846 255.371L303.344 251.373L306.842 244.377L313.339 233.882L318.836 225.886L327.331 221.389L334.328 212.393H347.321V208.395L340.824 202.398L341.324 198.4L344.822 192.403V189.405L321.334 161.419L322.834 149.925L342.823 134.932L346.322 121.439L356.816 121.939L365.312 125.437L374.807 132.434L386.801 135.932L402.792 136.432L405.291 125.437L412.287 121.939L415.286 117.441L420.783 114.942L426.78 117.441H436.275L441.272 110.445L458.264 109.445L465.26 92.4538L468.758 91.4543V76.4619L473.755 65.4674L481.252 53.4735L491.746 45.4775L507.238 44.478L513.735 37.9813L521.231 28.9859V20.4901L509.737 11.4947L506.738 6.99697L515.234 1H525.729L533.724 13.9934L540.221 28.9859L557.212 39.9803V43.4785L552.215 50.475L556.712 56.9717L572.704 61.4694L582.699 69.9651L589.196 67.9661L597.192 71.4644L599.19 83.4583L609.685 88.9555L617.181 96.9515L622.678 106.447L629.675 111.944L637.171 120.44L640.669 127.436L639.67 134.932L633.673 146.426L630.174 156.421L625.677 166.416L624.677 177.911L620.18 186.406L621.179 190.404L618.181 192.403V203.398L624.677 206.396L623.678 209.894L626.177 212.393L624.677 218.89L627.176 221.888L626.177 224.887H622.179L620.679 228.385L619.68 236.381L627.676 240.879V242.878L618.68 248.375V250.874L627.676 253.872L654.162 252.373L658.66 250.374H661.658L666.156 255.371L671.153 257.37V269.364L668.654 271.863V280.359L680.149 281.358L715.13 301.348V306.346H707.135L700.638 309.344H681.148L673.652 307.345L671.153 305.846L667.155 307.345V318.34H665.156V329.334H661.158L655.661 336.83L649.664 334.831L644.667 329.834L637.171 329.334V330.833L605.687 330.334V331.833H600.19L601.189 291.853H593.194L592.194 287.855L588.196 283.357H584.698L582.699 284.857L573.704 293.352L558.212 309.344H555.713L546.218 302.348H538.222L528.727 312.842L519.732 325.836L509.237 338.829L499.242 350.323L494.745 354.321L492.246 356.32L487.248 362.817L481.751 368.314L478.753 372.812H475.255V371.313L468.758 371.813L464.76 375.311L461.262 379.809L452.267 380.808L445.27 382.807L438.274 387.804L432.277 388.304L429.279 385.306L428.779 380.808L426.78 376.81L420.783 375.811L417.784 377.81H412.287L403.792 370.813L397.795 376.81L390.798 375.311V368.314L386.301 361.818H365.811L360.314 355.321L354.817 359.819V368.314H350.819L346.322 366.315L344.323 371.313H337.326V366.815L322.334 361.318L319.335 366.815L324.333 373.312L325.832 377.81L323.833 380.308H319.335L312.339 377.81L307.342 381.308Z"
        fill="#E9EBEF" stroke="#333333" stroke-width="2" />

    <!-- ЦЕНТРАЛЬНАЯ КОНФЕРЕНЦИЯ -->
    <path
        d="M502.239 630.182L497.742 637.678L467.258 638.178L468.257 690.152L461.76 694.15L458.262 696.149L443.77 701.146L440.271 700.646L435.774 706.643L426.778 713.14L414.785 721.136L415.284 722.135L422.281 723.135L435.774 721.136L442.77 722.135L449.767 727.633L460.761 731.631L459.761 733.13V740.126L463.759 745.624L464.759 750.121L460.761 752.62L459.761 757.118L452.765 755.119L429.777 742.125L428.278 745.124H424.28L420.782 737.628L415.284 737.128L408.788 733.13L407.289 726.633H400.292L396.794 729.632L398.293 738.127L405.789 744.124L404.79 750.121L401.791 752.12L389.798 748.622L392.296 743.625L385.3 741.626L380.802 729.632L373.306 728.632L373.806 724.134L369.308 723.635L364.311 716.138L369.308 712.14L371.307 705.644L362.812 704.145L362.312 711.641L356.815 710.641L347.819 709.642L342.322 706.143H340.323L332.827 709.642L323.332 708.642L320.334 707.143L306.841 707.643L309.839 702.146L310.839 696.149V692.151L305.341 688.153L301.843 683.655L305.341 678.158L311.838 675.159L314.337 672.66L316.336 659.667L313.337 656.169V650.172L309.339 643.675L307.34 647.173H299.844L295.347 644.675L291.349 638.178V630.182L295.347 626.184V620.187L285.352 612.691L271.359 608.693L270.36 592.701L277.356 583.705L274.857 580.707L271.359 582.206L266.861 577.708V567.214L270.36 555.72L277.356 565.215H282.853L285.851 562.716L284.352 556.719L286.351 550.722L292.848 545.725H304.842L315.336 550.222L324.831 559.218H330.828L332.327 548.723L339.324 541.727L345.82 538.228L352.817 537.729L356.815 539.228L362.812 541.727L365.31 542.226L375.805 544.725H382.801V537.729L387.799 535.23L395.295 539.228L421.281 540.727L421.781 533.231L433.775 529.733L436.274 532.731L445.269 527.734L461.261 521.737L471.755 518.738L473.754 516.24L478.252 518.238L484.249 518.738L485.248 525.735L477.752 531.732V533.231L480.751 535.23H487.247L490.246 532.731H492.245L494.244 534.23L492.744 540.727V543.226L495.743 544.725H513.733L514.233 532.731L523.728 531.232L526.727 528.233L527.726 526.234H537.721V516.24L539.72 512.741H548.216L548.715 538.228L561.709 545.725V551.222L560.209 553.721L559.71 582.706L562.708 587.204L567.206 589.203V601.696L564.707 606.194L560.209 605.195L553.713 609.692H545.717L535.222 608.193L530.225 610.192L522.229 606.194L510.235 605.694L500.24 615.189L502.739 616.689L502.239 630.182Z"
        fill="#E9EBEF" stroke="#333333" stroke-width="2" />

    <!-- ЮЖНАЯ КОНФЕРЕНЦИЯ -->
    <path
        d="M163.916 682.655L161.917 680.656L162.416 681.656L164.915 691.151L161.917 699.147L173.91 716.138L172.911 719.137L170.412 721.136L138.929 718.137L125.935 721.636L108.944 730.131H103.947L96.4506 741.126L68.9648 749.122V758.617L78.9597 761.615L96.9503 763.614L99.9488 767.113L101.448 777.607L95.9509 784.104L92.9524 803.594L92.4527 818.587L98.9493 823.084L100.948 822.585L102.447 810.591L107.945 808.092L115.441 812.59L117.939 809.591L120.938 810.091L122.437 814.089L130.433 819.586L137.429 815.088L145.425 818.587L151.922 812.09L152.422 805.093L156.919 799.097L162.916 795.099V786.603L164.415 776.608H172.911L175.909 778.107L179.907 774.609H188.903L193.9 772.11L206.893 776.608V779.606L223.885 783.105L237.877 782.605L245.873 782.105L252.87 782.605L256.368 786.603L290.85 790.601L292.349 796.098L298.846 800.096H299.345L298.346 817.587L294.348 820.086L287.851 821.085V843.574L306.842 845.073L309.84 847.572V853.569L313.838 856.068V862.065L312.339 867.562L313.838 869.061L314.837 868.062L319.335 870.56L321.334 875.058L320.335 879.056L312.339 882.554L310.84 887.552L309.84 890.051L310.84 891.05L315.837 891.55L320.335 898.546L326.831 899.046L328.83 902.544V907.542L336.826 908.541L339.824 911.04L349.819 911.54L364.812 913.039L371.808 909.541L378.804 911.04H390.298V919.536L396.295 921.535L410.788 922.534H416.285L420.783 924.533L423.281 931.03L422.282 939.026L425.78 945.522H427.779L431.777 943.024L435.275 944.023L438.773 947.521L436.774 955.018V957.516L445.27 961.015L446.269 963.513L445.27 973.508L446.769 978.006L451.267 979.006L452.766 982.504V990L458.263 988.501L470.757 989.001L484.749 990H492.745L492.246 979.006H499.242L503.24 982.004L505.739 981.504V975.008L510.236 975.507L518.732 978.006L523.729 980.505H536.223L543.219 978.006L547.217 979.006L547.717 978.006L541.72 969.51L538.222 961.015L533.724 955.517V949.021L535.723 943.523L536.223 939.526L525.728 940.525L524.229 936.027L512.735 930.53L504.739 928.031L504.239 924.533L510.736 920.035L514.734 911.04L521.231 909.541V898.046L512.235 896.547L498.242 896.048L495.244 889.551L488.747 888.052L476.254 886.552L455.764 883.554V854.568L462.261 850.57L466.759 845.073L465.759 824.584L474.255 823.084L481.751 814.589L486.748 806.093L485.749 798.597L482.75 793.1L475.254 784.104L468.758 787.103L465.26 784.604L464.26 778.607L460.762 770.111L464.26 762.615L459.762 757.118L452.766 755.119L429.778 742.125L428.279 745.124H424.281L420.783 737.628L415.285 737.128L408.789 733.13L407.29 726.633H400.293L396.795 729.632L398.294 738.127L405.79 744.124L404.791 750.121L401.792 752.12L389.799 748.622L392.297 743.625L385.301 741.626L380.803 729.632L373.307 728.632L373.807 724.134L369.309 723.635L364.312 716.138L369.309 712.14L371.308 705.644L362.813 704.145L362.313 711.641L356.816 710.641L347.82 709.642L342.323 706.144H340.324L332.828 709.642L323.333 708.642L320.335 707.143L306.842 707.643L306.342 708.142H292.349L284.353 704.644H275.858L273.859 709.142L273.359 729.132L267.862 731.631L260.865 729.132L255.368 719.637L249.371 719.137L238.877 715.639L240.876 705.644L229.382 692.65H219.887L212.391 694.15L202.396 683.155V681.656L212.89 675.159L209.392 667.663L200.397 667.163L185.904 667.663V669.162L178.908 682.156L163.916 682.655Z"
        fill="#E9EBEF" stroke="#333333" stroke-width="2" />

    <!-- ВОСТОЧНАЯ КОНФЕРЕНЦИЯ -->
    <path
        d="M634.173 627.183L629.176 634.18L638.171 633.68L645.667 631.181L652.664 631.681L656.662 636.179L657.162 640.177V643.175L651.165 644.675L643.169 649.172L639.171 654.17V666.663L630.675 677.158L627.677 672.66H624.678L617.682 676.159L606.188 675.659L598.192 669.162H594.194L590.696 672.66L588.197 668.662L584.199 671.161H579.702L576.703 664.664V654.67L555.714 654.17L535.225 655.169L513.236 655.669L497.744 637.678L467.26 638.178L468.259 690.152L458.265 696.149L443.772 701.146L440.274 700.646L435.776 706.643L414.787 721.136L415.287 722.135L422.283 723.135L435.776 721.136L442.773 722.135L449.769 727.633L460.763 731.631L459.764 733.13V740.126L463.762 745.624L464.761 750.121L460.763 752.62L459.764 757.118L464.261 762.615L460.763 770.111L464.261 778.607L465.261 784.604L468.759 787.103L475.256 784.104L482.752 793.1L485.75 798.597L486.75 806.093L481.752 814.589L474.256 823.084L465.761 824.584L466.76 845.073L462.263 850.57L455.766 854.568V883.554L472.757 886.053L488.749 888.052L495.245 889.551L498.244 896.048L512.237 896.547L521.232 898.047V909.541L514.735 911.04L510.737 920.035L504.241 924.533L504.741 928.031L512.736 930.53L524.23 936.027L525.73 940.525L536.224 939.526L542.221 926.032L544.22 925.533L546.719 931.03L553.715 937.027L565.209 944.023L570.207 949.021H572.206L576.203 942.524L578.702 941.025L583.7 943.024L588.697 940.025L590.196 936.027V932.529L581.701 930.53L579.202 927.032V918.536L582.2 916.537L590.196 916.037L594.694 906.542L597.193 905.543L609.686 906.542L610.186 908.041L618.182 907.042L622.18 904.543V895.048L620.181 887.052L612.685 885.053L610.186 878.057L608.187 866.063L607.187 857.067L601.191 849.571L624.678 847.572L634.173 850.071L648.166 856.567L650.165 856.068L655.662 858.566L667.656 863.064L679.65 873.559L695.142 890.55L700.639 889.551L706.636 889.051L711.134 892.05L717.13 893.049L721.628 891.05L723.127 884.054L724.127 882.055L729.624 880.555L741.618 874.558L747.115 875.558L755.611 883.054L764.606 895.048L782.597 913.039L782.097 917.537L784.595 920.035L787.594 919.536L808.083 940.525L815.08 942.524L828.573 943.523L843.065 945.023L863.055 937.027L867.552 923.034L870.051 914.538L875.548 905.543V897.047H880.046L886.043 900.045L886.543 904.543L890.541 910.04L895.538 911.54L894.039 915.038L890.541 921.535L893.039 925.533L896.537 924.033L903.534 916.037L908.032 915.038L912.529 911.54L913.029 906.542L907.532 898.047L908.032 890.55L903.034 886.552L902.534 880.555L907.032 874.059V865.563L901.035 859.566L889.041 854.568L889.541 847.572L892.54 844.074L898.536 842.075L902.534 835.078L904.533 820.086L913.529 814.089L924.523 807.592L925.023 802.595L930.52 795.099L935.517 796.098L942.014 796.598L946.012 791.101L959.005 777.607V754.619L962.503 732.63L961.004 717.638L967.001 689.652L964.003 676.159L966.001 656.169L959.005 640.677L954.507 636.679L954.008 624.685L947.511 623.685L940.015 624.685L935.517 627.183L933.019 656.169H927.521L917.027 658.668L907.532 662.665L906.033 669.662L902.534 676.159L903.534 688.652V691.651H887.042L882.045 689.152V676.159L883.544 670.162L869.052 642.676H868.052V646.174L865.054 648.673L861.056 649.172L852.56 644.175L849.562 644.675L840.566 646.174L829.572 647.673H827.073L822.076 650.672L813.58 654.17H794.59L788.094 650.672L785.595 646.174V635.179L788.094 631.181V628.183L772.602 626.684L768.104 629.682L759.608 637.678L754.111 638.178L749.614 636.179L746.115 629.682L745.116 621.186L742.117 612.191L736.62 609.193L737.62 605.195L738.619 602.196L729.124 592.201L722.628 578.708L715.131 579.707L705.137 587.204L702.638 596.199L692.643 603.695H683.648L683.148 606.694L691.644 614.69L689.645 615.689L675.652 606.694L660.66 611.691L659.16 621.186H639.671L637.172 624.685L639.171 628.183L638.671 628.683L634.173 627.183Z"
        fill="#E9EBEF" stroke="#333333" stroke-width="2" />

    <!-- ЗАПАДНАЯ КОНФЕРЕНЦИЯ -->
    <path
        d="M249.872 551.222L250.371 537.229L216.889 535.73L211.391 527.734L207.893 527.234L204.395 532.231H202.396L199.897 524.236H197.399L195.9 522.736L187.904 526.734L178.908 524.735L153.921 526.234L149.424 520.238L143.427 518.738H114.941L112.943 522.237L111.943 529.233L110.444 531.232L103.947 531.732L100.949 549.723L97.4505 552.721L97.9503 560.217L96.9508 561.217H93.9524L90.4542 555.72L81.4588 557.719L70.4645 566.214H54.9725L48.4759 565.215L43.9782 569.713L30.985 567.714L27.9865 569.713L26.9871 575.709L21.4899 582.206V585.205L14.4935 588.203L14.9933 618.188L14.4935 623.185L7.99689 626.684L4.99845 630.182V638.678L6.99741 646.674L10.9953 650.172L11.9948 656.169L2.99948 662.666L2 669.162L2.99948 673.66V682.156L2 687.653L6.99741 689.152L15.493 686.653L30.4852 685.154L36.9819 683.155L45.9772 686.653L53.4733 691.151L59.97 687.653L68.4656 686.653L73.9627 687.653L79.4599 685.154L89.9544 683.155L103.447 683.655L108.945 678.657H119.939V672.161L117.44 667.163L119.939 662.166L124.936 659.667L135.431 662.666L141.927 659.667H158.419L163.916 666.164L165.415 670.661L161.917 676.658V680.656L163.916 682.655L178.908 682.156L185.905 669.162V667.663L200.397 667.163L209.393 667.663L212.891 675.159L202.396 681.656V683.155L212.391 694.15L219.887 692.65H229.382L240.876 705.644L238.877 715.639L249.372 719.137L255.369 719.637L260.866 729.132L267.862 731.631L273.359 729.132L273.859 709.142L275.858 704.644H284.354L292.35 708.143H306.342L306.842 707.643L309.84 702.146L310.84 696.149V692.151L305.343 688.153L301.845 683.655L305.343 678.158L311.839 675.159L314.338 672.66L316.337 659.667L313.339 656.169V650.172L309.341 643.675L307.342 647.173H299.846L295.348 644.675L291.35 638.178V630.182L295.348 626.184V620.187L285.353 612.691L271.36 608.693L270.361 592.701L277.357 583.705L274.859 580.707L271.36 582.206L266.863 577.708V567.214L270.361 555.72L269.861 554.72H266.863L263.365 557.219L257.368 557.719L249.872 551.222Z"
        fill="#E9EBEF" stroke="#333333" stroke-width="2" />
</svg>