<svg width="1920" height="36" viewBox="0 0 1920 36" fill="none" xmlns="http://www.w3.org/2000/svg">
<path d="M0.00154114 30.4029L-8.00011 -13H206.5L202.905 25.7439C202.794 26.943 201.049 26.959 200.916 25.7622L198.5 4.06983L194.983 23.1609C194.782 24.2527 193.218 24.2527 193.017 23.1609L189.5 4.06983L184.319 31.2079C184.12 32.2517 182.646 32.3053 182.371 31.2787L179.412 20.2146C179.152 19.2408 177.777 19.2205 177.488 20.1863L175.952 25.3187C175.668 26.2681 174.324 26.2704 174.037 25.322L171.008 15.3251C170.717 14.3645 169.35 14.3837 169.086 15.352L166.723 24.014C166.44 25.0531 164.94 24.9714 164.771 23.9076L160.5 -3L156.343 11.968C156.05 13.022 154.521 12.9083 154.387 11.8225L153 0.547486L149.881 7.91745C149.543 8.71707 148.416 8.73515 148.052 7.9468L143 -3L139.096 26.0618C138.954 27.1207 137.473 27.2486 137.152 26.2298L136.462 24.046C136.167 23.1117 134.844 23.115 134.553 24.0507L132.296 31.3253C131.981 32.3403 130.509 32.2283 130.352 31.1773L125 -4.5L117.896 19.7128C117.62 20.6517 116.299 20.677 115.988 19.7493L111 4.88268L106.906 19.5254C106.638 20.4833 105.288 20.5053 104.989 19.5566L99 0.547486L91.4733 29.7269C91.2149 30.7285 89.7919 30.7267 89.536 29.7245L85.3173 13.201C85.0725 12.2422 83.7329 12.1833 83.4049 13.1169L79.1043 25.3571C78.7755 26.2929 77.4317 26.2307 77.1908 25.2685L71 0.547486L66.2002 13.5525C65.8529 14.4936 64.4909 14.3944 64.2836 13.413L60.5 -4.5L54.045 23.9019C53.8056 24.9553 52.2975 24.9334 52.0887 23.8736L46.5 -4.5L42.2183 6.78817C41.8634 7.72366 40.5067 7.6159 40.304 6.63612L38 -4.5L32.1736 13.9924C31.8864 14.9039 30.6066 14.9318 30.28 14.0336L26.9524 4.88268L23.0354 19.2449C22.7678 20.2262 21.3766 20.2279 21.1066 19.2473L16.9273 4.06983L13.8452 13.7269C13.5463 14.6634 12.2172 14.6518 11.9347 13.7102L7.98592 0.547486L1.96526 30.4192C1.74779 31.4982 0.201096 31.4854 0.00154114 30.4029Z" fill="white"/>
<path d="M201.002 30.4029L193 -13H407.5L403.905 25.7439C403.794 26.943 402.049 26.959 401.916 25.7622L399.5 4.06983L395.983 23.1609C395.782 24.2527 394.218 24.2527 394.017 23.1609L390.5 4.06983L385.319 31.2079C385.12 32.2517 383.646 32.3053 383.371 31.2787L380.412 20.2146C380.152 19.2408 378.777 19.2205 378.488 20.1863L376.952 25.3187C376.668 26.2681 375.324 26.2704 375.037 25.322L372.008 15.3251C371.717 14.3645 370.35 14.3837 370.086 15.352L367.723 24.014C367.44 25.0531 365.94 24.9714 365.771 23.9076L361.5 -3L357.343 11.968C357.05 13.022 355.521 12.9083 355.387 11.8225L354 0.547486L350.881 7.91745C350.543 8.71707 349.416 8.73515 349.052 7.9468L344 -3L340.096 26.0618C339.954 27.1207 338.473 27.2486 338.152 26.2298L337.462 24.046C337.167 23.1117 335.844 23.115 335.553 24.0507L333.296 31.3253C332.981 32.3403 331.509 32.2283 331.352 31.1773L326 -4.5L318.896 19.7128C318.62 20.6517 317.299 20.677 316.988 19.7493L312 4.88268L307.906 19.5254C307.638 20.4833 306.288 20.5053 305.989 19.5566L300 0.547486L292.473 29.7269C292.215 30.7285 290.792 30.7267 290.536 29.7245L286.317 13.201C286.072 12.2422 284.733 12.1833 284.405 13.1169L280.104 25.3571C279.775 26.2929 278.432 26.2307 278.191 25.2685L272 0.547486L267.2 13.5525C266.853 14.4936 265.491 14.3944 265.284 13.413L261.5 -4.5L255.045 23.9019C254.806 24.9553 253.297 24.9334 253.089 23.8736L247.5 -4.5L243.218 6.78817C242.863 7.72366 241.507 7.6159 241.304 6.63612L239 -4.5L233.174 13.9924C232.886 14.9039 231.607 14.9318 231.28 14.0336L227.952 4.88268L224.035 19.2449C223.768 20.2262 222.377 20.2279 222.107 19.2473L217.927 4.06983L214.845 13.7269C214.546 14.6634 213.217 14.6518 212.935 13.7102L208.986 0.547486L202.965 30.4192C202.748 31.4982 201.201 31.4854 201.002 30.4029Z" fill="white"/>
<path d="M407.002 30.4029L399 -13H613.5L609.905 25.7439C609.794 26.943 608.049 26.959 607.916 25.7622L605.5 4.06983L601.983 23.1609C601.782 24.2527 600.218 24.2527 600.017 23.1609L596.5 4.06983L591.319 31.2079C591.12 32.2517 589.646 32.3053 589.371 31.2787L586.412 20.2146C586.152 19.2408 584.777 19.2205 584.488 20.1863L582.952 25.3187C582.668 26.2681 581.324 26.2704 581.037 25.322L578.008 15.3251C577.717 14.3645 576.35 14.3837 576.086 15.352L573.723 24.014C573.44 25.0531 571.94 24.9714 571.771 23.9076L567.5 -3L563.343 11.968C563.05 13.022 561.521 12.9083 561.387 11.8225L560 0.547486L556.881 7.91745C556.543 8.71707 555.416 8.73515 555.052 7.9468L550 -3L546.096 26.0618C545.954 27.1207 544.473 27.2486 544.152 26.2298L543.462 24.046C543.167 23.1117 541.844 23.115 541.553 24.0507L539.296 31.3253C538.981 32.3403 537.509 32.2283 537.352 31.1773L532 -4.5L524.896 19.7128C524.62 20.6517 523.299 20.677 522.988 19.7493L518 4.88268L513.906 19.5254C513.638 20.4833 512.288 20.5053 511.989 19.5566L506 0.547486L498.473 29.7269C498.215 30.7285 496.792 30.7267 496.536 29.7245L492.317 13.201C492.072 12.2422 490.733 12.1833 490.405 13.1169L486.104 25.3571C485.775 26.2929 484.432 26.2307 484.191 25.2685L478 0.547486L473.2 13.5525C472.853 14.4936 471.491 14.3944 471.284 13.413L467.5 -4.5L461.045 23.9019C460.806 24.9553 459.297 24.9334 459.089 23.8736L453.5 -4.5L449.218 6.78817C448.863 7.72366 447.507 7.6159 447.304 6.63612L445 -4.5L439.174 13.9924C438.886 14.9039 437.607 14.9318 437.28 14.0336L433.952 4.88268L430.035 19.2449C429.768 20.2262 428.377 20.2279 428.107 19.2473L423.927 4.06983L420.845 13.7269C420.546 14.6634 419.217 14.6518 418.935 13.7102L414.986 0.547486L408.965 30.4192C408.748 31.4982 407.201 31.4854 407.002 30.4029Z" fill="white"/>
<path d="M608.002 30.4029L600 -13H814.5L810.905 25.7439C810.794 26.943 809.049 26.959 808.916 25.7622L806.5 4.06983L802.983 23.1609C802.782 24.2527 801.218 24.2527 801.017 23.1609L797.5 4.06983L792.319 31.2079C792.12 32.2517 790.646 32.3053 790.371 31.2787L787.412 20.2146C787.152 19.2408 785.777 19.2205 785.488 20.1863L783.952 25.3187C783.668 26.2681 782.324 26.2704 782.037 25.322L779.008 15.3251C778.717 14.3645 777.35 14.3837 777.086 15.352L774.723 24.014C774.44 25.0531 772.94 24.9714 772.771 23.9076L768.5 -3L764.343 11.968C764.05 13.022 762.521 12.9083 762.387 11.8225L761 0.547486L757.881 7.91745C757.543 8.71707 756.416 8.73515 756.052 7.9468L751 -3L747.096 26.0618C746.954 27.1207 745.473 27.2486 745.152 26.2298L744.462 24.046C744.167 23.1117 742.844 23.115 742.553 24.0507L740.296 31.3253C739.981 32.3403 738.509 32.2283 738.352 31.1773L733 -4.5L725.896 19.7128C725.62 20.6517 724.299 20.677 723.988 19.7493L719 4.88268L714.906 19.5254C714.638 20.4833 713.288 20.5053 712.989 19.5566L707 0.547486L699.473 29.7269C699.215 30.7285 697.792 30.7267 697.536 29.7245L693.317 13.201C693.072 12.2422 691.733 12.1833 691.405 13.1169L687.104 25.3571C686.775 26.2929 685.432 26.2307 685.191 25.2685L679 0.547486L674.2 13.5525C673.853 14.4936 672.491 14.3944 672.284 13.413L668.5 -4.5L662.045 23.9019C661.806 24.9553 660.297 24.9334 660.089 23.8736L654.5 -4.5L650.218 6.78817C649.863 7.72366 648.507 7.6159 648.304 6.63612L646 -4.5L640.174 13.9924C639.886 14.9039 638.607 14.9318 638.28 14.0336L634.952 4.88268L631.035 19.2449C630.768 20.2262 629.377 20.2279 629.107 19.2473L624.927 4.06983L621.845 13.7269C621.546 14.6634 620.217 14.6518 619.935 13.7102L615.986 0.547486L609.965 30.4192C609.748 31.4982 608.201 31.4854 608.002 30.4029Z" fill="white"/>
<path d="M1211 30.4029L1203 -13H1417.5L1413.91 25.7439C1413.79 26.943 1412.05 26.959 1411.92 25.7622L1409.5 4.06983L1405.98 23.1609C1405.78 24.2527 1404.22 24.2527 1404.02 23.1609L1400.5 4.06983L1395.32 31.2079C1395.12 32.2517 1393.65 32.3053 1393.37 31.2787L1390.41 20.2146C1390.15 19.2408 1388.78 19.2205 1388.49 20.1863L1386.95 25.3187C1386.67 26.2681 1385.32 26.2704 1385.04 25.322L1382.01 15.3251C1381.72 14.3645 1380.35 14.3837 1380.09 15.352L1377.72 24.014C1377.44 25.0531 1375.94 24.9714 1375.77 23.9076L1371.5 -3L1367.34 11.968C1367.05 13.022 1365.52 12.9083 1365.39 11.8225L1364 0.547486L1360.88 7.91745C1360.54 8.71707 1359.42 8.73515 1359.05 7.9468L1354 -3L1350.1 26.0618C1349.95 27.1207 1348.47 27.2486 1348.15 26.2298L1347.46 24.046C1347.17 23.1117 1345.84 23.115 1345.55 24.0507L1343.3 31.3253C1342.98 32.3403 1341.51 32.2283 1341.35 31.1773L1336 -4.5L1328.9 19.7128C1328.62 20.6517 1327.3 20.677 1326.99 19.7493L1322 4.88268L1317.91 19.5254C1317.64 20.4833 1316.29 20.5053 1315.99 19.5566L1310 0.547486L1302.47 29.7269C1302.21 30.7285 1300.79 30.7267 1300.54 29.7245L1296.32 13.201C1296.07 12.2422 1294.73 12.1833 1294.4 13.1169L1290.1 25.3571C1289.78 26.2929 1288.43 26.2307 1288.19 25.2685L1282 0.547486L1277.2 13.5525C1276.85 14.4936 1275.49 14.3944 1275.28 13.413L1271.5 -4.5L1265.05 23.9019C1264.81 24.9553 1263.3 24.9334 1263.09 23.8736L1257.5 -4.5L1253.22 6.78817C1252.86 7.72366 1251.51 7.6159 1251.3 6.63612L1249 -4.5L1243.17 13.9924C1242.89 14.9039 1241.61 14.9318 1241.28 14.0336L1237.95 4.88268L1234.04 19.2449C1233.77 20.2262 1232.38 20.2279 1232.11 19.2473L1227.93 4.06983L1224.85 13.7269C1224.55 14.6634 1223.22 14.6518 1222.93 13.7102L1218.99 0.547486L1212.97 30.4192C1212.75 31.4982 1211.2 31.4854 1211 30.4029Z" fill="white"/>
<path d="M1412 30.4029L1404 -13H1618.5L1614.91 25.7439C1614.79 26.943 1613.05 26.959 1612.92 25.7622L1610.5 4.06983L1606.98 23.1609C1606.78 24.2527 1605.22 24.2527 1605.02 23.1609L1601.5 4.06983L1596.32 31.2079C1596.12 32.2517 1594.65 32.3053 1594.37 31.2787L1591.41 20.2146C1591.15 19.2408 1589.78 19.2205 1589.49 20.1863L1587.95 25.3187C1587.67 26.2681 1586.32 26.2704 1586.04 25.322L1583.01 15.3251C1582.72 14.3645 1581.35 14.3837 1581.09 15.352L1578.72 24.014C1578.44 25.0531 1576.94 24.9714 1576.77 23.9076L1572.5 -3L1568.34 11.968C1568.05 13.022 1566.52 12.9083 1566.39 11.8225L1565 0.547486L1561.88 7.91745C1561.54 8.71707 1560.42 8.73515 1560.05 7.9468L1555 -3L1551.1 26.0618C1550.95 27.1207 1549.47 27.2486 1549.15 26.2298L1548.46 24.046C1548.17 23.1117 1546.84 23.115 1546.55 24.0507L1544.3 31.3253C1543.98 32.3403 1542.51 32.2283 1542.35 31.1773L1537 -4.5L1529.9 19.7128C1529.62 20.6517 1528.3 20.677 1527.99 19.7493L1523 4.88268L1518.91 19.5254C1518.64 20.4833 1517.29 20.5053 1516.99 19.5566L1511 0.547486L1503.47 29.7269C1503.21 30.7285 1501.79 30.7267 1501.54 29.7245L1497.32 13.201C1497.07 12.2422 1495.73 12.1833 1495.4 13.1169L1491.1 25.3571C1490.78 26.2929 1489.43 26.2307 1489.19 25.2685L1483 0.547486L1478.2 13.5525C1477.85 14.4936 1476.49 14.3944 1476.28 13.413L1472.5 -4.5L1466.05 23.9019C1465.81 24.9553 1464.3 24.9334 1464.09 23.8736L1458.5 -4.5L1454.22 6.78817C1453.86 7.72366 1452.51 7.6159 1452.3 6.63612L1450 -4.5L1444.17 13.9924C1443.89 14.9039 1442.61 14.9318 1442.28 14.0336L1438.95 4.88268L1435.04 19.2449C1434.77 20.2262 1433.38 20.2279 1433.11 19.2473L1428.93 4.06983L1425.85 13.7269C1425.55 14.6634 1424.22 14.6518 1423.93 13.7102L1419.99 0.547486L1413.97 30.4192C1413.75 31.4982 1412.2 31.4854 1412 30.4029Z" fill="white"/>
<path d="M807.002 30.4029L799 -13H1013.5L1009.91 25.7439C1009.79 26.943 1008.05 26.959 1007.92 25.7622L1005.5 4.06983L1001.98 23.1609C1001.78 24.2527 1000.22 24.2527 1000.02 23.1609L996.5 4.06983L991.319 31.2079C991.12 32.2517 989.646 32.3053 989.371 31.2787L986.412 20.2146C986.152 19.2408 984.777 19.2205 984.488 20.1863L982.952 25.3187C982.668 26.2681 981.324 26.2704 981.037 25.322L978.008 15.3251C977.717 14.3645 976.35 14.3837 976.086 15.352L973.723 24.014C973.44 25.0531 971.94 24.9714 971.771 23.9076L967.5 -3L963.343 11.968C963.05 13.022 961.521 12.9083 961.387 11.8225L960 0.547486L956.881 7.91745C956.543 8.71707 955.416 8.73515 955.052 7.9468L950 -3L946.096 26.0618C945.954 27.1207 944.473 27.2486 944.152 26.2298L943.462 24.046C943.167 23.1117 941.844 23.115 941.553 24.0507L939.296 31.3253C938.981 32.3403 937.509 32.2283 937.352 31.1773L932 -4.5L924.896 19.7128C924.62 20.6517 923.299 20.677 922.988 19.7493L918 4.88268L913.906 19.5254C913.638 20.4833 912.288 20.5053 911.989 19.5566L906 0.547486L898.473 29.7269C898.215 30.7285 896.792 30.7267 896.536 29.7245L892.317 13.201C892.072 12.2422 890.733 12.1833 890.405 13.1169L886.104 25.3571C885.775 26.2929 884.432 26.2307 884.191 25.2685L878 0.547486L873.2 13.5525C872.853 14.4936 871.491 14.3944 871.284 13.413L867.5 -4.5L861.045 23.9019C860.806 24.9553 859.297 24.9334 859.089 23.8736L853.5 -4.5L849.218 6.78817C848.863 7.72366 847.507 7.6159 847.304 6.63612L845 -4.5L839.174 13.9924C838.886 14.9039 837.607 14.9318 837.28 14.0336L833.952 4.88268L830.035 19.2449C829.768 20.2262 828.377 20.2279 828.107 19.2473L823.927 4.06983L820.845 13.7269C820.546 14.6634 819.217 14.6518 818.935 13.7102L814.986 0.547486L808.965 30.4192C808.748 31.4982 807.201 31.4854 807.002 30.4029Z" fill="white"/>
<path d="M1008 30.4029L1000 -13H1214.5L1210.91 25.7439C1210.79 26.943 1209.05 26.959 1208.92 25.7622L1206.5 4.06983L1202.98 23.1609C1202.78 24.2527 1201.22 24.2527 1201.02 23.1609L1197.5 4.06983L1192.32 31.2079C1192.12 32.2517 1190.65 32.3053 1190.37 31.2787L1187.41 20.2146C1187.15 19.2408 1185.78 19.2205 1185.49 20.1863L1183.95 25.3187C1183.67 26.2681 1182.32 26.2704 1182.04 25.322L1179.01 15.3251C1178.72 14.3645 1177.35 14.3837 1177.09 15.352L1174.72 24.014C1174.44 25.0531 1172.94 24.9714 1172.77 23.9076L1168.5 -3L1164.34 11.968C1164.05 13.022 1162.52 12.9083 1162.39 11.8225L1161 0.547486L1157.88 7.91745C1157.54 8.71707 1156.42 8.73515 1156.05 7.9468L1151 -3L1147.1 26.0618C1146.95 27.1207 1145.47 27.2486 1145.15 26.2298L1144.46 24.046C1144.17 23.1117 1142.84 23.115 1142.55 24.0507L1140.3 31.3253C1139.98 32.3403 1138.51 32.2283 1138.35 31.1773L1133 -4.5L1125.9 19.7128C1125.62 20.6517 1124.3 20.677 1123.99 19.7493L1119 4.88268L1114.91 19.5254C1114.64 20.4833 1113.29 20.5053 1112.99 19.5566L1107 0.547486L1099.47 29.7269C1099.21 30.7285 1097.79 30.7267 1097.54 29.7245L1093.32 13.201C1093.07 12.2422 1091.73 12.1833 1091.4 13.1169L1087.1 25.3571C1086.78 26.2929 1085.43 26.2307 1085.19 25.2685L1079 0.547486L1074.2 13.5525C1073.85 14.4936 1072.49 14.3944 1072.28 13.413L1068.5 -4.5L1062.05 23.9019C1061.81 24.9553 1060.3 24.9334 1060.09 23.8736L1054.5 -4.5L1050.22 6.78817C1049.86 7.72366 1048.51 7.6159 1048.3 6.63612L1046 -4.5L1040.17 13.9924C1039.89 14.9039 1038.61 14.9318 1038.28 14.0336L1034.95 4.88268L1031.04 19.2449C1030.77 20.2262 1029.38 20.2279 1029.11 19.2473L1024.93 4.06983L1021.85 13.7269C1021.55 14.6634 1020.22 14.6518 1019.93 13.7102L1015.99 0.547486L1009.97 30.4192C1009.75 31.4982 1008.2 31.4854 1008 30.4029Z" fill="white"/>
<path d="M1611 30.4029L1603 -13H1817.5L1813.91 25.7439C1813.79 26.943 1812.05 26.959 1811.92 25.7622L1809.5 4.06983L1805.98 23.1609C1805.78 24.2527 1804.22 24.2527 1804.02 23.1609L1800.5 4.06983L1795.32 31.2079C1795.12 32.2517 1793.65 32.3053 1793.37 31.2787L1790.41 20.2146C1790.15 19.2408 1788.78 19.2205 1788.49 20.1863L1786.95 25.3187C1786.67 26.2681 1785.32 26.2704 1785.04 25.322L1782.01 15.3251C1781.72 14.3645 1780.35 14.3837 1780.09 15.352L1777.72 24.014C1777.44 25.0531 1775.94 24.9714 1775.77 23.9076L1771.5 -3L1767.34 11.968C1767.05 13.022 1765.52 12.9083 1765.39 11.8225L1764 0.547486L1760.88 7.91745C1760.54 8.71707 1759.42 8.73515 1759.05 7.9468L1754 -3L1750.1 26.0618C1749.95 27.1207 1748.47 27.2486 1748.15 26.2298L1747.46 24.046C1747.17 23.1117 1745.84 23.115 1745.55 24.0507L1743.3 31.3253C1742.98 32.3403 1741.51 32.2283 1741.35 31.1773L1736 -4.5L1728.9 19.7128C1728.62 20.6517 1727.3 20.677 1726.99 19.7493L1722 4.88268L1717.91 19.5254C1717.64 20.4833 1716.29 20.5053 1715.99 19.5566L1710 0.547486L1702.47 29.7269C1702.21 30.7285 1700.79 30.7267 1700.54 29.7245L1696.32 13.201C1696.07 12.2422 1694.73 12.1833 1694.4 13.1169L1690.1 25.3571C1689.78 26.2929 1688.43 26.2307 1688.19 25.2685L1682 0.547486L1677.2 13.5525C1676.85 14.4936 1675.49 14.3944 1675.28 13.413L1671.5 -4.5L1665.05 23.9019C1664.81 24.9553 1663.3 24.9334 1663.09 23.8736L1657.5 -4.5L1653.22 6.78817C1652.86 7.72366 1651.51 7.6159 1651.3 6.63612L1649 -4.5L1643.17 13.9924C1642.89 14.9039 1641.61 14.9318 1641.28 14.0336L1637.95 4.88268L1634.04 19.2449C1633.77 20.2262 1632.38 20.2279 1632.11 19.2473L1627.93 4.06983L1624.85 13.7269C1624.55 14.6634 1623.22 14.6518 1622.93 13.7102L1618.99 0.547486L1612.97 30.4192C1612.75 31.4982 1611.2 31.4854 1611 30.4029Z" fill="white"/>
<path d="M1812 30.4029L1804 -13H2018.5L2014.91 25.7439C2014.79 26.943 2013.05 26.959 2012.92 25.7622L2010.5 4.06983L2006.98 23.1609C2006.78 24.2527 2005.22 24.2527 2005.02 23.1609L2001.5 4.06983L1996.32 31.2079C1996.12 32.2517 1994.65 32.3053 1994.37 31.2787L1991.41 20.2146C1991.15 19.2408 1989.78 19.2205 1989.49 20.1863L1987.95 25.3187C1987.67 26.2681 1986.32 26.2704 1986.04 25.322L1983.01 15.3251C1982.72 14.3645 1981.35 14.3837 1981.09 15.352L1978.72 24.014C1978.44 25.0531 1976.94 24.9714 1976.77 23.9076L1972.5 -3L1968.34 11.968C1968.05 13.022 1966.52 12.9083 1966.39 11.8225L1965 0.547486L1961.88 7.91745C1961.54 8.71707 1960.42 8.73515 1960.05 7.9468L1955 -3L1951.1 26.0618C1950.95 27.1207 1949.47 27.2486 1949.15 26.2298L1948.46 24.046C1948.17 23.1117 1946.84 23.115 1946.55 24.0507L1944.3 31.3253C1943.98 32.3403 1942.51 32.2283 1942.35 31.1773L1937 -4.5L1929.9 19.7128C1929.62 20.6517 1928.3 20.677 1927.99 19.7493L1923 4.88268L1918.91 19.5254C1918.64 20.4833 1917.29 20.5053 1916.99 19.5566L1911 0.547486L1903.47 29.7269C1903.21 30.7285 1901.79 30.7267 1901.54 29.7245L1897.32 13.201C1897.07 12.2422 1895.73 12.1833 1895.4 13.1169L1891.1 25.3571C1890.78 26.2929 1889.43 26.2307 1889.19 25.2685L1883 0.547486L1878.2 13.5525C1877.85 14.4936 1876.49 14.3944 1876.28 13.413L1872.5 -4.5L1866.05 23.9019C1865.81 24.9553 1864.3 24.9334 1864.09 23.8736L1858.5 -4.5L1854.22 6.78817C1853.86 7.72366 1852.51 7.6159 1852.3 6.63612L1850 -4.5L1844.17 13.9924C1843.89 14.9039 1842.61 14.9318 1842.28 14.0336L1838.95 4.88268L1835.04 19.2449C1834.77 20.2262 1833.38 20.2279 1833.11 19.2473L1828.93 4.06983L1825.85 13.7269C1825.55 14.6634 1824.22 14.6518 1823.93 13.7102L1819.99 0.547486L1813.97 30.4192C1813.75 31.4982 1812.2 31.4854 1812 30.4029Z" fill="white"/>
</svg>
