<svg width="289" height="158" viewBox="0 0 289 158" fill="none" xmlns="http://www.w3.org/2000/svg">
<path d="M119.639 131.882L113.179 134.718L102.507 128.317L113.179 121.915L119.639 124.751C119.747 124.801 119.863 124.817 119.971 124.817C120.286 124.817 120.592 124.635 120.733 124.32C120.916 123.897 120.725 123.407 120.311 123.225L114.929 120.862L118.677 118.614C119.067 118.382 119.199 117.868 118.959 117.478C118.718 117.089 118.213 116.956 117.823 117.196L114 119.493L114.622 113.672C114.672 113.216 114.34 112.81 113.884 112.76C113.428 112.71 113.021 113.042 112.972 113.498L112.217 120.563L101.735 126.857V114.427L107.474 110.355C107.847 110.09 107.938 109.576 107.673 109.202C107.407 108.829 106.893 108.738 106.52 109.003L101.744 112.395V108.829C101.744 108.373 101.37 108 100.914 108C100.458 108 100.085 108.373 100.085 108.829V112.354L95.3004 108.995C94.9272 108.73 94.4048 108.821 94.1477 109.194C93.8824 109.567 93.9736 110.09 94.3468 110.347L100.077 114.369V126.841L89.5288 120.505L88.8488 113.481C88.8074 113.025 88.401 112.694 87.945 112.735C87.4889 112.776 87.1572 113.183 87.1986 113.639L87.7625 119.435L83.9894 117.171C83.5997 116.939 83.0856 117.064 82.8534 117.453C82.6212 117.843 82.7456 118.357 83.1353 118.59L86.8669 120.828L81.5017 123.208C81.0871 123.391 80.8964 123.88 81.0788 124.303C81.2198 124.61 81.5183 124.801 81.8334 124.801C81.9495 124.801 82.0573 124.776 82.1651 124.726L88.5918 121.873L99.2891 128.292L88.5918 134.71L82.1651 131.857C81.7422 131.675 81.2529 131.857 81.0705 132.28C80.8881 132.695 81.0705 133.193 81.4934 133.375L86.8586 135.755L83.127 137.994C82.7373 138.226 82.6046 138.74 82.8451 139.13C83.0026 139.387 83.2763 139.536 83.5582 139.536C83.7075 139.536 83.8485 139.495 83.9812 139.42L87.7542 137.156L87.1903 142.953C87.1489 143.409 87.4806 143.815 87.9367 143.857C87.9615 143.857 87.9947 143.857 88.0196 143.857C88.4425 143.857 88.7991 143.533 88.8406 143.11L89.5205 136.087L100.069 129.751V142.588L94.3633 146.228C93.9736 146.477 93.8658 146.991 94.1063 147.373C94.2638 147.621 94.5292 147.754 94.8028 147.754C94.9521 147.754 95.1097 147.713 95.2506 147.621L100.06 144.553V147.771C100.06 148.227 100.433 148.6 100.89 148.6C101.346 148.6 101.719 148.227 101.719 147.771V144.52L106.528 147.621C106.91 147.87 107.424 147.762 107.673 147.373C107.922 146.983 107.814 146.477 107.424 146.228L101.727 142.58V129.776L112.209 136.07L112.963 143.135C113.005 143.558 113.37 143.873 113.784 143.873C113.818 143.873 113.842 143.873 113.876 143.865C114.332 143.815 114.663 143.409 114.614 142.953L113.992 137.131L117.814 139.429C117.947 139.511 118.096 139.545 118.237 139.545C118.519 139.545 118.793 139.404 118.951 139.138C119.183 138.749 119.058 138.234 118.669 138.002L114.92 135.755L120.302 133.392C120.725 133.209 120.916 132.72 120.725 132.297C120.543 131.891 120.053 131.7 119.639 131.882Z" fill="white"/>
<path d="M287.98 66.2945L283.303 68.3482L275.574 63.7123L283.303 59.0764L287.98 61.1302C288.059 61.1662 288.143 61.1782 288.221 61.1782C288.449 61.1782 288.671 61.0461 288.773 60.8179C288.905 60.5116 288.767 60.1573 288.467 60.0252L284.57 58.3138L287.284 56.6864C287.566 56.5183 287.662 56.146 287.488 55.8638C287.314 55.5815 286.948 55.4854 286.665 55.6596L283.897 57.323L284.347 53.1074C284.383 52.7772 284.143 52.4829 283.813 52.4469C283.483 52.4109 283.188 52.6511 283.152 52.9813L282.606 58.0976L275.016 62.6554V53.6539L279.171 50.7054C279.441 50.5133 279.507 50.141 279.315 49.8707C279.123 49.6005 278.751 49.5344 278.48 49.7266L275.022 52.1827V49.6005C275.022 49.2702 274.751 49 274.421 49C274.091 49 273.821 49.2702 273.821 49.6005V52.1526L270.356 49.7206C270.085 49.5284 269.707 49.5945 269.521 49.8647C269.329 50.135 269.395 50.5133 269.665 50.6994L273.815 53.6119V62.6434L266.176 58.0556L265.684 52.9693C265.654 52.639 265.359 52.3988 265.029 52.4289C264.699 52.4589 264.459 52.7531 264.489 53.0834L264.897 57.2809L262.165 55.6416C261.883 55.4734 261.51 55.5635 261.342 55.8457C261.174 56.128 261.264 56.5003 261.546 56.6684L264.249 58.2898L260.363 60.0132C260.063 60.1453 259.925 60.4996 260.057 60.8059C260.159 61.0281 260.375 61.1662 260.604 61.1662C260.688 61.1662 260.766 61.1482 260.844 61.1121L265.498 59.0464L273.244 63.6943L265.498 68.3422L260.844 66.2765C260.537 66.1444 260.183 66.2765 260.051 66.5827C259.919 66.883 260.051 67.2433 260.357 67.3754L264.243 69.0988L261.54 70.7202C261.258 70.8883 261.162 71.2606 261.336 71.5429C261.45 71.729 261.648 71.8371 261.853 71.8371C261.961 71.8371 262.063 71.8071 262.159 71.7531L264.891 70.1137L264.483 74.3112C264.453 74.6415 264.693 74.9357 265.023 74.9658C265.041 74.9658 265.065 74.9658 265.083 74.9658C265.39 74.9658 265.648 74.7316 265.678 74.4253L266.17 69.339L273.809 64.7512V74.047L269.677 76.6832C269.395 76.8633 269.317 77.2357 269.491 77.5119C269.605 77.692 269.797 77.7881 269.995 77.7881C270.103 77.7881 270.218 77.7581 270.32 77.692L273.803 75.4702V77.8001C273.803 78.1304 274.073 78.4006 274.403 78.4006C274.733 78.4006 275.004 78.1304 275.004 77.8001V75.4462L278.486 77.692C278.763 77.8722 279.135 77.7941 279.315 77.5119C279.495 77.2296 279.417 76.8633 279.135 76.6832L275.01 74.041V64.7692L282.6 69.327L283.146 74.4433C283.176 74.7496 283.441 74.9778 283.741 74.9778C283.765 74.9778 283.783 74.9778 283.807 74.9718C284.137 74.9357 284.377 74.6415 284.341 74.3112L283.891 70.0957L286.659 71.7591C286.755 71.8191 286.864 71.8431 286.966 71.8431C287.17 71.8431 287.368 71.7411 287.482 71.5489C287.65 71.2667 287.56 70.8943 287.278 70.7262L284.564 69.0988L288.461 67.3874C288.767 67.2553 288.905 66.901 288.767 66.5947C288.635 66.3005 288.281 66.1624 287.98 66.2945Z" fill="white"/>
<path d="M65.0643 19.2006L59.8708 21.4807L51.2905 16.3338L59.8708 11.187L65.0643 13.4671C65.151 13.5071 65.2443 13.5204 65.331 13.5204C65.5843 13.5204 65.831 13.3737 65.9443 13.1204C66.091 12.7804 65.9377 12.387 65.6043 12.2404L61.2775 10.3403L64.2909 8.5336C64.6043 8.34692 64.711 7.93358 64.5176 7.62023C64.3243 7.30689 63.9176 7.20022 63.6043 7.39356L60.5308 9.24028L61.0308 4.56014C61.0708 4.19346 60.8042 3.86679 60.4375 3.82678C60.0708 3.78678 59.7441 4.05346 59.7041 4.42014L59.0974 10.1003L50.6705 15.1605V5.16683L55.284 1.89339C55.584 1.68005 55.6573 1.26671 55.444 0.966696C55.2307 0.666687 54.8173 0.593352 54.5173 0.806692L50.6772 3.53344V0.666687C50.6772 0.300009 50.3772 0 50.0105 0C49.6438 0 49.3438 0.300009 49.3438 0.666687V3.50011L45.497 0.800025C45.197 0.586685 44.777 0.66002 44.5703 0.96003C44.357 1.26004 44.4303 1.68005 44.7303 1.88672L49.3371 5.12016V15.1471L40.8569 10.0536L40.3102 4.4068C40.2769 4.04012 39.9502 3.77345 39.5835 3.80678C39.2168 3.84012 38.9502 4.16679 38.9835 4.53347L39.4368 9.19362L36.4034 7.37356C36.0901 7.18689 35.6767 7.28689 35.4901 7.60023C35.3034 7.91358 35.4034 8.32692 35.7167 8.5136L38.7168 10.3137L34.4034 12.227C34.07 12.3737 33.9167 12.7671 34.0633 13.1071C34.1767 13.3537 34.4167 13.5071 34.67 13.5071C34.7634 13.5071 34.85 13.4871 34.9367 13.4471L40.1035 11.1537L48.7038 16.3138L40.1035 21.474L34.9367 19.1806C34.5967 19.0339 34.2033 19.1806 34.0567 19.5206C33.91 19.8539 34.0567 20.254 34.3967 20.4006L38.7102 22.314L35.7101 24.1141C35.3967 24.3007 35.29 24.7141 35.4834 25.0274C35.6101 25.2341 35.8301 25.3541 36.0567 25.3541C36.1767 25.3541 36.2901 25.3208 36.3967 25.2608L39.4302 23.4407L38.9768 28.1009C38.9435 28.4675 39.2102 28.7942 39.5768 28.8276C39.5968 28.8276 39.6235 28.8276 39.6435 28.8276C39.9835 28.8276 40.2702 28.5675 40.3035 28.2275L40.8502 22.5807L49.3305 17.4872V27.8075L44.7437 30.7343C44.4303 30.9343 44.3437 31.3476 44.537 31.6543C44.6637 31.8543 44.877 31.961 45.097 31.961C45.217 31.961 45.3437 31.9276 45.457 31.8543L49.3238 29.3876V31.9743C49.3238 32.341 49.6238 32.641 49.9905 32.641C50.3572 32.641 50.6572 32.341 50.6572 31.9743V29.3609L54.524 31.8543C54.8306 32.0543 55.244 31.9676 55.444 31.6543C55.644 31.341 55.5573 30.9343 55.244 30.7343L50.6639 27.8009V17.5072L59.0908 22.5674L59.6975 28.2475C59.7308 28.5875 60.0241 28.8409 60.3575 28.8409C60.3842 28.8409 60.4042 28.8409 60.4308 28.8342C60.7975 28.7942 61.0642 28.4675 61.0242 28.1009L60.5242 23.4207L63.5976 25.2674C63.7043 25.3341 63.8243 25.3608 63.9376 25.3608C64.1643 25.3608 64.3843 25.2474 64.5109 25.0341C64.6976 24.7208 64.5976 24.3074 64.2843 24.1207L61.2708 22.314L65.5976 20.414C65.9377 20.2673 66.091 19.8739 65.9377 19.5339C65.791 19.2073 65.3976 19.0539 65.0643 19.2006Z" fill="white"/>
<path d="M178.312 24.6133L169.839 26.8804L168.165 25.9141L165.658 22.9889L168.166 20.0627L169.84 19.0964L178.312 21.3657C178.359 21.3788 178.406 21.3843 178.453 21.3843C178.696 21.3843 178.917 21.2231 178.982 20.9774C179.059 20.6845 178.885 20.384 178.594 20.3061L171.182 18.3209L174.493 16.4103L177.727 17.2779C177.775 17.291 177.822 17.2965 177.87 17.2965C178.113 17.2965 178.334 17.1353 178.399 16.8896C178.476 16.5968 178.304 16.2962 178.011 16.2184L175.837 15.6349L178.246 14.243C178.508 14.0917 178.598 13.756 178.449 13.4939C178.296 13.2307 177.963 13.1418 177.697 13.2932L175.291 14.6839L175.871 12.5134C175.949 12.2205 175.776 11.92 175.483 11.8421C175.187 11.7665 174.89 11.9376 174.811 12.2304L173.945 15.4627L170.635 17.3744L172.621 9.9655C172.699 9.67266 172.526 9.37213 172.233 9.29426C171.936 9.21748 171.64 9.38859 171.561 9.68253L169.294 18.1509L167.619 19.1183L163.83 19.8279L162.55 16.1888V14.2529L168.749 8.05268C168.961 7.83881 168.961 7.49112 168.749 7.27724C168.536 7.06337 168.186 7.06337 167.973 7.27724L162.55 12.702V8.88077L164.918 6.51387C165.129 6.29999 165.129 5.95231 164.918 5.73843C164.704 5.52455 164.355 5.52455 164.142 5.73843L162.55 7.32989V4.5484C162.55 4.24568 162.304 4 162.001 4C161.698 4 161.453 4.24568 161.453 4.5484V7.32989L159.861 5.73843C159.647 5.52455 159.3 5.52455 159.086 5.73843C158.873 5.95231 158.873 6.29999 159.086 6.51387L161.453 8.88077V12.702L156.028 7.27724C155.815 7.06337 155.466 7.06337 155.253 7.27724C155.04 7.49112 155.04 7.83881 155.253 8.05268L161.452 14.2529V16.1877L160.171 19.8236L156.383 19.1139L154.707 18.1465L152.44 9.67814C152.361 9.3853 152.065 9.2131 151.768 9.28987C151.475 9.36775 151.302 9.66937 151.38 9.96112L153.366 17.37L150.056 15.4583L149.19 12.226C149.112 11.9321 148.813 11.761 148.518 11.8377C148.225 11.9156 148.052 12.2172 148.13 12.509L148.712 14.6818L146.304 13.291C146.044 13.1418 145.706 13.2296 145.555 13.4917C145.402 13.7539 145.492 14.0895 145.755 14.2408L148.166 15.6327L145.991 16.2162C145.697 16.294 145.524 16.5957 145.603 16.8874C145.671 17.1331 145.891 17.2943 146.133 17.2943C146.18 17.2943 146.227 17.2888 146.275 17.2757L149.51 16.4081L152.82 18.3187L145.409 20.304C145.114 20.3818 144.941 20.6834 145.02 20.9752C145.085 21.2209 145.307 21.3821 145.548 21.3821C145.595 21.3821 145.642 21.3766 145.689 21.3635L154.16 19.0942L155.834 20.0605L158.343 22.9878L155.834 25.9141L154.16 26.8804L145.689 24.6122C145.402 24.5354 145.097 24.7065 145.018 25.0005C144.941 25.2955 145.114 25.5938 145.407 25.6706L152.818 27.6569L149.506 29.5697L146.274 28.7022C145.979 28.6254 145.681 28.7965 145.602 29.0904C145.524 29.3855 145.697 29.6838 145.99 29.7617L148.163 30.3441L145.753 31.7359C145.492 31.8884 145.402 32.2229 145.552 32.4872C145.653 32.6616 145.839 32.7614 146.027 32.7614C146.122 32.7614 146.216 32.7384 146.302 32.6868L148.711 31.2961L148.129 33.4667C148.052 33.7617 148.225 34.06 148.517 34.139C148.564 34.1522 148.611 34.1577 148.659 34.1577C148.901 34.1577 149.122 33.9975 149.188 33.7507L150.054 30.5185L153.363 28.6089L151.375 36.0189C151.299 36.3129 151.472 36.6123 151.764 36.688C151.812 36.7022 151.859 36.7088 151.906 36.7088C152.149 36.7088 152.37 36.5487 152.436 36.3019L154.703 27.8335L156.378 26.865L160.166 26.1543L161.448 29.7979V31.7304L155.249 37.9317C155.036 38.1445 155.036 38.4933 155.249 38.7072C155.463 38.92 155.812 38.92 156.025 38.7072L161.448 33.2813V37.1026L159.081 39.4684C158.869 39.6811 158.869 40.031 159.081 40.2438C159.295 40.4566 159.643 40.4566 159.857 40.2438L161.448 38.6523V41.4349C161.448 41.7355 161.694 41.9833 161.997 41.9833C162.299 41.9833 162.545 41.7355 162.545 41.4349V38.6523L164.138 40.2438C164.245 40.3524 164.386 40.4039 164.526 40.4039C164.666 40.4039 164.807 40.3502 164.914 40.2438C165.127 40.031 165.127 39.6811 164.914 39.4684L162.55 37.1004V33.2791L167.973 38.705C168.082 38.8125 168.222 38.8651 168.361 38.8651C168.501 38.8651 168.642 38.8103 168.75 38.705C168.963 38.4911 168.963 38.1423 168.75 37.9296L162.55 31.7282V29.7935L163.83 26.1587L167.62 26.8694L169.289 27.8335L171.559 36.3041C171.627 36.5509 171.847 36.711 172.087 36.711C172.136 36.711 172.183 36.7044 172.231 36.6913C172.524 36.6145 172.697 36.3107 172.619 36.0211L170.632 28.6111L173.944 30.5218L174.81 33.7529C174.878 33.9986 175.099 34.1598 175.339 34.1598C175.385 34.1598 175.434 34.1555 175.481 34.1412C175.775 34.0622 175.948 33.7595 175.869 33.47L175.288 31.2994L177.696 32.6901C177.783 32.7417 177.877 32.7647 177.971 32.7647C178.16 32.7647 178.346 32.6649 178.448 32.4905C178.6 32.2273 178.51 31.8928 178.245 31.7392L175.836 30.3474L178.009 29.765C178.303 29.6871 178.475 29.3855 178.397 29.0937C178.318 28.8009 178.018 28.6265 177.725 28.7055L174.493 29.573L171.181 27.6602L178.592 25.6761C178.886 25.5971 179.06 25.2944 178.981 25.0037C178.904 24.7098 178.6 24.5376 178.312 24.6133ZM164.756 25.2132L163.106 24.9061L162.548 26.4877L162 28.0452L161.452 26.4899L160.892 24.9061L159.245 25.2132L157.621 25.5192L158.694 24.2645L159.787 22.9889L158.693 21.7144L157.619 20.4619L159.244 20.7668L160.891 21.075L161.451 19.489L161.999 17.9338L162.547 19.4923L163.105 21.075L164.755 20.7657L166.38 20.4608L165.306 21.7144L164.212 22.99L165.306 24.2656L166.38 25.5214L164.756 25.2132Z" fill="white"/>
<path d="M100.494 64.1568L94.2639 65.8238L93.0332 65.1133L91.1896 62.9624L93.034 60.8108L94.2647 60.1003L100.494 61.7689C100.529 61.7785 100.563 61.7826 100.598 61.7826C100.776 61.7826 100.939 61.664 100.987 61.4834C101.043 61.268 100.916 61.0471 100.701 60.9898L95.2518 59.5301L97.6857 58.1252L100.064 58.7631C100.1 58.7728 100.134 58.7769 100.169 58.7769C100.348 58.7769 100.51 58.6583 100.558 58.4777C100.615 58.2623 100.488 58.0414 100.273 57.9841L98.6745 57.5551L100.445 56.5316C100.638 56.4203 100.704 56.1736 100.595 55.9808C100.483 55.7873 100.237 55.7219 100.042 55.8332L98.2729 56.8558L98.6995 55.2598C98.7567 55.0445 98.6293 54.8235 98.414 54.7663C98.1962 54.7106 97.9777 54.8364 97.9196 55.0518L97.2833 57.4284L94.8494 58.8341L96.3099 53.3864C96.3672 53.1711 96.2397 52.9501 96.0244 52.8928C95.8059 52.8364 95.5881 52.9622 95.53 53.1783L93.8631 59.4051L92.6316 60.1164L89.8452 60.6382L88.9041 57.9623V56.5389L93.4622 51.9799C93.6187 51.8227 93.6187 51.567 93.4622 51.4097C93.3058 51.2525 93.0485 51.2525 92.8921 51.4097L88.9041 55.3985V52.5888L90.6452 50.8484C90.8009 50.6912 90.8009 50.4355 90.6452 50.2783C90.488 50.121 90.2315 50.121 90.0751 50.2783L88.9041 51.4484V49.4032C88.9041 49.1806 88.7234 49 88.5008 49C88.2782 49 88.0976 49.1806 88.0976 49.4032V51.4484L86.9274 50.2783C86.7701 50.121 86.5145 50.121 86.3572 50.2783C86.2008 50.4355 86.2008 50.6912 86.3572 50.8484L88.0976 52.5888V55.3985L84.1088 51.4097C83.9523 51.2525 83.6959 51.2525 83.5386 51.4097C83.3822 51.567 83.3822 51.8227 83.5386 51.9799L88.0968 56.5389V57.9615L87.1548 60.635L84.3701 60.1132L83.1378 59.4019L81.4708 53.1751C81.4128 52.9598 81.195 52.8332 80.9765 52.8896C80.7611 52.9469 80.6337 53.1687 80.691 53.3832L82.1515 58.8309L79.7175 57.4252L79.0812 55.0485C79.0232 54.8324 78.8038 54.7066 78.5869 54.763C78.3715 54.8203 78.2441 55.0421 78.3014 55.2566L78.7296 56.8542L76.9586 55.8316C76.7675 55.7219 76.5191 55.7865 76.4078 55.9792C76.2957 56.172 76.3618 56.4187 76.5554 56.53L78.328 57.5534L76.7288 57.9825C76.5126 58.0397 76.3852 58.2615 76.4433 58.476C76.4933 58.6567 76.6554 58.7752 76.8328 58.7752C76.8675 58.7752 76.9022 58.7712 76.9376 58.7615L79.3159 58.1236L81.7499 59.5285L76.3005 60.9882C76.0836 61.0455 75.957 61.2672 76.015 61.4818C76.0626 61.6624 76.2255 61.781 76.403 61.781C76.4376 61.781 76.4723 61.7769 76.507 61.7673L82.7354 60.0987L83.966 60.8092L85.8112 62.9616L83.966 65.1133L82.7354 65.8238L76.507 64.156C76.2957 64.0996 76.0715 64.2254 76.0134 64.4415C75.957 64.6585 76.0836 64.8778 76.2989 64.9343L81.7482 66.3948L79.3135 67.8013L76.9368 67.1634C76.7199 67.1069 76.5005 67.2327 76.4425 67.4488C76.3852 67.6658 76.5126 67.8851 76.728 67.9424L78.3256 68.3706L76.5538 69.3941C76.3618 69.5062 76.2957 69.7521 76.4062 69.9465C76.4804 70.0747 76.6167 70.1481 76.7554 70.1481C76.8247 70.1481 76.8941 70.1312 76.957 70.0933L78.7288 69.0707L78.3006 70.6667C78.2441 70.8836 78.3715 71.103 78.5861 71.161C78.6207 71.1707 78.6554 71.1747 78.6901 71.1747C78.8683 71.1747 79.0312 71.057 79.0796 70.8755L79.7159 68.4989L82.1491 67.0948L80.6877 72.5433C80.6313 72.7595 80.7587 72.9796 80.9732 73.0353C81.0087 73.0458 81.0434 73.0506 81.0781 73.0506C81.2563 73.0506 81.4192 72.9329 81.4676 72.7514L83.1346 66.5246L84.3661 65.8125L87.1516 65.2899L88.0944 67.969V69.39L83.5362 73.9498C83.3797 74.1063 83.3797 74.3627 83.5362 74.52C83.6935 74.6764 83.9499 74.6764 84.1064 74.52L88.0944 70.5304V73.3401L86.354 75.0797C86.1975 75.2361 86.1975 75.4934 86.354 75.6499C86.5113 75.8063 86.7669 75.8063 86.9242 75.6499L88.0944 74.4797V76.5257C88.0944 76.7467 88.275 76.9289 88.4976 76.9289C88.7202 76.9289 88.9008 76.7467 88.9008 76.5257V74.4797L90.0718 75.6499C90.1509 75.7297 90.2541 75.7676 90.3573 75.7676C90.4606 75.7676 90.5638 75.7281 90.6428 75.6499C90.7993 75.4934 90.7993 75.2361 90.6428 75.0797L88.9041 73.3385V70.5288L92.8921 74.5184C92.9719 74.5974 93.0751 74.6361 93.1776 74.6361C93.28 74.6361 93.384 74.5958 93.4631 74.5184C93.6195 74.3611 93.6195 74.1047 93.4631 73.9482L88.9041 69.3884V67.9658L89.8452 65.2931L92.6324 65.8157L93.8598 66.5246L95.5284 72.753C95.5784 72.9345 95.7405 73.0522 95.9171 73.0522C95.9526 73.0522 95.9873 73.0474 96.0228 73.0377C96.2381 72.9812 96.3655 72.7578 96.3083 72.5449L94.847 67.0964L97.2825 68.5013L97.9188 70.8772C97.9688 71.0578 98.1317 71.1764 98.3083 71.1764C98.3422 71.1764 98.3777 71.1731 98.4124 71.1626C98.6285 71.1046 98.7559 70.882 98.6979 70.6691L98.2704 69.0731L100.041 70.0957C100.105 70.1336 100.175 70.1505 100.243 70.1505C100.383 70.1505 100.519 70.0771 100.594 69.9489C100.706 69.7554 100.64 69.5094 100.445 69.3965L98.6737 68.3731L100.271 67.9448C100.487 67.8876 100.614 67.6658 100.557 67.4513C100.499 67.2359 100.278 67.1077 100.062 67.1658L97.6857 67.8037L95.251 66.3972L100.7 64.9383C100.916 64.8802 101.044 64.6576 100.986 64.4439C100.929 64.2278 100.706 64.1012 100.494 64.1568ZM90.5267 64.598L89.3129 64.3722L88.9033 65.5351L88.5 66.6803L88.0968 65.5367L87.6855 64.3722L86.4742 64.598L85.2798 64.823L86.0693 63.9004L86.8726 62.9624L86.0685 62.0253L85.279 61.1043L86.4734 61.3285L87.6847 61.5552L88.096 60.389L88.4992 59.2454L88.9025 60.3914L89.3121 61.5552L90.5259 61.3277L91.7203 61.1035L90.9307 62.0253L90.1267 62.9633L90.9307 63.9012L91.7203 64.8246L90.5267 64.598Z" fill="white"/>
<path d="M251.29 135.043H246.37L247.853 132.474C248.047 132.141 247.934 131.713 247.598 131.519C247.26 131.325 246.834 131.441 246.642 131.776L244.757 135.043H241.014L244.825 128.438C245.019 128.106 244.906 127.677 244.57 127.484C244.234 127.291 243.808 127.404 243.614 127.74L239.396 135.043H232.413L230.307 131.392L233.798 125.344H242.233C242.616 125.344 242.931 125.032 242.931 124.646C242.931 124.262 242.616 123.948 242.233 123.948H234.603L236.474 120.709L240.244 120.71C240.63 120.71 240.942 120.397 240.942 120.012C240.942 119.628 240.63 119.313 240.244 119.313L237.279 119.312L239.74 115.049C239.934 114.716 239.819 114.288 239.484 114.095C239.15 113.9 238.723 114.014 238.529 114.351L236.067 118.614L234.583 116.045C234.391 115.713 233.963 115.597 233.629 115.79C233.296 115.982 233.181 116.41 233.372 116.744L235.258 120.01L233.389 123.249L229.578 116.644C229.385 116.309 228.957 116.195 228.624 116.387C228.29 116.582 228.175 117.008 228.367 117.343L232.585 124.645L229.093 130.694H224.876L221.385 124.646L225.601 117.343C225.794 117.009 225.679 116.582 225.346 116.387C225.01 116.195 224.586 116.309 224.392 116.644L220.579 123.249L218.709 120.01L220.595 116.742C220.788 116.41 220.674 115.981 220.34 115.788C220.006 115.594 219.579 115.71 219.386 116.044L217.903 118.614L215.447 114.35C215.253 114.014 214.826 113.901 214.493 114.094C214.16 114.287 214.045 114.713 214.238 115.048L216.699 119.311H213.735C213.349 119.311 213.037 119.625 213.037 120.009C213.037 120.395 213.349 120.707 213.735 120.707H217.506L219.376 123.946H211.75C211.365 123.946 211.052 124.259 211.052 124.645C211.052 125.03 211.365 125.343 211.75 125.343H220.183L223.675 131.392L221.565 135.043H214.583L210.362 127.74C210.169 127.406 209.74 127.291 209.408 127.484C209.074 127.677 208.96 128.104 209.152 128.438L212.97 135.043H209.229L207.344 131.778C207.15 131.442 206.722 131.329 206.39 131.521C206.056 131.715 205.941 132.141 206.134 132.476L207.617 135.043H202.698C202.313 135.043 202 135.356 202 135.741C202 136.125 202.313 136.44 202.698 136.44H207.619L206.136 139.01C205.943 139.343 206.057 139.771 206.391 139.965C206.502 140.028 206.622 140.057 206.74 140.057C206.982 140.057 207.217 139.931 207.347 139.708L209.232 136.44H212.975L209.159 143.045C208.967 143.377 209.081 143.806 209.415 144C209.525 144.063 209.645 144.092 209.764 144.092C210.006 144.092 210.24 143.968 210.37 143.743L214.59 136.44H221.572L223.679 140.088L220.188 146.137H211.756C211.37 146.137 211.058 146.451 211.058 146.835C211.058 147.219 211.37 147.534 211.756 147.534H219.38L217.51 150.772H213.738C213.352 150.772 213.039 151.085 213.039 151.471C213.039 151.855 213.352 152.169 213.738 152.169H216.704L214.243 156.43C214.051 156.763 214.165 157.192 214.499 157.386C214.609 157.449 214.729 157.478 214.848 157.478C215.09 157.478 215.324 157.354 215.454 157.129L217.915 152.866L219.399 155.436C219.528 155.661 219.763 155.785 220.005 155.785C220.123 155.785 220.244 155.756 220.354 155.693C220.688 155.499 220.802 155.073 220.609 154.738L218.721 151.469L220.591 148.23L224.404 154.835C224.534 155.06 224.769 155.185 225.01 155.185C225.129 155.185 225.249 155.155 225.36 155.092C225.693 154.898 225.808 154.474 225.615 154.137L221.397 146.834L224.889 140.789H229.107L232.599 146.835L228.379 154.138C228.186 154.472 228.301 154.9 228.635 155.094C228.744 155.157 228.864 155.186 228.984 155.186C229.227 155.186 229.462 155.062 229.59 154.837L233.403 148.232L235.275 151.471L233.389 154.736C233.196 155.069 233.311 155.497 233.646 155.692C233.758 155.754 233.878 155.784 233.995 155.784C234.238 155.784 234.473 155.657 234.603 155.435L236.086 152.867L238.549 157.13C238.678 157.355 238.913 157.479 239.156 157.479C239.273 157.479 239.394 157.45 239.505 157.387C239.836 157.193 239.951 156.768 239.762 156.432L237.298 152.166H240.264C240.649 152.166 240.962 151.853 240.962 151.468C240.962 151.084 240.649 150.77 240.264 150.77H236.491L234.622 147.531L242.25 147.532C242.634 147.532 242.948 147.218 242.948 146.834C242.948 146.45 242.634 146.135 242.25 146.135L233.815 146.134L230.323 140.088L232.432 136.438H239.413L243.632 143.743C243.761 143.966 243.996 144.092 244.239 144.092C244.357 144.092 244.477 144.063 244.588 144C244.92 143.806 245.035 143.38 244.843 143.045L241.018 136.44H244.764L246.652 139.708C246.783 139.933 247.018 140.057 247.258 140.057C247.378 140.057 247.498 140.028 247.607 139.965C247.943 139.771 248.057 139.346 247.866 139.01L246.383 136.44H251.302C251.684 136.44 252 136.125 252 135.741C251.99 135.356 251.675 135.043 251.29 135.043ZM230.807 136.44L229.505 138.694L229.101 139.392H228.297H225.691H224.885L224.481 138.694L223.182 136.44L222.779 135.741L223.182 135.043L224.484 132.789L224.888 132.09H225.693H228.297H229.104L229.508 132.789L230.807 135.043L231.21 135.741L230.807 136.44Z" fill="white"/>
<path d="M189.505 88.754H187.458L188.075 87.6855C188.156 87.5466 188.109 87.3688 187.969 87.288C187.828 87.2073 187.651 87.2555 187.571 87.3949L186.787 88.754H185.23L186.815 86.0063C186.896 85.868 186.849 85.6896 186.709 85.6094C186.57 85.5293 186.392 85.5763 186.312 85.7158L184.557 88.754H181.652L180.776 87.2352L182.228 84.7193H185.737C185.896 84.7193 186.028 84.5892 186.028 84.4288C186.028 84.269 185.896 84.1383 185.737 84.1383H182.563L183.342 82.7909L184.91 82.7915C185.07 82.7915 185.2 82.6613 185.2 82.5009C185.2 82.3412 185.07 82.2104 184.91 82.2104L183.676 82.2098L184.7 80.4365C184.781 80.2977 184.733 80.1199 184.594 80.0397C184.455 79.9584 184.277 80.006 184.196 80.146L183.172 81.9193L182.555 80.8508C182.475 80.7125 182.297 80.6643 182.158 80.7445C182.019 80.8247 181.971 81.0025 182.051 81.1413L182.835 82.5004L182.058 83.8478L180.472 81.1001C180.392 80.9606 180.214 80.913 180.076 80.9932C179.937 81.0739 179.889 81.2511 179.969 81.3906L181.723 84.4282L180.271 86.9446H178.517L177.064 84.4288L178.818 81.3906C178.898 81.2517 178.851 81.0739 178.712 80.9932C178.572 80.913 178.396 80.9606 178.315 81.1001L176.729 83.8478L175.951 82.5004L176.736 81.1408C176.816 81.0025 176.768 80.8241 176.629 80.7439C176.491 80.6631 176.313 80.7114 176.233 80.8502L175.616 81.9193L174.594 80.1455C174.513 80.006 174.336 79.9589 174.197 80.0391C174.058 80.1193 174.011 80.2965 174.091 80.436L175.115 82.2093H173.882C173.721 82.2093 173.591 82.34 173.591 82.4998C173.591 82.6601 173.721 82.7903 173.882 82.7903H175.451L176.229 84.1377H173.056C172.896 84.1377 172.766 84.2678 172.766 84.4282C172.766 84.5886 172.896 84.7187 173.056 84.7187H176.564L178.017 87.2352L177.139 88.754H174.234L172.479 85.7158C172.398 85.5769 172.22 85.5293 172.082 85.6094C171.943 85.6896 171.895 85.8674 171.975 86.0063L173.563 88.754H172.007L171.223 87.3955C171.142 87.2561 170.964 87.209 170.826 87.2886C170.687 87.3694 170.64 87.5466 170.72 87.686L171.337 88.754H169.291C169.13 88.754 169 88.8841 169 89.0445C169 89.2043 169.13 89.335 169.291 89.335H171.337L170.72 90.4041C170.64 90.543 170.688 90.7207 170.827 90.8015C170.873 90.8277 170.923 90.8399 170.972 90.8399C171.073 90.8399 171.17 90.7876 171.224 90.6946L172.009 89.335H173.566L171.978 92.0827C171.898 92.221 171.946 92.3993 172.085 92.4801C172.131 92.5062 172.181 92.5184 172.23 92.5184C172.33 92.5184 172.428 92.4667 172.482 92.3732L174.237 89.335H177.142L178.019 90.8526L176.566 93.3691H173.058C172.898 93.3691 172.768 93.4998 172.768 93.6596C172.768 93.8194 172.898 93.9501 173.058 93.9501H176.23L175.452 95.2975H173.883C173.723 95.2975 173.592 95.4277 173.592 95.588C173.592 95.7478 173.723 95.8785 173.883 95.8785H175.117L174.093 97.6513C174.013 97.7895 174.061 97.9679 174.2 98.0487C174.246 98.0748 174.295 98.087 174.345 98.087C174.445 98.087 174.543 98.0353 174.597 97.9418L175.621 96.1685L176.238 97.2376C176.292 97.3311 176.39 97.3828 176.49 97.3828C176.539 97.3828 176.589 97.3706 176.635 97.3445C176.774 97.2637 176.822 97.0865 176.742 96.947L175.956 95.5874L176.734 94.24L178.32 96.9877C178.374 97.0813 178.472 97.133 178.572 97.133C178.622 97.133 178.672 97.1208 178.718 97.0946C178.857 97.0139 178.904 96.8372 178.824 96.6972L177.069 93.659L178.522 91.1443H180.277L181.729 93.6596L179.974 96.6978C179.894 96.8367 179.941 97.0144 180.08 97.0952C180.126 97.1214 180.175 97.1336 180.225 97.1336C180.327 97.1336 180.424 97.0818 180.478 96.9883L182.064 94.2406L182.842 95.588L182.058 96.9465C181.978 97.0848 182.025 97.2631 182.165 97.3439C182.211 97.37 182.261 97.3822 182.31 97.3822C182.411 97.3822 182.509 97.3294 182.563 97.237L183.18 96.1691L184.204 97.9423C184.258 98.0359 184.356 98.0876 184.457 98.0876C184.506 98.0876 184.556 98.0754 184.602 98.0493C184.74 97.9685 184.788 97.7919 184.709 97.6518L183.684 95.8774H184.918C185.078 95.8774 185.208 95.7472 185.208 95.5869C185.208 95.4271 185.078 95.2963 184.918 95.2963H183.348L182.571 93.9489L185.744 93.9495C185.904 93.9495 186.035 93.8188 186.035 93.659C186.035 93.4992 185.904 93.3685 185.744 93.3685L182.235 93.3679L180.783 90.8526L181.66 89.3344H184.564L186.319 92.3732C186.373 92.4662 186.47 92.5184 186.571 92.5184C186.621 92.5184 186.671 92.5062 186.717 92.4801C186.855 92.3993 186.903 92.2221 186.823 92.0827L185.232 89.335H186.79L187.575 90.6946C187.63 90.7881 187.728 90.8399 187.828 90.8399C187.878 90.8399 187.928 90.8277 187.973 90.8015C188.112 90.7207 188.16 90.5441 188.08 90.4041L187.463 89.335H189.51C189.669 89.335 189.8 89.2043 189.8 89.0445C189.796 88.8841 189.665 88.754 189.505 88.754ZM180.984 89.335L180.442 90.2728L180.274 90.5633H179.94H178.855H178.52L178.352 90.2728L177.812 89.335L177.644 89.0445L177.812 88.754L178.353 87.8162L178.521 87.5257H178.857H179.94H180.275L180.443 87.8162L180.984 88.754L181.152 89.0445L180.984 89.335Z" fill="white"/>
<path d="M38.4466 102.414H34.6086L35.7655 100.41C35.917 100.15 35.8287 99.8163 35.5662 99.6649C35.3025 99.5135 34.9702 99.6039 34.821 99.8654L33.3503 102.414H30.4307L33.4037 97.2617C33.5551 97.0024 33.4669 96.6679 33.2043 96.5176C32.9428 96.3672 32.6106 96.4555 32.4591 96.717L29.1691 102.414H23.722L22.0792 99.5658L24.8027 94.8486H31.3817C31.6802 94.8486 31.9264 94.6046 31.9264 94.3039C31.9264 94.0043 31.6802 93.7592 31.3817 93.7592H25.4302L26.8901 91.2328L29.8304 91.2339C30.1311 91.2339 30.3751 90.9899 30.3751 90.6892C30.3751 90.3896 30.1311 90.1445 29.8304 90.1445L27.5176 90.1434L29.4371 86.8185C29.5885 86.5581 29.4992 86.2248 29.2377 86.0744C28.9774 85.9219 28.644 86.0113 28.4926 86.2738L26.5719 89.5987L25.415 87.5953C25.2646 87.336 24.9313 87.2456 24.6709 87.3959C24.4105 87.5462 24.3212 87.8796 24.4705 88.14L25.9412 90.6881L24.4835 93.2145L21.5105 88.0626C21.3602 87.8012 21.0268 87.7118 20.7664 87.8622C20.5061 88.0136 20.4167 88.3459 20.566 88.6073L23.856 94.3028L21.1325 99.0211H17.8435L15.12 94.3039L18.409 88.6073C18.5593 88.347 18.47 88.0136 18.2096 87.8622C17.9481 87.7118 17.6169 87.8012 17.4655 88.0626L14.4914 93.2145L13.0327 90.6881L14.5045 88.1389C14.6548 87.8796 14.5655 87.5452 14.3051 87.3948C14.0447 87.2434 13.7114 87.3338 13.561 87.5942L12.4041 89.5987L10.4889 86.2727C10.3375 86.0113 10.0041 85.923 9.74482 86.0734C9.48445 86.2237 9.39512 86.556 9.54546 86.8174L11.465 90.1423H9.15327C8.85259 90.1423 8.60856 90.3874 8.60856 90.687C8.60856 90.9877 8.85259 91.2317 9.15327 91.2317H12.0947L13.5534 93.7581H7.60521C7.30453 93.7581 7.0605 94.0021 7.0605 94.3028C7.0605 94.6035 7.30453 94.8475 7.60521 94.8475H14.1831L16.9066 99.5658L15.2605 102.414H9.81455L6.52233 96.717C6.37199 96.4566 6.03754 96.3672 5.77826 96.5176C5.51789 96.6679 5.42856 97.0013 5.5789 97.2617L8.55627 102.414H5.63882L4.16811 99.8665C4.01668 99.605 3.68332 99.5168 3.42403 99.666C3.16366 99.8174 3.07433 100.15 3.22467 100.411L4.38163 102.414H0.544708C0.244029 102.414 0 102.658 0 102.958C0 103.258 0.244029 103.503 0.544708 103.503H4.38272L3.22576 105.507C3.07542 105.768 3.16475 106.101 3.42512 106.253C3.51119 106.302 3.60488 106.325 3.69748 106.325C3.88595 106.325 4.06897 106.226 4.17028 106.052L5.641 103.503H8.56063L5.58435 108.655C5.43401 108.914 5.52334 109.249 5.78371 109.4C5.86977 109.449 5.96346 109.472 6.05606 109.472C6.24453 109.472 6.42755 109.375 6.52887 109.199L9.81999 103.503H15.266L16.9099 106.348L14.1864 111.067H7.60957C7.30889 111.067 7.06486 111.312 7.06486 111.611C7.06486 111.911 7.30889 112.156 7.60957 112.156H13.5567L12.098 114.683H9.15545C8.85477 114.683 8.61074 114.927 8.61074 115.227C8.61074 115.527 8.85477 115.772 9.15545 115.772H11.4694L9.54982 119.096C9.39948 119.355 9.48881 119.689 9.74918 119.841C9.83525 119.89 9.92894 119.913 10.0215 119.913C10.21 119.913 10.393 119.816 10.4943 119.64L12.4139 116.316L13.5709 118.32C13.6722 118.495 13.8552 118.592 14.0437 118.592C14.1363 118.592 14.23 118.57 14.316 118.521C14.5764 118.369 14.6657 118.037 14.5154 117.775L13.0425 115.226L14.5012 112.7L17.4753 117.852C17.5766 118.027 17.7597 118.124 17.9481 118.124C18.0407 118.124 18.1344 118.101 18.2205 118.052C18.4809 117.901 18.5702 117.569 18.4198 117.307L15.1298 111.61L17.8533 106.895H21.1434L23.8669 111.611L20.5758 117.308C20.4255 117.568 20.5148 117.902 20.7752 118.053C20.8601 118.102 20.9538 118.125 21.0475 118.125C21.2371 118.125 21.4201 118.028 21.5203 117.853L24.4944 112.701L25.9542 115.227L24.4835 117.774C24.3332 118.034 24.4225 118.368 24.684 118.519C24.7711 118.568 24.8648 118.591 24.9563 118.591C25.1459 118.591 25.3289 118.492 25.4302 118.319L26.5872 116.317L28.5078 119.642C28.6092 119.817 28.7922 119.914 28.9817 119.914C29.0732 119.914 29.1669 119.891 29.2541 119.842C29.5123 119.691 29.6016 119.359 29.4545 119.097L27.5328 115.77H29.8456C30.1463 115.77 30.3903 115.526 30.3903 115.225C30.3903 114.925 30.1463 114.68 29.8456 114.68H26.9031L25.4455 112.154L31.3948 112.155C31.6944 112.155 31.9395 111.91 31.9395 111.61C31.9395 111.311 31.6944 111.066 31.3948 111.066L24.8158 111.065L22.0923 106.348L23.7373 103.502H29.1822L32.4733 109.199C32.5735 109.374 32.7566 109.472 32.9461 109.472C33.0387 109.472 33.1324 109.449 33.2185 109.4C33.4778 109.249 33.5671 108.916 33.4178 108.655L30.4339 103.503H33.3557L34.8286 106.052C34.931 106.228 35.1141 106.325 35.3014 106.325C35.3951 106.325 35.4888 106.302 35.5738 106.253C35.8352 106.101 35.9246 105.77 35.7753 105.507L34.6184 103.503H38.4553C38.7538 103.503 39 103.258 39 102.958C38.9924 102.658 38.7462 102.414 38.4466 102.414ZM22.4692 103.503L21.4539 105.261L21.139 105.806H20.5115H18.4787H17.8501L17.5352 105.261L16.5221 103.503L16.2072 102.958L16.5221 102.414L17.5374 100.655L17.8523 100.11H18.4809H20.5115H21.1412L21.456 100.655L22.4692 102.414L22.784 102.958L22.4692 103.503Z" fill="white"/>
</svg>
