<svg width="18" height="18" viewBox="0 0 18 18" fill="none" xmlns="http://www.w3.org/2000/svg">
<path d="M15.7346 18H7.86732C7.24683 18 6.71707 17.7805 6.27805 17.3415C5.83902 16.9024 5.61951 16.3727 5.61951 15.7522V14.6283C5.61951 14.3122 5.7278 14.0459 5.94439 13.8293C6.16098 13.6127 6.42439 13.5044 6.73463 13.5044C7.04488 13.5044 7.31122 13.6127 7.53366 13.8293C7.7561 14.0459 7.86732 14.3093 7.86732 14.6195C7.86732 14.9298 7.97561 15.1961 8.19219 15.4185C8.40878 15.641 8.67512 15.7522 8.99122 15.7522H13.4868C13.7912 15.7522 14.0546 15.641 14.2771 15.4185C14.4995 15.1961 14.6107 14.9327 14.6107 14.6283V3.37171C14.6107 3.06732 14.4995 2.8039 14.2771 2.58146C14.0546 2.35902 13.7912 2.2478 13.4868 2.2478H8.99122C8.67512 2.2478 8.40878 2.35902 8.19219 2.58146C7.97561 2.8039 7.86732 3.07024 7.86732 3.38049C7.86732 3.69073 7.7561 3.95707 7.53366 4.17951C7.31122 4.40195 7.04488 4.51317 6.73463 4.51317C6.42439 4.51317 6.16098 4.40195 5.94439 4.17951C5.7278 3.95707 5.61951 3.6878 5.61951 3.37171V2.2478C5.61951 1.62732 5.83902 1.09756 6.27805 0.658537C6.71707 0.219512 7.24683 0 7.86732 0H15.7346C16.3551 0 16.8849 0.219512 17.3239 0.658537C17.7629 1.09756 17.9824 1.62732 17.9824 2.2478V15.7522C17.9824 16.3727 17.7629 16.9024 17.3239 17.3415C16.8849 17.7805 16.3551 18 15.7346 18ZM12.3629 6.74341C12.6673 6.74341 12.9307 6.85463 13.1532 7.07707C13.3756 7.29951 13.4868 7.56293 13.4868 7.86732V10.1327C13.4868 10.4371 13.3756 10.7005 13.1532 10.9229C12.9307 11.1454 12.6673 11.2566 12.3629 11.2566H4.49561V13.0302C4.49561 13.159 4.41659 13.2702 4.25854 13.3639C4.10049 13.4576 3.91317 13.4985 3.69659 13.4868C3.48 13.4751 3.30732 13.4049 3.17854 13.2761L0.316098 9.7639C0.105366 9.55317 0 9.29854 0 9C0 8.70146 0.105366 8.44683 0.316098 8.2361L3.17854 4.7239C3.30732 4.59512 3.48 4.5278 3.69659 4.52195C3.91317 4.5161 4.10049 4.56 4.25854 4.65366C4.41659 4.74732 4.49561 4.86439 4.49561 5.00488V6.74341H12.3629Z" fill="#CF0F3F"/>
</svg>
