<svg width="11" height="12" viewBox="0 0 11 12" fill="none" xmlns="http://www.w3.org/2000/svg">
<path d="M10.0835 0.06375C10.1347 0.0979781 10.1766 0.144277 10.2057 0.19856C10.2347 0.252842 10.2499 0.313439 10.25 0.375V6C10.25 6.07489 10.2275 6.14806 10.1856 6.21008C10.1436 6.27211 10.084 6.32014 10.0145 6.348L9.875 6L10.0145 6.348L10.0122 6.34875L10.0077 6.351L9.9905 6.35775C9.8919 6.39694 9.79263 6.43445 9.69275 6.47025C9.49475 6.5415 9.2195 6.6375 8.9075 6.73275C8.2955 6.92175 7.49825 7.125 6.875 7.125C6.23975 7.125 5.714 6.915 5.2565 6.73125L5.2355 6.72375C4.76 6.5325 4.355 6.375 3.875 6.375C3.35 6.375 2.6465 6.5475 2.04725 6.73275C1.77894 6.81637 1.51308 6.90766 1.25 7.0065V11.625C1.25 11.7245 1.21049 11.8198 1.14016 11.8902C1.06984 11.9605 0.974456 12 0.875 12C0.775544 12 0.680161 11.9605 0.609835 11.8902C0.539509 11.8198 0.5 11.7245 0.5 11.625V0.375C0.5 0.275544 0.539509 0.180161 0.609835 0.109835C0.680161 0.0395088 0.775544 0 0.875 0C0.974456 0 1.06984 0.0395088 1.14016 0.109835C1.21049 0.180161 1.25 0.275544 1.25 0.375V0.5865C1.4195 0.52725 1.622 0.459 1.8425 0.3915C2.4545 0.204 3.2525 0 3.875 0C4.505 0 5.018 0.20775 5.46575 0.38925L5.498 0.40275C5.9645 0.591 6.371 0.75 6.875 0.75C7.4 0.75 8.1035 0.5775 8.70275 0.39225C9.04423 0.285609 9.38171 0.16653 9.7145 0.03525L9.72875 0.03L9.73175 0.0285H9.7325" fill="white"/>
</svg>
