<svg width="20" height="20" viewBox="0 0 20 20" fill="none" xmlns="http://www.w3.org/2000/svg">
<path fill-rule="evenodd" clip-rule="evenodd" d="M19.6004 10C19.6004 15.302 15.3023 19.6 10.0004 19.6C4.69846 19.6 0.400391 15.302 0.400391 10C0.400391 4.69809 4.69846 0.400024 10.0004 0.400024C15.3023 0.400024 19.6004 4.69809 19.6004 10ZM11.2004 5.20002C11.2004 5.86277 10.6631 6.40002 10.0004 6.40002C9.33765 6.40002 8.80039 5.86277 8.80039 5.20002C8.80039 4.53728 9.33765 4.00002 10.0004 4.00002C10.6631 4.00002 11.2004 4.53728 11.2004 5.20002ZM8.80039 8.80002C8.13765 8.80002 7.60039 9.33728 7.60039 10C7.60039 10.6628 8.13765 11.2 8.80039 11.2V14.8C8.80039 15.4628 9.33765 16 10.0004 16H11.2004C11.8631 16 12.4004 15.4628 12.4004 14.8C12.4004 14.1373 11.8631 13.6 11.2004 13.6V10C11.2004 9.33728 10.6631 8.80002 10.0004 8.80002H8.80039Z" fill="#D21C4B"/>
</svg>
