<svg width="100" height="100" viewBox="0 0 100 100" fill="none" xmlns="http://www.w3.org/2000/svg">
<path d="M10 52.5C10 48.3579 13.3579 45 17.5 45C21.6421 45 25 48.3579 25 52.5V82.5C25 86.6421 21.6421 90 17.5 90C13.3579 90 10 86.6421 10 82.5V52.5Z" fill="#D21C4B"/>
<path d="M30 51.6667V78.8197C30 82.6074 32.14 86.07 35.5279 87.7639L35.7771 87.8885C38.5542 89.2771 41.6165 90 44.7214 90H71.802C76.5688 90 80.6729 86.6354 81.6078 81.9612L87.6078 51.9612C88.8454 45.7733 84.1124 40 77.802 40H60V20C60 14.4772 55.5228 10 50 10C47.2386 10 45 12.2386 45 15V18.3333C45 22.6607 43.5964 26.8714 41 30.3333L34 39.6667C31.4036 43.1286 30 47.3393 30 51.6667Z" fill="#D21C4B"/>
</svg>
