<svg width="16" height="17" viewBox="0 0 16 17" fill="none" xmlns="http://www.w3.org/2000/svg">
<path fill-rule="evenodd" clip-rule="evenodd" d="M2.08296 7.01074H4.02863C4.11783 5.46435 4.41228 4.03982 4.86644 2.89302C3.41752 3.78209 2.37513 5.26922 2.08296 7.01074ZM8 0.0107422C3.58172 0.0107422 0 3.59246 0 8.01074C0 12.429 3.58172 16.0107 8 16.0107C12.4183 16.0107 16 12.429 16 8.01074C16 3.59246 12.4183 0.0107422 8 0.0107422ZM8 2.01074C7.92395 2.01074 7.76787 2.04247 7.5347 2.27258C7.29723 2.50694 7.03751 2.89565 6.79782 3.45491C6.40914 4.36185 6.12491 5.59633 6.03237 7.01074H9.96763C9.87509 5.59633 9.59086 4.36185 9.20218 3.45491C8.96249 2.89565 8.70277 2.50694 8.4653 2.27258C8.23213 2.04247 8.07605 2.01074 8 2.01074ZM11.9714 7.01074C11.8822 5.46435 11.5877 4.03981 11.1336 2.89302C12.5825 3.78209 13.6249 5.26922 13.917 7.01074H11.9714ZM9.96763 9.01074H6.03237C6.12491 10.4252 6.40914 11.6596 6.79782 12.5666C7.03751 13.1258 7.29723 13.5145 7.5347 13.7489C7.76787 13.979 7.92395 14.0107 8 14.0107C8.07605 14.0107 8.23213 13.979 8.4653 13.7489C8.70277 13.5145 8.96249 13.1258 9.20218 12.5666C9.59086 11.6596 9.87509 10.4252 9.96763 9.01074ZM11.1336 13.1285C11.5877 11.9817 11.8822 10.5571 11.9714 9.01074H13.917C13.6249 10.7523 12.5825 12.2394 11.1336 13.1285ZM4.86644 13.1285C4.41228 11.9817 4.11783 10.5571 4.02863 9.01074H2.08296C2.37513 10.7523 3.41752 12.2394 4.86644 13.1285Z" fill="#CF0F3F"/>
</svg>
