<svg width="16" height="16" viewBox="0 0 16 16" fill="none" xmlns="http://www.w3.org/2000/svg">
<path d="M8.53333 4.2666C8.23893 4.2666 8 4.50553 8 4.79993C8 5.09433 8.23893 5.33327 8.53333 5.33327C9.70987 5.33327 10.6667 6.29007 10.6667 7.4666C10.6667 7.761 10.9056 7.99993 11.2 7.99993C11.4944 7.99993 11.7333 7.761 11.7333 7.4666C11.7333 5.70233 10.2976 4.2666 8.53333 4.2666Z" fill="white"/>
<path d="M8.53333 2.1333C8.23893 2.1333 8 2.37223 8 2.66663C8 2.96103 8.23893 3.19997 8.53333 3.19997C10.8864 3.19997 12.8 5.11357 12.8 7.46663C12.8 7.76103 13.0389 7.99997 13.3333 7.99997C13.6277 7.99997 13.8667 7.76103 13.8667 7.46663C13.8667 4.52583 11.4741 2.1333 8.53333 2.1333Z" fill="white"/>
<path d="M8.53333 0C8.23893 0 8 0.238933 8 0.533333C8 0.827733 8.23893 1.06667 8.53333 1.06667C12.0629 1.06667 14.9333 3.93707 14.9333 7.46667C14.9333 7.76107 15.1723 8 15.4667 8C15.7611 8 16 7.76107 16 7.46667C16 3.34933 12.6496 0 8.53333 0Z" fill="white"/>
<path d="M14.4 11.7333C12.8512 11.7333 11.376 11.3962 10.016 10.7317C9.888 10.6677 9.7408 10.6602 9.60747 10.7072C9.47307 10.7541 9.3632 10.8523 9.30133 10.9792L8.46293 12.7147C6.29333 11.504 4.49707 9.70878 3.28747 7.53918L5.02187 6.69865C5.14987 6.63678 5.24693 6.52692 5.29387 6.39252C5.33973 6.25918 5.3312 6.11198 5.26827 5.98398C4.60373 4.62398 4.26667 3.14878 4.26667 1.59998C4.26667 1.30558 4.02773 1.06665 3.73333 1.06665H0.533333C0.238933 1.06665 0 1.30558 0 1.59998C0 9.54025 6.45973 16 14.4 16C14.6944 16 14.9333 15.761 14.9333 15.4667V12.2666C14.9333 11.9722 14.6944 11.7333 14.4 11.7333Z" fill="white"/>
</svg>
