<svg width="16" height="16" viewBox="0 0 16 16" fill="none" xmlns="http://www.w3.org/2000/svg">
<path d="M12.6667 1.33331H4C3.196 1.33331 2 1.86598 2 3.33331V12.6666C2 14.134 3.196 14.6666 4 14.6666H14V13.3333H4.008C3.7 13.3253 3.33333 13.204 3.33333 12.6666C3.33333 12.5993 3.33933 12.5393 3.34933 12.4846C3.424 12.1006 3.73867 12.0066 4.008 12H14V2.66665C14 2.31302 13.8595 1.97389 13.6095 1.72384C13.3594 1.47379 13.0203 1.33331 12.6667 1.33331ZM12.6667 7.33331L11.3333 6.66665L10 7.33331V2.66665H12.6667V7.33331Z" fill="#CF0F3F"/>
</svg>
