<svg width="16" height="16" viewBox="0 0 16 16" fill="none" xmlns="http://www.w3.org/2000/svg">
<path d="M1.5 8C1.5 6.27609 2.18482 4.62279 3.40381 3.40381C4.62279 2.18482 6.27609 1.5 8 1.5C9.72391 1.5 11.3772 2.18482 12.5962 3.40381C13.8152 4.62279 14.5 6.27609 14.5 8C14.5 9.72391 13.8152 11.3772 12.5962 12.5962C11.3772 13.8152 9.72391 14.5 8 14.5C6.27609 14.5 4.62279 13.8152 3.40381 12.5962C2.18482 11.3772 1.5 9.72391 1.5 8ZM5.643 3.03C4.91347 3.37693 4.26897 3.87976 3.755 4.503L4.402 6.607L5.408 6.942L7.5 5.352V4.268L5.643 3.029V3.03ZM2.536 8.634C2.636 9.499 2.936 10.304 3.389 10.999H5.293L5.928 10.364L5.105 7.894L4.081 7.553L2.536 8.633V8.634ZM6.886 13.386C7.62096 13.5373 8.37904 13.5373 9.114 13.386L9.904 11.61L9.293 11H6.707L6.097 11.61L6.886 13.387V13.386ZM12.61 11C13.05 10.326 13.346 9.55 13.454 8.715L11.91 7.557L10.895 7.895L10.072 10.365L10.707 11H12.61ZM12.232 4.487C11.7202 3.8707 11.0804 3.37319 10.357 3.029L8.5 4.268V5.352L10.592 6.942L11.596 6.608L12.232 4.487Z" fill="#CF0F3F"/>
</svg>
