<svg width="16" height="16" viewBox="0 0 16 16" fill="none" xmlns="http://www.w3.org/2000/svg">
  <path fill-rule="evenodd" clip-rule="evenodd" d="M13.9666 3.62381C14.186 3.96416 14.186 4.43795 14.186 5.38554V13.988H14.5116C14.7813 13.988 15 14.2145 15 14.494C15 14.7734 14.7813 15 14.5116 15H1.48837C1.21865 15 1 14.7734 1 14.494C1 14.2145 1.21865 13.988 1.48837 13.988H1.81395V5.38554C1.81395 4.43795 1.81395 3.96416 2.03343 3.62381C2.12845 3.47647 2.25054 3.34996 2.39275 3.25151C2.68005 3.0526 3.06589 3.02767 3.77007 3.02454C3.76739 3.22115 3.76741 3.42658 3.76744 3.63841L3.76744 3.69879V4.54217H3.11628C2.84656 4.54217 2.62791 4.76872 2.62791 5.04819C2.62791 5.32766 2.84656 5.55422 3.11628 5.55422H3.76744V6.56626H3.11628C2.84656 6.56626 2.62791 6.79282 2.62791 7.07229C2.62791 7.35176 2.84656 7.57831 3.11628 7.57831H3.76744V8.59036H3.11628C2.84656 8.59036 2.62791 8.81692 2.62791 9.09639C2.62791 9.37585 2.84656 9.60241 3.11628 9.60241H3.76744V13.988H4.74419V3.6988C4.74419 2.42657 4.74419 1.79046 5.12563 1.39523C5.50707 1 6.12099 1 7.34884 1H8.65116C9.87901 1 10.4929 1 10.8744 1.39523C11.2558 1.79046 11.2558 2.42657 11.2558 3.6988V13.988H12.2326V9.60241H12.8837C13.1534 9.60241 13.3721 9.37585 13.3721 9.09639C13.3721 8.81692 13.1534 8.59036 12.8837 8.59036H12.2326V7.57831H12.8837C13.1534 7.57831 13.3721 7.35176 13.3721 7.07229C13.3721 6.79282 13.1534 6.56626 12.8837 6.56626H12.2326V5.55422H12.8837C13.1534 5.55422 13.3721 5.32766 13.3721 5.04819C13.3721 4.76872 13.1534 4.54217 12.8837 4.54217H12.2326V3.69879L12.2326 3.63842C12.2326 3.42659 12.2326 3.22115 12.2299 3.02454C12.9341 3.02767 13.3199 3.0526 13.6073 3.25151C13.7495 3.34996 13.8715 3.47647 13.9666 3.62381ZM8.48837 12.4699C8.48837 12.1904 8.26972 11.9639 8 11.9639C7.73028 11.9639 7.51163 12.1904 7.51163 12.4699V13.988H8.48837V12.4699ZM6.2093 9.77108C6.2093 9.49162 6.42795 9.26506 6.69767 9.26506H9.30233C9.57205 9.26506 9.7907 9.49162 9.7907 9.77108C9.7907 10.0506 9.57205 10.2771 9.30233 10.2771H6.69767C6.42795 10.2771 6.2093 10.0506 6.2093 9.77108ZM6.69767 7.24096C6.42795 7.24096 6.2093 7.46752 6.2093 7.74699C6.2093 8.02646 6.42795 8.25301 6.69767 8.25301H9.30233C9.57205 8.25301 9.7907 8.02646 9.7907 7.74699C9.7907 7.46752 9.57205 7.24096 9.30233 7.24096H6.69767ZM6.37209 4.37349C6.37209 3.34877 7.17382 2.51807 8.16279 2.51807C9.15177 2.51807 9.95349 3.34877 9.95349 4.37349C9.95349 5.39821 9.15177 6.22892 8.16279 6.22892C7.17382 6.22892 6.37209 5.39821 6.37209 4.37349ZM7.34884 4.37349C7.34884 3.90771 7.71326 3.53012 8.16279 3.53012C8.61233 3.53012 8.97674 3.90771 8.97674 4.37349C8.97674 4.83928 8.61233 5.21687 8.16279 5.21687C7.71326 5.21687 7.34884 4.83928 7.34884 4.37349Z" fill="#CF0F3F" />
</svg>