<svg width="22" height="19" viewBox="0 0 22 19" fill="none" xmlns="http://www.w3.org/2000/svg">
<path d="M14.5992 4.2001C14.5992 6.18832 12.9874 7.8001 10.9992 7.8001C9.01099 7.8001 7.39922 6.18832 7.39922 4.2001C7.39922 2.21187 9.01099 0.600098 10.9992 0.600098C12.9874 0.600098 14.5992 2.21187 14.5992 4.2001Z" fill="#CF0F3F"/>
<path d="M20.5992 6.6001C20.5992 7.92558 19.5247 9.0001 18.1992 9.0001C16.8737 9.0001 15.7992 7.92558 15.7992 6.6001C15.7992 5.27461 16.8737 4.2001 18.1992 4.2001C19.5247 4.2001 20.5992 5.27461 20.5992 6.6001Z" fill="#CF0F3F"/>
<path d="M15.7992 15.0001C15.7992 12.3491 13.6502 10.2001 10.9992 10.2001C8.34825 10.2001 6.19922 12.3491 6.19922 15.0001V18.6001H15.7992V15.0001Z" fill="#CF0F3F"/>
<path d="M6.19922 6.6001C6.19922 7.92558 5.1247 9.0001 3.79922 9.0001C2.47374 9.0001 1.39922 7.92558 1.39922 6.6001C1.39922 5.27461 2.47374 4.2001 3.79922 4.2001C5.1247 4.2001 6.19922 5.27461 6.19922 6.6001Z" fill="#CF0F3F"/>
<path d="M18.1992 18.6001V15.0001C18.1992 13.7351 17.873 12.5463 17.3001 11.5133C17.5875 11.4394 17.8888 11.4001 18.1992 11.4001C20.1874 11.4001 21.7992 13.0119 21.7992 15.0001V18.6001H18.1992Z" fill="#CF0F3F"/>
<path d="M4.69833 11.5133C4.12544 12.5463 3.79922 13.7351 3.79922 15.0001V18.6001H0.199219V15.0001C0.199219 13.0119 1.81099 11.4001 3.79922 11.4001C4.10967 11.4001 4.41094 11.4394 4.69833 11.5133Z" fill="#CF0F3F"/>
</svg>
