<svg width="32" height="32" viewBox="0 0 32 32" fill="none" xmlns="http://www.w3.org/2000/svg">
<rect x="3" y="3" width="26" height="26" rx="13" fill="white"/>
<path fill-rule="evenodd" clip-rule="evenodd" d="M16 29C23.1797 29 29 23.1797 29 16C29 8.8203 23.1797 3 16 3C8.8203 3 3 8.8203 3 16C3 23.1797 8.8203 29 16 29ZM13.899 11.601C13.2644 10.9663 12.2356 10.9663 11.601 11.601C10.9663 12.2356 10.9663 13.2644 11.601 13.899L13.7019 16L11.601 18.101C10.9663 18.7356 10.9663 19.7644 11.601 20.399C12.2356 21.0337 13.2644 21.0337 13.899 20.399L16 18.2981L18.101 20.399C18.7356 21.0337 19.7644 21.0337 20.399 20.399C21.0337 19.7644 21.0337 18.7356 20.399 18.101L18.2981 16L20.399 13.899C21.0337 13.2644 21.0337 12.2356 20.399 11.601C19.7644 10.9663 18.7356 10.9663 18.101 11.601L16 13.7019L13.899 11.601Z" fill="#D94242"/>
</svg>
