<svg width="266" height="159" viewBox="0 0 266 159" fill="none" xmlns="http://www.w3.org/2000/svg">
<path d="M23.9805 119H22.9258V115.15H18.2852V119H17.2305V110.545H18.2852V114.201H22.9258V110.545H23.9805V119ZM28.0234 113.686C27.5508 113.686 27.1582 113.85 26.8457 114.178C26.5371 114.502 26.3672 114.92 26.3359 115.432H29.6465C29.6348 114.916 29.4805 114.496 29.1836 114.172C28.8867 113.848 28.5 113.686 28.0234 113.686ZM29.623 117.254H30.625C30.5352 117.793 30.2539 118.236 29.7812 118.584C29.3125 118.932 28.748 119.105 28.0879 119.105C27.2168 119.105 26.5312 118.824 26.0312 118.262C25.5312 117.699 25.2812 116.938 25.2812 115.977C25.2812 115.023 25.5312 114.256 26.0312 113.674C26.5352 113.092 27.2051 112.801 28.041 112.801C28.8613 112.801 29.5098 113.076 29.9863 113.627C30.4629 114.178 30.7012 114.916 30.7012 115.842V116.229H26.3301V116.287C26.3301 116.873 26.4902 117.342 26.8105 117.693C27.1309 118.045 27.5645 118.221 28.1113 118.221C28.4941 118.221 28.8203 118.133 29.0898 117.957C29.3594 117.781 29.5371 117.547 29.623 117.254ZM33.9004 115.789L36.8301 119H35.5176L32.8867 116.07H32.8398V119H31.832V112.906H32.8398V115.602H32.8867L35.4883 112.906H36.748L33.9004 115.789ZM39.25 116.311C39.2227 116.662 39.1836 116.973 39.1328 117.242C39.0859 117.512 39.0176 117.764 38.9277 117.998C38.8379 118.232 38.7266 118.426 38.5938 118.578C38.4648 118.727 38.3027 118.844 38.1074 118.93C37.916 119.012 37.6934 119.053 37.4395 119.053C37.2988 119.053 37.1777 119.031 37.0762 118.988V118.068C37.1699 118.1 37.2734 118.115 37.3867 118.115C37.6719 118.115 37.8848 117.961 38.0254 117.652C38.166 117.34 38.2559 116.885 38.2949 116.287L38.5293 112.906H42.5195V119H41.5117V113.744H39.4375L39.25 116.311ZM44.9688 119H43.9609V112.906H44.9688V117.441H45.0156L48.0625 112.906H49.0703V119H48.0625V114.465H48.0156L44.9688 119ZM54.5137 119V116.258H51.5078V119H50.5V112.906H51.5078V115.42H54.5137V112.906H55.5215V119H54.5137ZM59.4883 119.105C58.6367 119.105 57.9531 118.822 57.4375 118.256C56.9219 117.686 56.6641 116.918 56.6641 115.953C56.6641 114.988 56.9219 114.223 57.4375 113.656C57.9531 113.086 58.6367 112.801 59.4883 112.801C60.3359 112.801 61.0176 113.086 61.5332 113.656C62.0488 114.223 62.3066 114.988 62.3066 115.953C62.3066 116.914 62.0488 117.68 61.5332 118.25C61.0176 118.82 60.3359 119.105 59.4883 119.105ZM58.1816 117.611C58.5059 118.01 58.9414 118.209 59.4883 118.209C60.0352 118.209 60.4688 118.012 60.7891 117.617C61.1094 117.219 61.2695 116.664 61.2695 115.953C61.2695 115.242 61.1094 114.689 60.7891 114.295C60.4688 113.896 60.0352 113.697 59.4883 113.697C58.9414 113.697 58.5059 113.896 58.1816 114.295C57.8613 114.693 57.7012 115.246 57.7012 115.953C57.7012 116.66 57.8613 117.213 58.1816 117.611ZM65.9043 113.732H64.4453V115.438H65.752C66.5098 115.438 66.8887 115.148 66.8887 114.57C66.8887 114.301 66.8047 114.094 66.6367 113.949C66.4688 113.805 66.2246 113.732 65.9043 113.732ZM65.834 116.258H64.4453V118.174H66.0156C66.3828 118.174 66.6641 118.094 66.8594 117.934C67.0547 117.77 67.1523 117.533 67.1523 117.225C67.1523 116.58 66.7129 116.258 65.834 116.258ZM63.4375 119V112.906H66.0449C66.6152 112.906 67.0645 113.045 67.3926 113.322C67.7207 113.6 67.8848 113.98 67.8848 114.465C67.8848 114.773 67.7871 115.055 67.5918 115.309C67.4004 115.562 67.1641 115.719 66.8828 115.777V115.824C67.2656 115.879 67.5723 116.035 67.8027 116.293C68.0371 116.551 68.1543 116.869 68.1543 117.248C68.1543 117.787 67.9668 118.215 67.5918 118.531C67.2207 118.844 66.7109 119 66.0625 119H63.4375ZM74.3652 114.781H73.3574C73.2637 114.465 73.0859 114.205 72.8242 114.002C72.5625 113.799 72.2285 113.697 71.8223 113.697C71.291 113.697 70.8652 113.904 70.5449 114.318C70.2246 114.729 70.0645 115.273 70.0645 115.953C70.0645 116.645 70.2246 117.193 70.5449 117.6C70.8691 118.006 71.2988 118.209 71.834 118.209C72.2324 118.209 72.5625 118.115 72.8242 117.928C73.0898 117.74 73.2715 117.477 73.3691 117.137H74.377C74.2754 117.723 73.9941 118.197 73.5332 118.561C73.0723 118.924 72.5039 119.105 71.8281 119.105C70.9766 119.105 70.2969 118.822 69.7891 118.256C69.2812 117.686 69.0273 116.918 69.0273 115.953C69.0273 115.004 69.2812 114.242 69.7891 113.668C70.2969 113.09 70.9727 112.801 71.8164 112.801C72.5156 112.801 73.0898 112.992 73.5391 113.375C73.9922 113.758 74.2676 114.227 74.3652 114.781ZM77.5059 115.789L80.4355 119H79.123L76.4922 116.07H76.4453V119H75.4375V112.906H76.4453V115.602H76.4922L79.0938 112.906H80.3535L77.5059 115.789ZM82.293 119H81.2852V112.906H82.293V117.441H82.3398L85.3867 112.906H86.3945V119H85.3867V114.465H85.3398L82.293 119ZM88.832 119H87.8242V112.906H88.832V117.441H88.8789L91.9258 112.906H92.9336V119H91.9258V114.465H91.8789L88.832 119ZM88.6035 110.27H89.3535C89.3535 110.617 89.457 110.906 89.6641 111.137C89.875 111.367 90.1504 111.482 90.4902 111.482C90.8301 111.482 91.1035 111.367 91.3105 111.137C91.5215 110.906 91.627 110.617 91.627 110.27H92.377C92.377 110.809 92.2012 111.246 91.8496 111.582C91.502 111.918 91.0488 112.086 90.4902 112.086C89.9316 112.086 89.4766 111.918 89.125 111.582C88.7773 111.246 88.6035 110.809 88.6035 110.27ZM49.5273 125.801C50.3086 125.801 50.9375 126.088 51.4141 126.662C51.8945 127.236 52.1348 128 52.1348 128.953C52.1348 129.902 51.8965 130.666 51.4199 131.244C50.9434 131.818 50.3203 132.105 49.5508 132.105C49.1211 132.105 48.7363 132.008 48.3965 131.812C48.0566 131.617 47.7949 131.35 47.6113 131.01H47.5879V134.033H46.5684V125.906H47.5352V126.938H47.5586C47.75 126.586 48.0176 126.309 48.3613 126.105C48.7051 125.902 49.0938 125.801 49.5273 125.801ZM49.3281 131.209C49.8711 131.209 50.3008 131.006 50.6172 130.6C50.9336 130.193 51.0918 129.645 51.0918 128.953C51.0918 128.262 50.9336 127.713 50.6172 127.307C50.3008 126.9 49.8711 126.697 49.3281 126.697C48.8047 126.697 48.3828 126.904 48.0625 127.318C47.7422 127.732 47.582 128.277 47.582 128.953C47.582 129.633 47.7422 130.18 48.0625 130.594C48.3828 131.004 48.8047 131.209 49.3281 131.209ZM57.0449 129.047H53.2012V128.098H57.0449V129.047ZM62.4238 132V129.258H59.418V132H58.4102V125.906H59.418V128.42H62.4238V125.906H63.4316V132H62.4238Z" fill="#C31844"/>
<path d="M9.49219 55H8.50781V48.4844H8.4668L5.77148 54.9414H4.88086L2.18555 48.4844H2.14453V55H1.16016V46.5449H2.38477L5.30273 53.5996H5.34961L8.26758 46.5449H9.49219V55ZM13.1016 54.2383C13.582 54.2383 13.9844 54.0898 14.3086 53.793C14.6367 53.4922 14.8008 53.123 14.8008 52.6855V52.1875L13.1719 52.2871C12.7617 52.3145 12.4434 52.4141 12.2168 52.5859C11.9941 52.7578 11.8828 52.9883 11.8828 53.2773C11.8828 53.5664 11.9941 53.7988 12.2168 53.9746C12.4395 54.1504 12.7344 54.2383 13.1016 54.2383ZM12.873 55.1055C12.2676 55.1055 11.7773 54.9375 11.4023 54.6016C11.0312 54.2656 10.8457 53.8242 10.8457 53.2773C10.8457 52.7539 11.0371 52.3359 11.4199 52.0234C11.8066 51.7109 12.3516 51.5352 13.0547 51.4961L14.8008 51.3965V50.8867C14.8008 50.5156 14.6836 50.2246 14.4492 50.0137C14.2148 49.8027 13.8867 49.6973 13.4648 49.6973C13.0781 49.6973 12.7637 49.7832 12.5215 49.9551C12.2793 50.123 12.125 50.3594 12.0586 50.6641H11.0742C11.1094 50.1211 11.3438 49.6758 11.7773 49.3281C12.2148 48.9766 12.7852 48.8008 13.4883 48.8008C14.2031 48.8008 14.7695 48.9805 15.1875 49.3398C15.6094 49.6992 15.8203 50.1816 15.8203 50.7871V55H14.8535V53.9512H14.8301C14.6465 54.2988 14.377 54.5781 14.0215 54.7891C13.666 55 13.2832 55.1055 12.873 55.1055ZM21.5684 48.9062V49.7441H19.5996V55H18.5918V49.7441H16.623V48.9062H21.5684ZM24.9785 49.7324H23.5195V51.4375H24.8262C25.584 51.4375 25.9629 51.1484 25.9629 50.5703C25.9629 50.3008 25.8789 50.0938 25.7109 49.9492C25.543 49.8047 25.2988 49.7324 24.9785 49.7324ZM24.9082 52.2578H23.5195V54.1738H25.0898C25.457 54.1738 25.7383 54.0938 25.9336 53.9336C26.1289 53.7695 26.2266 53.5332 26.2266 53.2246C26.2266 52.5801 25.7871 52.2578 24.9082 52.2578ZM22.5117 55V48.9062H25.1191C25.6895 48.9062 26.1387 49.0449 26.4668 49.3223C26.7949 49.5996 26.959 49.9805 26.959 50.4648C26.959 50.7734 26.8613 51.0547 26.666 51.3086C26.4746 51.5625 26.2383 51.7188 25.957 51.7773V51.8242C26.3398 51.8789 26.6465 52.0352 26.877 52.293C27.1113 52.5508 27.2285 52.8691 27.2285 53.248C27.2285 53.7871 27.041 54.2148 26.666 54.5312C26.2949 54.8438 25.7852 55 25.1367 55H22.5117ZM30.8438 49.6855C30.3711 49.6855 29.9785 49.8496 29.666 50.1777C29.3574 50.502 29.1875 50.9199 29.1562 51.4316H32.4668C32.4551 50.916 32.3008 50.4961 32.0039 50.1719C31.707 49.8477 31.3203 49.6855 30.8438 49.6855ZM32.4434 53.2539H33.4453C33.3555 53.793 33.0742 54.2363 32.6016 54.584C32.1328 54.9316 31.5684 55.1055 30.9082 55.1055C30.0371 55.1055 29.3516 54.8242 28.8516 54.2617C28.3516 53.6992 28.1016 52.9375 28.1016 51.9766C28.1016 51.0234 28.3516 50.2559 28.8516 49.6738C29.3555 49.0918 30.0254 48.8008 30.8613 48.8008C31.6816 48.8008 32.3301 49.0762 32.8066 49.627C33.2832 50.1777 33.5215 50.916 33.5215 51.8418V52.2285H29.1504V52.2871C29.1504 52.873 29.3105 53.3418 29.6309 53.6934C29.9512 54.0449 30.3848 54.2207 30.9316 54.2207C31.3145 54.2207 31.6406 54.1328 31.9102 53.957C32.1797 53.7812 32.3574 53.5469 32.4434 53.2539ZM37.1016 49.6855C36.6289 49.6855 36.2363 49.8496 35.9238 50.1777C35.6152 50.502 35.4453 50.9199 35.4141 51.4316H38.7246C38.7129 50.916 38.5586 50.4961 38.2617 50.1719C37.9648 49.8477 37.5781 49.6855 37.1016 49.6855ZM38.7012 53.2539H39.7031C39.6133 53.793 39.332 54.2363 38.8594 54.584C38.3906 54.9316 37.8262 55.1055 37.166 55.1055C36.2949 55.1055 35.6094 54.8242 35.1094 54.2617C34.6094 53.6992 34.3594 52.9375 34.3594 51.9766C34.3594 51.0234 34.6094 50.2559 35.1094 49.6738C35.6133 49.0918 36.2832 48.8008 37.1191 48.8008C37.9395 48.8008 38.5879 49.0762 39.0645 49.627C39.541 50.1777 39.7793 50.916 39.7793 51.8418V52.2285H35.4082V52.2871C35.4082 52.873 35.5684 53.3418 35.8887 53.6934C36.209 54.0449 36.6426 54.2207 37.1895 54.2207C37.5723 54.2207 37.8984 54.1328 38.168 53.957C38.4375 53.7812 38.6152 53.5469 38.7012 53.2539ZM43.377 49.7324H41.918V51.4375H43.2246C43.9824 51.4375 44.3613 51.1484 44.3613 50.5703C44.3613 50.3008 44.2773 50.0938 44.1094 49.9492C43.9414 49.8047 43.6973 49.7324 43.377 49.7324ZM43.3066 52.2578H41.918V54.1738H43.4883C43.8555 54.1738 44.1367 54.0938 44.332 53.9336C44.5273 53.7695 44.625 53.5332 44.625 53.2246C44.625 52.5801 44.1855 52.2578 43.3066 52.2578ZM40.9102 55V48.9062H43.5176C44.0879 48.9062 44.5371 49.0449 44.8652 49.3223C45.1934 49.5996 45.3574 49.9805 45.3574 50.4648C45.3574 50.7734 45.2598 51.0547 45.0645 51.3086C44.873 51.5625 44.6367 51.7188 44.3555 51.7773V51.8242C44.7383 51.8789 45.0449 52.0352 45.2754 52.293C45.5098 52.5508 45.627 52.8691 45.627 53.248C45.627 53.7871 45.4395 54.2148 45.0645 54.5312C44.6934 54.8438 44.1836 55 43.5352 55H40.9102ZM49.3242 55.1055C48.4727 55.1055 47.7891 54.8223 47.2734 54.2559C46.7578 53.6855 46.5 52.918 46.5 51.9531C46.5 50.9883 46.7578 50.2227 47.2734 49.6562C47.7891 49.0859 48.4727 48.8008 49.3242 48.8008C50.1719 48.8008 50.8535 49.0859 51.3691 49.6562C51.8848 50.2227 52.1426 50.9883 52.1426 51.9531C52.1426 52.9141 51.8848 53.6797 51.3691 54.25C50.8535 54.8203 50.1719 55.1055 49.3242 55.1055ZM48.0176 53.6113C48.3418 54.0098 48.7773 54.209 49.3242 54.209C49.8711 54.209 50.3047 54.0117 50.625 53.6172C50.9453 53.2188 51.1055 52.6641 51.1055 51.9531C51.1055 51.2422 50.9453 50.6895 50.625 50.2949C50.3047 49.8965 49.8711 49.6973 49.3242 49.6973C48.7773 49.6973 48.3418 49.8965 48.0176 50.2949C47.6973 50.6934 47.5371 51.2461 47.5371 51.9531C47.5371 52.6602 47.6973 53.2129 48.0176 53.6113ZM57.0527 52.0469H53.209V51.0977H57.0527V52.0469ZM60.7969 50.5879L65.0332 55H63.5859L59.6836 50.8926H59.6367V55H58.582V46.5449H59.6367V50.4414H59.6836L63.3164 46.5449H64.6406L60.7969 50.5879ZM65.9238 57.2793C65.7402 57.2793 65.5938 57.2676 65.4844 57.2441V56.3887C65.5781 56.4082 65.7109 56.418 65.8828 56.418C66.168 56.418 66.3965 56.3418 66.5684 56.1895C66.7402 56.041 66.8848 55.7891 67.002 55.4336L67.1426 55.0059L64.8926 48.9062H65.9824L67.6699 53.9805H67.6875L69.375 48.9062H70.4473L68.0508 55.4277C67.7891 56.1387 67.5059 56.625 67.2012 56.8867C66.9004 57.1484 66.4746 57.2793 65.9238 57.2793ZM74.3203 48.8008C75.1016 48.8008 75.7305 49.0879 76.207 49.6621C76.6875 50.2363 76.9277 51 76.9277 51.9531C76.9277 52.9023 76.6895 53.666 76.2129 54.2441C75.7363 54.8184 75.1133 55.1055 74.3438 55.1055C73.9141 55.1055 73.5293 55.0078 73.1895 54.8125C72.8496 54.6172 72.5879 54.3496 72.4043 54.0098H72.3809V57.0332H71.3613V48.9062H72.3281V49.9375H72.3516C72.543 49.5859 72.8105 49.3086 73.1543 49.1055C73.498 48.9023 73.8867 48.8008 74.3203 48.8008ZM74.1211 54.209C74.6641 54.209 75.0938 54.0059 75.4102 53.5996C75.7266 53.1934 75.8848 52.6445 75.8848 51.9531C75.8848 51.2617 75.7266 50.7129 75.4102 50.3066C75.0938 49.9004 74.6641 49.6973 74.1211 49.6973C73.5977 49.6973 73.1758 49.9043 72.8555 50.3184C72.5352 50.7324 72.375 51.2773 72.375 51.9531C72.375 52.6328 72.5352 53.1797 72.8555 53.5938C73.1758 54.0039 73.5977 54.209 74.1211 54.209ZM81.9785 49.7441H79.0664V55H78.0586V48.9062H81.9785V49.7441ZM84.8086 54.2383C85.2891 54.2383 85.6914 54.0898 86.0156 53.793C86.3438 53.4922 86.5078 53.123 86.5078 52.6855V52.1875L84.8789 52.2871C84.4688 52.3145 84.1504 52.4141 83.9238 52.5859C83.7012 52.7578 83.5898 52.9883 83.5898 53.2773C83.5898 53.5664 83.7012 53.7988 83.9238 53.9746C84.1465 54.1504 84.4414 54.2383 84.8086 54.2383ZM84.5801 55.1055C83.9746 55.1055 83.4844 54.9375 83.1094 54.6016C82.7383 54.2656 82.5527 53.8242 82.5527 53.2773C82.5527 52.7539 82.7441 52.3359 83.127 52.0234C83.5137 51.7109 84.0586 51.5352 84.7617 51.4961L86.5078 51.3965V50.8867C86.5078 50.5156 86.3906 50.2246 86.1562 50.0137C85.9219 49.8027 85.5938 49.6973 85.1719 49.6973C84.7852 49.6973 84.4707 49.7832 84.2285 49.9551C83.9863 50.123 83.832 50.3594 83.7656 50.6641H82.7812C82.8164 50.1211 83.0508 49.6758 83.4844 49.3281C83.9219 48.9766 84.4922 48.8008 85.1953 48.8008C85.9102 48.8008 86.4766 48.9805 86.8945 49.3398C87.3164 49.6992 87.5273 50.1816 87.5273 50.7871V55H86.5605V53.9512H86.5371C86.3535 54.2988 86.084 54.5781 85.7285 54.7891C85.373 55 84.9902 55.1055 84.5801 55.1055ZM92.9473 55V52.2578H89.9414V55H88.9336V48.9062H89.9414V51.4199H92.9473V48.9062H93.9551V55H92.9473ZM100.436 50.7812H99.4277C99.334 50.4648 99.1562 50.2051 98.8945 50.002C98.6328 49.7988 98.2988 49.6973 97.8926 49.6973C97.3613 49.6973 96.9355 49.9043 96.6152 50.3184C96.2949 50.7285 96.1348 51.2734 96.1348 51.9531C96.1348 52.6445 96.2949 53.1934 96.6152 53.5996C96.9395 54.0059 97.3691 54.209 97.9043 54.209C98.3027 54.209 98.6328 54.1152 98.8945 53.9277C99.1602 53.7402 99.3418 53.4766 99.4395 53.1367H100.447C100.346 53.7227 100.064 54.1973 99.6035 54.5605C99.1426 54.9238 98.5742 55.1055 97.8984 55.1055C97.0469 55.1055 96.3672 54.8223 95.8594 54.2559C95.3516 53.6855 95.0977 52.918 95.0977 51.9531C95.0977 51.0039 95.3516 50.2422 95.8594 49.668C96.3672 49.0898 97.043 48.8008 97.8867 48.8008C98.5859 48.8008 99.1602 48.9922 99.6094 49.375C100.062 49.7578 100.338 50.2266 100.436 50.7812ZM103.576 51.7891L106.506 55H105.193L102.562 52.0703H102.516V55H101.508V48.9062H102.516V51.6016H102.562L105.164 48.9062H106.424L103.576 51.7891ZM108.363 55H107.355V48.9062H108.363V53.4414H108.41L111.457 48.9062H112.465V55H111.457V50.4648H111.41L108.363 55ZM114.902 55H113.895V48.9062H114.902V53.4414H114.949L117.996 48.9062H119.004V55H117.996V50.4648H117.949L114.902 55ZM114.674 46.2695H115.424C115.424 46.6172 115.527 46.9062 115.734 47.1367C115.945 47.3672 116.221 47.4824 116.561 47.4824C116.9 47.4824 117.174 47.3672 117.381 47.1367C117.592 46.9062 117.697 46.6172 117.697 46.2695H118.447C118.447 46.8086 118.271 47.2461 117.92 47.582C117.572 47.918 117.119 48.0859 116.561 48.0859C116.002 48.0859 115.547 47.918 115.195 47.582C114.848 47.2461 114.674 46.8086 114.674 46.2695ZM54.5273 61.8008C55.3086 61.8008 55.9375 62.0879 56.4141 62.6621C56.8945 63.2363 57.1348 64 57.1348 64.9531C57.1348 65.9023 56.8965 66.666 56.4199 67.2441C55.9434 67.8184 55.3203 68.1055 54.5508 68.1055C54.1211 68.1055 53.7363 68.0078 53.3965 67.8125C53.0566 67.6172 52.7949 67.3496 52.6113 67.0098H52.5879V70.0332H51.5684V61.9062H52.5352V62.9375H52.5586C52.75 62.5859 53.0176 62.3086 53.3613 62.1055C53.7051 61.9023 54.0938 61.8008 54.5273 61.8008ZM54.3281 67.209C54.8711 67.209 55.3008 67.0059 55.6172 66.5996C55.9336 66.1934 56.0918 65.6445 56.0918 64.9531C56.0918 64.2617 55.9336 63.7129 55.6172 63.3066C55.3008 62.9004 54.8711 62.6973 54.3281 62.6973C53.8047 62.6973 53.3828 62.9043 53.0625 63.3184C52.7422 63.7324 52.582 64.2773 52.582 64.9531C52.582 65.6328 52.7422 66.1797 53.0625 66.5938C53.3828 67.0039 53.8047 67.209 54.3281 67.209ZM62.0449 65.0469H58.2012V64.0977H62.0449V65.0469ZM67.4238 68V65.2578H64.418V68H63.4102V61.9062H64.418V64.4199H67.4238V61.9062H68.4316V68H67.4238Z" fill="#C31844"/>
<path d="M87.1621 6.58789L91.3984 11H89.9512L86.0488 6.89258H86.002V11H84.9473V2.54492H86.002V6.44141H86.0488L89.6816 2.54492H91.0059L87.1621 6.58789ZM92.2891 13.2793C92.1055 13.2793 91.959 13.2676 91.8496 13.2441V12.3887C91.9434 12.4082 92.0762 12.418 92.248 12.418C92.5332 12.418 92.7617 12.3418 92.9336 12.1895C93.1055 12.041 93.25 11.7891 93.3672 11.4336L93.5078 11.0059L91.2578 4.90625H92.3477L94.0352 9.98047H94.0527L95.7402 4.90625H96.8125L94.416 11.4277C94.1543 12.1387 93.8711 12.625 93.5664 12.8867C93.2656 13.1484 92.8398 13.2793 92.2891 13.2793ZM98.7285 11H97.7207V4.90625H98.7285V9.44141H98.7754L101.822 4.90625H102.83V11H101.822V6.46484H101.775L98.7285 11ZM98.5 2.26953H99.25C99.25 2.61719 99.3535 2.90625 99.5605 3.13672C99.7715 3.36719 100.047 3.48242 100.387 3.48242C100.727 3.48242 101 3.36719 101.207 3.13672C101.418 2.90625 101.523 2.61719 101.523 2.26953H102.273C102.273 2.80859 102.098 3.24609 101.746 3.58203C101.398 3.91797 100.945 4.08594 100.387 4.08594C99.8281 4.08594 99.373 3.91797 99.0215 3.58203C98.6738 3.24609 98.5 2.80859 98.5 2.26953ZM106.873 11.1055C105.936 11.1055 105.225 10.7949 104.74 10.1738C104.26 9.55273 104.02 8.63867 104.02 7.43164C104.02 5.74023 104.268 4.51953 104.764 3.76953C105.264 3.01953 106.102 2.62305 107.277 2.58008L107.729 2.5625C108.439 2.52734 108.969 2.41797 109.316 2.23438V3.125C109.219 3.21484 109.025 3.29297 108.736 3.35938C108.447 3.42578 108.127 3.4668 107.775 3.48242L107.324 3.5C106.898 3.51563 106.543 3.57422 106.258 3.67578C105.977 3.77734 105.742 3.93945 105.555 4.16211C105.371 4.38477 105.229 4.65039 105.127 4.95898C105.025 5.26367 104.943 5.6543 104.881 6.13086H104.928C105.123 5.77539 105.402 5.50391 105.766 5.31641C106.133 5.12891 106.553 5.03516 107.025 5.03516C107.85 5.03516 108.504 5.30469 108.988 5.84375C109.477 6.37891 109.721 7.10156 109.721 8.01172C109.721 8.96875 109.467 9.72461 108.959 10.2793C108.451 10.8301 107.756 11.1055 106.873 11.1055ZM105.537 9.63477C105.854 10.0137 106.299 10.2031 106.873 10.2031C107.447 10.2031 107.891 10.0137 108.203 9.63477C108.52 9.25195 108.678 8.71094 108.678 8.01172C108.678 7.34766 108.52 6.83398 108.203 6.4707C107.891 6.10742 107.447 5.92578 106.873 5.92578C106.299 5.92578 105.854 6.10742 105.537 6.4707C105.221 6.83398 105.062 7.34766 105.062 8.01172C105.062 8.71094 105.221 9.25195 105.537 9.63477ZM116.072 11V4.90625H117.08V11H116.072ZM113.002 7.68945H111.865V10.1621H113.002C113.396 10.1621 113.711 10.0488 113.945 9.82227C114.184 9.5957 114.303 9.29688 114.303 8.92578C114.303 8.55078 114.184 8.25195 113.945 8.0293C113.711 7.80273 113.396 7.68945 113.002 7.68945ZM110.857 11V4.90625H111.865V6.85156H113.02C113.719 6.85156 114.275 7.03906 114.689 7.41406C115.104 7.78906 115.311 8.29297 115.311 8.92578C115.311 9.55859 115.104 10.0625 114.689 10.4375C114.275 10.8125 113.719 11 113.02 11H110.857ZM118.51 11V4.90625H119.518V10.1621H121.768V4.90625H122.775V10.1621H125.025V4.90625H126.033V11H118.51ZM129.912 5.68555C129.439 5.68555 129.047 5.84961 128.734 6.17773C128.426 6.50195 128.256 6.91992 128.225 7.43164H131.535C131.523 6.91602 131.369 6.49609 131.072 6.17188C130.775 5.84766 130.389 5.68555 129.912 5.68555ZM131.512 9.25391H132.514C132.424 9.79297 132.143 10.2363 131.67 10.584C131.201 10.9316 130.637 11.1055 129.977 11.1055C129.105 11.1055 128.42 10.8242 127.92 10.2617C127.42 9.69922 127.17 8.9375 127.17 7.97656C127.17 7.02344 127.42 6.25586 127.92 5.67383C128.424 5.0918 129.094 4.80078 129.93 4.80078C130.75 4.80078 131.398 5.07617 131.875 5.62695C132.352 6.17773 132.59 6.91602 132.59 7.8418V8.22852H128.219V8.28711C128.219 8.87305 128.379 9.3418 128.699 9.69336C129.02 10.0449 129.453 10.2207 130 10.2207C130.383 10.2207 130.709 10.1328 130.979 9.95703C131.248 9.78125 131.426 9.54688 131.512 9.25391ZM136.188 5.73242H134.729V7.4375H136.035C136.793 7.4375 137.172 7.14844 137.172 6.57031C137.172 6.30078 137.088 6.09375 136.92 5.94922C136.752 5.80469 136.508 5.73242 136.188 5.73242ZM136.117 8.25781H134.729V10.1738H136.299C136.666 10.1738 136.947 10.0938 137.143 9.93359C137.338 9.76953 137.436 9.5332 137.436 9.22461C137.436 8.58008 136.996 8.25781 136.117 8.25781ZM133.721 11V4.90625H136.328C136.898 4.90625 137.348 5.04492 137.676 5.32227C138.004 5.59961 138.168 5.98047 138.168 6.46484C138.168 6.77344 138.07 7.05469 137.875 7.30859C137.684 7.5625 137.447 7.71875 137.166 7.77734V7.82422C137.549 7.87891 137.855 8.03516 138.086 8.29297C138.32 8.55078 138.438 8.86914 138.438 9.24805C138.438 9.78711 138.25 10.2148 137.875 10.5312C137.504 10.8438 136.994 11 136.346 11H133.721ZM144.648 6.78125H143.641C143.547 6.46484 143.369 6.20508 143.107 6.00195C142.846 5.79883 142.512 5.69727 142.105 5.69727C141.574 5.69727 141.148 5.9043 140.828 6.31836C140.508 6.72852 140.348 7.27344 140.348 7.95312C140.348 8.64453 140.508 9.19336 140.828 9.59961C141.152 10.0059 141.582 10.209 142.117 10.209C142.516 10.209 142.846 10.1152 143.107 9.92773C143.373 9.74023 143.555 9.47656 143.652 9.13672H144.66C144.559 9.72266 144.277 10.1973 143.816 10.5605C143.355 10.9238 142.787 11.1055 142.111 11.1055C141.26 11.1055 140.58 10.8223 140.072 10.2559C139.564 9.68555 139.311 8.91797 139.311 7.95312C139.311 7.00391 139.564 6.24219 140.072 5.66797C140.58 5.08984 141.256 4.80078 142.1 4.80078C142.799 4.80078 143.373 4.99219 143.822 5.375C144.275 5.75781 144.551 6.22656 144.648 6.78125ZM147.789 7.78906L150.719 11H149.406L146.775 8.07031H146.729V11H145.721V4.90625H146.729V7.60156H146.775L149.377 4.90625H150.637L147.789 7.78906ZM152.576 11H151.568V4.90625H152.576V9.44141H152.623L155.67 4.90625H156.678V11H155.67V6.46484H155.623L152.576 11ZM159.115 11H158.107V4.90625H159.115V9.44141H159.162L162.209 4.90625H163.217V11H162.209V6.46484H162.162L159.115 11ZM158.887 2.26953H159.637C159.637 2.61719 159.74 2.90625 159.947 3.13672C160.158 3.36719 160.434 3.48242 160.773 3.48242C161.113 3.48242 161.387 3.36719 161.594 3.13672C161.805 2.90625 161.91 2.61719 161.91 2.26953H162.66C162.66 2.80859 162.484 3.24609 162.133 3.58203C161.785 3.91797 161.332 4.08594 160.773 4.08594C160.215 4.08594 159.76 3.91797 159.408 3.58203C159.061 3.24609 158.887 2.80859 158.887 2.26953ZM118.527 17.8008C119.309 17.8008 119.938 18.0879 120.414 18.6621C120.895 19.2363 121.135 20 121.135 20.9531C121.135 21.9023 120.896 22.666 120.42 23.2441C119.943 23.8184 119.32 24.1055 118.551 24.1055C118.121 24.1055 117.736 24.0078 117.396 23.8125C117.057 23.6172 116.795 23.3496 116.611 23.0098H116.588V26.0332H115.568V17.9062H116.535V18.9375H116.559C116.75 18.5859 117.018 18.3086 117.361 18.1055C117.705 17.9023 118.094 17.8008 118.527 17.8008ZM118.328 23.209C118.871 23.209 119.301 23.0059 119.617 22.5996C119.934 22.1934 120.092 21.6445 120.092 20.9531C120.092 20.2617 119.934 19.7129 119.617 19.3066C119.301 18.9004 118.871 18.6973 118.328 18.6973C117.805 18.6973 117.383 18.9043 117.062 19.3184C116.742 19.7324 116.582 20.2773 116.582 20.9531C116.582 21.6328 116.742 22.1797 117.062 22.5938C117.383 23.0039 117.805 23.209 118.328 23.209ZM126.045 21.0469H122.201V20.0977H126.045V21.0469ZM131.424 24V21.2578H128.418V24H127.41V17.9062H128.418V20.4199H131.424V17.9062H132.432V24H131.424Z" fill="#C31844"/>
<path d="M165.092 35.5449H168.109C168.902 35.5449 169.551 35.7988 170.055 36.3066C170.562 36.8105 170.816 37.4609 170.816 38.2578C170.816 39.0586 170.562 39.7129 170.055 40.2207C169.547 40.7285 168.895 40.9824 168.098 40.9824H166.146V44H165.092V35.5449ZM166.146 36.4824V40.0449H167.834C168.436 40.0449 168.902 39.8887 169.234 39.5762C169.566 39.2598 169.732 38.8203 169.732 38.2578C169.732 37.6953 169.566 37.2598 169.234 36.9512C168.906 36.6387 168.439 36.4824 167.834 36.4824H166.146ZM174.268 44.1055C173.416 44.1055 172.732 43.8223 172.217 43.2559C171.701 42.6855 171.443 41.918 171.443 40.9531C171.443 39.9883 171.701 39.2227 172.217 38.6562C172.732 38.0859 173.416 37.8008 174.268 37.8008C175.115 37.8008 175.797 38.0859 176.312 38.6562C176.828 39.2227 177.086 39.9883 177.086 40.9531C177.086 41.9141 176.828 42.6797 176.312 43.25C175.797 43.8203 175.115 44.1055 174.268 44.1055ZM172.961 42.6113C173.285 43.0098 173.721 43.209 174.268 43.209C174.814 43.209 175.248 43.0117 175.568 42.6172C175.889 42.2188 176.049 41.6641 176.049 40.9531C176.049 40.2422 175.889 39.6895 175.568 39.2949C175.248 38.8965 174.814 38.6973 174.268 38.6973C173.721 38.6973 173.285 38.8965 172.961 39.2949C172.641 39.6934 172.48 40.2461 172.48 40.9531C172.48 41.6602 172.641 42.2129 172.961 42.6113ZM182.143 43.1621V38.7441H179.857L179.67 41.3105C179.611 42.1465 179.445 42.748 179.172 43.1152V43.1621H182.143ZM178.445 45.6113H177.496V43.1621H178.006C178.416 42.8926 178.656 42.2676 178.727 41.2871L178.961 37.9062H183.156V43.1621H184.123V45.6113H183.174V44H178.445V45.6113ZM186.045 44H185.037V37.9062H186.045V42.4414H186.092L189.139 37.9062H190.146V44H189.139V39.4648H189.092L186.045 44ZM194.107 44.1055C193.256 44.1055 192.572 43.8223 192.057 43.2559C191.541 42.6855 191.283 41.918 191.283 40.9531C191.283 39.9883 191.541 39.2227 192.057 38.6562C192.572 38.0859 193.256 37.8008 194.107 37.8008C194.955 37.8008 195.637 38.0859 196.152 38.6562C196.668 39.2227 196.926 39.9883 196.926 40.9531C196.926 41.9141 196.668 42.6797 196.152 43.25C195.637 43.8203 194.955 44.1055 194.107 44.1055ZM192.801 42.6113C193.125 43.0098 193.561 43.209 194.107 43.209C194.654 43.209 195.088 43.0117 195.408 42.6172C195.729 42.2188 195.889 41.6641 195.889 40.9531C195.889 40.2422 195.729 39.6895 195.408 39.2949C195.088 38.8965 194.654 38.6973 194.107 38.6973C193.561 38.6973 193.125 38.8965 192.801 39.2949C192.48 39.6934 192.32 40.2461 192.32 40.9531C192.32 41.6602 192.48 42.2129 192.801 42.6113ZM202.07 44V41.2578H199.064V44H198.057V37.9062H199.064V40.4199H202.07V37.9062H203.078V44H202.07ZM207.045 44.1055C206.193 44.1055 205.51 43.8223 204.994 43.2559C204.479 42.6855 204.221 41.918 204.221 40.9531C204.221 39.9883 204.479 39.2227 204.994 38.6562C205.51 38.0859 206.193 37.8008 207.045 37.8008C207.893 37.8008 208.574 38.0859 209.09 38.6562C209.605 39.2227 209.863 39.9883 209.863 40.9531C209.863 41.9141 209.605 42.6797 209.09 43.25C208.574 43.8203 207.893 44.1055 207.045 44.1055ZM205.738 42.6113C206.062 43.0098 206.498 43.209 207.045 43.209C207.592 43.209 208.025 43.0117 208.346 42.6172C208.666 42.2188 208.826 41.6641 208.826 40.9531C208.826 40.2422 208.666 39.6895 208.346 39.2949C208.025 38.8965 207.592 38.6973 207.045 38.6973C206.498 38.6973 206.062 38.8965 205.738 39.2949C205.418 39.6934 205.258 40.2461 205.258 40.9531C205.258 41.6602 205.418 42.2129 205.738 42.6113ZM213.461 38.7324H212.002V40.4375H213.309C214.066 40.4375 214.445 40.1484 214.445 39.5703C214.445 39.3008 214.361 39.0938 214.193 38.9492C214.025 38.8047 213.781 38.7324 213.461 38.7324ZM213.391 41.2578H212.002V43.1738H213.572C213.939 43.1738 214.221 43.0938 214.416 42.9336C214.611 42.7695 214.709 42.5332 214.709 42.2246C214.709 41.5801 214.27 41.2578 213.391 41.2578ZM210.994 44V37.9062H213.602C214.172 37.9062 214.621 38.0449 214.949 38.3223C215.277 38.5996 215.441 38.9805 215.441 39.4648C215.441 39.7734 215.344 40.0547 215.148 40.3086C214.957 40.5625 214.721 40.7188 214.439 40.7773V40.8242C214.822 40.8789 215.129 41.0352 215.359 41.293C215.594 41.5508 215.711 41.8691 215.711 42.248C215.711 42.7871 215.523 43.2148 215.148 43.5312C214.777 43.8438 214.268 44 213.619 44H210.994ZM219.408 44.1055C218.557 44.1055 217.873 43.8223 217.357 43.2559C216.842 42.6855 216.584 41.918 216.584 40.9531C216.584 39.9883 216.842 39.2227 217.357 38.6562C217.873 38.0859 218.557 37.8008 219.408 37.8008C220.256 37.8008 220.938 38.0859 221.453 38.6562C221.969 39.2227 222.227 39.9883 222.227 40.9531C222.227 41.9141 221.969 42.6797 221.453 43.25C220.938 43.8203 220.256 44.1055 219.408 44.1055ZM218.102 42.6113C218.426 43.0098 218.861 43.209 219.408 43.209C219.955 43.209 220.389 43.0117 220.709 42.6172C221.029 42.2188 221.189 41.6641 221.189 40.9531C221.189 40.2422 221.029 39.6895 220.709 39.2949C220.389 38.8965 219.955 38.6973 219.408 38.6973C218.861 38.6973 218.426 38.8965 218.102 39.2949C217.781 39.6934 217.621 40.2461 217.621 40.9531C217.621 41.6602 217.781 42.2129 218.102 42.6113ZM227.137 41.0469H223.293V40.0977H227.137V41.0469ZM165.789 57H164.734V53.1504H160.094V57H159.039V48.5449H160.094V52.2012H164.734V48.5449H165.789V57ZM169.832 51.6855C169.359 51.6855 168.967 51.8496 168.654 52.1777C168.346 52.502 168.176 52.9199 168.145 53.4316H171.455C171.443 52.916 171.289 52.4961 170.992 52.1719C170.695 51.8477 170.309 51.6855 169.832 51.6855ZM171.432 55.2539H172.434C172.344 55.793 172.062 56.2363 171.59 56.584C171.121 56.9316 170.557 57.1055 169.896 57.1055C169.025 57.1055 168.34 56.8242 167.84 56.2617C167.34 55.6992 167.09 54.9375 167.09 53.9766C167.09 53.0234 167.34 52.2559 167.84 51.6738C168.344 51.0918 169.014 50.8008 169.85 50.8008C170.67 50.8008 171.318 51.0762 171.795 51.627C172.271 52.1777 172.51 52.916 172.51 53.8418V54.2285H168.139V54.2871C168.139 54.873 168.299 55.3418 168.619 55.6934C168.939 56.0449 169.373 56.2207 169.92 56.2207C170.303 56.2207 170.629 56.1328 170.898 55.957C171.168 55.7812 171.346 55.5469 171.432 55.2539ZM178.686 52.7812H177.678C177.584 52.4648 177.406 52.2051 177.145 52.002C176.883 51.7988 176.549 51.6973 176.143 51.6973C175.611 51.6973 175.186 51.9043 174.865 52.3184C174.545 52.7285 174.385 53.2734 174.385 53.9531C174.385 54.6445 174.545 55.1934 174.865 55.5996C175.189 56.0059 175.619 56.209 176.154 56.209C176.553 56.209 176.883 56.1152 177.145 55.9277C177.41 55.7402 177.592 55.4766 177.689 55.1367H178.697C178.596 55.7227 178.314 56.1973 177.854 56.5605C177.393 56.9238 176.824 57.1055 176.148 57.1055C175.297 57.1055 174.617 56.8223 174.109 56.2559C173.602 55.6855 173.348 54.918 173.348 53.9531C173.348 53.0039 173.602 52.2422 174.109 51.668C174.617 51.0898 175.293 50.8008 176.137 50.8008C176.836 50.8008 177.41 50.9922 177.859 51.375C178.312 51.7578 178.588 52.2266 178.686 52.7812ZM182.225 51.7324H180.766V53.4375H182.072C182.83 53.4375 183.209 53.1484 183.209 52.5703C183.209 52.3008 183.125 52.0938 182.957 51.9492C182.789 51.8047 182.545 51.7324 182.225 51.7324ZM182.154 54.2578H180.766V56.1738H182.336C182.703 56.1738 182.984 56.0938 183.18 55.9336C183.375 55.7695 183.473 55.5332 183.473 55.2246C183.473 54.5801 183.033 54.2578 182.154 54.2578ZM179.758 57V50.9062H182.365C182.936 50.9062 183.385 51.0449 183.713 51.3223C184.041 51.5996 184.205 51.9805 184.205 52.4648C184.205 52.7734 184.107 53.0547 183.912 53.3086C183.721 53.5625 183.484 53.7188 183.203 53.7773V53.8242C183.586 53.8789 183.893 54.0352 184.123 54.293C184.357 54.5508 184.475 54.8691 184.475 55.248C184.475 55.7871 184.287 56.2148 183.912 56.5312C183.541 56.8438 183.031 57 182.383 57H179.758ZM188.09 51.6855C187.617 51.6855 187.225 51.8496 186.912 52.1777C186.604 52.502 186.434 52.9199 186.402 53.4316H189.713C189.701 52.916 189.547 52.4961 189.25 52.1719C188.953 51.8477 188.566 51.6855 188.09 51.6855ZM189.689 55.2539H190.691C190.602 55.793 190.32 56.2363 189.848 56.584C189.379 56.9316 188.814 57.1055 188.154 57.1055C187.283 57.1055 186.598 56.8242 186.098 56.2617C185.598 55.6992 185.348 54.9375 185.348 53.9766C185.348 53.0234 185.598 52.2559 186.098 51.6738C186.602 51.0918 187.271 50.8008 188.107 50.8008C188.928 50.8008 189.576 51.0762 190.053 51.627C190.529 52.1777 190.768 52.916 190.768 53.8418V54.2285H186.396V54.2871C186.396 54.873 186.557 55.3418 186.877 55.6934C187.197 56.0449 187.631 56.2207 188.178 56.2207C188.561 56.2207 188.887 56.1328 189.156 55.957C189.426 55.7812 189.604 55.5469 189.689 55.2539ZM196.123 50.9062V51.7441H194.154V57H193.146V51.7441H191.178V50.9062H196.123ZM198.848 56.2383C199.328 56.2383 199.73 56.0898 200.055 55.793C200.383 55.4922 200.547 55.123 200.547 54.6855V54.1875L198.918 54.2871C198.508 54.3145 198.189 54.4141 197.963 54.5859C197.74 54.7578 197.629 54.9883 197.629 55.2773C197.629 55.5664 197.74 55.7988 197.963 55.9746C198.186 56.1504 198.48 56.2383 198.848 56.2383ZM198.619 57.1055C198.014 57.1055 197.523 56.9375 197.148 56.6016C196.777 56.2656 196.592 55.8242 196.592 55.2773C196.592 54.7539 196.783 54.3359 197.166 54.0234C197.553 53.7109 198.098 53.5352 198.801 53.4961L200.547 53.3965V52.8867C200.547 52.5156 200.43 52.2246 200.195 52.0137C199.961 51.8027 199.633 51.6973 199.211 51.6973C198.824 51.6973 198.51 51.7832 198.268 51.9551C198.025 52.123 197.871 52.3594 197.805 52.6641H196.82C196.855 52.1211 197.09 51.6758 197.523 51.3281C197.961 50.9766 198.531 50.8008 199.234 50.8008C199.949 50.8008 200.516 50.9805 200.934 51.3398C201.355 51.6992 201.566 52.1816 201.566 52.7871V57H200.6V55.9512H200.576C200.393 56.2988 200.123 56.5781 199.768 56.7891C199.412 57 199.029 57.1055 198.619 57.1055ZM203.98 57H202.973V50.9062H203.98V55.4414H204.027L207.074 50.9062H208.082V57H207.074V52.4648H207.027L203.98 57ZM203.752 48.2695H204.502C204.502 48.6172 204.605 48.9062 204.812 49.1367C205.023 49.3672 205.299 49.4824 205.639 49.4824C205.979 49.4824 206.252 49.3672 206.459 49.1367C206.67 48.9062 206.775 48.6172 206.775 48.2695H207.525C207.525 48.8086 207.35 49.2461 206.998 49.582C206.65 49.918 206.197 50.0859 205.639 50.0859C205.08 50.0859 204.625 49.918 204.273 49.582C203.926 49.2461 203.752 48.8086 203.752 48.2695ZM214.557 52.7812H213.549C213.455 52.4648 213.277 52.2051 213.016 52.002C212.754 51.7988 212.42 51.6973 212.014 51.6973C211.482 51.6973 211.057 51.9043 210.736 52.3184C210.416 52.7285 210.256 53.2734 210.256 53.9531C210.256 54.6445 210.416 55.1934 210.736 55.5996C211.061 56.0059 211.49 56.209 212.025 56.209C212.424 56.209 212.754 56.1152 213.016 55.9277C213.281 55.7402 213.463 55.4766 213.561 55.1367H214.568C214.467 55.7227 214.186 56.1973 213.725 56.5605C213.264 56.9238 212.695 57.1055 212.02 57.1055C211.168 57.1055 210.488 56.8223 209.98 56.2559C209.473 55.6855 209.219 54.918 209.219 53.9531C209.219 53.0039 209.473 52.2422 209.98 51.668C210.488 51.0898 211.164 50.8008 212.008 50.8008C212.707 50.8008 213.281 50.9922 213.73 51.375C214.184 51.7578 214.459 52.2266 214.557 52.7812ZM217.697 53.7891L220.627 57H219.314L216.684 54.0703H216.637V57H215.629V50.9062H216.637V53.6016H216.684L219.285 50.9062H220.545L217.697 53.7891ZM222.484 57H221.477V50.9062H222.484V55.4414H222.531L225.578 50.9062H226.586V57H225.578V52.4648H225.531L222.484 57ZM229.023 57H228.016V50.9062H229.023V55.4414H229.07L232.117 50.9062H233.125V57H232.117V52.4648H232.07L229.023 57ZM228.795 48.2695H229.545C229.545 48.6172 229.648 48.9062 229.855 49.1367C230.066 49.3672 230.342 49.4824 230.682 49.4824C231.021 49.4824 231.295 49.3672 231.502 49.1367C231.713 48.9062 231.818 48.6172 231.818 48.2695H232.568C232.568 48.8086 232.393 49.2461 232.041 49.582C231.693 49.918 231.24 50.0859 230.682 50.0859C230.123 50.0859 229.668 49.918 229.316 49.582C228.969 49.2461 228.795 48.8086 228.795 48.2695ZM190.527 63.8008C191.309 63.8008 191.938 64.0879 192.414 64.6621C192.895 65.2363 193.135 66 193.135 66.9531C193.135 67.9023 192.896 68.666 192.42 69.2441C191.943 69.8184 191.32 70.1055 190.551 70.1055C190.121 70.1055 189.736 70.0078 189.396 69.8125C189.057 69.6172 188.795 69.3496 188.611 69.0098H188.588V72.0332H187.568V63.9062H188.535V64.9375H188.559C188.75 64.5859 189.018 64.3086 189.361 64.1055C189.705 63.9023 190.094 63.8008 190.527 63.8008ZM190.328 69.209C190.871 69.209 191.301 69.0059 191.617 68.5996C191.934 68.1934 192.092 67.6445 192.092 66.9531C192.092 66.2617 191.934 65.7129 191.617 65.3066C191.301 64.9004 190.871 64.6973 190.328 64.6973C189.805 64.6973 189.383 64.9043 189.062 65.3184C188.742 65.7324 188.582 66.2773 188.582 66.9531C188.582 67.6328 188.742 68.1797 189.062 68.5938C189.383 69.0039 189.805 69.209 190.328 69.209ZM198.045 67.0469H194.201V66.0977H198.045V67.0469ZM203.424 70V67.2578H200.418V70H199.41V63.9062H200.418V66.4199H203.424V63.9062H204.432V70H203.424Z" fill="#C31844"/>
<path d="M145.641 111H144.656V104.484H144.615L141.92 110.941H141.029L138.334 104.484H138.293V111H137.309V102.545H138.533L141.451 109.6H141.498L144.416 102.545H145.641V111ZM149.426 107.994H150.592V105.744H149.426C149.027 105.744 148.711 105.848 148.477 106.055C148.246 106.262 148.131 106.547 148.131 106.91C148.131 107.23 148.248 107.492 148.482 107.695C148.721 107.895 149.035 107.994 149.426 107.994ZM150.592 111V108.832H149.514L147.967 111H146.801L148.5 108.645C148.066 108.52 147.727 108.307 147.48 108.006C147.238 107.705 147.117 107.346 147.117 106.928C147.117 106.303 147.324 105.811 147.738 105.451C148.156 105.088 148.717 104.906 149.42 104.906H151.6V111H150.592ZM158.08 106.781H157.072C156.979 106.465 156.801 106.205 156.539 106.002C156.277 105.799 155.943 105.697 155.537 105.697C155.006 105.697 154.58 105.904 154.26 106.318C153.939 106.729 153.779 107.273 153.779 107.953C153.779 108.645 153.939 109.193 154.26 109.6C154.584 110.006 155.014 110.209 155.549 110.209C155.947 110.209 156.277 110.115 156.539 109.928C156.805 109.74 156.986 109.477 157.084 109.137H158.092C157.99 109.723 157.709 110.197 157.248 110.561C156.787 110.924 156.219 111.105 155.543 111.105C154.691 111.105 154.012 110.822 153.504 110.256C152.996 109.686 152.742 108.918 152.742 107.953C152.742 107.004 152.996 106.242 153.504 105.668C154.012 105.09 154.688 104.801 155.531 104.801C156.23 104.801 156.805 104.992 157.254 105.375C157.707 105.758 157.982 106.227 158.08 106.781ZM163.166 111V108.258H160.16V111H159.152V104.906H160.16V107.42H163.166V104.906H164.174V111H163.166ZM166.617 111H165.609V104.906H166.617V109.441H166.664L169.711 104.906H170.719V111H169.711V106.465H169.664L166.617 111ZM174.217 107.789L177.146 111H175.834L173.203 108.07H173.156V111H172.148V104.906H173.156V107.602H173.203L175.805 104.906H177.064L174.217 107.789ZM180.41 111.105C179.559 111.105 178.875 110.822 178.359 110.256C177.844 109.686 177.586 108.918 177.586 107.953C177.586 106.988 177.844 106.223 178.359 105.656C178.875 105.086 179.559 104.801 180.41 104.801C181.258 104.801 181.939 105.086 182.455 105.656C182.971 106.223 183.229 106.988 183.229 107.953C183.229 108.914 182.971 109.68 182.455 110.25C181.939 110.82 181.258 111.105 180.41 111.105ZM179.104 109.611C179.428 110.01 179.863 110.209 180.41 110.209C180.957 110.209 181.391 110.012 181.711 109.617C182.031 109.219 182.191 108.664 182.191 107.953C182.191 107.242 182.031 106.689 181.711 106.295C181.391 105.896 180.957 105.697 180.41 105.697C179.863 105.697 179.428 105.896 179.104 106.295C178.783 106.693 178.623 107.246 178.623 107.953C178.623 108.66 178.783 109.213 179.104 109.611ZM186.826 105.732H185.367V107.438H186.674C187.432 107.438 187.811 107.148 187.811 106.57C187.811 106.301 187.727 106.094 187.559 105.949C187.391 105.805 187.146 105.732 186.826 105.732ZM186.756 108.258H185.367V110.174H186.938C187.305 110.174 187.586 110.094 187.781 109.934C187.977 109.77 188.074 109.533 188.074 109.225C188.074 108.58 187.635 108.258 186.756 108.258ZM184.359 111V104.906H186.967C187.537 104.906 187.986 105.045 188.314 105.322C188.643 105.6 188.807 105.98 188.807 106.465C188.807 106.773 188.709 107.055 188.514 107.309C188.322 107.562 188.086 107.719 187.805 107.777V107.824C188.188 107.879 188.494 108.035 188.725 108.293C188.959 108.551 189.076 108.869 189.076 109.248C189.076 109.787 188.889 110.215 188.514 110.531C188.143 110.844 187.633 111 186.984 111H184.359ZM195.287 106.781H194.279C194.186 106.465 194.008 106.205 193.746 106.002C193.484 105.799 193.15 105.697 192.744 105.697C192.213 105.697 191.787 105.904 191.467 106.318C191.146 106.729 190.986 107.273 190.986 107.953C190.986 108.645 191.146 109.193 191.467 109.6C191.791 110.006 192.221 110.209 192.756 110.209C193.154 110.209 193.484 110.115 193.746 109.928C194.012 109.74 194.193 109.477 194.291 109.137H195.299C195.197 109.723 194.916 110.197 194.455 110.561C193.994 110.924 193.426 111.105 192.75 111.105C191.898 111.105 191.219 110.822 190.711 110.256C190.203 109.686 189.949 108.918 189.949 107.953C189.949 107.004 190.203 106.242 190.711 105.668C191.219 105.09 191.895 104.801 192.738 104.801C193.438 104.801 194.012 104.992 194.461 105.375C194.914 105.758 195.189 106.227 195.287 106.781ZM198.428 107.789L201.357 111H200.045L197.414 108.07H197.367V111H196.359V104.906H197.367V107.602H197.414L200.016 104.906H201.275L198.428 107.789ZM203.215 111H202.207V104.906H203.215V109.441H203.262L206.309 104.906H207.316V111H206.309V106.465H206.262L203.215 111ZM209.754 111H208.746V104.906H209.754V109.441H209.801L212.848 104.906H213.855V111H212.848V106.465H212.801L209.754 111ZM209.525 102.27H210.275C210.275 102.617 210.379 102.906 210.586 103.137C210.797 103.367 211.072 103.482 211.412 103.482C211.752 103.482 212.025 103.367 212.232 103.137C212.443 102.906 212.549 102.617 212.549 102.27H213.299C213.299 102.809 213.123 103.246 212.771 103.582C212.424 103.918 211.971 104.086 211.412 104.086C210.854 104.086 210.398 103.918 210.047 103.582C209.699 103.246 209.525 102.809 209.525 102.27ZM170.027 117.801C170.809 117.801 171.438 118.088 171.914 118.662C172.395 119.236 172.635 120 172.635 120.953C172.635 121.902 172.396 122.666 171.92 123.244C171.443 123.818 170.82 124.105 170.051 124.105C169.621 124.105 169.236 124.008 168.896 123.812C168.557 123.617 168.295 123.35 168.111 123.01H168.088V126.033H167.068V117.906H168.035V118.938H168.059C168.25 118.586 168.518 118.309 168.861 118.105C169.205 117.902 169.594 117.801 170.027 117.801ZM169.828 123.209C170.371 123.209 170.801 123.006 171.117 122.6C171.434 122.193 171.592 121.645 171.592 120.953C171.592 120.262 171.434 119.713 171.117 119.307C170.801 118.9 170.371 118.697 169.828 118.697C169.305 118.697 168.883 118.904 168.562 119.318C168.242 119.732 168.082 120.277 168.082 120.953C168.082 121.633 168.242 122.18 168.562 122.594C168.883 123.004 169.305 123.209 169.828 123.209ZM177.545 121.047H173.701V120.098H177.545V121.047ZM182.924 124V121.258H179.918V124H178.91V117.906H179.918V120.42H182.924V117.906H183.932V124H182.924Z" fill="#C31844"/>
<path d="M214.746 143L213.896 140.58H210.533L209.684 143H208.576L211.693 134.545H212.736L215.854 143H214.746ZM212.197 135.828L210.844 139.684H213.586L212.232 135.828H212.197ZM218.842 139.789L221.771 143H220.459L217.828 140.07H217.781V143H216.773V136.906H217.781V139.602H217.828L220.43 136.906H221.689L218.842 139.789ZM227.549 138.781H226.541C226.447 138.465 226.27 138.205 226.008 138.002C225.746 137.799 225.412 137.697 225.006 137.697C224.475 137.697 224.049 137.904 223.729 138.318C223.408 138.729 223.248 139.273 223.248 139.953C223.248 140.645 223.408 141.193 223.729 141.6C224.053 142.006 224.482 142.209 225.018 142.209C225.416 142.209 225.746 142.115 226.008 141.928C226.273 141.74 226.455 141.477 226.553 141.137H227.561C227.459 141.723 227.178 142.197 226.717 142.561C226.256 142.924 225.688 143.105 225.012 143.105C224.16 143.105 223.48 142.822 222.973 142.256C222.465 141.686 222.211 140.918 222.211 139.953C222.211 139.004 222.465 138.242 222.973 137.668C223.48 137.09 224.156 136.801 225 136.801C225.699 136.801 226.273 136.992 226.723 137.375C227.176 137.758 227.451 138.227 227.549 138.781ZM230.637 142.238C231.117 142.238 231.52 142.09 231.844 141.793C232.172 141.492 232.336 141.123 232.336 140.686V140.188L230.707 140.287C230.297 140.314 229.979 140.414 229.752 140.586C229.529 140.758 229.418 140.988 229.418 141.277C229.418 141.566 229.529 141.799 229.752 141.975C229.975 142.15 230.27 142.238 230.637 142.238ZM230.408 143.105C229.803 143.105 229.312 142.938 228.938 142.602C228.566 142.266 228.381 141.824 228.381 141.277C228.381 140.754 228.572 140.336 228.955 140.023C229.342 139.711 229.887 139.535 230.59 139.496L232.336 139.396V138.887C232.336 138.516 232.219 138.225 231.984 138.014C231.75 137.803 231.422 137.697 231 137.697C230.613 137.697 230.299 137.783 230.057 137.955C229.814 138.123 229.66 138.359 229.594 138.664H228.609C228.645 138.121 228.879 137.676 229.312 137.328C229.75 136.977 230.32 136.801 231.023 136.801C231.738 136.801 232.305 136.98 232.723 137.34C233.145 137.699 233.355 138.182 233.355 138.787V143H232.389V141.951H232.365C232.182 142.299 231.912 142.578 231.557 142.789C231.201 143 230.818 143.105 230.408 143.105ZM235.77 143H234.762V136.906H235.77V141.441H235.816L238.863 136.906H239.871V143H238.863V138.465H238.816L235.77 143ZM235.541 134.27H236.291C236.291 134.617 236.395 134.906 236.602 135.137C236.812 135.367 237.088 135.482 237.428 135.482C237.768 135.482 238.041 135.367 238.248 135.137C238.459 134.906 238.564 134.617 238.564 134.27H239.314C239.314 134.809 239.139 135.246 238.787 135.582C238.439 135.918 237.986 136.086 237.428 136.086C236.869 136.086 236.414 135.918 236.062 135.582C235.715 135.246 235.541 134.809 235.541 134.27ZM246.346 138.781H245.338C245.244 138.465 245.066 138.205 244.805 138.002C244.543 137.799 244.209 137.697 243.803 137.697C243.271 137.697 242.846 137.904 242.525 138.318C242.205 138.729 242.045 139.273 242.045 139.953C242.045 140.645 242.205 141.193 242.525 141.6C242.85 142.006 243.279 142.209 243.814 142.209C244.213 142.209 244.543 142.115 244.805 141.928C245.07 141.74 245.252 141.477 245.35 141.137H246.357C246.256 141.723 245.975 142.197 245.514 142.561C245.053 142.924 244.484 143.105 243.809 143.105C242.957 143.105 242.277 142.822 241.77 142.256C241.262 141.686 241.008 140.918 241.008 139.953C241.008 139.004 241.262 138.242 241.77 137.668C242.277 137.09 242.953 136.801 243.797 136.801C244.496 136.801 245.07 136.992 245.52 137.375C245.973 137.758 246.248 138.227 246.346 138.781ZM249.486 139.789L252.416 143H251.104L248.473 140.07H248.426V143H247.418V136.906H248.426V139.602H248.473L251.074 136.906H252.334L249.486 139.789ZM254.273 143H253.266V136.906H254.273V141.441H254.32L257.367 136.906H258.375V143H257.367V138.465H257.32L254.273 143ZM260.812 143H259.805V136.906H260.812V141.441H260.859L263.906 136.906H264.914V143H263.906V138.465H263.859L260.812 143ZM260.584 134.27H261.334C261.334 134.617 261.438 134.906 261.645 135.137C261.855 135.367 262.131 135.482 262.471 135.482C262.811 135.482 263.084 135.367 263.291 135.137C263.502 134.906 263.607 134.617 263.607 134.27H264.357C264.357 134.809 264.182 135.246 263.83 135.582C263.482 135.918 263.029 136.086 262.471 136.086C261.912 136.086 261.457 135.918 261.105 135.582C260.758 135.246 260.584 134.809 260.584 134.27ZM231.527 149.801C232.309 149.801 232.938 150.088 233.414 150.662C233.895 151.236 234.135 152 234.135 152.953C234.135 153.902 233.896 154.666 233.42 155.244C232.943 155.818 232.32 156.105 231.551 156.105C231.121 156.105 230.736 156.008 230.396 155.812C230.057 155.617 229.795 155.35 229.611 155.01H229.588V158.033H228.568V149.906H229.535V150.938H229.559C229.75 150.586 230.018 150.309 230.361 150.105C230.705 149.902 231.094 149.801 231.527 149.801ZM231.328 155.209C231.871 155.209 232.301 155.006 232.617 154.6C232.934 154.193 233.092 153.645 233.092 152.953C233.092 152.262 232.934 151.713 232.617 151.307C232.301 150.9 231.871 150.697 231.328 150.697C230.805 150.697 230.383 150.904 230.062 151.318C229.742 151.732 229.582 152.277 229.582 152.953C229.582 153.633 229.742 154.18 230.062 154.594C230.383 155.004 230.805 155.209 231.328 155.209ZM239.045 153.047H235.201V152.098H239.045V153.047ZM244.424 156V153.258H241.418V156H240.41V149.906H241.418V152.42H244.424V149.906H245.432V156H244.424Z" fill="#C31844"/>
</svg>
