<svg width="110" height="119" viewBox="0 0 110 119" fill="none" xmlns="http://www.w3.org/2000/svg">
<path d="M51.1445 6.58789L55.3809 11H53.9336L50.0312 6.89258H49.9844V11H48.9297V2.54492H49.9844V6.44141H50.0312L53.6641 2.54492H54.9883L51.1445 6.58789ZM58.0703 10.2383C58.5508 10.2383 58.9531 10.0898 59.2773 9.79297C59.6055 9.49219 59.7695 9.12305 59.7695 8.68555V8.1875L58.1406 8.28711C57.7305 8.31445 57.4121 8.41406 57.1855 8.58594C56.9629 8.75781 56.8516 8.98828 56.8516 9.27734C56.8516 9.56641 56.9629 9.79883 57.1855 9.97461C57.4082 10.1504 57.7031 10.2383 58.0703 10.2383ZM57.8418 11.1055C57.2363 11.1055 56.7461 10.9375 56.3711 10.6016C56 10.2656 55.8145 9.82422 55.8145 9.27734C55.8145 8.75391 56.0059 8.33594 56.3887 8.02344C56.7754 7.71094 57.3203 7.53516 58.0234 7.49609L59.7695 7.39648V6.88672C59.7695 6.51562 59.6523 6.22461 59.418 6.01367C59.1836 5.80273 58.8555 5.69727 58.4336 5.69727C58.0469 5.69727 57.7324 5.7832 57.4902 5.95508C57.248 6.12305 57.0938 6.35938 57.0273 6.66406H56.043C56.0781 6.12109 56.3125 5.67578 56.7461 5.32812C57.1836 4.97656 57.7539 4.80078 58.457 4.80078C59.1719 4.80078 59.7383 4.98047 60.1562 5.33984C60.5781 5.69922 60.7891 6.18164 60.7891 6.78711V11H59.8223V9.95117H59.7988C59.6152 10.2988 59.3457 10.5781 58.9902 10.7891C58.6348 11 58.252 11.1055 57.8418 11.1055ZM63.2031 11H62.1953V4.90625H63.4316L65.5996 9.65234H65.6465L67.8262 4.90625H69.0156V11H68.002V6.67578H67.9609L65.9922 10.8242H65.2129L63.2441 6.67578H63.2031V11ZM72.8945 5.68555C72.4219 5.68555 72.0293 5.84961 71.7168 6.17773C71.4082 6.50195 71.2383 6.91992 71.207 7.43164H74.5176C74.5059 6.91602 74.3516 6.49609 74.0547 6.17188C73.7578 5.84766 73.3711 5.68555 72.8945 5.68555ZM74.4941 9.25391H75.4961C75.4062 9.79297 75.125 10.2363 74.6523 10.584C74.1836 10.9316 73.6191 11.1055 72.959 11.1055C72.0879 11.1055 71.4023 10.8242 70.9023 10.2617C70.4023 9.69922 70.1523 8.9375 70.1523 7.97656C70.1523 7.02344 70.4023 6.25586 70.9023 5.67383C71.4062 5.0918 72.0762 4.80078 72.9121 4.80078C73.7324 4.80078 74.3809 5.07617 74.8574 5.62695C75.334 6.17773 75.5723 6.91602 75.5723 7.8418V8.22852H71.2012V8.28711C71.2012 8.87305 71.3613 9.3418 71.6816 9.69336C72.002 10.0449 72.4355 10.2207 72.9824 10.2207C73.3652 10.2207 73.6914 10.1328 73.9609 9.95703C74.2305 9.78125 74.4082 9.54688 74.4941 9.25391ZM80.7168 11V8.25781H77.7109V11H76.7031V4.90625H77.7109V7.41992H80.7168V4.90625H81.7246V11H80.7168ZM88.2051 6.78125H87.1973C87.1035 6.46484 86.9258 6.20508 86.6641 6.00195C86.4023 5.79883 86.0684 5.69727 85.6621 5.69727C85.1309 5.69727 84.7051 5.9043 84.3848 6.31836C84.0645 6.72852 83.9043 7.27344 83.9043 7.95312C83.9043 8.64453 84.0645 9.19336 84.3848 9.59961C84.709 10.0059 85.1387 10.209 85.6738 10.209C86.0723 10.209 86.4023 10.1152 86.6641 9.92773C86.9297 9.74023 87.1113 9.47656 87.209 9.13672H88.2168C88.1152 9.72266 87.834 10.1973 87.373 10.5605C86.9121 10.9238 86.3438 11.1055 85.668 11.1055C84.8164 11.1055 84.1367 10.8223 83.6289 10.2559C83.1211 9.68555 82.8672 8.91797 82.8672 7.95312C82.8672 7.00391 83.1211 6.24219 83.6289 5.66797C84.1367 5.08984 84.8125 4.80078 85.6562 4.80078C86.3555 4.80078 86.9297 4.99219 87.3789 5.375C87.832 5.75781 88.1074 6.22656 88.2051 6.78125ZM91.3457 7.78906L94.2754 11H92.9629L90.332 8.07031H90.2852V11H89.2773V4.90625H90.2852V7.60156H90.332L92.9336 4.90625H94.1934L91.3457 7.78906ZM96.1328 11H95.125V4.90625H96.1328V9.44141H96.1797L99.2266 4.90625H100.234V11H99.2266V6.46484H99.1797L96.1328 11ZM102.672 11H101.664V4.90625H102.672V9.44141H102.719L105.766 4.90625H106.773V11H105.766V6.46484H105.719L102.672 11ZM102.443 2.26953H103.193C103.193 2.61719 103.297 2.90625 103.504 3.13672C103.715 3.36719 103.99 3.48242 104.33 3.48242C104.67 3.48242 104.943 3.36719 105.15 3.13672C105.361 2.90625 105.467 2.61719 105.467 2.26953H106.217C106.217 2.80859 106.041 3.24609 105.689 3.58203C105.342 3.91797 104.889 4.08594 104.33 4.08594C103.771 4.08594 103.316 3.91797 102.965 3.58203C102.617 3.24609 102.443 2.80859 102.443 2.26953ZM73.5273 17.8008C74.3086 17.8008 74.9375 18.0879 75.4141 18.6621C75.8945 19.2363 76.1348 20 76.1348 20.9531C76.1348 21.9023 75.8965 22.666 75.4199 23.2441C74.9434 23.8184 74.3203 24.1055 73.5508 24.1055C73.1211 24.1055 72.7363 24.0078 72.3965 23.8125C72.0566 23.6172 71.7949 23.3496 71.6113 23.0098H71.5879V26.0332H70.5684V17.9062H71.5352V18.9375H71.5586C71.75 18.5859 72.0176 18.3086 72.3613 18.1055C72.7051 17.9023 73.0938 17.8008 73.5273 17.8008ZM73.3281 23.209C73.8711 23.209 74.3008 23.0059 74.6172 22.5996C74.9336 22.1934 75.0918 21.6445 75.0918 20.9531C75.0918 20.2617 74.9336 19.7129 74.6172 19.3066C74.3008 18.9004 73.8711 18.6973 73.3281 18.6973C72.8047 18.6973 72.3828 18.9043 72.0625 19.3184C71.7422 19.7324 71.582 20.2773 71.582 20.9531C71.582 21.6328 71.7422 22.1797 72.0625 22.5938C72.3828 23.0039 72.8047 23.209 73.3281 23.209ZM81.0449 21.0469H77.2012V20.0977H81.0449V21.0469ZM86.4238 24V21.2578H83.418V24H82.4102V17.9062H83.418V20.4199H86.4238V17.9062H87.4316V24H86.4238Z" fill="#C31844"/>
<path d="M3.25586 98.5879L7.49219 103H6.04492L2.14258 98.8926H2.0957V103H1.04102V94.5449H2.0957V98.4414H2.14258L5.77539 94.5449H7.09961L3.25586 98.5879ZM11.1309 96.8008C11.9121 96.8008 12.541 97.0879 13.0176 97.6621C13.498 98.2363 13.7383 99 13.7383 99.9531C13.7383 100.902 13.5 101.666 13.0234 102.244C12.5469 102.818 11.9238 103.105 11.1543 103.105C10.7246 103.105 10.3398 103.008 10 102.812C9.66016 102.617 9.39844 102.35 9.21484 102.01H9.19141V105.033H8.17188V96.9062H9.13867V97.9375H9.16211C9.35352 97.5859 9.62109 97.3086 9.96484 97.1055C10.3086 96.9023 10.6973 96.8008 11.1309 96.8008ZM10.9316 102.209C11.4746 102.209 11.9043 102.006 12.2207 101.6C12.5371 101.193 12.6953 100.645 12.6953 99.9531C12.6953 99.2617 12.5371 98.7129 12.2207 98.3066C11.9043 97.9004 11.4746 97.6973 10.9316 97.6973C10.4082 97.6973 9.98633 97.9043 9.66602 98.3184C9.3457 98.7324 9.18555 99.2773 9.18555 99.9531C9.18555 100.633 9.3457 101.18 9.66602 101.594C9.98633 102.004 10.4082 102.209 10.9316 102.209ZM16.8848 102.238C17.3652 102.238 17.7676 102.09 18.0918 101.793C18.4199 101.492 18.584 101.123 18.584 100.686V100.188L16.9551 100.287C16.5449 100.314 16.2266 100.414 16 100.586C15.7773 100.758 15.666 100.988 15.666 101.277C15.666 101.566 15.7773 101.799 16 101.975C16.2227 102.15 16.5176 102.238 16.8848 102.238ZM16.6562 103.105C16.0508 103.105 15.5605 102.938 15.1855 102.602C14.8145 102.266 14.6289 101.824 14.6289 101.277C14.6289 100.754 14.8203 100.336 15.2031 100.023C15.5898 99.7109 16.1348 99.5352 16.8379 99.4961L18.584 99.3965V98.8867C18.584 98.5156 18.4668 98.2246 18.2324 98.0137C17.998 97.8027 17.6699 97.6973 17.248 97.6973C16.8613 97.6973 16.5469 97.7832 16.3047 97.9551C16.0625 98.123 15.9082 98.3594 15.8418 98.6641H14.8574C14.8926 98.1211 15.127 97.6758 15.5605 97.3281C15.998 96.9766 16.5684 96.8008 17.2715 96.8008C17.9863 96.8008 18.5527 96.9805 18.9707 97.3398C19.3926 97.6992 19.6035 98.1816 19.6035 98.7871V103H18.6367V101.951H18.6133C18.4297 102.299 18.1602 102.578 17.8047 102.789C17.4492 103 17.0664 103.105 16.6562 103.105ZM26.0547 98.7812H25.0469C24.9531 98.4648 24.7754 98.2051 24.5137 98.002C24.252 97.7988 23.918 97.6973 23.5117 97.6973C22.9805 97.6973 22.5547 97.9043 22.2344 98.3184C21.9141 98.7285 21.7539 99.2734 21.7539 99.9531C21.7539 100.645 21.9141 101.193 22.2344 101.6C22.5586 102.006 22.9883 102.209 23.5234 102.209C23.9219 102.209 24.252 102.115 24.5137 101.928C24.7793 101.74 24.9609 101.477 25.0586 101.137H26.0664C25.9648 101.723 25.6836 102.197 25.2227 102.561C24.7617 102.924 24.1934 103.105 23.5176 103.105C22.666 103.105 21.9863 102.822 21.4785 102.256C20.9707 101.686 20.7168 100.918 20.7168 99.9531C20.7168 99.0039 20.9707 98.2422 21.4785 97.668C21.9863 97.0898 22.6621 96.8008 23.5059 96.8008C24.2051 96.8008 24.7793 96.9922 25.2285 97.375C25.6816 97.7578 25.957 98.2266 26.0547 98.7812ZM31.1406 103V100.258H28.1348V103H27.127V96.9062H28.1348V99.4199H31.1406V96.9062H32.1484V103H31.1406ZM36.1152 103.105C35.2637 103.105 34.5801 102.822 34.0645 102.256C33.5488 101.686 33.291 100.918 33.291 99.9531C33.291 98.9883 33.5488 98.2227 34.0645 97.6562C34.5801 97.0859 35.2637 96.8008 36.1152 96.8008C36.9629 96.8008 37.6445 97.0859 38.1602 97.6562C38.6758 98.2227 38.9336 98.9883 38.9336 99.9531C38.9336 100.914 38.6758 101.68 38.1602 102.25C37.6445 102.82 36.9629 103.105 36.1152 103.105ZM34.8086 101.611C35.1328 102.01 35.5684 102.209 36.1152 102.209C36.6621 102.209 37.0957 102.012 37.416 101.617C37.7363 101.219 37.8965 100.664 37.8965 99.9531C37.8965 99.2422 37.7363 98.6895 37.416 98.2949C37.0957 97.8965 36.6621 97.6973 36.1152 97.6973C35.5684 97.6973 35.1328 97.8965 34.8086 98.2949C34.4883 98.6934 34.3281 99.2461 34.3281 99.9531C34.3281 100.66 34.4883 101.213 34.8086 101.611ZM45.1094 98.7812H44.1016C44.0078 98.4648 43.8301 98.2051 43.5684 98.002C43.3066 97.7988 42.9727 97.6973 42.5664 97.6973C42.0352 97.6973 41.6094 97.9043 41.2891 98.3184C40.9688 98.7285 40.8086 99.2734 40.8086 99.9531C40.8086 100.645 40.9688 101.193 41.2891 101.6C41.6133 102.006 42.043 102.209 42.5781 102.209C42.9766 102.209 43.3066 102.115 43.5684 101.928C43.834 101.74 44.0156 101.477 44.1133 101.137H45.1211C45.0195 101.723 44.7383 102.197 44.2773 102.561C43.8164 102.924 43.248 103.105 42.5723 103.105C41.7207 103.105 41.041 102.822 40.5332 102.256C40.0254 101.686 39.7715 100.918 39.7715 99.9531C39.7715 99.0039 40.0254 98.2422 40.5332 97.668C41.041 97.0898 41.7168 96.8008 42.5605 96.8008C43.2598 96.8008 43.834 96.9922 44.2832 97.375C44.7363 97.7578 45.0117 98.2266 45.1094 98.7812ZM46.6328 105.279C46.4492 105.279 46.3027 105.268 46.1934 105.244V104.389C46.2871 104.408 46.4199 104.418 46.5918 104.418C46.877 104.418 47.1055 104.342 47.2773 104.189C47.4492 104.041 47.5938 103.789 47.7109 103.434L47.8516 103.006L45.6016 96.9062H46.6914L48.3789 101.98H48.3965L50.084 96.9062H51.1562L48.7598 103.428C48.498 104.139 48.2148 104.625 47.9102 104.887C47.6094 105.148 47.1836 105.279 46.6328 105.279ZM53.3418 100.311C53.3145 100.662 53.2754 100.973 53.2246 101.242C53.1777 101.512 53.1094 101.764 53.0195 101.998C52.9297 102.232 52.8184 102.426 52.6855 102.578C52.5566 102.727 52.3945 102.844 52.1992 102.93C52.0078 103.012 51.7852 103.053 51.5312 103.053C51.3906 103.053 51.2695 103.031 51.168 102.988V102.068C51.2617 102.1 51.3652 102.115 51.4785 102.115C51.7637 102.115 51.9766 101.961 52.1172 101.652C52.2578 101.34 52.3477 100.885 52.3867 100.287L52.6211 96.9062H56.6113V103H55.6035V97.7441H53.5293L53.3418 100.311ZM59.0605 103H58.0527V96.9062H59.0605V101.441H59.1074L62.1543 96.9062H63.1621V103H62.1543V98.4648H62.1074L59.0605 103ZM68.6055 103V100.258H65.5996V103H64.5918V96.9062H65.5996V99.4199H68.6055V96.9062H69.6133V103H68.6055ZM76.0938 98.7812H75.0859C74.9922 98.4648 74.8145 98.2051 74.5527 98.002C74.291 97.7988 73.957 97.6973 73.5508 97.6973C73.0195 97.6973 72.5938 97.9043 72.2734 98.3184C71.9531 98.7285 71.793 99.2734 71.793 99.9531C71.793 100.645 71.9531 101.193 72.2734 101.6C72.5977 102.006 73.0273 102.209 73.5625 102.209C73.9609 102.209 74.291 102.115 74.5527 101.928C74.8184 101.74 75 101.477 75.0977 101.137H76.1055C76.0039 101.723 75.7227 102.197 75.2617 102.561C74.8008 102.924 74.2324 103.105 73.5566 103.105C72.7051 103.105 72.0254 102.822 71.5176 102.256C71.0098 101.686 70.7559 100.918 70.7559 99.9531C70.7559 99.0039 71.0098 98.2422 71.5176 97.668C72.0254 97.0898 72.7012 96.8008 73.5449 96.8008C74.2441 96.8008 74.8184 96.9922 75.2676 97.375C75.7207 97.7578 75.9961 98.2266 76.0938 98.7812ZM79.2344 99.7891L82.1641 103H80.8516L78.2207 100.07H78.1738V103H77.166V96.9062H78.1738V99.6016H78.2207L80.8223 96.9062H82.082L79.2344 99.7891ZM84.0215 103H83.0137V96.9062H84.0215V101.441H84.0684L87.1152 96.9062H88.123V103H87.1152V98.4648H87.0684L84.0215 103ZM90.5605 103H89.5527V96.9062H90.5605V101.441H90.6074L93.6543 96.9062H94.6621V103H93.6543V98.4648H93.6074L90.5605 103ZM90.332 94.2695H91.082C91.082 94.6172 91.1855 94.9062 91.3926 95.1367C91.6035 95.3672 91.8789 95.4824 92.2188 95.4824C92.5586 95.4824 92.832 95.3672 93.0391 95.1367C93.25 94.9062 93.3555 94.6172 93.3555 94.2695H94.1055C94.1055 94.8086 93.9297 95.2461 93.5781 95.582C93.2305 95.918 92.7773 96.0859 92.2188 96.0859C91.6602 96.0859 91.2051 95.918 90.8535 95.582C90.5059 95.2461 90.332 94.8086 90.332 94.2695ZM43.5273 109.801C44.3086 109.801 44.9375 110.088 45.4141 110.662C45.8945 111.236 46.1348 112 46.1348 112.953C46.1348 113.902 45.8965 114.666 45.4199 115.244C44.9434 115.818 44.3203 116.105 43.5508 116.105C43.1211 116.105 42.7363 116.008 42.3965 115.812C42.0566 115.617 41.7949 115.35 41.6113 115.01H41.5879V118.033H40.5684V109.906H41.5352V110.938H41.5586C41.75 110.586 42.0176 110.309 42.3613 110.105C42.7051 109.902 43.0938 109.801 43.5273 109.801ZM43.3281 115.209C43.8711 115.209 44.3008 115.006 44.6172 114.6C44.9336 114.193 45.0918 113.645 45.0918 112.953C45.0918 112.262 44.9336 111.713 44.6172 111.307C44.3008 110.9 43.8711 110.697 43.3281 110.697C42.8047 110.697 42.3828 110.904 42.0625 111.318C41.7422 111.732 41.582 112.277 41.582 112.953C41.582 113.633 41.7422 114.18 42.0625 114.594C42.3828 115.004 42.8047 115.209 43.3281 115.209ZM51.0449 113.047H47.2012V112.098H51.0449V113.047ZM56.4238 116V113.258H53.418V116H52.4102V109.906H53.418V112.42H56.4238V109.906H57.4316V116H56.4238Z" fill="#C31844"/>
</svg>
