<svg width="348" height="229" viewBox="0 0 348 229" fill="none" xmlns="http://www.w3.org/2000/svg">
<path d="M225.139 15V6.54492H226.193V14.0508H229.252V6.54492H230.307V14.0508H233.365V6.54492H234.42V15H225.139ZM238.545 15.1055C237.693 15.1055 237.01 14.8223 236.494 14.2559C235.979 13.6855 235.721 12.918 235.721 11.9531C235.721 10.9883 235.979 10.2227 236.494 9.65625C237.01 9.08594 237.693 8.80078 238.545 8.80078C239.393 8.80078 240.074 9.08594 240.59 9.65625C241.105 10.2227 241.363 10.9883 241.363 11.9531C241.363 12.9141 241.105 13.6797 240.59 14.25C240.074 14.8203 239.393 15.1055 238.545 15.1055ZM237.238 13.6113C237.562 14.0098 237.998 14.209 238.545 14.209C239.092 14.209 239.525 14.0117 239.846 13.6172C240.166 13.2188 240.326 12.6641 240.326 11.9531C240.326 11.2422 240.166 10.6895 239.846 10.2949C239.525 9.89648 239.092 9.69727 238.545 9.69727C237.998 9.69727 237.562 9.89648 237.238 10.2949C236.918 10.6934 236.758 11.2461 236.758 11.9531C236.758 12.6602 236.918 13.2129 237.238 13.6113ZM243.889 12.3105C243.861 12.6621 243.822 12.9727 243.771 13.2422C243.725 13.5117 243.656 13.7637 243.566 13.998C243.477 14.2324 243.365 14.4258 243.232 14.5781C243.104 14.7266 242.941 14.8438 242.746 14.9297C242.555 15.0117 242.332 15.0527 242.078 15.0527C241.938 15.0527 241.816 15.0312 241.715 14.9883V14.0684C241.809 14.0996 241.912 14.1152 242.025 14.1152C242.311 14.1152 242.523 13.9609 242.664 13.6523C242.805 13.3398 242.895 12.8848 242.934 12.2871L243.168 8.90625H247.158V15H246.15V9.74414H244.076L243.889 12.3105ZM251.131 15.1055C250.279 15.1055 249.596 14.8223 249.08 14.2559C248.564 13.6855 248.307 12.918 248.307 11.9531C248.307 10.9883 248.564 10.2227 249.08 9.65625C249.596 9.08594 250.279 8.80078 251.131 8.80078C251.979 8.80078 252.66 9.08594 253.176 9.65625C253.691 10.2227 253.949 10.9883 253.949 11.9531C253.949 12.9141 253.691 13.6797 253.176 14.25C252.66 14.8203 251.979 15.1055 251.131 15.1055ZM249.824 13.6113C250.148 14.0098 250.584 14.209 251.131 14.209C251.678 14.209 252.111 14.0117 252.432 13.6172C252.752 13.2188 252.912 12.6641 252.912 11.9531C252.912 11.2422 252.752 10.6895 252.432 10.2949C252.111 9.89648 251.678 9.69727 251.131 9.69727C250.584 9.69727 250.148 9.89648 249.824 10.2949C249.504 10.6934 249.344 11.2461 249.344 11.9531C249.344 12.6602 249.504 13.2129 249.824 13.6113ZM257.125 12.6797H257.102L255.631 15H254.5L256.574 11.9531L254.535 8.90625H255.672L257.137 11.1914H257.16L258.607 8.90625H259.744L257.688 11.9121L259.715 15H258.584L257.125 12.6797ZM263.119 15.1055C262.268 15.1055 261.584 14.8223 261.068 14.2559C260.553 13.6855 260.295 12.918 260.295 11.9531C260.295 10.9883 260.553 10.2227 261.068 9.65625C261.584 9.08594 262.268 8.80078 263.119 8.80078C263.967 8.80078 264.648 9.08594 265.164 9.65625C265.68 10.2227 265.938 10.9883 265.938 11.9531C265.938 12.9141 265.68 13.6797 265.164 14.25C264.648 14.8203 263.967 15.1055 263.119 15.1055ZM261.812 13.6113C262.137 14.0098 262.572 14.209 263.119 14.209C263.666 14.209 264.1 14.0117 264.42 13.6172C264.74 13.2188 264.9 12.6641 264.9 11.9531C264.9 11.2422 264.74 10.6895 264.42 10.2949C264.1 9.89648 263.666 9.69727 263.119 9.69727C262.572 9.69727 262.137 9.89648 261.812 10.2949C261.492 10.6934 261.332 11.2461 261.332 11.9531C261.332 12.6602 261.492 13.2129 261.812 13.6113ZM269.535 9.73242H268.076V11.4375H269.383C270.141 11.4375 270.52 11.1484 270.52 10.5703C270.52 10.3008 270.436 10.0938 270.268 9.94922C270.1 9.80469 269.855 9.73242 269.535 9.73242ZM269.465 12.2578H268.076V14.1738H269.646C270.014 14.1738 270.295 14.0938 270.49 13.9336C270.686 13.7695 270.783 13.5332 270.783 13.2246C270.783 12.5801 270.344 12.2578 269.465 12.2578ZM267.068 15V8.90625H269.676C270.246 8.90625 270.695 9.04492 271.023 9.32227C271.352 9.59961 271.516 9.98047 271.516 10.4648C271.516 10.7734 271.418 11.0547 271.223 11.3086C271.031 11.5625 270.795 11.7188 270.514 11.7773V11.8242C270.896 11.8789 271.203 12.0352 271.434 12.293C271.668 12.5508 271.785 12.8691 271.785 13.248C271.785 13.7871 271.598 14.2148 271.223 14.5312C270.852 14.8438 270.342 15 269.693 15H267.068ZM277.996 10.7812H276.988C276.895 10.4648 276.717 10.2051 276.455 10.002C276.193 9.79883 275.859 9.69727 275.453 9.69727C274.922 9.69727 274.496 9.9043 274.176 10.3184C273.855 10.7285 273.695 11.2734 273.695 11.9531C273.695 12.6445 273.855 13.1934 274.176 13.5996C274.5 14.0059 274.93 14.209 275.465 14.209C275.863 14.209 276.193 14.1152 276.455 13.9277C276.721 13.7402 276.902 13.4766 277 13.1367H278.008C277.906 13.7227 277.625 14.1973 277.164 14.5605C276.703 14.9238 276.135 15.1055 275.459 15.1055C274.607 15.1055 273.928 14.8223 273.42 14.2559C272.912 13.6855 272.658 12.918 272.658 11.9531C272.658 11.0039 272.912 10.2422 273.42 9.66797C273.928 9.08984 274.604 8.80078 275.447 8.80078C276.146 8.80078 276.721 8.99219 277.17 9.375C277.623 9.75781 277.898 10.2266 277.996 10.7812ZM281.137 11.7891L284.066 15H282.754L280.123 12.0703H280.076V15H279.068V8.90625H280.076V11.6016H280.123L282.725 8.90625H283.984L281.137 11.7891ZM285.924 15H284.916V8.90625H285.924V13.4414H285.971L289.018 8.90625H290.025V15H289.018V10.4648H288.971L285.924 15ZM292.463 15H291.455V8.90625H292.463V13.4414H292.51L295.557 8.90625H296.564V15H295.557V10.4648H295.51L292.463 15ZM292.234 6.26953H292.984C292.984 6.61719 293.088 6.90625 293.295 7.13672C293.506 7.36719 293.781 7.48242 294.121 7.48242C294.461 7.48242 294.734 7.36719 294.941 7.13672C295.152 6.90625 295.258 6.61719 295.258 6.26953H296.008C296.008 6.80859 295.832 7.24609 295.48 7.58203C295.133 7.91797 294.68 8.08594 294.121 8.08594C293.562 8.08594 293.107 7.91797 292.756 7.58203C292.408 7.24609 292.234 6.80859 292.234 6.26953ZM256.527 21.8008C257.309 21.8008 257.938 22.0879 258.414 22.6621C258.895 23.2363 259.135 24 259.135 24.9531C259.135 25.9023 258.896 26.666 258.42 27.2441C257.943 27.8184 257.32 28.1055 256.551 28.1055C256.121 28.1055 255.736 28.0078 255.396 27.8125C255.057 27.6172 254.795 27.3496 254.611 27.0098H254.588V30.0332H253.568V21.9062H254.535V22.9375H254.559C254.75 22.5859 255.018 22.3086 255.361 22.1055C255.705 21.9023 256.094 21.8008 256.527 21.8008ZM256.328 27.209C256.871 27.209 257.301 27.0059 257.617 26.5996C257.934 26.1934 258.092 25.6445 258.092 24.9531C258.092 24.2617 257.934 23.7129 257.617 23.3066C257.301 22.9004 256.871 22.6973 256.328 22.6973C255.805 22.6973 255.383 22.9043 255.062 23.3184C254.742 23.7324 254.582 24.2773 254.582 24.9531C254.582 25.6328 254.742 26.1797 255.062 26.5938C255.383 27.0039 255.805 27.209 256.328 27.209ZM264.045 25.0469H260.201V24.0977H264.045V25.0469ZM269.424 28V25.2578H266.418V28H265.41V21.9062H266.418V24.4199H269.424V21.9062H270.432V28H269.424Z" fill="#C31844"/>
<path d="M225.938 101.463C225.938 102.209 225.684 102.818 225.176 103.291C224.672 103.764 224.023 104 223.23 104H220.154V95.5449H225.094V96.4941H221.209V98.9141H223.219C224.016 98.9141 224.668 99.1523 225.176 99.6289C225.684 100.102 225.938 100.713 225.938 101.463ZM221.209 103.051H222.955C223.561 103.051 224.027 102.914 224.355 102.641C224.688 102.363 224.854 101.971 224.854 101.463C224.854 100.951 224.688 100.557 224.355 100.279C224.027 100.002 223.561 99.8633 222.955 99.8633H221.209V103.051ZM229.893 104.105C229.041 104.105 228.357 103.822 227.842 103.256C227.326 102.686 227.068 101.918 227.068 100.953C227.068 99.9883 227.326 99.2227 227.842 98.6562C228.357 98.0859 229.041 97.8008 229.893 97.8008C230.74 97.8008 231.422 98.0859 231.938 98.6562C232.453 99.2227 232.711 99.9883 232.711 100.953C232.711 101.914 232.453 102.68 231.938 103.25C231.422 103.82 230.74 104.105 229.893 104.105ZM228.586 102.611C228.91 103.01 229.346 103.209 229.893 103.209C230.439 103.209 230.873 103.012 231.193 102.617C231.514 102.219 231.674 101.664 231.674 100.953C231.674 100.242 231.514 99.6895 231.193 99.2949C230.873 98.8965 230.439 98.6973 229.893 98.6973C229.346 98.6973 228.91 98.8965 228.586 99.2949C228.266 99.6934 228.105 100.246 228.105 100.953C228.105 101.66 228.266 102.213 228.586 102.611ZM235.91 100.789L238.84 104H237.527L234.896 101.07H234.85V104H233.842V97.9062H234.85V100.602H234.896L237.498 97.9062H238.758L235.91 100.789ZM242.104 104.105C241.252 104.105 240.568 103.822 240.053 103.256C239.537 102.686 239.279 101.918 239.279 100.953C239.279 99.9883 239.537 99.2227 240.053 98.6562C240.568 98.0859 241.252 97.8008 242.104 97.8008C242.951 97.8008 243.633 98.0859 244.148 98.6562C244.664 99.2227 244.922 99.9883 244.922 100.953C244.922 101.914 244.664 102.68 244.148 103.25C243.633 103.82 242.951 104.105 242.104 104.105ZM240.797 102.611C241.121 103.01 241.557 103.209 242.104 103.209C242.65 103.209 243.084 103.012 243.404 102.617C243.725 102.219 243.885 101.664 243.885 100.953C243.885 100.242 243.725 99.6895 243.404 99.2949C243.084 98.8965 242.65 98.6973 242.104 98.6973C241.557 98.6973 241.121 98.8965 240.797 99.2949C240.477 99.6934 240.316 100.246 240.316 100.953C240.316 101.66 240.477 102.213 240.797 102.611ZM248.52 98.7324H247.061V100.438H248.367C249.125 100.438 249.504 100.148 249.504 99.5703C249.504 99.3008 249.42 99.0938 249.252 98.9492C249.084 98.8047 248.84 98.7324 248.52 98.7324ZM248.449 101.258H247.061V103.174H248.631C248.998 103.174 249.279 103.094 249.475 102.934C249.67 102.77 249.768 102.533 249.768 102.225C249.768 101.58 249.328 101.258 248.449 101.258ZM246.053 104V97.9062H248.66C249.23 97.9062 249.68 98.0449 250.008 98.3223C250.336 98.5996 250.5 98.9805 250.5 99.4648C250.5 99.7734 250.402 100.055 250.207 100.309C250.016 100.562 249.779 100.719 249.498 100.777V100.824C249.881 100.879 250.188 101.035 250.418 101.293C250.652 101.551 250.77 101.869 250.77 102.248C250.77 102.787 250.582 103.215 250.207 103.531C249.836 103.844 249.326 104 248.678 104H246.053ZM256.98 99.7812H255.973C255.879 99.4648 255.701 99.2051 255.439 99.002C255.178 98.7988 254.844 98.6973 254.438 98.6973C253.906 98.6973 253.48 98.9043 253.16 99.3184C252.84 99.7285 252.68 100.273 252.68 100.953C252.68 101.645 252.84 102.193 253.16 102.6C253.484 103.006 253.914 103.209 254.449 103.209C254.848 103.209 255.178 103.115 255.439 102.928C255.705 102.74 255.887 102.477 255.984 102.137H256.992C256.891 102.723 256.609 103.197 256.148 103.561C255.688 103.924 255.119 104.105 254.443 104.105C253.592 104.105 252.912 103.822 252.404 103.256C251.896 102.686 251.643 101.918 251.643 100.953C251.643 100.004 251.896 99.2422 252.404 98.668C252.912 98.0898 253.588 97.8008 254.432 97.8008C255.131 97.8008 255.705 97.9922 256.154 98.375C256.607 98.7578 256.883 99.2266 256.98 99.7812ZM260.121 100.789L263.051 104H261.738L259.107 101.07H259.061V104H258.053V97.9062H259.061V100.602H259.107L261.709 97.9062H262.969L260.121 100.789ZM264.908 104H263.9V97.9062H264.908V102.441H264.955L268.002 97.9062H269.01V104H268.002V99.4648H267.955L264.908 104ZM271.447 104H270.439V97.9062H271.447V102.441H271.494L274.541 97.9062H275.549V104H274.541V99.4648H274.494L271.447 104ZM271.219 95.2695H271.969C271.969 95.6172 272.072 95.9062 272.279 96.1367C272.49 96.3672 272.766 96.4824 273.105 96.4824C273.445 96.4824 273.719 96.3672 273.926 96.1367C274.137 95.9062 274.242 95.6172 274.242 95.2695H274.992C274.992 95.8086 274.816 96.2461 274.465 96.582C274.117 96.918 273.664 97.0859 273.105 97.0859C272.547 97.0859 272.092 96.918 271.74 96.582C271.393 96.2461 271.219 95.8086 271.219 95.2695ZM243.527 110.801C244.309 110.801 244.938 111.088 245.414 111.662C245.895 112.236 246.135 113 246.135 113.953C246.135 114.902 245.896 115.666 245.42 116.244C244.943 116.818 244.32 117.105 243.551 117.105C243.121 117.105 242.736 117.008 242.396 116.812C242.057 116.617 241.795 116.35 241.611 116.01H241.588V119.033H240.568V110.906H241.535V111.938H241.559C241.75 111.586 242.018 111.309 242.361 111.105C242.705 110.902 243.094 110.801 243.527 110.801ZM243.328 116.209C243.871 116.209 244.301 116.006 244.617 115.6C244.934 115.193 245.092 114.645 245.092 113.953C245.092 113.262 244.934 112.713 244.617 112.307C244.301 111.9 243.871 111.697 243.328 111.697C242.805 111.697 242.383 111.904 242.062 112.318C241.742 112.732 241.582 113.277 241.582 113.953C241.582 114.633 241.742 115.18 242.062 115.594C242.383 116.004 242.805 116.209 243.328 116.209ZM251.045 114.047H247.201V113.098H251.045V114.047ZM256.424 117V114.258H253.418V117H252.41V110.906H253.418V113.42H256.424V110.906H257.432V117H256.424Z" fill="#C31844"/>
<path d="M292.605 173.141C291.438 173.141 290.51 172.748 289.822 171.963C289.139 171.174 288.797 170.109 288.797 168.77C288.797 167.441 289.143 166.383 289.834 165.594C290.525 164.801 291.449 164.404 292.605 164.404C293.504 164.404 294.27 164.65 294.902 165.143C295.539 165.631 295.936 166.281 296.092 167.094H295.014C294.861 166.57 294.566 166.154 294.129 165.846C293.691 165.533 293.184 165.377 292.605 165.377C291.781 165.377 291.121 165.686 290.625 166.303C290.129 166.92 289.881 167.742 289.881 168.77C289.881 169.809 290.127 170.635 290.619 171.248C291.111 171.861 291.775 172.168 292.611 172.168C293.209 172.168 293.717 172.035 294.135 171.77C294.553 171.504 294.846 171.129 295.014 170.645H296.092C295.885 171.449 295.48 172.066 294.879 172.496C294.277 172.926 293.52 173.141 292.605 173.141ZM299.824 173.105C298.973 173.105 298.289 172.822 297.773 172.256C297.258 171.686 297 170.918 297 169.953C297 168.988 297.258 168.223 297.773 167.656C298.289 167.086 298.973 166.801 299.824 166.801C300.672 166.801 301.354 167.086 301.869 167.656C302.385 168.223 302.643 168.988 302.643 169.953C302.643 170.914 302.385 171.68 301.869 172.25C301.354 172.82 300.672 173.105 299.824 173.105ZM298.518 171.611C298.842 172.01 299.277 172.209 299.824 172.209C300.371 172.209 300.805 172.012 301.125 171.617C301.445 171.219 301.605 170.664 301.605 169.953C301.605 169.242 301.445 168.689 301.125 168.295C300.805 167.896 300.371 167.697 299.824 167.697C299.277 167.697 298.842 167.896 298.518 168.295C298.197 168.693 298.037 169.246 298.037 169.953C298.037 170.66 298.197 171.213 298.518 171.611ZM306.24 167.732H304.781V169.438H306.088C306.846 169.438 307.225 169.148 307.225 168.57C307.225 168.301 307.141 168.094 306.973 167.949C306.805 167.805 306.561 167.732 306.24 167.732ZM306.17 170.258H304.781V172.174H306.352C306.719 172.174 307 172.094 307.195 171.934C307.391 171.77 307.488 171.533 307.488 171.225C307.488 170.58 307.049 170.258 306.17 170.258ZM303.773 173V166.906H306.381C306.951 166.906 307.4 167.045 307.729 167.322C308.057 167.6 308.221 167.98 308.221 168.465C308.221 168.773 308.123 169.055 307.928 169.309C307.736 169.562 307.5 169.719 307.219 169.777V169.824C307.602 169.879 307.908 170.035 308.139 170.293C308.373 170.551 308.49 170.869 308.49 171.248C308.49 171.787 308.303 172.215 307.928 172.531C307.557 172.844 307.047 173 306.398 173H303.773ZM312.105 167.686C311.633 167.686 311.24 167.85 310.928 168.178C310.619 168.502 310.449 168.92 310.418 169.432H313.729C313.717 168.916 313.562 168.496 313.266 168.172C312.969 167.848 312.582 167.686 312.105 167.686ZM313.705 171.254H314.707C314.617 171.793 314.336 172.236 313.863 172.584C313.395 172.932 312.83 173.105 312.17 173.105C311.299 173.105 310.613 172.824 310.113 172.262C309.613 171.699 309.363 170.938 309.363 169.977C309.363 169.023 309.613 168.256 310.113 167.674C310.617 167.092 311.287 166.801 312.123 166.801C312.943 166.801 313.592 167.076 314.068 167.627C314.545 168.178 314.783 168.916 314.783 169.842V170.229H310.412V170.287C310.412 170.873 310.572 171.342 310.893 171.693C311.213 172.045 311.646 172.221 312.193 172.221C312.576 172.221 312.902 172.133 313.172 171.957C313.441 171.781 313.619 171.547 313.705 171.254ZM320.139 166.906V167.744H318.17V173H317.162V167.744H315.193V166.906H320.139ZM326.01 168.781H325.002C324.908 168.465 324.73 168.205 324.469 168.002C324.207 167.799 323.873 167.697 323.467 167.697C322.936 167.697 322.51 167.904 322.189 168.318C321.869 168.729 321.709 169.273 321.709 169.953C321.709 170.645 321.869 171.193 322.189 171.6C322.514 172.006 322.943 172.209 323.479 172.209C323.877 172.209 324.207 172.115 324.469 171.928C324.734 171.74 324.916 171.477 325.014 171.137H326.021C325.92 171.723 325.639 172.197 325.178 172.561C324.717 172.924 324.148 173.105 323.473 173.105C322.621 173.105 321.941 172.822 321.434 172.256C320.926 171.686 320.672 170.918 320.672 169.953C320.672 169.004 320.926 168.242 321.434 167.668C321.941 167.09 322.617 166.801 323.461 166.801C324.16 166.801 324.734 166.992 325.184 167.375C325.637 167.758 325.912 168.227 326.01 168.781ZM329.15 169.789L332.08 173H330.768L328.137 170.07H328.09V173H327.082V166.906H328.09V169.602H328.137L330.738 166.906H331.998L329.15 169.789ZM333.938 173H332.93V166.906H333.938V171.441H333.984L337.031 166.906H338.039V173H337.031V168.465H336.984L333.938 173ZM340.477 173H339.469V166.906H340.477V171.441H340.523L343.57 166.906H344.578V173H343.57V168.465H343.523L340.477 173ZM340.248 164.27H340.998C340.998 164.617 341.102 164.906 341.309 165.137C341.52 165.367 341.795 165.482 342.135 165.482C342.475 165.482 342.748 165.367 342.955 165.137C343.166 164.906 343.271 164.617 343.271 164.27H344.021C344.021 164.809 343.846 165.246 343.494 165.582C343.146 165.918 342.693 166.086 342.135 166.086C341.576 166.086 341.121 165.918 340.77 165.582C340.422 165.246 340.248 164.809 340.248 164.27ZM312.527 179.801C313.309 179.801 313.938 180.088 314.414 180.662C314.895 181.236 315.135 182 315.135 182.953C315.135 183.902 314.896 184.666 314.42 185.244C313.943 185.818 313.32 186.105 312.551 186.105C312.121 186.105 311.736 186.008 311.396 185.812C311.057 185.617 310.795 185.35 310.611 185.01H310.588V188.033H309.568V179.906H310.535V180.938H310.559C310.75 180.586 311.018 180.309 311.361 180.105C311.705 179.902 312.094 179.801 312.527 179.801ZM312.328 185.209C312.871 185.209 313.301 185.006 313.617 184.6C313.934 184.193 314.092 183.645 314.092 182.953C314.092 182.262 313.934 181.713 313.617 181.307C313.301 180.9 312.871 180.697 312.328 180.697C311.805 180.697 311.383 180.904 311.062 181.318C310.742 181.732 310.582 182.277 310.582 182.953C310.582 183.633 310.742 184.18 311.062 184.594C311.383 185.004 311.805 185.209 312.328 185.209ZM320.045 183.047H316.201V182.098H320.045V183.047ZM325.424 186V183.258H322.418V186H321.41V179.906H322.418V182.42H325.424V179.906H326.432V186H325.424Z" fill="#C31844"/>
<path d="M151.229 143.588L155.465 148H154.018L150.115 143.893H150.068V148H149.014V139.545H150.068V143.441H150.115L153.748 139.545H155.072L151.229 143.588ZM158.154 147.238C158.635 147.238 159.037 147.09 159.361 146.793C159.689 146.492 159.854 146.123 159.854 145.686V145.188L158.225 145.287C157.814 145.314 157.496 145.414 157.27 145.586C157.047 145.758 156.936 145.988 156.936 146.277C156.936 146.566 157.047 146.799 157.27 146.975C157.492 147.15 157.787 147.238 158.154 147.238ZM157.926 148.105C157.32 148.105 156.83 147.938 156.455 147.602C156.084 147.266 155.898 146.824 155.898 146.277C155.898 145.754 156.09 145.336 156.473 145.023C156.859 144.711 157.404 144.535 158.107 144.496L159.854 144.396V143.887C159.854 143.516 159.736 143.225 159.502 143.014C159.268 142.803 158.939 142.697 158.518 142.697C158.131 142.697 157.816 142.783 157.574 142.955C157.332 143.123 157.178 143.359 157.111 143.664H156.127C156.162 143.121 156.396 142.676 156.83 142.328C157.268 141.977 157.838 141.801 158.541 141.801C159.256 141.801 159.822 141.98 160.24 142.34C160.662 142.699 160.873 143.182 160.873 143.787V148H159.906V146.951H159.883C159.699 147.299 159.43 147.578 159.074 147.789C158.719 148 158.336 148.105 157.926 148.105ZM162.279 148V141.906H163.287V147.162H165.537V141.906H166.545V147.162H168.795V141.906H169.803V148H162.279ZM173.248 147.238C173.729 147.238 174.131 147.09 174.455 146.793C174.783 146.492 174.947 146.123 174.947 145.686V145.188L173.318 145.287C172.908 145.314 172.59 145.414 172.363 145.586C172.141 145.758 172.029 145.988 172.029 146.277C172.029 146.566 172.141 146.799 172.363 146.975C172.586 147.15 172.881 147.238 173.248 147.238ZM173.02 148.105C172.414 148.105 171.924 147.938 171.549 147.602C171.178 147.266 170.992 146.824 170.992 146.277C170.992 145.754 171.184 145.336 171.566 145.023C171.953 144.711 172.498 144.535 173.201 144.496L174.947 144.396V143.887C174.947 143.516 174.83 143.225 174.596 143.014C174.361 142.803 174.033 142.697 173.611 142.697C173.225 142.697 172.91 142.783 172.668 142.955C172.426 143.123 172.271 143.359 172.205 143.664H171.221C171.256 143.121 171.49 142.676 171.924 142.328C172.361 141.977 172.932 141.801 173.635 141.801C174.35 141.801 174.916 141.98 175.334 142.34C175.756 142.699 175.967 143.182 175.967 143.787V148H175V146.951H174.977C174.793 147.299 174.523 147.578 174.168 147.789C173.812 148 173.43 148.105 173.02 148.105ZM180.338 141.801C181.119 141.801 181.748 142.088 182.225 142.662C182.705 143.236 182.945 144 182.945 144.953C182.945 145.902 182.707 146.666 182.23 147.244C181.754 147.818 181.131 148.105 180.361 148.105C179.932 148.105 179.547 148.008 179.207 147.812C178.867 147.617 178.605 147.35 178.422 147.01H178.398V150.033H177.379V141.906H178.346V142.938H178.369C178.561 142.586 178.828 142.309 179.172 142.105C179.516 141.902 179.904 141.801 180.338 141.801ZM180.139 147.209C180.682 147.209 181.111 147.006 181.428 146.6C181.744 146.193 181.902 145.645 181.902 144.953C181.902 144.262 181.744 143.713 181.428 143.307C181.111 142.9 180.682 142.697 180.139 142.697C179.615 142.697 179.193 142.904 178.873 143.318C178.553 143.732 178.393 144.277 178.393 144.953C178.393 145.633 178.553 146.18 178.873 146.594C179.193 147.004 179.615 147.209 180.139 147.209ZM189.121 143.781H188.113C188.02 143.465 187.842 143.205 187.58 143.002C187.318 142.799 186.984 142.697 186.578 142.697C186.047 142.697 185.621 142.904 185.301 143.318C184.98 143.729 184.82 144.273 184.82 144.953C184.82 145.645 184.98 146.193 185.301 146.6C185.625 147.006 186.055 147.209 186.59 147.209C186.988 147.209 187.318 147.115 187.58 146.928C187.846 146.74 188.027 146.477 188.125 146.137H189.133C189.031 146.723 188.75 147.197 188.289 147.561C187.828 147.924 187.26 148.105 186.584 148.105C185.732 148.105 185.053 147.822 184.545 147.256C184.037 146.686 183.783 145.918 183.783 144.953C183.783 144.004 184.037 143.242 184.545 142.668C185.053 142.09 185.729 141.801 186.572 141.801C187.271 141.801 187.846 141.992 188.295 142.375C188.748 142.758 189.023 143.227 189.121 143.781ZM192.262 144.789L195.191 148H193.879L191.248 145.07H191.201V148H190.193V141.906H191.201V144.602H191.248L193.85 141.906H195.109L192.262 144.789ZM197.049 148H196.041V141.906H197.049V146.441H197.096L200.143 141.906H201.15V148H200.143V143.465H200.096L197.049 148ZM203.588 148H202.58V141.906H203.588V146.441H203.635L206.682 141.906H207.689V148H206.682V143.465H206.635L203.588 148ZM203.359 139.27H204.109C204.109 139.617 204.213 139.906 204.42 140.137C204.631 140.367 204.906 140.482 205.246 140.482C205.586 140.482 205.859 140.367 206.066 140.137C206.277 139.906 206.383 139.617 206.383 139.27H207.133C207.133 139.809 206.957 140.246 206.605 140.582C206.258 140.918 205.805 141.086 205.246 141.086C204.688 141.086 204.232 140.918 203.881 140.582C203.533 140.246 203.359 139.809 203.359 139.27ZM174.027 154.801C174.809 154.801 175.438 155.088 175.914 155.662C176.395 156.236 176.635 157 176.635 157.953C176.635 158.902 176.396 159.666 175.92 160.244C175.443 160.818 174.82 161.105 174.051 161.105C173.621 161.105 173.236 161.008 172.896 160.812C172.557 160.617 172.295 160.35 172.111 160.01H172.088V163.033H171.068V154.906H172.035V155.938H172.059C172.25 155.586 172.518 155.309 172.861 155.105C173.205 154.902 173.594 154.801 174.027 154.801ZM173.828 160.209C174.371 160.209 174.801 160.006 175.117 159.6C175.434 159.193 175.592 158.645 175.592 157.953C175.592 157.262 175.434 156.713 175.117 156.307C174.801 155.9 174.371 155.697 173.828 155.697C173.305 155.697 172.883 155.904 172.562 156.318C172.242 156.732 172.082 157.277 172.082 157.953C172.082 158.633 172.242 159.18 172.562 159.594C172.883 160.004 173.305 160.209 173.828 160.209ZM181.545 158.047H177.701V157.098H181.545V158.047ZM186.924 161V158.258H183.918V161H182.91V154.906H183.918V157.42H186.924V154.906H187.932V161H186.924Z" fill="#C31844"/>
<path d="M22.373 152H21.3887V145.484H21.3477L18.6523 151.941H17.7617L15.0664 145.484H15.0254V152H14.041V143.545H15.2656L18.1836 150.6H18.2305L21.1484 143.545H22.373V152ZM24.9746 152H23.9668V145.906H24.9746V150.441H25.0215L28.0684 145.906H29.0762V152H28.0684V147.465H28.0215L24.9746 152ZM32.1348 149.311C32.1074 149.662 32.0684 149.973 32.0176 150.242C31.9707 150.512 31.9023 150.764 31.8125 150.998C31.7227 151.232 31.6113 151.426 31.4785 151.578C31.3496 151.727 31.1875 151.844 30.9922 151.93C30.8008 152.012 30.5781 152.053 30.3242 152.053C30.1836 152.053 30.0625 152.031 29.9609 151.988V151.068C30.0547 151.1 30.1582 151.115 30.2715 151.115C30.5566 151.115 30.7695 150.961 30.9102 150.652C31.0508 150.34 31.1406 149.885 31.1797 149.287L31.4141 145.906H35.4043V152H34.3965V146.744H32.3223L32.1348 149.311ZM38.4746 149.311C38.4473 149.662 38.4082 149.973 38.3574 150.242C38.3105 150.512 38.2422 150.764 38.1523 150.998C38.0625 151.232 37.9512 151.426 37.8184 151.578C37.6895 151.727 37.5273 151.844 37.332 151.93C37.1406 152.012 36.918 152.053 36.6641 152.053C36.5234 152.053 36.4023 152.031 36.3008 151.988V151.068C36.3945 151.1 36.498 151.115 36.6113 151.115C36.8965 151.115 37.1094 150.961 37.25 150.652C37.3906 150.34 37.4805 149.885 37.5195 149.287L37.7539 145.906H41.7441V152H40.7363V146.744H38.6621L38.4746 149.311ZM45.6348 146.686C45.1621 146.686 44.7695 146.85 44.457 147.178C44.1484 147.502 43.9785 147.92 43.9473 148.432H47.2578C47.2461 147.916 47.0918 147.496 46.7949 147.172C46.498 146.848 46.1113 146.686 45.6348 146.686ZM47.2344 150.254H48.2363C48.1465 150.793 47.8652 151.236 47.3926 151.584C46.9238 151.932 46.3594 152.105 45.6992 152.105C44.8281 152.105 44.1426 151.824 43.6426 151.262C43.1426 150.699 42.8926 149.938 42.8926 148.977C42.8926 148.023 43.1426 147.256 43.6426 146.674C44.1465 146.092 44.8164 145.801 45.6523 145.801C46.4727 145.801 47.1211 146.076 47.5977 146.627C48.0742 147.178 48.3125 147.916 48.3125 148.842V149.229H43.9414V149.287C43.9414 149.873 44.1016 150.342 44.4219 150.693C44.7422 151.045 45.1758 151.221 45.7227 151.221C46.1055 151.221 46.4316 151.133 46.7012 150.957C46.9707 150.781 47.1484 150.547 47.2344 150.254ZM52.4082 145.801C53.1895 145.801 53.8184 146.088 54.2949 146.662C54.7754 147.236 55.0156 148 55.0156 148.953C55.0156 149.902 54.7773 150.666 54.3008 151.244C53.8242 151.818 53.2012 152.105 52.4316 152.105C52.002 152.105 51.6172 152.008 51.2773 151.812C50.9375 151.617 50.6758 151.35 50.4922 151.01H50.4688V154.033H49.4492V145.906H50.416V146.938H50.4395C50.6309 146.586 50.8984 146.309 51.2422 146.105C51.5859 145.902 51.9746 145.801 52.4082 145.801ZM52.209 151.209C52.752 151.209 53.1816 151.006 53.498 150.6C53.8145 150.193 53.9727 149.645 53.9727 148.953C53.9727 148.262 53.8145 147.713 53.498 147.307C53.1816 146.9 52.752 146.697 52.209 146.697C51.6855 146.697 51.2637 146.904 50.9434 147.318C50.623 147.732 50.4629 148.277 50.4629 148.953C50.4629 149.633 50.623 150.18 50.9434 150.594C51.2637 151.004 51.6855 151.209 52.209 151.209ZM58.6777 152.105C57.8262 152.105 57.1426 151.822 56.627 151.256C56.1113 150.686 55.8535 149.918 55.8535 148.953C55.8535 147.988 56.1113 147.223 56.627 146.656C57.1426 146.086 57.8262 145.801 58.6777 145.801C59.5254 145.801 60.207 146.086 60.7227 146.656C61.2383 147.223 61.4961 147.988 61.4961 148.953C61.4961 149.914 61.2383 150.68 60.7227 151.25C60.207 151.82 59.5254 152.105 58.6777 152.105ZM57.3711 150.611C57.6953 151.01 58.1309 151.209 58.6777 151.209C59.2246 151.209 59.6582 151.012 59.9785 150.617C60.2988 150.219 60.459 149.664 60.459 148.953C60.459 148.242 60.2988 147.689 59.9785 147.295C59.6582 146.896 59.2246 146.697 58.6777 146.697C58.1309 146.697 57.6953 146.896 57.3711 147.295C57.0508 147.693 56.8906 148.246 56.8906 148.953C56.8906 149.66 57.0508 150.213 57.3711 150.611ZM65.0938 146.732H63.6348V148.438H64.9414C65.6992 148.438 66.0781 148.148 66.0781 147.57C66.0781 147.301 65.9941 147.094 65.8262 146.949C65.6582 146.805 65.4141 146.732 65.0938 146.732ZM65.0234 149.258H63.6348V151.174H65.2051C65.5723 151.174 65.8535 151.094 66.0488 150.934C66.2441 150.77 66.3418 150.533 66.3418 150.225C66.3418 149.58 65.9023 149.258 65.0234 149.258ZM62.627 152V145.906H65.2344C65.8047 145.906 66.2539 146.045 66.582 146.322C66.9102 146.6 67.0742 146.98 67.0742 147.465C67.0742 147.773 66.9766 148.055 66.7812 148.309C66.5898 148.562 66.3535 148.719 66.0723 148.777V148.824C66.4551 148.879 66.7617 149.035 66.9922 149.293C67.2266 149.551 67.3438 149.869 67.3438 150.248C67.3438 150.787 67.1562 151.215 66.7812 151.531C66.4102 151.844 65.9004 152 65.252 152H62.627ZM73.5547 147.781H72.5469C72.4531 147.465 72.2754 147.205 72.0137 147.002C71.752 146.799 71.418 146.697 71.0117 146.697C70.4805 146.697 70.0547 146.904 69.7344 147.318C69.4141 147.729 69.2539 148.273 69.2539 148.953C69.2539 149.645 69.4141 150.193 69.7344 150.6C70.0586 151.006 70.4883 151.209 71.0234 151.209C71.4219 151.209 71.752 151.115 72.0137 150.928C72.2793 150.74 72.4609 150.477 72.5586 150.137H73.5664C73.4648 150.723 73.1836 151.197 72.7227 151.561C72.2617 151.924 71.6934 152.105 71.0176 152.105C70.166 152.105 69.4863 151.822 68.9785 151.256C68.4707 150.686 68.2168 149.918 68.2168 148.953C68.2168 148.004 68.4707 147.242 68.9785 146.668C69.4863 146.09 70.1621 145.801 71.0059 145.801C71.7051 145.801 72.2793 145.992 72.7285 146.375C73.1816 146.758 73.457 147.227 73.5547 147.781ZM76.6953 148.789L79.625 152H78.3125L75.6816 149.07H75.6348V152H74.627V145.906H75.6348V148.602H75.6816L78.2832 145.906H79.543L76.6953 148.789ZM81.4824 152H80.4746V145.906H81.4824V150.441H81.5293L84.5762 145.906H85.584V152H84.5762V147.465H84.5293L81.4824 152ZM88.0215 152H87.0137V145.906H88.0215V150.441H88.0684L91.1152 145.906H92.123V152H91.1152V147.465H91.0684L88.0215 152ZM87.793 143.27H88.543C88.543 143.617 88.6465 143.906 88.8535 144.137C89.0645 144.367 89.3398 144.482 89.6797 144.482C90.0195 144.482 90.293 144.367 90.5 144.137C90.7109 143.906 90.8164 143.617 90.8164 143.27H91.5664C91.5664 143.809 91.3906 144.246 91.0391 144.582C90.6914 144.918 90.2383 145.086 89.6797 145.086C89.1211 145.086 88.666 144.918 88.3145 144.582C87.9668 144.246 87.793 143.809 87.793 143.27ZM47.5273 158.801C48.3086 158.801 48.9375 159.088 49.4141 159.662C49.8945 160.236 50.1348 161 50.1348 161.953C50.1348 162.902 49.8965 163.666 49.4199 164.244C48.9434 164.818 48.3203 165.105 47.5508 165.105C47.1211 165.105 46.7363 165.008 46.3965 164.812C46.0566 164.617 45.7949 164.35 45.6113 164.01H45.5879V167.033H44.5684V158.906H45.5352V159.938H45.5586C45.75 159.586 46.0176 159.309 46.3613 159.105C46.7051 158.902 47.0938 158.801 47.5273 158.801ZM47.3281 164.209C47.8711 164.209 48.3008 164.006 48.6172 163.6C48.9336 163.193 49.0918 162.645 49.0918 161.953C49.0918 161.262 48.9336 160.713 48.6172 160.307C48.3008 159.9 47.8711 159.697 47.3281 159.697C46.8047 159.697 46.3828 159.904 46.0625 160.318C45.7422 160.732 45.582 161.277 45.582 161.953C45.582 162.633 45.7422 163.18 46.0625 163.594C46.3828 164.004 46.8047 164.209 47.3281 164.209ZM55.0449 162.047H51.2012V161.098H55.0449V162.047ZM60.4238 165V162.258H57.418V165H56.4102V158.906H57.418V161.42H60.4238V158.906H61.4316V165H60.4238Z" fill="#C31844"/>
<path d="M4.47656 226H3.42188V218.494H0.755859V217.545H7.14258V218.494H4.47656V226ZM9.05273 225.238C9.5332 225.238 9.93555 225.09 10.2598 224.793C10.5879 224.492 10.752 224.123 10.752 223.686V223.188L9.12305 223.287C8.71289 223.314 8.39453 223.414 8.16797 223.586C7.94531 223.758 7.83398 223.988 7.83398 224.277C7.83398 224.566 7.94531 224.799 8.16797 224.975C8.39062 225.15 8.68555 225.238 9.05273 225.238ZM8.82422 226.105C8.21875 226.105 7.72852 225.938 7.35352 225.602C6.98242 225.266 6.79688 224.824 6.79688 224.277C6.79688 223.754 6.98828 223.336 7.37109 223.023C7.75781 222.711 8.30273 222.535 9.00586 222.496L10.752 222.396V221.887C10.752 221.516 10.6348 221.225 10.4004 221.014C10.166 220.803 9.83789 220.697 9.41602 220.697C9.0293 220.697 8.71484 220.783 8.47266 220.955C8.23047 221.123 8.07617 221.359 8.00977 221.664H7.02539C7.06055 221.121 7.29492 220.676 7.72852 220.328C8.16602 219.977 8.73633 219.801 9.43945 219.801C10.1543 219.801 10.7207 219.98 11.1387 220.34C11.5605 220.699 11.7715 221.182 11.7715 221.787V226H10.8047V224.951H10.7812C10.5977 225.299 10.3281 225.578 9.97266 225.789C9.61719 226 9.23438 226.105 8.82422 226.105ZM16.1426 219.801C16.9238 219.801 17.5527 220.088 18.0293 220.662C18.5098 221.236 18.75 222 18.75 222.953C18.75 223.902 18.5117 224.666 18.0352 225.244C17.5586 225.818 16.9355 226.105 16.166 226.105C15.7363 226.105 15.3516 226.008 15.0117 225.812C14.6719 225.617 14.4102 225.35 14.2266 225.01H14.2031V228.033H13.1836V219.906H14.1504V220.938H14.1738C14.3652 220.586 14.6328 220.309 14.9766 220.105C15.3203 219.902 15.709 219.801 16.1426 219.801ZM15.9434 225.209C16.4863 225.209 16.916 225.006 17.2324 224.6C17.5488 224.193 17.707 223.645 17.707 222.953C17.707 222.262 17.5488 221.713 17.2324 221.307C16.916 220.9 16.4863 220.697 15.9434 220.697C15.4199 220.697 14.998 220.904 14.6777 221.318C14.3574 221.732 14.1973 222.277 14.1973 222.953C14.1973 223.633 14.3574 224.18 14.6777 224.594C14.998 225.004 15.4199 225.209 15.9434 225.209ZM21.8965 225.238C22.377 225.238 22.7793 225.09 23.1035 224.793C23.4316 224.492 23.5957 224.123 23.5957 223.686V223.188L21.9668 223.287C21.5566 223.314 21.2383 223.414 21.0117 223.586C20.7891 223.758 20.6777 223.988 20.6777 224.277C20.6777 224.566 20.7891 224.799 21.0117 224.975C21.2344 225.15 21.5293 225.238 21.8965 225.238ZM21.668 226.105C21.0625 226.105 20.5723 225.938 20.1973 225.602C19.8262 225.266 19.6406 224.824 19.6406 224.277C19.6406 223.754 19.832 223.336 20.2148 223.023C20.6016 222.711 21.1465 222.535 21.8496 222.496L23.5957 222.396V221.887C23.5957 221.516 23.4785 221.225 23.2441 221.014C23.0098 220.803 22.6816 220.697 22.2598 220.697C21.873 220.697 21.5586 220.783 21.3164 220.955C21.0742 221.123 20.9199 221.359 20.8535 221.664H19.8691C19.9043 221.121 20.1387 220.676 20.5723 220.328C21.0098 219.977 21.5801 219.801 22.2832 219.801C22.998 219.801 23.5645 219.98 23.9824 220.34C24.4043 220.699 24.6152 221.182 24.6152 221.787V226H23.6484V224.951H23.625C23.4414 225.299 23.1719 225.578 22.8164 225.789C22.4609 226 22.0781 226.105 21.668 226.105ZM31.0664 221.781H30.0586C29.9648 221.465 29.7871 221.205 29.5254 221.002C29.2637 220.799 28.9297 220.697 28.5234 220.697C27.9922 220.697 27.5664 220.904 27.2461 221.318C26.9258 221.729 26.7656 222.273 26.7656 222.953C26.7656 223.645 26.9258 224.193 27.2461 224.6C27.5703 225.006 28 225.209 28.5352 225.209C28.9336 225.209 29.2637 225.115 29.5254 224.928C29.791 224.74 29.9727 224.477 30.0703 224.137H31.0781C30.9766 224.723 30.6953 225.197 30.2344 225.561C29.7734 225.924 29.2051 226.105 28.5293 226.105C27.6777 226.105 26.998 225.822 26.4902 225.256C25.9824 224.686 25.7285 223.918 25.7285 222.953C25.7285 222.004 25.9824 221.242 26.4902 220.668C26.998 220.09 27.6738 219.801 28.5176 219.801C29.2168 219.801 29.791 219.992 30.2402 220.375C30.6934 220.758 30.9688 221.227 31.0664 221.781ZM34.6699 226.105C33.8184 226.105 33.1348 225.822 32.6191 225.256C32.1035 224.686 31.8457 223.918 31.8457 222.953C31.8457 221.988 32.1035 221.223 32.6191 220.656C33.1348 220.086 33.8184 219.801 34.6699 219.801C35.5176 219.801 36.1992 220.086 36.7148 220.656C37.2305 221.223 37.4883 221.988 37.4883 222.953C37.4883 223.914 37.2305 224.68 36.7148 225.25C36.1992 225.82 35.5176 226.105 34.6699 226.105ZM33.3633 224.611C33.6875 225.01 34.123 225.209 34.6699 225.209C35.2168 225.209 35.6504 225.012 35.9707 224.617C36.291 224.219 36.4512 223.664 36.4512 222.953C36.4512 222.242 36.291 221.689 35.9707 221.295C35.6504 220.896 35.2168 220.697 34.6699 220.697C34.123 220.697 33.6875 220.896 33.3633 221.295C33.043 221.693 32.8828 222.246 32.8828 222.953C32.8828 223.66 33.043 224.213 33.3633 224.611ZM41.0859 220.732H39.627V222.438H40.9336C41.6914 222.438 42.0703 222.148 42.0703 221.57C42.0703 221.301 41.9863 221.094 41.8184 220.949C41.6504 220.805 41.4062 220.732 41.0859 220.732ZM41.0156 223.258H39.627V225.174H41.1973C41.5645 225.174 41.8457 225.094 42.041 224.934C42.2363 224.77 42.334 224.533 42.334 224.225C42.334 223.58 41.8945 223.258 41.0156 223.258ZM38.6191 226V219.906H41.2266C41.7969 219.906 42.2461 220.045 42.5742 220.322C42.9023 220.6 43.0664 220.98 43.0664 221.465C43.0664 221.773 42.9688 222.055 42.7734 222.309C42.582 222.562 42.3457 222.719 42.0645 222.777V222.824C42.4473 222.879 42.7539 223.035 42.9844 223.293C43.2188 223.551 43.3359 223.869 43.3359 224.248C43.3359 224.787 43.1484 225.215 42.7734 225.531C42.4023 225.844 41.8926 226 41.2441 226H38.6191ZM49.5469 221.781H48.5391C48.4453 221.465 48.2676 221.205 48.0059 221.002C47.7441 220.799 47.4102 220.697 47.0039 220.697C46.4727 220.697 46.0469 220.904 45.7266 221.318C45.4062 221.729 45.2461 222.273 45.2461 222.953C45.2461 223.645 45.4062 224.193 45.7266 224.6C46.0508 225.006 46.4805 225.209 47.0156 225.209C47.4141 225.209 47.7441 225.115 48.0059 224.928C48.2715 224.74 48.4531 224.477 48.5508 224.137H49.5586C49.457 224.723 49.1758 225.197 48.7148 225.561C48.2539 225.924 47.6855 226.105 47.0098 226.105C46.1582 226.105 45.4785 225.822 44.9707 225.256C44.4629 224.686 44.209 223.918 44.209 222.953C44.209 222.004 44.4629 221.242 44.9707 220.668C45.4785 220.09 46.1543 219.801 46.998 219.801C47.6973 219.801 48.2715 219.992 48.7207 220.375C49.1738 220.758 49.4492 221.227 49.5469 221.781ZM52.6875 222.789L55.6172 226H54.3047L51.6738 223.07H51.627V226H50.6191V219.906H51.627V222.602H51.6738L54.2754 219.906H55.5352L52.6875 222.789ZM57.4746 226H56.4668V219.906H57.4746V224.441H57.5215L60.5684 219.906H61.5762V226H60.5684V221.465H60.5215L57.4746 226ZM64.0137 226H63.0059V219.906H64.0137V224.441H64.0605L67.1074 219.906H68.1152V226H67.1074V221.465H67.0605L64.0137 226ZM63.7852 217.27H64.5352C64.5352 217.617 64.6387 217.906 64.8457 218.137C65.0566 218.367 65.332 218.482 65.6719 218.482C66.0117 218.482 66.2852 218.367 66.4922 218.137C66.7031 217.906 66.8086 217.617 66.8086 217.27H67.5586C67.5586 217.809 67.3828 218.246 67.0312 218.582C66.6836 218.918 66.2305 219.086 65.6719 219.086C65.1133 219.086 64.6582 218.918 64.3066 218.582C63.959 218.246 63.7852 217.809 63.7852 217.27ZM74.9707 219.801C75.752 219.801 76.3809 220.088 76.8574 220.662C77.3379 221.236 77.5781 222 77.5781 222.953C77.5781 223.902 77.3398 224.666 76.8633 225.244C76.3867 225.818 75.7637 226.105 74.9941 226.105C74.5645 226.105 74.1797 226.008 73.8398 225.812C73.5 225.617 73.2383 225.35 73.0547 225.01H73.0312V228.033H72.0117V219.906H72.9785V220.938H73.002C73.1934 220.586 73.4609 220.309 73.8047 220.105C74.1484 219.902 74.5371 219.801 74.9707 219.801ZM74.7715 225.209C75.3145 225.209 75.7441 225.006 76.0605 224.6C76.377 224.193 76.5352 223.645 76.5352 222.953C76.5352 222.262 76.377 221.713 76.0605 221.307C75.7441 220.9 75.3145 220.697 74.7715 220.697C74.248 220.697 73.8262 220.904 73.5059 221.318C73.1855 221.732 73.0254 222.277 73.0254 222.953C73.0254 223.633 73.1855 224.18 73.5059 224.594C73.8262 225.004 74.248 225.209 74.7715 225.209ZM82.4883 223.047H78.6445V222.098H82.4883V223.047ZM87.8672 226V223.258H84.8613V226H83.8535V219.906H84.8613V222.42H87.8672V219.906H88.875V226H87.8672Z" fill="#C31844"/>
<path d="M39.4902 55H38.4355V51.2031H38.3418C37.7871 51.6406 37.1133 51.8594 36.3203 51.8594C35.8008 51.8594 35.334 51.7793 34.9199 51.6191C34.5059 51.459 34.166 51.2383 33.9004 50.957C33.6387 50.6719 33.4375 50.3438 33.2969 49.9727C33.1602 49.5977 33.0918 49.1914 33.0918 48.7539V46.5449H34.1465V48.7598C34.1465 49.4199 34.334 49.9395 34.709 50.3184C35.0879 50.6973 35.625 50.8867 36.3203 50.8867C36.7578 50.8867 37.1602 50.8145 37.5273 50.6699C37.8945 50.5215 38.1973 50.3281 38.4355 50.0898V46.5449H39.4902V55ZM43.5391 49.6855C43.0664 49.6855 42.6738 49.8496 42.3613 50.1777C42.0527 50.502 41.8828 50.9199 41.8516 51.4316H45.1621C45.1504 50.916 44.9961 50.4961 44.6992 50.1719C44.4023 49.8477 44.0156 49.6855 43.5391 49.6855ZM45.1387 53.2539H46.1406C46.0508 53.793 45.7695 54.2363 45.2969 54.584C44.8281 54.9316 44.2637 55.1055 43.6035 55.1055C42.7324 55.1055 42.0469 54.8242 41.5469 54.2617C41.0469 53.6992 40.7969 52.9375 40.7969 51.9766C40.7969 51.0234 41.0469 50.2559 41.5469 49.6738C42.0508 49.0918 42.7207 48.8008 43.5566 48.8008C44.377 48.8008 45.0254 49.0762 45.502 49.627C45.9785 50.1777 46.2168 50.916 46.2168 51.8418V52.2285H41.8457V52.2871C41.8457 52.873 42.0059 53.3418 42.3262 53.6934C42.6465 54.0449 43.0801 54.2207 43.627 54.2207C44.0098 54.2207 44.3359 54.1328 44.6055 53.957C44.875 53.7812 45.0527 53.5469 45.1387 53.2539ZM50.3125 48.8008C51.0938 48.8008 51.7227 49.0879 52.1992 49.6621C52.6797 50.2363 52.9199 51 52.9199 51.9531C52.9199 52.9023 52.6816 53.666 52.2051 54.2441C51.7285 54.8184 51.1055 55.1055 50.3359 55.1055C49.9062 55.1055 49.5215 55.0078 49.1816 54.8125C48.8418 54.6172 48.5801 54.3496 48.3965 54.0098H48.373V57.0332H47.3535V48.9062H48.3203V49.9375H48.3438C48.5352 49.5859 48.8027 49.3086 49.1465 49.1055C49.4902 48.9023 49.8789 48.8008 50.3125 48.8008ZM50.1133 54.209C50.6562 54.209 51.0859 54.0059 51.4023 53.5996C51.7188 53.1934 51.877 52.6445 51.877 51.9531C51.877 51.2617 51.7188 50.7129 51.4023 50.3066C51.0859 49.9004 50.6562 49.6973 50.1133 49.6973C49.5898 49.6973 49.168 49.9043 48.8477 50.3184C48.5273 50.7324 48.3672 51.2773 48.3672 51.9531C48.3672 52.6328 48.5273 53.1797 48.8477 53.5938C49.168 54.0039 49.5898 54.209 50.1133 54.209ZM58.2754 48.9062V49.7441H56.3066V55H55.2988V49.7441H53.3301V48.9062H58.2754ZM61.2871 51.7891L64.2168 55H62.9043L60.2734 52.0703H60.2266V55H59.2188V48.9062H60.2266V51.6016H60.2734L62.875 48.9062H64.1348L61.2871 51.7891ZM67.4805 55.1055C66.6289 55.1055 65.9453 54.8223 65.4297 54.2559C64.9141 53.6855 64.6562 52.918 64.6562 51.9531C64.6562 50.9883 64.9141 50.2227 65.4297 49.6562C65.9453 49.0859 66.6289 48.8008 67.4805 48.8008C68.3281 48.8008 69.0098 49.0859 69.5254 49.6562C70.041 50.2227 70.2988 50.9883 70.2988 51.9531C70.2988 52.9141 70.041 53.6797 69.5254 54.25C69.0098 54.8203 68.3281 55.1055 67.4805 55.1055ZM66.1738 53.6113C66.498 54.0098 66.9336 54.209 67.4805 54.209C68.0273 54.209 68.4609 54.0117 68.7812 53.6172C69.1016 53.2188 69.2617 52.6641 69.2617 51.9531C69.2617 51.2422 69.1016 50.6895 68.7812 50.2949C68.4609 49.8965 68.0273 49.6973 67.4805 49.6973C66.9336 49.6973 66.498 49.8965 66.1738 50.2949C65.8535 50.6934 65.6934 51.2461 65.6934 51.9531C65.6934 52.6602 65.8535 53.2129 66.1738 53.6113ZM73.8965 49.7324H72.4375V51.4375H73.7441C74.502 51.4375 74.8809 51.1484 74.8809 50.5703C74.8809 50.3008 74.7969 50.0938 74.6289 49.9492C74.4609 49.8047 74.2168 49.7324 73.8965 49.7324ZM73.8262 52.2578H72.4375V54.1738H74.0078C74.375 54.1738 74.6562 54.0938 74.8516 53.9336C75.0469 53.7695 75.1445 53.5332 75.1445 53.2246C75.1445 52.5801 74.7051 52.2578 73.8262 52.2578ZM71.4297 55V48.9062H74.0371C74.6074 48.9062 75.0566 49.0449 75.3848 49.3223C75.7129 49.5996 75.877 49.9805 75.877 50.4648C75.877 50.7734 75.7793 51.0547 75.584 51.3086C75.3926 51.5625 75.1562 51.7188 74.875 51.7773V51.8242C75.2578 51.8789 75.5645 52.0352 75.7949 52.293C76.0293 52.5508 76.1465 52.8691 76.1465 53.248C76.1465 53.7871 75.959 54.2148 75.584 54.5312C75.2129 54.8438 74.7031 55 74.0547 55H71.4297ZM82.3574 50.7812H81.3496C81.2559 50.4648 81.0781 50.2051 80.8164 50.002C80.5547 49.7988 80.2207 49.6973 79.8145 49.6973C79.2832 49.6973 78.8574 49.9043 78.5371 50.3184C78.2168 50.7285 78.0566 51.2734 78.0566 51.9531C78.0566 52.6445 78.2168 53.1934 78.5371 53.5996C78.8613 54.0059 79.291 54.209 79.8262 54.209C80.2246 54.209 80.5547 54.1152 80.8164 53.9277C81.082 53.7402 81.2637 53.4766 81.3613 53.1367H82.3691C82.2676 53.7227 81.9863 54.1973 81.5254 54.5605C81.0645 54.9238 80.4961 55.1055 79.8203 55.1055C78.9688 55.1055 78.2891 54.8223 77.7812 54.2559C77.2734 53.6855 77.0195 52.918 77.0195 51.9531C77.0195 51.0039 77.2734 50.2422 77.7812 49.668C78.2891 49.0898 78.9648 48.8008 79.8086 48.8008C80.5078 48.8008 81.082 48.9922 81.5312 49.375C81.9844 49.7578 82.2598 50.2266 82.3574 50.7812ZM85.498 51.7891L88.4277 55H87.1152L84.4844 52.0703H84.4375V55H83.4297V48.9062H84.4375V51.6016H84.4844L87.0859 48.9062H88.3457L85.498 51.7891ZM90.2852 55H89.2773V48.9062H90.2852V53.4414H90.332L93.3789 48.9062H94.3867V55H93.3789V50.4648H93.332L90.2852 55ZM96.8242 55H95.8164V48.9062H96.8242V53.4414H96.8711L99.918 48.9062H100.926V55H99.918V50.4648H99.8711L96.8242 55ZM96.5957 46.2695H97.3457C97.3457 46.6172 97.4492 46.9062 97.6562 47.1367C97.8672 47.3672 98.1426 47.4824 98.4824 47.4824C98.8223 47.4824 99.0957 47.3672 99.3027 47.1367C99.5137 46.9062 99.6191 46.6172 99.6191 46.2695H100.369C100.369 46.8086 100.193 47.2461 99.8418 47.582C99.4941 47.918 99.041 48.0859 98.4824 48.0859C97.9238 48.0859 97.4688 47.918 97.1172 47.582C96.7695 47.2461 96.5957 46.8086 96.5957 46.2695ZM61.5273 61.8008C62.3086 61.8008 62.9375 62.0879 63.4141 62.6621C63.8945 63.2363 64.1348 64 64.1348 64.9531C64.1348 65.9023 63.8965 66.666 63.4199 67.2441C62.9434 67.8184 62.3203 68.1055 61.5508 68.1055C61.1211 68.1055 60.7363 68.0078 60.3965 67.8125C60.0566 67.6172 59.7949 67.3496 59.6113 67.0098H59.5879V70.0332H58.5684V61.9062H59.5352V62.9375H59.5586C59.75 62.5859 60.0176 62.3086 60.3613 62.1055C60.7051 61.9023 61.0938 61.8008 61.5273 61.8008ZM61.3281 67.209C61.8711 67.209 62.3008 67.0059 62.6172 66.5996C62.9336 66.1934 63.0918 65.6445 63.0918 64.9531C63.0918 64.2617 62.9336 63.7129 62.6172 63.3066C62.3008 62.9004 61.8711 62.6973 61.3281 62.6973C60.8047 62.6973 60.3828 62.9043 60.0625 63.3184C59.7422 63.7324 59.582 64.2773 59.582 64.9531C59.582 65.6328 59.7422 66.1797 60.0625 66.5938C60.3828 67.0039 60.8047 67.209 61.3281 67.209ZM69.0449 65.0469H65.2012V64.0977H69.0449V65.0469ZM74.4238 68V65.2578H71.418V68H70.4102V61.9062H71.418V64.4199H74.4238V61.9062H75.4316V68H74.4238Z" fill="#C31844"/>
<path d="M109.193 11H106V2.54492H109.205C109.928 2.54492 110.512 2.73828 110.957 3.125C111.406 3.51172 111.631 4.02148 111.631 4.6543C111.631 5.0957 111.488 5.49609 111.203 5.85547C110.922 6.21094 110.578 6.42578 110.172 6.5V6.54688C110.746 6.62109 111.203 6.8457 111.543 7.2207C111.887 7.5957 112.059 8.06445 112.059 8.62695C112.059 9.37305 111.805 9.95508 111.297 10.373C110.793 10.791 110.092 11 109.193 11ZM107.055 3.47656V6.18945H108.637C109.262 6.18945 109.738 6.06836 110.066 5.82617C110.398 5.58398 110.564 5.23438 110.564 4.77734C110.564 4.35938 110.426 4.03906 110.148 3.81641C109.871 3.58984 109.477 3.47656 108.965 3.47656H107.055ZM107.055 10.0684H109.035C109.672 10.0684 110.154 9.94141 110.482 9.6875C110.811 9.43359 110.975 9.0625 110.975 8.57422C110.975 7.58984 110.295 7.09766 108.936 7.09766H107.055V10.0684ZM115.656 5.68555C115.184 5.68555 114.791 5.84961 114.479 6.17773C114.17 6.50195 114 6.91992 113.969 7.43164H117.279C117.268 6.91602 117.113 6.49609 116.816 6.17188C116.52 5.84766 116.133 5.68555 115.656 5.68555ZM117.256 9.25391H118.258C118.168 9.79297 117.887 10.2363 117.414 10.584C116.945 10.9316 116.381 11.1055 115.721 11.1055C114.85 11.1055 114.164 10.8242 113.664 10.2617C113.164 9.69922 112.914 8.9375 112.914 7.97656C112.914 7.02344 113.164 6.25586 113.664 5.67383C114.168 5.0918 114.838 4.80078 115.674 4.80078C116.494 4.80078 117.143 5.07617 117.619 5.62695C118.096 6.17773 118.334 6.91602 118.334 7.8418V8.22852H113.963V8.28711C113.963 8.87305 114.123 9.3418 114.443 9.69336C114.764 10.0449 115.197 10.2207 115.744 10.2207C116.127 10.2207 116.453 10.1328 116.723 9.95703C116.992 9.78125 117.17 9.54688 117.256 9.25391ZM122.43 4.80078C123.211 4.80078 123.84 5.08789 124.316 5.66211C124.797 6.23633 125.037 7 125.037 7.95312C125.037 8.90234 124.799 9.66602 124.322 10.2441C123.846 10.8184 123.223 11.1055 122.453 11.1055C122.023 11.1055 121.639 11.0078 121.299 10.8125C120.959 10.6172 120.697 10.3496 120.514 10.0098H120.49V13.0332H119.471V4.90625H120.438V5.9375H120.461C120.652 5.58594 120.92 5.30859 121.264 5.10547C121.607 4.90234 121.996 4.80078 122.43 4.80078ZM122.23 10.209C122.773 10.209 123.203 10.0059 123.52 9.59961C123.836 9.19336 123.994 8.64453 123.994 7.95312C123.994 7.26172 123.836 6.71289 123.52 6.30664C123.203 5.90039 122.773 5.69727 122.23 5.69727C121.707 5.69727 121.285 5.9043 120.965 6.31836C120.645 6.73242 120.484 7.27734 120.484 7.95312C120.484 8.63281 120.645 9.17969 120.965 9.59375C121.285 10.0039 121.707 10.209 122.23 10.209ZM128.213 8.67969H128.189L126.719 11H125.588L127.662 7.95312L125.623 4.90625H126.76L128.225 7.19141H128.248L129.695 4.90625H130.832L128.775 7.91211L130.803 11H129.672L128.213 8.67969ZM135.807 11V8.25781H132.801V11H131.793V4.90625H132.801V7.41992H135.807V4.90625H136.814V11H135.807ZM140.699 5.68555C140.227 5.68555 139.834 5.84961 139.521 6.17773C139.213 6.50195 139.043 6.91992 139.012 7.43164H142.322C142.311 6.91602 142.156 6.49609 141.859 6.17188C141.562 5.84766 141.176 5.68555 140.699 5.68555ZM142.299 9.25391H143.301C143.211 9.79297 142.93 10.2363 142.457 10.584C141.988 10.9316 141.424 11.1055 140.764 11.1055C139.893 11.1055 139.207 10.8242 138.707 10.2617C138.207 9.69922 137.957 8.9375 137.957 7.97656C137.957 7.02344 138.207 6.25586 138.707 5.67383C139.211 5.0918 139.881 4.80078 140.717 4.80078C141.537 4.80078 142.186 5.07617 142.662 5.62695C143.139 6.17773 143.377 6.91602 143.377 7.8418V8.22852H139.006V8.28711C139.006 8.87305 139.166 9.3418 139.486 9.69336C139.807 10.0449 140.24 10.2207 140.787 10.2207C141.17 10.2207 141.496 10.1328 141.766 9.95703C142.035 9.78125 142.213 9.54688 142.299 9.25391ZM148.434 10.1621V5.74414H146.148L145.961 8.31055C145.902 9.14648 145.736 9.74805 145.463 10.1152V10.1621H148.434ZM144.736 12.6113H143.787V10.1621H144.297C144.707 9.89258 144.947 9.26758 145.018 8.28711L145.252 4.90625H149.447V10.1621H150.414V12.6113H149.465V11H144.736V12.6113ZM153.859 11.1055C153.008 11.1055 152.324 10.8223 151.809 10.2559C151.293 9.68555 151.035 8.91797 151.035 7.95312C151.035 6.98828 151.293 6.22266 151.809 5.65625C152.324 5.08594 153.008 4.80078 153.859 4.80078C154.707 4.80078 155.389 5.08594 155.904 5.65625C156.42 6.22266 156.678 6.98828 156.678 7.95312C156.678 8.91406 156.42 9.67969 155.904 10.25C155.389 10.8203 154.707 11.1055 153.859 11.1055ZM152.553 9.61133C152.877 10.0098 153.312 10.209 153.859 10.209C154.406 10.209 154.84 10.0117 155.16 9.61719C155.48 9.21875 155.641 8.66406 155.641 7.95312C155.641 7.24219 155.48 6.68945 155.16 6.29492C154.84 5.89648 154.406 5.69727 153.859 5.69727C153.312 5.69727 152.877 5.89648 152.553 6.29492C152.232 6.69336 152.072 7.24609 152.072 7.95312C152.072 8.66016 152.232 9.21289 152.553 9.61133ZM161.822 11V8.25781H158.816V11H157.809V4.90625H158.816V7.41992H161.822V4.90625H162.83V11H161.822ZM169.311 6.78125H168.303C168.209 6.46484 168.031 6.20508 167.77 6.00195C167.508 5.79883 167.174 5.69727 166.768 5.69727C166.236 5.69727 165.811 5.9043 165.49 6.31836C165.17 6.72852 165.01 7.27344 165.01 7.95312C165.01 8.64453 165.17 9.19336 165.49 9.59961C165.814 10.0059 166.244 10.209 166.779 10.209C167.178 10.209 167.508 10.1152 167.77 9.92773C168.035 9.74023 168.217 9.47656 168.314 9.13672H169.322C169.221 9.72266 168.939 10.1973 168.479 10.5605C168.018 10.9238 167.449 11.1055 166.773 11.1055C165.922 11.1055 165.242 10.8223 164.734 10.2559C164.227 9.68555 163.973 8.91797 163.973 7.95312C163.973 7.00391 164.227 6.24219 164.734 5.66797C165.242 5.08984 165.918 4.80078 166.762 4.80078C167.461 4.80078 168.035 4.99219 168.484 5.375C168.938 5.75781 169.213 6.22656 169.311 6.78125ZM172.451 7.78906L175.381 11H174.068L171.438 8.07031H171.391V11H170.383V4.90625H171.391V7.60156H171.438L174.039 4.90625H175.299L172.451 7.78906ZM178.645 11.1055C177.793 11.1055 177.109 10.8223 176.594 10.2559C176.078 9.68555 175.82 8.91797 175.82 7.95312C175.82 6.98828 176.078 6.22266 176.594 5.65625C177.109 5.08594 177.793 4.80078 178.645 4.80078C179.492 4.80078 180.174 5.08594 180.689 5.65625C181.205 6.22266 181.463 6.98828 181.463 7.95312C181.463 8.91406 181.205 9.67969 180.689 10.25C180.174 10.8203 179.492 11.1055 178.645 11.1055ZM177.338 9.61133C177.662 10.0098 178.098 10.209 178.645 10.209C179.191 10.209 179.625 10.0117 179.945 9.61719C180.266 9.21875 180.426 8.66406 180.426 7.95312C180.426 7.24219 180.266 6.68945 179.945 6.29492C179.625 5.89648 179.191 5.69727 178.645 5.69727C178.098 5.69727 177.662 5.89648 177.338 6.29492C177.018 6.69336 176.857 7.24609 176.857 7.95312C176.857 8.66016 177.018 9.21289 177.338 9.61133ZM183.602 11H182.594V4.90625H183.602V9.44141H183.648L186.695 4.90625H187.703V11H186.695V6.46484H186.648L183.602 11ZM183.373 2.26953H184.123C184.123 2.61719 184.227 2.90625 184.434 3.13672C184.645 3.36719 184.92 3.48242 185.26 3.48242C185.6 3.48242 185.873 3.36719 186.08 3.13672C186.291 2.90625 186.396 2.61719 186.396 2.26953H187.146C187.146 2.80859 186.971 3.24609 186.619 3.58203C186.271 3.91797 185.818 4.08594 185.26 4.08594C184.701 4.08594 184.246 3.91797 183.895 3.58203C183.547 3.24609 183.373 2.80859 183.373 2.26953ZM142.527 17.8008C143.309 17.8008 143.938 18.0879 144.414 18.6621C144.895 19.2363 145.135 20 145.135 20.9531C145.135 21.9023 144.896 22.666 144.42 23.2441C143.943 23.8184 143.32 24.1055 142.551 24.1055C142.121 24.1055 141.736 24.0078 141.396 23.8125C141.057 23.6172 140.795 23.3496 140.611 23.0098H140.588V26.0332H139.568V17.9062H140.535V18.9375H140.559C140.75 18.5859 141.018 18.3086 141.361 18.1055C141.705 17.9023 142.094 17.8008 142.527 17.8008ZM142.328 23.209C142.871 23.209 143.301 23.0059 143.617 22.5996C143.934 22.1934 144.092 21.6445 144.092 20.9531C144.092 20.2617 143.934 19.7129 143.617 19.3066C143.301 18.9004 142.871 18.6973 142.328 18.6973C141.805 18.6973 141.383 18.9043 141.062 19.3184C140.742 19.7324 140.582 20.2773 140.582 20.9531C140.582 21.6328 140.742 22.1797 141.062 22.5938C141.383 23.0039 141.805 23.209 142.328 23.209ZM150.045 21.0469H146.201V20.0977H150.045V21.0469ZM155.424 24V21.2578H152.418V24H151.41V17.9062H152.418V20.4199H155.424V17.9062H156.432V24H155.424Z" fill="#C31844"/>
</svg>
