<svg width="440" height="240" viewBox="0 0 440 240" fill="none" xmlns="http://www.w3.org/2000/svg">
<path d="M226.809 7.88867C226.777 8.41211 226.719 8.83594 226.633 9.16016C226.551 9.48438 226.412 9.76562 226.217 10.0039V10.0508H230.318V3.49414H227.084L226.809 7.88867ZM225.262 11V12.6699H224.283V10.0508H224.91C225.203 9.89453 225.418 9.63867 225.555 9.2832C225.695 8.92383 225.783 8.45117 225.818 7.86523L226.141 2.54492H231.373V10.0508H232.428V12.6699H231.449V11H225.262ZM233.887 13.2793C233.703 13.2793 233.557 13.2676 233.447 13.2441V12.3887C233.541 12.4082 233.674 12.418 233.846 12.418C234.131 12.418 234.359 12.3418 234.531 12.1895C234.703 12.041 234.848 11.7891 234.965 11.4336L235.105 11.0059L232.855 4.90625H233.945L235.633 9.98047H235.65L237.338 4.90625H238.41L236.014 11.4277C235.752 12.1387 235.469 12.625 235.164 12.8867C234.863 13.1484 234.438 13.2793 233.887 13.2793ZM241.756 11.1055C240.818 11.1055 240.107 10.7949 239.623 10.1738C239.143 9.55273 238.902 8.63867 238.902 7.43164C238.902 5.74023 239.15 4.51953 239.646 3.76953C240.146 3.01953 240.984 2.62305 242.16 2.58008L242.611 2.5625C243.322 2.52734 243.852 2.41797 244.199 2.23438V3.125C244.102 3.21484 243.908 3.29297 243.619 3.35938C243.33 3.42578 243.01 3.4668 242.658 3.48242L242.207 3.5C241.781 3.51563 241.426 3.57422 241.141 3.67578C240.859 3.77734 240.625 3.93945 240.438 4.16211C240.254 4.38477 240.111 4.65039 240.01 4.95898C239.908 5.26367 239.826 5.6543 239.764 6.13086H239.811C240.006 5.77539 240.285 5.50391 240.648 5.31641C241.016 5.12891 241.436 5.03516 241.908 5.03516C242.732 5.03516 243.387 5.30469 243.871 5.84375C244.359 6.37891 244.604 7.10156 244.604 8.01172C244.604 8.96875 244.35 9.72461 243.842 10.2793C243.334 10.8301 242.639 11.1055 241.756 11.1055ZM240.42 9.63477C240.736 10.0137 241.182 10.2031 241.756 10.2031C242.33 10.2031 242.773 10.0137 243.086 9.63477C243.402 9.25195 243.561 8.71094 243.561 8.01172C243.561 7.34766 243.402 6.83398 243.086 6.4707C242.773 6.10742 242.33 5.92578 241.756 5.92578C241.182 5.92578 240.736 6.10742 240.42 6.4707C240.104 6.83398 239.945 7.34766 239.945 8.01172C239.945 8.71094 240.104 9.25195 240.42 9.63477ZM248.271 11.1055C247.42 11.1055 246.736 10.8223 246.221 10.2559C245.705 9.68555 245.447 8.91797 245.447 7.95312C245.447 6.98828 245.705 6.22266 246.221 5.65625C246.736 5.08594 247.42 4.80078 248.271 4.80078C249.119 4.80078 249.801 5.08594 250.316 5.65625C250.832 6.22266 251.09 6.98828 251.09 7.95312C251.09 8.91406 250.832 9.67969 250.316 10.25C249.801 10.8203 249.119 11.1055 248.271 11.1055ZM246.965 9.61133C247.289 10.0098 247.725 10.209 248.271 10.209C248.818 10.209 249.252 10.0117 249.572 9.61719C249.893 9.21875 250.053 8.66406 250.053 7.95312C250.053 7.24219 249.893 6.68945 249.572 6.29492C249.252 5.89648 248.818 5.69727 248.271 5.69727C247.725 5.69727 247.289 5.89648 246.965 6.29492C246.645 6.69336 246.484 7.24609 246.484 7.95312C246.484 8.66016 246.645 9.21289 246.965 9.61133ZM254.688 5.73242H253.229V7.4375H254.535C255.293 7.4375 255.672 7.14844 255.672 6.57031C255.672 6.30078 255.588 6.09375 255.42 5.94922C255.252 5.80469 255.008 5.73242 254.688 5.73242ZM254.617 8.25781H253.229V10.1738H254.799C255.166 10.1738 255.447 10.0938 255.643 9.93359C255.838 9.76953 255.936 9.5332 255.936 9.22461C255.936 8.58008 255.496 8.25781 254.617 8.25781ZM252.221 11V4.90625H254.828C255.398 4.90625 255.848 5.04492 256.176 5.32227C256.504 5.59961 256.668 5.98047 256.668 6.46484C256.668 6.77344 256.57 7.05469 256.375 7.30859C256.184 7.5625 255.947 7.71875 255.666 7.77734V7.82422C256.049 7.87891 256.355 8.03516 256.586 8.29297C256.82 8.55078 256.938 8.86914 256.938 9.24805C256.938 9.78711 256.75 10.2148 256.375 10.5312C256.004 10.8438 255.494 11 254.846 11H252.221ZM263.148 6.78125H262.141C262.047 6.46484 261.869 6.20508 261.607 6.00195C261.346 5.79883 261.012 5.69727 260.605 5.69727C260.074 5.69727 259.648 5.9043 259.328 6.31836C259.008 6.72852 258.848 7.27344 258.848 7.95312C258.848 8.64453 259.008 9.19336 259.328 9.59961C259.652 10.0059 260.082 10.209 260.617 10.209C261.016 10.209 261.346 10.1152 261.607 9.92773C261.873 9.74023 262.055 9.47656 262.152 9.13672H263.16C263.059 9.72266 262.777 10.1973 262.316 10.5605C261.855 10.9238 261.287 11.1055 260.611 11.1055C259.76 11.1055 259.08 10.8223 258.572 10.2559C258.064 9.68555 257.811 8.91797 257.811 7.95312C257.811 7.00391 258.064 6.24219 258.572 5.66797C259.08 5.08984 259.756 4.80078 260.6 4.80078C261.299 4.80078 261.873 4.99219 262.322 5.375C262.775 5.75781 263.051 6.22656 263.148 6.78125ZM266.289 7.78906L269.219 11H267.906L265.275 8.07031H265.229V11H264.221V4.90625H265.229V7.60156H265.275L267.877 4.90625H269.137L266.289 7.78906ZM271.076 11H270.068V4.90625H271.076V9.44141H271.123L274.17 4.90625H275.178V11H274.17V6.46484H274.123L271.076 11ZM277.615 11H276.607V4.90625H277.615V9.44141H277.662L280.709 4.90625H281.717V11H280.709V6.46484H280.662L277.615 11ZM277.387 2.26953H278.137C278.137 2.61719 278.24 2.90625 278.447 3.13672C278.658 3.36719 278.934 3.48242 279.273 3.48242C279.613 3.48242 279.887 3.36719 280.094 3.13672C280.305 2.90625 280.41 2.61719 280.41 2.26953H281.16C281.16 2.80859 280.984 3.24609 280.633 3.58203C280.285 3.91797 279.832 4.08594 279.273 4.08594C278.715 4.08594 278.26 3.91797 277.908 3.58203C277.561 3.24609 277.387 2.80859 277.387 2.26953ZM249.027 17.8008C249.809 17.8008 250.438 18.0879 250.914 18.6621C251.395 19.2363 251.635 20 251.635 20.9531C251.635 21.9023 251.396 22.666 250.92 23.2441C250.443 23.8184 249.82 24.1055 249.051 24.1055C248.621 24.1055 248.236 24.0078 247.896 23.8125C247.557 23.6172 247.295 23.3496 247.111 23.0098H247.088V26.0332H246.068V17.9062H247.035V18.9375H247.059C247.25 18.5859 247.518 18.3086 247.861 18.1055C248.205 17.9023 248.594 17.8008 249.027 17.8008ZM248.828 23.209C249.371 23.209 249.801 23.0059 250.117 22.5996C250.434 22.1934 250.592 21.6445 250.592 20.9531C250.592 20.2617 250.434 19.7129 250.117 19.3066C249.801 18.9004 249.371 18.6973 248.828 18.6973C248.305 18.6973 247.883 18.9043 247.562 19.3184C247.242 19.7324 247.082 20.2773 247.082 20.9531C247.082 21.6328 247.242 22.1797 247.562 22.5938C247.883 23.0039 248.305 23.209 248.828 23.209ZM256.545 21.0469H252.701V20.0977H256.545V21.0469ZM261.924 24V21.2578H258.918V24H257.91V17.9062H258.918V20.4199H261.924V17.9062H262.932V24H261.924Z" fill="#C31844"/>
<path d="M373.572 90.1504V89.2129H374.715C375.23 89.2129 375.652 89.0723 375.98 88.791C376.309 88.5059 376.473 88.1426 376.473 87.7012C376.473 87.2637 376.322 86.918 376.021 86.6641C375.721 86.4102 375.311 86.2832 374.791 86.2832C374.268 86.2832 373.844 86.4102 373.52 86.6641C373.199 86.918 373.018 87.2676 372.975 87.7129H371.949C372.004 86.9785 372.287 86.4004 372.799 85.9785C373.314 85.5566 373.992 85.3457 374.832 85.3457C375.621 85.3457 376.27 85.5586 376.777 85.9844C377.289 86.4062 377.545 86.9473 377.545 87.6074C377.545 88.0762 377.398 88.4922 377.105 88.8555C376.816 89.2188 376.439 89.457 375.975 89.5703V89.6172C376.537 89.6914 376.98 89.918 377.305 90.2969C377.629 90.6719 377.791 91.1465 377.791 91.7207C377.791 92.416 377.504 93.0039 376.93 93.4844C376.355 93.9609 375.65 94.1992 374.814 94.1992C373.924 94.1992 373.195 93.9805 372.629 93.543C372.062 93.1016 371.76 92.5195 371.721 91.7969H372.74C372.787 92.2422 372.996 92.5977 373.367 92.8633C373.742 93.1289 374.221 93.2617 374.803 93.2617C375.369 93.2617 375.828 93.1172 376.18 92.8281C376.531 92.5352 376.707 92.1562 376.707 91.6914C376.707 91.207 376.535 90.8301 376.191 90.5605C375.848 90.2871 375.371 90.1504 374.762 90.1504H373.572ZM380.961 93.2383C381.441 93.2383 381.844 93.0898 382.168 92.793C382.496 92.4922 382.66 92.123 382.66 91.6855V91.1875L381.031 91.2871C380.621 91.3145 380.303 91.4141 380.076 91.5859C379.854 91.7578 379.742 91.9883 379.742 92.2773C379.742 92.5664 379.854 92.7988 380.076 92.9746C380.299 93.1504 380.594 93.2383 380.961 93.2383ZM380.732 94.1055C380.127 94.1055 379.637 93.9375 379.262 93.6016C378.891 93.2656 378.705 92.8242 378.705 92.2773C378.705 91.7539 378.896 91.3359 379.279 91.0234C379.666 90.7109 380.211 90.5352 380.914 90.4961L382.66 90.3965V89.8867C382.66 89.5156 382.543 89.2246 382.309 89.0137C382.074 88.8027 381.746 88.6973 381.324 88.6973C380.938 88.6973 380.623 88.7832 380.381 88.9551C380.139 89.123 379.984 89.3594 379.918 89.6641H378.934C378.969 89.1211 379.203 88.6758 379.637 88.3281C380.074 87.9766 380.645 87.8008 381.348 87.8008C382.062 87.8008 382.629 87.9805 383.047 88.3398C383.469 88.6992 383.68 89.1816 383.68 89.7871V94H382.713V92.9512H382.689C382.506 93.2988 382.236 93.5781 381.881 93.7891C381.525 94 381.143 94.1055 380.732 94.1055ZM387.553 88.7324H386.094V90.4375H387.4C388.158 90.4375 388.537 90.1484 388.537 89.5703C388.537 89.3008 388.453 89.0938 388.285 88.9492C388.117 88.8047 387.873 88.7324 387.553 88.7324ZM387.482 91.2578H386.094V93.1738H387.664C388.031 93.1738 388.312 93.0938 388.508 92.9336C388.703 92.7695 388.801 92.5332 388.801 92.2246C388.801 91.5801 388.361 91.2578 387.482 91.2578ZM385.086 94V87.9062H387.693C388.264 87.9062 388.713 88.0449 389.041 88.3223C389.369 88.5996 389.533 88.9805 389.533 89.4648C389.533 89.7734 389.436 90.0547 389.24 90.3086C389.049 90.5625 388.812 90.7188 388.531 90.7773V90.8242C388.914 90.8789 389.221 91.0352 389.451 91.293C389.686 91.5508 389.803 91.8691 389.803 92.248C389.803 92.7871 389.615 93.2148 389.24 93.5312C388.869 93.8438 388.359 94 387.711 94H385.086ZM393.418 88.6855C392.945 88.6855 392.553 88.8496 392.24 89.1777C391.932 89.502 391.762 89.9199 391.73 90.4316H395.041C395.029 89.916 394.875 89.4961 394.578 89.1719C394.281 88.8477 393.895 88.6855 393.418 88.6855ZM395.018 92.2539H396.02C395.93 92.793 395.648 93.2363 395.176 93.584C394.707 93.9316 394.143 94.1055 393.482 94.1055C392.611 94.1055 391.926 93.8242 391.426 93.2617C390.926 92.6992 390.676 91.9375 390.676 90.9766C390.676 90.0234 390.926 89.2559 391.426 88.6738C391.93 88.0918 392.6 87.8008 393.436 87.8008C394.256 87.8008 394.904 88.0762 395.381 88.627C395.857 89.1777 396.096 89.916 396.096 90.8418V91.2285H391.725V91.2871C391.725 91.873 391.885 92.3418 392.205 92.6934C392.525 93.0449 392.959 93.2207 393.506 93.2207C393.889 93.2207 394.215 93.1328 394.484 92.957C394.754 92.7812 394.932 92.5469 395.018 92.2539ZM401.451 87.9062V88.7441H399.482V94H398.475V88.7441H396.506V87.9062H401.451ZM403.402 94H402.395V87.9062H403.402V92.4414H403.449L406.496 87.9062H407.504V94H406.496V89.4648H406.449L403.402 94ZM412.947 94V91.2578H409.941V94H408.934V87.9062H409.941V90.4199H412.947V87.9062H413.955V94H412.947ZM420.436 89.7812H419.428C419.334 89.4648 419.156 89.2051 418.895 89.002C418.633 88.7988 418.299 88.6973 417.893 88.6973C417.361 88.6973 416.936 88.9043 416.615 89.3184C416.295 89.7285 416.135 90.2734 416.135 90.9531C416.135 91.6445 416.295 92.1934 416.615 92.5996C416.939 93.0059 417.369 93.209 417.904 93.209C418.303 93.209 418.633 93.1152 418.895 92.9277C419.16 92.7402 419.342 92.4766 419.439 92.1367H420.447C420.346 92.7227 420.064 93.1973 419.604 93.5605C419.143 93.9238 418.574 94.1055 417.898 94.1055C417.047 94.1055 416.367 93.8223 415.859 93.2559C415.352 92.6855 415.098 91.918 415.098 90.9531C415.098 90.0039 415.352 89.2422 415.859 88.668C416.367 88.0898 417.043 87.8008 417.887 87.8008C418.586 87.8008 419.16 87.9922 419.609 88.375C420.062 88.7578 420.338 89.2266 420.436 89.7812ZM423.576 90.7891L426.506 94H425.193L422.562 91.0703H422.516V94H421.508V87.9062H422.516V90.6016H422.562L425.164 87.9062H426.424L423.576 90.7891ZM428.363 94H427.355V87.9062H428.363V92.4414H428.41L431.457 87.9062H432.465V94H431.457V89.4648H431.41L428.363 94ZM434.902 94H433.895V87.9062H434.902V92.4414H434.949L437.996 87.9062H439.004V94H437.996V89.4648H437.949L434.902 94ZM434.674 85.2695H435.424C435.424 85.6172 435.527 85.9062 435.734 86.1367C435.945 86.3672 436.221 86.4824 436.561 86.4824C436.9 86.4824 437.174 86.3672 437.381 86.1367C437.592 85.9062 437.697 85.6172 437.697 85.2695H438.447C438.447 85.8086 438.271 86.2461 437.92 86.582C437.572 86.918 437.119 87.0859 436.561 87.0859C436.002 87.0859 435.547 86.918 435.195 86.582C434.848 86.2461 434.674 85.8086 434.674 85.2695ZM400.027 100.801C400.809 100.801 401.438 101.088 401.914 101.662C402.395 102.236 402.635 103 402.635 103.953C402.635 104.902 402.396 105.666 401.92 106.244C401.443 106.818 400.82 107.105 400.051 107.105C399.621 107.105 399.236 107.008 398.896 106.812C398.557 106.617 398.295 106.35 398.111 106.01H398.088V109.033H397.068V100.906H398.035V101.938H398.059C398.25 101.586 398.518 101.309 398.861 101.105C399.205 100.902 399.594 100.801 400.027 100.801ZM399.828 106.209C400.371 106.209 400.801 106.006 401.117 105.6C401.434 105.193 401.592 104.645 401.592 103.953C401.592 103.262 401.434 102.713 401.117 102.307C400.801 101.9 400.371 101.697 399.828 101.697C399.305 101.697 398.883 101.904 398.562 102.318C398.242 102.732 398.082 103.277 398.082 103.953C398.082 104.633 398.242 105.18 398.562 105.594C398.883 106.004 399.305 106.209 399.828 106.209ZM407.545 104.047H403.701V103.098H407.545V104.047ZM412.924 107V104.258H409.918V107H408.91V100.906H409.918V103.42H412.924V100.906H413.932V107H412.924Z" fill="#C31844"/>
<path d="M299.943 215.545H302.961C303.754 215.545 304.402 215.799 304.906 216.307C305.414 216.811 305.668 217.461 305.668 218.258C305.668 219.059 305.414 219.713 304.906 220.221C304.398 220.729 303.746 220.982 302.949 220.982H300.998V224H299.943V215.545ZM300.998 216.482V220.045H302.686C303.287 220.045 303.754 219.889 304.086 219.576C304.418 219.26 304.584 218.82 304.584 218.258C304.584 217.695 304.418 217.26 304.086 216.951C303.758 216.639 303.291 216.482 302.686 216.482H300.998ZM309.037 218.686C308.564 218.686 308.172 218.85 307.859 219.178C307.551 219.502 307.381 219.92 307.35 220.432H310.66C310.648 219.916 310.494 219.496 310.197 219.172C309.9 218.848 309.514 218.686 309.037 218.686ZM310.637 222.254H311.639C311.549 222.793 311.268 223.236 310.795 223.584C310.326 223.932 309.762 224.105 309.102 224.105C308.23 224.105 307.545 223.824 307.045 223.262C306.545 222.699 306.295 221.938 306.295 220.977C306.295 220.023 306.545 219.256 307.045 218.674C307.549 218.092 308.219 217.801 309.055 217.801C309.875 217.801 310.523 218.076 311 218.627C311.477 219.178 311.715 219.916 311.715 220.842V221.229H307.344V221.287C307.344 221.873 307.504 222.342 307.824 222.693C308.145 223.045 308.578 223.221 309.125 223.221C309.508 223.221 309.834 223.133 310.104 222.957C310.373 222.781 310.551 222.547 310.637 222.254ZM313.854 224H312.846V217.906H314.082L316.25 222.652H316.297L318.477 217.906H319.666V224H318.652V219.676H318.611L316.643 223.824H315.863L313.895 219.676H313.854V224ZM323.627 224.105C322.775 224.105 322.092 223.822 321.576 223.256C321.061 222.686 320.803 221.918 320.803 220.953C320.803 219.988 321.061 219.223 321.576 218.656C322.092 218.086 322.775 217.801 323.627 217.801C324.475 217.801 325.156 218.086 325.672 218.656C326.188 219.223 326.445 219.988 326.445 220.953C326.445 221.914 326.188 222.68 325.672 223.25C325.156 223.82 324.475 224.105 323.627 224.105ZM322.32 222.611C322.645 223.01 323.08 223.209 323.627 223.209C324.174 223.209 324.607 223.012 324.928 222.617C325.248 222.219 325.408 221.664 325.408 220.953C325.408 220.242 325.248 219.689 324.928 219.295C324.607 218.896 324.174 218.697 323.627 218.697C323.08 218.697 322.645 218.896 322.32 219.295C322 219.693 321.84 220.246 321.84 220.953C321.84 221.66 322 222.213 322.32 222.611ZM331.59 224V221.258H328.584V224H327.576V217.906H328.584V220.42H331.59V217.906H332.598V224H331.59ZM338.492 217.906V218.744H336.523V224H335.516V218.744H333.547V217.906H338.492ZM343.449 224V221.258H340.443V224H339.436V217.906H340.443V220.42H343.449V217.906H344.457V224H343.449ZM348.342 218.686C347.869 218.686 347.477 218.85 347.164 219.178C346.855 219.502 346.686 219.92 346.654 220.432H349.965C349.953 219.916 349.799 219.496 349.502 219.172C349.205 218.848 348.818 218.686 348.342 218.686ZM349.941 222.254H350.943C350.854 222.793 350.572 223.236 350.1 223.584C349.631 223.932 349.066 224.105 348.406 224.105C347.535 224.105 346.85 223.824 346.35 223.262C345.85 222.699 345.6 221.938 345.6 220.977C345.6 220.023 345.85 219.256 346.35 218.674C346.854 218.092 347.523 217.801 348.359 217.801C349.18 217.801 349.828 218.076 350.305 218.627C350.781 219.178 351.02 219.916 351.02 220.842V221.229H346.648V221.287C346.648 221.873 346.809 222.342 347.129 222.693C347.449 223.045 347.883 223.221 348.43 223.221C348.812 223.221 349.139 223.133 349.408 222.957C349.678 222.781 349.855 222.547 349.941 222.254ZM356.164 224V221.258H353.158V224H352.15V217.906H353.158V220.42H356.164V217.906H357.172V224H356.164ZM363.652 219.781H362.645C362.551 219.465 362.373 219.205 362.111 219.002C361.85 218.799 361.516 218.697 361.109 218.697C360.578 218.697 360.152 218.904 359.832 219.318C359.512 219.729 359.352 220.273 359.352 220.953C359.352 221.645 359.512 222.193 359.832 222.6C360.156 223.006 360.586 223.209 361.121 223.209C361.52 223.209 361.85 223.115 362.111 222.928C362.377 222.74 362.559 222.477 362.656 222.137H363.664C363.562 222.723 363.281 223.197 362.82 223.561C362.359 223.924 361.791 224.105 361.115 224.105C360.264 224.105 359.584 223.822 359.076 223.256C358.568 222.686 358.314 221.918 358.314 220.953C358.314 220.004 358.568 219.242 359.076 218.668C359.584 218.09 360.26 217.801 361.104 217.801C361.803 217.801 362.377 217.992 362.826 218.375C363.279 218.758 363.555 219.227 363.652 219.781ZM366.793 220.789L369.723 224H368.41L365.779 221.07H365.732V224H364.725V217.906H365.732V220.602H365.779L368.381 217.906H369.641L366.793 220.789ZM371.58 224H370.572V217.906H371.58V222.441H371.627L374.674 217.906H375.682V224H374.674V219.465H374.627L371.58 224ZM378.119 224H377.111V217.906H378.119V222.441H378.166L381.213 217.906H382.221V224H381.213V219.465H381.166L378.119 224ZM377.891 215.27H378.641C378.641 215.617 378.744 215.906 378.951 216.137C379.162 216.367 379.438 216.482 379.777 216.482C380.117 216.482 380.391 216.367 380.598 216.137C380.809 215.906 380.914 215.617 380.914 215.27H381.664C381.664 215.809 381.488 216.246 381.137 216.582C380.789 216.918 380.336 217.086 379.777 217.086C379.219 217.086 378.764 216.918 378.412 216.582C378.064 216.246 377.891 215.809 377.891 215.27ZM335.527 230.801C336.309 230.801 336.938 231.088 337.414 231.662C337.895 232.236 338.135 233 338.135 233.953C338.135 234.902 337.896 235.666 337.42 236.244C336.943 236.818 336.32 237.105 335.551 237.105C335.121 237.105 334.736 237.008 334.396 236.812C334.057 236.617 333.795 236.35 333.611 236.01H333.588V239.033H332.568V230.906H333.535V231.938H333.559C333.75 231.586 334.018 231.309 334.361 231.105C334.705 230.902 335.094 230.801 335.527 230.801ZM335.328 236.209C335.871 236.209 336.301 236.006 336.617 235.6C336.934 235.193 337.092 234.645 337.092 233.953C337.092 233.262 336.934 232.713 336.617 232.307C336.301 231.9 335.871 231.697 335.328 231.697C334.805 231.697 334.383 231.904 334.062 232.318C333.742 232.732 333.582 233.277 333.582 233.953C333.582 234.633 333.742 235.18 334.062 235.594C334.383 236.004 334.805 236.209 335.328 236.209ZM343.045 234.047H339.201V233.098H343.045V234.047ZM348.424 237V234.258H345.418V237H344.41V230.906H345.418V233.42H348.424V230.906H349.432V237H348.424Z" fill="#C31844"/>
<path d="M180.674 90.1504V89.2129H181.816C182.332 89.2129 182.754 89.0723 183.082 88.791C183.41 88.5059 183.574 88.1426 183.574 87.7012C183.574 87.2637 183.424 86.918 183.123 86.6641C182.822 86.4102 182.412 86.2832 181.893 86.2832C181.369 86.2832 180.945 86.4102 180.621 86.6641C180.301 86.918 180.119 87.2676 180.076 87.7129H179.051C179.105 86.9785 179.389 86.4004 179.9 85.9785C180.416 85.5566 181.094 85.3457 181.934 85.3457C182.723 85.3457 183.371 85.5586 183.879 85.9844C184.391 86.4062 184.646 86.9473 184.646 87.6074C184.646 88.0762 184.5 88.4922 184.207 88.8555C183.918 89.2188 183.541 89.457 183.076 89.5703V89.6172C183.639 89.6914 184.082 89.918 184.406 90.2969C184.73 90.6719 184.893 91.1465 184.893 91.7207C184.893 92.416 184.605 93.0039 184.031 93.4844C183.457 93.9609 182.752 94.1992 181.916 94.1992C181.025 94.1992 180.297 93.9805 179.73 93.543C179.164 93.1016 178.861 92.5195 178.822 91.7969H179.842C179.889 92.2422 180.098 92.5977 180.469 92.8633C180.844 93.1289 181.322 93.2617 181.904 93.2617C182.471 93.2617 182.93 93.1172 183.281 92.8281C183.633 92.5352 183.809 92.1562 183.809 91.6914C183.809 91.207 183.637 90.8301 183.293 90.5605C182.949 90.2871 182.473 90.1504 181.863 90.1504H180.674ZM187.055 94H186.047V87.9062H187.055V92.4414H187.102L190.148 87.9062H191.156V94H190.148V89.4648H190.102L187.055 94ZM193.594 94H192.586V87.9062H193.822L195.99 92.6523H196.037L198.217 87.9062H199.406V94H198.393V89.6758H198.352L196.383 93.8242H195.604L193.635 89.6758H193.594V94ZM203.367 94.1055C202.516 94.1055 201.832 93.8223 201.316 93.2559C200.801 92.6855 200.543 91.918 200.543 90.9531C200.543 89.9883 200.801 89.2227 201.316 88.6562C201.832 88.0859 202.516 87.8008 203.367 87.8008C204.215 87.8008 204.896 88.0859 205.412 88.6562C205.928 89.2227 206.186 89.9883 206.186 90.9531C206.186 91.9141 205.928 92.6797 205.412 93.25C204.896 93.8203 204.215 94.1055 203.367 94.1055ZM202.061 92.6113C202.385 93.0098 202.82 93.209 203.367 93.209C203.914 93.209 204.348 93.0117 204.668 92.6172C204.988 92.2188 205.148 91.6641 205.148 90.9531C205.148 90.2422 204.988 89.6895 204.668 89.2949C204.348 88.8965 203.914 88.6973 203.367 88.6973C202.82 88.6973 202.385 88.8965 202.061 89.2949C201.74 89.6934 201.58 90.2461 201.58 90.9531C201.58 91.6602 201.74 92.2129 202.061 92.6113ZM209.783 88.7324H208.324V90.4375H209.631C210.389 90.4375 210.768 90.1484 210.768 89.5703C210.768 89.3008 210.684 89.0938 210.516 88.9492C210.348 88.8047 210.104 88.7324 209.783 88.7324ZM209.713 91.2578H208.324V93.1738H209.895C210.262 93.1738 210.543 93.0938 210.738 92.9336C210.934 92.7695 211.031 92.5332 211.031 92.2246C211.031 91.5801 210.592 91.2578 209.713 91.2578ZM207.316 94V87.9062H209.924C210.494 87.9062 210.943 88.0449 211.271 88.3223C211.6 88.5996 211.764 88.9805 211.764 89.4648C211.764 89.7734 211.666 90.0547 211.471 90.3086C211.279 90.5625 211.043 90.7188 210.762 90.7773V90.8242C211.145 90.8789 211.451 91.0352 211.682 91.293C211.916 91.5508 212.033 91.8691 212.033 92.248C212.033 92.7871 211.846 93.2148 211.471 93.5312C211.1 93.8438 210.59 94 209.941 94H207.316ZM217.213 94V91.2578H214.207V94H213.199V87.9062H214.207V90.4199H217.213V87.9062H218.221V94H217.213ZM220.664 94H219.656V87.9062H220.664V92.4414H220.711L223.758 87.9062H224.766V94H223.758V89.4648H223.711L220.664 94ZM228.264 90.7891L231.193 94H229.881L227.25 91.0703H227.203V94H226.195V87.9062H227.203V90.6016H227.25L229.852 87.9062H231.111L228.264 90.7891ZM234.457 94.1055C233.605 94.1055 232.922 93.8223 232.406 93.2559C231.891 92.6855 231.633 91.918 231.633 90.9531C231.633 89.9883 231.891 89.2227 232.406 88.6562C232.922 88.0859 233.605 87.8008 234.457 87.8008C235.305 87.8008 235.986 88.0859 236.502 88.6562C237.018 89.2227 237.275 89.9883 237.275 90.9531C237.275 91.9141 237.018 92.6797 236.502 93.25C235.986 93.8203 235.305 94.1055 234.457 94.1055ZM233.15 92.6113C233.475 93.0098 233.91 93.209 234.457 93.209C235.004 93.209 235.438 93.0117 235.758 92.6172C236.078 92.2188 236.238 91.6641 236.238 90.9531C236.238 90.2422 236.078 89.6895 235.758 89.2949C235.438 88.8965 235.004 88.6973 234.457 88.6973C233.91 88.6973 233.475 88.8965 233.15 89.2949C232.83 89.6934 232.67 90.2461 232.67 90.9531C232.67 91.6602 232.83 92.2129 233.15 92.6113ZM240.873 88.7324H239.414V90.4375H240.721C241.479 90.4375 241.857 90.1484 241.857 89.5703C241.857 89.3008 241.773 89.0938 241.605 88.9492C241.438 88.8047 241.193 88.7324 240.873 88.7324ZM240.803 91.2578H239.414V93.1738H240.984C241.352 93.1738 241.633 93.0938 241.828 92.9336C242.023 92.7695 242.121 92.5332 242.121 92.2246C242.121 91.5801 241.682 91.2578 240.803 91.2578ZM238.406 94V87.9062H241.014C241.584 87.9062 242.033 88.0449 242.361 88.3223C242.689 88.5996 242.854 88.9805 242.854 89.4648C242.854 89.7734 242.756 90.0547 242.561 90.3086C242.369 90.5625 242.133 90.7188 241.852 90.7773V90.8242C242.234 90.8789 242.541 91.0352 242.771 91.293C243.006 91.5508 243.123 91.8691 243.123 92.248C243.123 92.7871 242.936 93.2148 242.561 93.5312C242.189 93.8438 241.68 94 241.031 94H238.406ZM249.334 89.7812H248.326C248.232 89.4648 248.055 89.2051 247.793 89.002C247.531 88.7988 247.197 88.6973 246.791 88.6973C246.26 88.6973 245.834 88.9043 245.514 89.3184C245.193 89.7285 245.033 90.2734 245.033 90.9531C245.033 91.6445 245.193 92.1934 245.514 92.5996C245.838 93.0059 246.268 93.209 246.803 93.209C247.201 93.209 247.531 93.1152 247.793 92.9277C248.059 92.7402 248.24 92.4766 248.338 92.1367H249.346C249.244 92.7227 248.963 93.1973 248.502 93.5605C248.041 93.9238 247.473 94.1055 246.797 94.1055C245.945 94.1055 245.266 93.8223 244.758 93.2559C244.25 92.6855 243.996 91.918 243.996 90.9531C243.996 90.0039 244.25 89.2422 244.758 88.668C245.266 88.0898 245.941 87.8008 246.785 87.8008C247.484 87.8008 248.059 87.9922 248.508 88.375C248.961 88.7578 249.236 89.2266 249.334 89.7812ZM252.475 90.7891L255.404 94H254.092L251.461 91.0703H251.414V94H250.406V87.9062H251.414V90.6016H251.461L254.062 87.9062H255.322L252.475 90.7891ZM257.262 94H256.254V87.9062H257.262V92.4414H257.309L260.355 87.9062H261.363V94H260.355V89.4648H260.309L257.262 94ZM263.801 94H262.793V87.9062H263.801V92.4414H263.848L266.895 87.9062H267.902V94H266.895V89.4648H266.848L263.801 94ZM263.572 85.2695H264.322C264.322 85.6172 264.426 85.9062 264.633 86.1367C264.844 86.3672 265.119 86.4824 265.459 86.4824C265.799 86.4824 266.072 86.3672 266.279 86.1367C266.49 85.9062 266.596 85.6172 266.596 85.2695H267.346C267.346 85.8086 267.17 86.2461 266.818 86.582C266.471 86.918 266.018 87.0859 265.459 87.0859C264.9 87.0859 264.445 86.918 264.094 86.582C263.746 86.2461 263.572 85.8086 263.572 85.2695ZM218.027 100.801C218.809 100.801 219.438 101.088 219.914 101.662C220.395 102.236 220.635 103 220.635 103.953C220.635 104.902 220.396 105.666 219.92 106.244C219.443 106.818 218.82 107.105 218.051 107.105C217.621 107.105 217.236 107.008 216.896 106.812C216.557 106.617 216.295 106.35 216.111 106.01H216.088V109.033H215.068V100.906H216.035V101.938H216.059C216.25 101.586 216.518 101.309 216.861 101.105C217.205 100.902 217.594 100.801 218.027 100.801ZM217.828 106.209C218.371 106.209 218.801 106.006 219.117 105.6C219.434 105.193 219.592 104.645 219.592 103.953C219.592 103.262 219.434 102.713 219.117 102.307C218.801 101.9 218.371 101.697 217.828 101.697C217.305 101.697 216.883 101.904 216.562 102.318C216.242 102.732 216.082 103.277 216.082 103.953C216.082 104.633 216.242 105.18 216.562 105.594C216.883 106.004 217.305 106.209 217.828 106.209ZM225.545 104.047H221.701V103.098H225.545V104.047ZM230.924 107V104.258H227.918V107H226.91V100.906H227.918V103.42H230.924V100.906H231.932V107H230.924Z" fill="#C31844"/>
<path d="M96.0449 112.582C96.7441 111.797 97.6934 111.404 98.8926 111.404C100.092 111.404 101.041 111.797 101.74 112.582C102.439 113.367 102.789 114.432 102.789 115.775C102.789 117.119 102.439 118.184 101.74 118.969C101.041 119.75 100.092 120.141 98.8926 120.141C97.6934 120.141 96.7441 119.75 96.0449 118.969C95.3457 118.184 94.9961 117.119 94.9961 115.775C94.9961 114.432 95.3457 113.367 96.0449 112.582ZM100.943 113.297C100.439 112.684 99.7559 112.377 98.8926 112.377C98.0293 112.377 97.3438 112.684 96.8359 113.297C96.332 113.906 96.0801 114.732 96.0801 115.775C96.0801 116.814 96.332 117.641 96.8359 118.254C97.3438 118.863 98.0293 119.168 98.8926 119.168C99.7559 119.168 100.439 118.863 100.943 118.254C101.451 117.641 101.705 116.814 101.705 115.775C101.705 114.732 101.451 113.906 100.943 113.297ZM107.02 113.801C107.801 113.801 108.43 114.088 108.906 114.662C109.387 115.236 109.627 116 109.627 116.953C109.627 117.902 109.389 118.666 108.912 119.244C108.436 119.818 107.812 120.105 107.043 120.105C106.613 120.105 106.229 120.008 105.889 119.812C105.549 119.617 105.287 119.35 105.104 119.01H105.08V122.033H104.061V113.906H105.027V114.938H105.051C105.242 114.586 105.51 114.309 105.854 114.105C106.197 113.902 106.586 113.801 107.02 113.801ZM106.82 119.209C107.363 119.209 107.793 119.006 108.109 118.6C108.426 118.193 108.584 117.645 108.584 116.953C108.584 116.262 108.426 115.713 108.109 115.307C107.793 114.9 107.363 114.697 106.82 114.697C106.297 114.697 105.875 114.904 105.555 115.318C105.234 115.732 105.074 116.277 105.074 116.953C105.074 117.633 105.234 118.18 105.555 118.594C105.875 119.004 106.297 119.209 106.82 119.209ZM112.152 117.311C112.125 117.662 112.086 117.973 112.035 118.242C111.988 118.512 111.92 118.764 111.83 118.998C111.74 119.232 111.629 119.426 111.496 119.578C111.367 119.727 111.205 119.844 111.01 119.93C110.818 120.012 110.596 120.053 110.342 120.053C110.201 120.053 110.08 120.031 109.979 119.988V119.068C110.072 119.1 110.176 119.115 110.289 119.115C110.574 119.115 110.787 118.961 110.928 118.652C111.068 118.34 111.158 117.885 111.197 117.287L111.432 113.906H115.422V120H114.414V114.744H112.34L112.152 117.311ZM119.395 120.105C118.543 120.105 117.859 119.822 117.344 119.256C116.828 118.686 116.57 117.918 116.57 116.953C116.57 115.988 116.828 115.223 117.344 114.656C117.859 114.086 118.543 113.801 119.395 113.801C120.242 113.801 120.924 114.086 121.439 114.656C121.955 115.223 122.213 115.988 122.213 116.953C122.213 117.914 121.955 118.68 121.439 119.25C120.924 119.82 120.242 120.105 119.395 120.105ZM118.088 118.611C118.412 119.01 118.848 119.209 119.395 119.209C119.941 119.209 120.375 119.012 120.695 118.617C121.016 118.219 121.176 117.664 121.176 116.953C121.176 116.242 121.016 115.689 120.695 115.295C120.375 114.896 119.941 114.697 119.395 114.697C118.848 114.697 118.412 114.896 118.088 115.295C117.768 115.693 117.607 116.246 117.607 116.953C117.607 117.66 117.768 118.213 118.088 118.611ZM125.811 114.732H124.352V116.438H125.658C126.416 116.438 126.795 116.148 126.795 115.57C126.795 115.301 126.711 115.094 126.543 114.949C126.375 114.805 126.131 114.732 125.811 114.732ZM125.74 117.258H124.352V119.174H125.922C126.289 119.174 126.57 119.094 126.766 118.934C126.961 118.77 127.059 118.533 127.059 118.225C127.059 117.58 126.619 117.258 125.74 117.258ZM123.344 120V113.906H125.951C126.521 113.906 126.971 114.045 127.299 114.322C127.627 114.6 127.791 114.98 127.791 115.465C127.791 115.773 127.693 116.055 127.498 116.309C127.307 116.562 127.07 116.719 126.789 116.777V116.824C127.172 116.879 127.479 117.035 127.709 117.293C127.943 117.551 128.061 117.869 128.061 118.248C128.061 118.787 127.873 119.215 127.498 119.531C127.127 119.844 126.617 120 125.969 120H123.344ZM134.271 115.781H133.264C133.17 115.465 132.992 115.205 132.73 115.002C132.469 114.799 132.135 114.697 131.729 114.697C131.197 114.697 130.771 114.904 130.451 115.318C130.131 115.729 129.971 116.273 129.971 116.953C129.971 117.645 130.131 118.193 130.451 118.6C130.775 119.006 131.205 119.209 131.74 119.209C132.139 119.209 132.469 119.115 132.73 118.928C132.996 118.74 133.178 118.477 133.275 118.137H134.283C134.182 118.723 133.9 119.197 133.439 119.561C132.979 119.924 132.41 120.105 131.734 120.105C130.883 120.105 130.203 119.822 129.695 119.256C129.188 118.686 128.934 117.918 128.934 116.953C128.934 116.004 129.188 115.242 129.695 114.668C130.203 114.09 130.879 113.801 131.723 113.801C132.422 113.801 132.996 113.992 133.445 114.375C133.898 114.758 134.174 115.227 134.271 115.781ZM137.412 116.789L140.342 120H139.029L136.398 117.07H136.352V120H135.344V113.906H136.352V116.602H136.398L139 113.906H140.26L137.412 116.789ZM142.199 120H141.191V113.906H142.199V118.441H142.246L145.293 113.906H146.301V120H145.293V115.465H145.246L142.199 120ZM148.738 120H147.73V113.906H148.738V118.441H148.785L151.832 113.906H152.84V120H151.832V115.465H151.785L148.738 120ZM148.51 111.27H149.26C149.26 111.617 149.363 111.906 149.57 112.137C149.781 112.367 150.057 112.482 150.396 112.482C150.736 112.482 151.01 112.367 151.217 112.137C151.428 111.906 151.533 111.617 151.533 111.27H152.283C152.283 111.809 152.107 112.246 151.756 112.582C151.408 112.918 150.955 113.086 150.396 113.086C149.838 113.086 149.383 112.918 149.031 112.582C148.684 112.246 148.51 111.809 148.51 111.27ZM118.527 126.801C119.309 126.801 119.938 127.088 120.414 127.662C120.895 128.236 121.135 129 121.135 129.953C121.135 130.902 120.896 131.666 120.42 132.244C119.943 132.818 119.32 133.105 118.551 133.105C118.121 133.105 117.736 133.008 117.396 132.812C117.057 132.617 116.795 132.35 116.611 132.01H116.588V135.033H115.568V126.906H116.535V127.938H116.559C116.75 127.586 117.018 127.309 117.361 127.105C117.705 126.902 118.094 126.801 118.527 126.801ZM118.328 132.209C118.871 132.209 119.301 132.006 119.617 131.6C119.934 131.193 120.092 130.645 120.092 129.953C120.092 129.262 119.934 128.713 119.617 128.307C119.301 127.9 118.871 127.697 118.328 127.697C117.805 127.697 117.383 127.904 117.062 128.318C116.742 128.732 116.582 129.277 116.582 129.953C116.582 130.633 116.742 131.18 117.062 131.594C117.383 132.004 117.805 132.209 118.328 132.209ZM126.045 130.047H122.201V129.098H126.045V130.047ZM131.424 133V130.258H128.418V133H127.41V126.906H128.418V129.42H131.424V126.906H132.432V133H131.424Z" fill="#C31844"/>
<path d="M8.62695 92H7.58398V84.5059H3.06055V92H2V83.5449H8.62695V92ZM13.1914 85.8008C13.9727 85.8008 14.6016 86.0879 15.0781 86.6621C15.5586 87.2363 15.7988 88 15.7988 88.9531C15.7988 89.9023 15.5605 90.666 15.084 91.2441C14.6074 91.8184 13.9844 92.1055 13.2148 92.1055C12.7852 92.1055 12.4004 92.0078 12.0605 91.8125C11.7207 91.6172 11.459 91.3496 11.2754 91.0098H11.252V94.0332H10.2324V85.9062H11.1992V86.9375H11.2227C11.4141 86.5859 11.6816 86.3086 12.0254 86.1055C12.3691 85.9023 12.7578 85.8008 13.1914 85.8008ZM12.9922 91.209C13.5352 91.209 13.9648 91.0059 14.2812 90.5996C14.5977 90.1934 14.7559 89.6445 14.7559 88.9531C14.7559 88.2617 14.5977 87.7129 14.2812 87.3066C13.9648 86.9004 13.5352 86.6973 12.9922 86.6973C12.4688 86.6973 12.0469 86.9043 11.7266 87.3184C11.4062 87.7324 11.2461 88.2773 11.2461 88.9531C11.2461 89.6328 11.4062 90.1797 11.7266 90.5938C12.0469 91.0039 12.4688 91.209 12.9922 91.209ZM19.4609 92.1055C18.6094 92.1055 17.9258 91.8223 17.4102 91.2559C16.8945 90.6855 16.6367 89.918 16.6367 88.9531C16.6367 87.9883 16.8945 87.2227 17.4102 86.6562C17.9258 86.0859 18.6094 85.8008 19.4609 85.8008C20.3086 85.8008 20.9902 86.0859 21.5059 86.6562C22.0215 87.2227 22.2793 87.9883 22.2793 88.9531C22.2793 89.9141 22.0215 90.6797 21.5059 91.25C20.9902 91.8203 20.3086 92.1055 19.4609 92.1055ZM18.1543 90.6113C18.4785 91.0098 18.9141 91.209 19.4609 91.209C20.0078 91.209 20.4414 91.0117 20.7617 90.6172C21.082 90.2188 21.2422 89.6641 21.2422 88.9531C21.2422 88.2422 21.082 87.6895 20.7617 87.2949C20.4414 86.8965 20.0078 86.6973 19.4609 86.6973C18.9141 86.6973 18.4785 86.8965 18.1543 87.2949C17.834 87.6934 17.6738 88.2461 17.6738 88.9531C17.6738 89.6602 17.834 90.2129 18.1543 90.6113ZM24.8047 89.3105C24.7773 89.6621 24.7383 89.9727 24.6875 90.2422C24.6406 90.5117 24.5723 90.7637 24.4824 90.998C24.3926 91.2324 24.2812 91.4258 24.1484 91.5781C24.0195 91.7266 23.8574 91.8438 23.6621 91.9297C23.4707 92.0117 23.248 92.0527 22.9941 92.0527C22.8535 92.0527 22.7324 92.0312 22.6309 91.9883V91.0684C22.7246 91.0996 22.8281 91.1152 22.9414 91.1152C23.2266 91.1152 23.4395 90.9609 23.5801 90.6523C23.7207 90.3398 23.8105 89.8848 23.8496 89.2871L24.084 85.9062H28.0742V92H27.0664V86.7441H24.9922L24.8047 89.3105ZM31.9648 86.6855C31.4922 86.6855 31.0996 86.8496 30.7871 87.1777C30.4785 87.502 30.3086 87.9199 30.2773 88.4316H33.5879C33.5762 87.916 33.4219 87.4961 33.125 87.1719C32.8281 86.8477 32.4414 86.6855 31.9648 86.6855ZM33.5645 90.2539H34.5664C34.4766 90.793 34.1953 91.2363 33.7227 91.584C33.2539 91.9316 32.6895 92.1055 32.0293 92.1055C31.1582 92.1055 30.4727 91.8242 29.9727 91.2617C29.4727 90.6992 29.2227 89.9375 29.2227 88.9766C29.2227 88.0234 29.4727 87.2559 29.9727 86.6738C30.4766 86.0918 31.1465 85.8008 31.9824 85.8008C32.8027 85.8008 33.4512 86.0762 33.9277 86.627C34.4043 87.1777 34.6426 87.916 34.6426 88.8418V89.2285H30.2715V89.2871C30.2715 89.873 30.4316 90.3418 30.752 90.6934C31.0723 91.0449 31.5059 91.2207 32.0527 91.2207C32.4355 91.2207 32.7617 91.1328 33.0312 90.957C33.3008 90.7812 33.4785 90.5469 33.5645 90.2539ZM39.998 85.9062V86.7441H38.0293V92H37.0215V86.7441H35.0527V85.9062H39.998ZM42.7227 91.2383C43.2031 91.2383 43.6055 91.0898 43.9297 90.793C44.2578 90.4922 44.4219 90.123 44.4219 89.6855V89.1875L42.793 89.2871C42.3828 89.3145 42.0645 89.4141 41.8379 89.5859C41.6152 89.7578 41.5039 89.9883 41.5039 90.2773C41.5039 90.5664 41.6152 90.7988 41.8379 90.9746C42.0605 91.1504 42.3555 91.2383 42.7227 91.2383ZM42.4941 92.1055C41.8887 92.1055 41.3984 91.9375 41.0234 91.6016C40.6523 91.2656 40.4668 90.8242 40.4668 90.2773C40.4668 89.7539 40.6582 89.3359 41.041 89.0234C41.4277 88.7109 41.9727 88.5352 42.6758 88.4961L44.4219 88.3965V87.8867C44.4219 87.5156 44.3047 87.2246 44.0703 87.0137C43.8359 86.8027 43.5078 86.6973 43.0859 86.6973C42.6992 86.6973 42.3848 86.7832 42.1426 86.9551C41.9004 87.123 41.7461 87.3594 41.6797 87.6641H40.6953C40.7305 87.1211 40.9648 86.6758 41.3984 86.3281C41.8359 85.9766 42.4062 85.8008 43.1094 85.8008C43.8242 85.8008 44.3906 85.9805 44.8086 86.3398C45.2305 86.6992 45.4414 87.1816 45.4414 87.7871V92H44.4746V90.9512H44.4512C44.2676 91.2988 43.998 91.5781 43.6426 91.7891C43.2871 92 42.9043 92.1055 42.4941 92.1055ZM49.8125 85.8008C50.5938 85.8008 51.2227 86.0879 51.6992 86.6621C52.1797 87.2363 52.4199 88 52.4199 88.9531C52.4199 89.9023 52.1816 90.666 51.7051 91.2441C51.2285 91.8184 50.6055 92.1055 49.8359 92.1055C49.4062 92.1055 49.0215 92.0078 48.6816 91.8125C48.3418 91.6172 48.0801 91.3496 47.8965 91.0098H47.873V94.0332H46.8535V85.9062H47.8203V86.9375H47.8438C48.0352 86.5859 48.3027 86.3086 48.6465 86.1055C48.9902 85.9023 49.3789 85.8008 49.8125 85.8008ZM49.6133 91.209C50.1562 91.209 50.5859 91.0059 50.9023 90.5996C51.2188 90.1934 51.377 89.6445 51.377 88.9531C51.377 88.2617 51.2188 87.7129 50.9023 87.3066C50.5859 86.9004 50.1562 86.6973 49.6133 86.6973C49.0898 86.6973 48.668 86.9043 48.3477 87.3184C48.0273 87.7324 47.8672 88.2773 47.8672 88.9531C47.8672 89.6328 48.0273 90.1797 48.3477 90.5938C48.668 91.0039 49.0898 91.209 49.6133 91.209ZM58.5957 87.7812H57.5879C57.4941 87.4648 57.3164 87.2051 57.0547 87.002C56.793 86.7988 56.459 86.6973 56.0527 86.6973C55.5215 86.6973 55.0957 86.9043 54.7754 87.3184C54.4551 87.7285 54.2949 88.2734 54.2949 88.9531C54.2949 89.6445 54.4551 90.1934 54.7754 90.5996C55.0996 91.0059 55.5293 91.209 56.0645 91.209C56.4629 91.209 56.793 91.1152 57.0547 90.9277C57.3203 90.7402 57.502 90.4766 57.5996 90.1367H58.6074C58.5059 90.7227 58.2246 91.1973 57.7637 91.5605C57.3027 91.9238 56.7344 92.1055 56.0586 92.1055C55.207 92.1055 54.5273 91.8223 54.0195 91.2559C53.5117 90.6855 53.2578 89.918 53.2578 88.9531C53.2578 88.0039 53.5117 87.2422 54.0195 86.668C54.5273 86.0898 55.2031 85.8008 56.0469 85.8008C56.7461 85.8008 57.3203 85.9922 57.7695 86.375C58.2227 86.7578 58.498 87.2266 58.5957 87.7812ZM61.7363 88.7891L64.666 92H63.3535L60.7227 89.0703H60.6758V92H59.668V85.9062H60.6758V88.6016H60.7227L63.3242 85.9062H64.584L61.7363 88.7891ZM66.5234 92H65.5156V85.9062H66.5234V90.4414H66.5703L69.6172 85.9062H70.625V92H69.6172V87.4648H69.5703L66.5234 92ZM73.0625 92H72.0547V85.9062H73.0625V90.4414H73.1094L76.1562 85.9062H77.1641V92H76.1562V87.4648H76.1094L73.0625 92ZM72.834 83.2695H73.584C73.584 83.6172 73.6875 83.9062 73.8945 84.1367C74.1055 84.3672 74.3809 84.4824 74.7207 84.4824C75.0605 84.4824 75.334 84.3672 75.541 84.1367C75.752 83.9062 75.8574 83.6172 75.8574 83.2695H76.6074C76.6074 83.8086 76.4316 84.2461 76.0801 84.582C75.7324 84.918 75.2793 85.0859 74.7207 85.0859C74.1621 85.0859 73.707 84.918 73.3555 84.582C73.0078 84.2461 72.834 83.8086 72.834 83.2695ZM34.0273 98.8008C34.8086 98.8008 35.4375 99.0879 35.9141 99.6621C36.3945 100.236 36.6348 101 36.6348 101.953C36.6348 102.902 36.3965 103.666 35.9199 104.244C35.4434 104.818 34.8203 105.105 34.0508 105.105C33.6211 105.105 33.2363 105.008 32.8965 104.812C32.5566 104.617 32.2949 104.35 32.1113 104.01H32.0879V107.033H31.0684V98.9062H32.0352V99.9375H32.0586C32.25 99.5859 32.5176 99.3086 32.8613 99.1055C33.2051 98.9023 33.5938 98.8008 34.0273 98.8008ZM33.8281 104.209C34.3711 104.209 34.8008 104.006 35.1172 103.6C35.4336 103.193 35.5918 102.645 35.5918 101.953C35.5918 101.262 35.4336 100.713 35.1172 100.307C34.8008 99.9004 34.3711 99.6973 33.8281 99.6973C33.3047 99.6973 32.8828 99.9043 32.5625 100.318C32.2422 100.732 32.082 101.277 32.082 101.953C32.082 102.633 32.2422 103.18 32.5625 103.594C32.8828 104.004 33.3047 104.209 33.8281 104.209ZM41.5449 102.047H37.7012V101.098H41.5449V102.047ZM46.9238 105V102.258H43.918V105H42.9102V98.9062H43.918V101.42H46.9238V98.9062H47.9316V105H46.9238Z" fill="#C31844"/>
<path d="M24.6484 224.141C23.4805 224.141 22.5527 223.748 21.8652 222.963C21.1816 222.174 20.8398 221.109 20.8398 219.77C20.8398 218.441 21.1855 217.383 21.877 216.594C22.5684 215.801 23.4922 215.404 24.6484 215.404C25.5469 215.404 26.3125 215.65 26.9453 216.143C27.582 216.631 27.9785 217.281 28.1348 218.094H27.0566C26.9043 217.57 26.6094 217.154 26.1719 216.846C25.7344 216.533 25.2266 216.377 24.6484 216.377C23.8242 216.377 23.1641 216.686 22.668 217.303C22.1719 217.92 21.9238 218.742 21.9238 219.77C21.9238 220.809 22.1699 221.635 22.6621 222.248C23.1543 222.861 23.8184 223.168 24.6543 223.168C25.252 223.168 25.7598 223.035 26.1777 222.77C26.5957 222.504 26.8887 222.129 27.0566 221.645H28.1348C27.9277 222.449 27.5234 223.066 26.9219 223.496C26.3203 223.926 25.5625 224.141 24.6484 224.141ZM31.3516 223.238C31.832 223.238 32.2344 223.09 32.5586 222.793C32.8867 222.492 33.0508 222.123 33.0508 221.686V221.188L31.4219 221.287C31.0117 221.314 30.6934 221.414 30.4668 221.586C30.2441 221.758 30.1328 221.988 30.1328 222.277C30.1328 222.566 30.2441 222.799 30.4668 222.975C30.6895 223.15 30.9844 223.238 31.3516 223.238ZM31.123 224.105C30.5176 224.105 30.0273 223.938 29.6523 223.602C29.2812 223.266 29.0957 222.824 29.0957 222.277C29.0957 221.754 29.2871 221.336 29.6699 221.023C30.0566 220.711 30.6016 220.535 31.3047 220.496L33.0508 220.396V219.887C33.0508 219.516 32.9336 219.225 32.6992 219.014C32.4648 218.803 32.1367 218.697 31.7148 218.697C31.3281 218.697 31.0137 218.783 30.7715 218.955C30.5293 219.123 30.375 219.359 30.3086 219.664H29.3242C29.3594 219.121 29.5938 218.676 30.0273 218.328C30.4648 217.977 31.0352 217.801 31.7383 217.801C32.4531 217.801 33.0195 217.98 33.4375 218.34C33.8594 218.699 34.0703 219.182 34.0703 219.787V224H33.1035V222.951H33.0801C32.8965 223.299 32.627 223.578 32.2715 223.789C31.916 224 31.5332 224.105 31.123 224.105ZM37.1055 221.311C37.0781 221.662 37.0391 221.973 36.9883 222.242C36.9414 222.512 36.873 222.764 36.7832 222.998C36.6934 223.232 36.582 223.426 36.4492 223.578C36.3203 223.727 36.1582 223.844 35.9629 223.93C35.7715 224.012 35.5488 224.053 35.2949 224.053C35.1543 224.053 35.0332 224.031 34.9316 223.988V223.068C35.0254 223.1 35.1289 223.115 35.2422 223.115C35.5273 223.115 35.7402 222.961 35.8809 222.652C36.0215 222.34 36.1113 221.885 36.1504 221.287L36.3848 217.906H40.375V224H39.3672V218.744H37.293L37.1055 221.311ZM43.9609 220.689H42.8242V223.162H43.9609C44.3555 223.162 44.6699 223.049 44.9043 222.822C45.1426 222.596 45.2617 222.297 45.2617 221.926C45.2617 221.551 45.1426 221.252 44.9043 221.029C44.6699 220.803 44.3555 220.689 43.9609 220.689ZM41.8164 224V217.906H42.8242V219.852H43.9785C44.6777 219.852 45.2344 220.039 45.6484 220.414C46.0625 220.789 46.2695 221.293 46.2695 221.926C46.2695 222.559 46.0625 223.062 45.6484 223.438C45.2344 223.812 44.6777 224 43.9785 224H41.8164ZM52.4277 219.781H51.4199C51.3262 219.465 51.1484 219.205 50.8867 219.002C50.625 218.799 50.291 218.697 49.8848 218.697C49.3535 218.697 48.9277 218.904 48.6074 219.318C48.2871 219.729 48.127 220.273 48.127 220.953C48.127 221.645 48.2871 222.193 48.6074 222.6C48.9316 223.006 49.3613 223.209 49.8965 223.209C50.2949 223.209 50.625 223.115 50.8867 222.928C51.1523 222.74 51.334 222.477 51.4316 222.137H52.4395C52.3379 222.723 52.0566 223.197 51.5957 223.561C51.1348 223.924 50.5664 224.105 49.8906 224.105C49.0391 224.105 48.3594 223.822 47.8516 223.256C47.3438 222.686 47.0898 221.918 47.0898 220.953C47.0898 220.004 47.3438 219.242 47.8516 218.668C48.3594 218.09 49.0352 217.801 49.8789 217.801C50.5781 217.801 51.1523 217.992 51.6016 218.375C52.0547 218.758 52.3301 219.227 52.4277 219.781ZM55.5684 220.789L58.498 224H57.1855L54.5547 221.07H54.5078V224H53.5V217.906H54.5078V220.602H54.5547L57.1562 217.906H58.416L55.5684 220.789ZM60.3555 224H59.3477V217.906H60.3555V222.441H60.4023L63.4492 217.906H64.457V224H63.4492V219.465H63.4023L60.3555 224ZM66.8945 224H65.8867V217.906H66.8945V222.441H66.9414L69.9883 217.906H70.9961V224H69.9883V219.465H69.9414L66.8945 224ZM66.666 215.27H67.416C67.416 215.617 67.5195 215.906 67.7266 216.137C67.9375 216.367 68.2129 216.482 68.5527 216.482C68.8926 216.482 69.166 216.367 69.373 216.137C69.584 215.906 69.6895 215.617 69.6895 215.27H70.4395C70.4395 215.809 70.2637 216.246 69.9121 216.582C69.5645 216.918 69.1113 217.086 68.5527 217.086C67.9941 217.086 67.5391 216.918 67.1875 216.582C66.8398 216.246 66.666 215.809 66.666 215.27ZM40.5273 230.801C41.3086 230.801 41.9375 231.088 42.4141 231.662C42.8945 232.236 43.1348 233 43.1348 233.953C43.1348 234.902 42.8965 235.666 42.4199 236.244C41.9434 236.818 41.3203 237.105 40.5508 237.105C40.1211 237.105 39.7363 237.008 39.3965 236.812C39.0566 236.617 38.7949 236.35 38.6113 236.01H38.5879V239.033H37.5684V230.906H38.5352V231.938H38.5586C38.75 231.586 39.0176 231.309 39.3613 231.105C39.7051 230.902 40.0938 230.801 40.5273 230.801ZM40.3281 236.209C40.8711 236.209 41.3008 236.006 41.6172 235.6C41.9336 235.193 42.0918 234.645 42.0918 233.953C42.0918 233.262 41.9336 232.713 41.6172 232.307C41.3008 231.9 40.8711 231.697 40.3281 231.697C39.8047 231.697 39.3828 231.904 39.0625 232.318C38.7422 232.732 38.582 233.277 38.582 233.953C38.582 234.633 38.7422 235.18 39.0625 235.594C39.3828 236.004 39.8047 236.209 40.3281 236.209ZM48.0449 234.047H44.2012V233.098H48.0449V234.047ZM53.4238 237V234.258H50.418V237H49.4102V230.906H50.418V233.42H53.4238V230.906H54.4316V237H53.4238Z" fill="#C31844"/>
<path d="M9.40234 34H8.41797V27.4844H8.37695L5.68164 33.9414H4.79102L2.0957 27.4844H2.05469V34H1.07031V25.5449H2.29492L5.21289 32.5996H5.25977L8.17773 25.5449H9.40234V34ZM13.0117 33.2383C13.4922 33.2383 13.8945 33.0898 14.2188 32.793C14.5469 32.4922 14.7109 32.123 14.7109 31.6855V31.1875L13.082 31.2871C12.6719 31.3145 12.3535 31.4141 12.127 31.5859C11.9043 31.7578 11.793 31.9883 11.793 32.2773C11.793 32.5664 11.9043 32.7988 12.127 32.9746C12.3496 33.1504 12.6445 33.2383 13.0117 33.2383ZM12.7832 34.1055C12.1777 34.1055 11.6875 33.9375 11.3125 33.6016C10.9414 33.2656 10.7559 32.8242 10.7559 32.2773C10.7559 31.7539 10.9473 31.3359 11.3301 31.0234C11.7168 30.7109 12.2617 30.5352 12.9648 30.4961L14.7109 30.3965V29.8867C14.7109 29.5156 14.5938 29.2246 14.3594 29.0137C14.125 28.8027 13.7969 28.6973 13.375 28.6973C12.9883 28.6973 12.6738 28.7832 12.4316 28.9551C12.1895 29.123 12.0352 29.3594 11.9688 29.6641H10.9844C11.0195 29.1211 11.2539 28.6758 11.6875 28.3281C12.125 27.9766 12.6953 27.8008 13.3984 27.8008C14.1133 27.8008 14.6797 27.9805 15.0977 28.3398C15.5195 28.6992 15.7305 29.1816 15.7305 29.7871V34H14.7637V32.9512H14.7402C14.5566 33.2988 14.2871 33.5781 13.9316 33.7891C13.5762 34 13.1934 34.1055 12.7832 34.1055ZM20.1016 27.8008C20.8828 27.8008 21.5117 28.0879 21.9883 28.6621C22.4688 29.2363 22.709 30 22.709 30.9531C22.709 31.9023 22.4707 32.666 21.9941 33.2441C21.5176 33.8184 20.8945 34.1055 20.125 34.1055C19.6953 34.1055 19.3105 34.0078 18.9707 33.8125C18.6309 33.6172 18.3691 33.3496 18.1855 33.0098H18.1621V36.0332H17.1426V27.9062H18.1094V28.9375H18.1328C18.3242 28.5859 18.5918 28.3086 18.9355 28.1055C19.2793 27.9023 19.668 27.8008 20.1016 27.8008ZM19.9023 33.209C20.4453 33.209 20.875 33.0059 21.1914 32.5996C21.5078 32.1934 21.666 31.6445 21.666 30.9531C21.666 30.2617 21.5078 29.7129 21.1914 29.3066C20.875 28.9004 20.4453 28.6973 19.9023 28.6973C19.3789 28.6973 18.957 28.9043 18.6367 29.3184C18.3164 29.7324 18.1562 30.2773 18.1562 30.9531C18.1562 31.6328 18.3164 32.1797 18.6367 32.5938C18.957 33.0039 19.3789 33.209 19.9023 33.209ZM28.0645 27.9062V28.7441H26.0957V34H25.0879V28.7441H23.1191V27.9062H28.0645ZM34.2227 34V27.9062H35.2305V34H34.2227ZM31.1523 30.6895H30.0156V33.1621H31.1523C31.5469 33.1621 31.8613 33.0488 32.0957 32.8223C32.334 32.5957 32.4531 32.2969 32.4531 31.9258C32.4531 31.5508 32.334 31.252 32.0957 31.0293C31.8613 30.8027 31.5469 30.6895 31.1523 30.6895ZM29.0078 34V27.9062H30.0156V29.8516H31.1699C31.8691 29.8516 32.4258 30.0391 32.8398 30.4141C33.2539 30.7891 33.4609 31.293 33.4609 31.9258C33.4609 32.5586 33.2539 33.0625 32.8398 33.4375C32.4258 33.8125 31.8691 34 31.1699 34H29.0078ZM40.6738 34V31.2578H37.668V34H36.6602V27.9062H37.668V30.4199H40.6738V27.9062H41.6816V34H40.6738ZM45.6484 34.1055C44.7969 34.1055 44.1133 33.8223 43.5977 33.2559C43.082 32.6855 42.8242 31.918 42.8242 30.9531C42.8242 29.9883 43.082 29.2227 43.5977 28.6562C44.1133 28.0859 44.7969 27.8008 45.6484 27.8008C46.4961 27.8008 47.1777 28.0859 47.6934 28.6562C48.209 29.2227 48.4668 29.9883 48.4668 30.9531C48.4668 31.9141 48.209 32.6797 47.6934 33.25C47.1777 33.8203 46.4961 34.1055 45.6484 34.1055ZM44.3418 32.6113C44.666 33.0098 45.1016 33.209 45.6484 33.209C46.1953 33.209 46.6289 33.0117 46.9492 32.6172C47.2695 32.2188 47.4297 31.6641 47.4297 30.9531C47.4297 30.2422 47.2695 29.6895 46.9492 29.2949C46.6289 28.8965 46.1953 28.6973 45.6484 28.6973C45.1016 28.6973 44.666 28.8965 44.3418 29.2949C44.0215 29.6934 43.8613 30.2461 43.8613 30.9531C43.8613 31.6602 44.0215 32.2129 44.3418 32.6113ZM52.0645 28.7324H50.6055V30.4375H51.9121C52.6699 30.4375 53.0488 30.1484 53.0488 29.5703C53.0488 29.3008 52.9648 29.0938 52.7969 28.9492C52.6289 28.8047 52.3848 28.7324 52.0645 28.7324ZM51.9941 31.2578H50.6055V33.1738H52.1758C52.543 33.1738 52.8242 33.0938 53.0195 32.9336C53.2148 32.7695 53.3125 32.5332 53.3125 32.2246C53.3125 31.5801 52.873 31.2578 51.9941 31.2578ZM49.5977 34V27.9062H52.2051C52.7754 27.9062 53.2246 28.0449 53.5527 28.3223C53.8809 28.5996 54.0449 28.9805 54.0449 29.4648C54.0449 29.7734 53.9473 30.0547 53.752 30.3086C53.5605 30.5625 53.3242 30.7188 53.043 30.7773V30.8242C53.4258 30.8789 53.7324 31.0352 53.9629 31.293C54.1973 31.5508 54.3145 31.8691 54.3145 32.248C54.3145 32.7871 54.127 33.2148 53.752 33.5312C53.3809 33.8438 52.8711 34 52.2227 34H49.5977ZM60.5254 29.7812H59.5176C59.4238 29.4648 59.2461 29.2051 58.9844 29.002C58.7227 28.7988 58.3887 28.6973 57.9824 28.6973C57.4512 28.6973 57.0254 28.9043 56.7051 29.3184C56.3848 29.7285 56.2246 30.2734 56.2246 30.9531C56.2246 31.6445 56.3848 32.1934 56.7051 32.5996C57.0293 33.0059 57.459 33.209 57.9941 33.209C58.3926 33.209 58.7227 33.1152 58.9844 32.9277C59.25 32.7402 59.4316 32.4766 59.5293 32.1367H60.5371C60.4355 32.7227 60.1543 33.1973 59.6934 33.5605C59.2324 33.9238 58.6641 34.1055 57.9883 34.1055C57.1367 34.1055 56.457 33.8223 55.9492 33.2559C55.4414 32.6855 55.1875 31.918 55.1875 30.9531C55.1875 30.0039 55.4414 29.2422 55.9492 28.668C56.457 28.0898 57.1328 27.8008 57.9766 27.8008C58.6758 27.8008 59.25 27.9922 59.6992 28.375C60.1523 28.7578 60.4277 29.2266 60.5254 29.7812ZM63.666 30.7891L66.5957 34H65.2832L62.6523 31.0703H62.6055V34H61.5977V27.9062H62.6055V30.6016H62.6523L65.2539 27.9062H66.5137L63.666 30.7891ZM68.4531 34H67.4453V27.9062H68.4531V32.4414H68.5L71.5469 27.9062H72.5547V34H71.5469V29.4648H71.5L68.4531 34ZM74.9922 34H73.9844V27.9062H74.9922V32.4414H75.0391L78.0859 27.9062H79.0938V34H78.0859V29.4648H78.0391L74.9922 34ZM74.7637 25.2695H75.5137C75.5137 25.6172 75.6172 25.9062 75.8242 26.1367C76.0352 26.3672 76.3105 26.4824 76.6504 26.4824C76.9902 26.4824 77.2637 26.3672 77.4707 26.1367C77.6816 25.9062 77.7871 25.6172 77.7871 25.2695H78.5371C78.5371 25.8086 78.3613 26.2461 78.0098 26.582C77.6621 26.918 77.209 27.0859 76.6504 27.0859C76.0918 27.0859 75.6367 26.918 75.2852 26.582C74.9375 26.2461 74.7637 25.8086 74.7637 25.2695ZM34.5273 40.8008C35.3086 40.8008 35.9375 41.0879 36.4141 41.6621C36.8945 42.2363 37.1348 43 37.1348 43.9531C37.1348 44.9023 36.8965 45.666 36.4199 46.2441C35.9434 46.8184 35.3203 47.1055 34.5508 47.1055C34.1211 47.1055 33.7363 47.0078 33.3965 46.8125C33.0566 46.6172 32.7949 46.3496 32.6113 46.0098H32.5879V49.0332H31.5684V40.9062H32.5352V41.9375H32.5586C32.75 41.5859 33.0176 41.3086 33.3613 41.1055C33.7051 40.9023 34.0938 40.8008 34.5273 40.8008ZM34.3281 46.209C34.8711 46.209 35.3008 46.0059 35.6172 45.5996C35.9336 45.1934 36.0918 44.6445 36.0918 43.9531C36.0918 43.2617 35.9336 42.7129 35.6172 42.3066C35.3008 41.9004 34.8711 41.6973 34.3281 41.6973C33.8047 41.6973 33.3828 41.9043 33.0625 42.3184C32.7422 42.7324 32.582 43.2773 32.582 43.9531C32.582 44.6328 32.7422 45.1797 33.0625 45.5938C33.3828 46.0039 33.8047 46.209 34.3281 46.209ZM42.0449 44.0469H38.2012V43.0977H42.0449V44.0469ZM47.4238 47V44.2578H44.418V47H43.4102V40.9062H44.418V43.4199H47.4238V40.9062H48.4316V47H47.4238Z" fill="#C31844"/>
</svg>
