<svg width="289" height="158" viewBox="0 0 289 158" fill="none" xmlns="http://www.w3.org/2000/svg">
<path d="M169.184 131.882L175.644 134.718L186.317 128.317L175.644 121.915L169.184 124.751C169.077 124.801 168.961 124.817 168.853 124.817C168.538 124.817 168.231 124.635 168.09 124.32C167.907 123.897 168.098 123.407 168.513 123.225L173.895 120.862L170.146 118.614C169.757 118.382 169.624 117.868 169.864 117.478C170.105 117.089 170.611 116.956 171 117.196L174.823 119.493L174.201 113.672C174.152 113.216 174.483 112.81 174.939 112.76C175.395 112.71 175.802 113.042 175.852 113.498L176.606 120.563L187.088 126.857V114.427L181.349 110.355C180.976 110.09 180.885 109.576 181.15 109.202C181.416 108.829 181.93 108.738 182.303 109.003L187.08 112.395V108.829C187.08 108.373 187.453 108 187.909 108C188.365 108 188.738 108.373 188.738 108.829V112.354L193.523 108.995C193.896 108.73 194.418 108.821 194.676 109.194C194.941 109.567 194.85 110.09 194.476 110.347L188.746 114.369V126.841L199.294 120.505L199.974 113.481C200.016 113.025 200.422 112.694 200.878 112.735C201.334 112.776 201.666 113.183 201.625 113.639L201.061 119.435L204.834 117.171C205.224 116.939 205.738 117.064 205.97 117.453C206.202 117.843 206.078 118.357 205.688 118.59L201.956 120.828L207.322 123.208C207.736 123.391 207.927 123.88 207.744 124.303C207.603 124.61 207.305 124.801 206.99 124.801C206.874 124.801 206.766 124.776 206.658 124.726L200.231 121.873L189.534 128.292L200.231 134.71L206.658 131.857C207.081 131.675 207.57 131.857 207.753 132.28C207.935 132.695 207.753 133.193 207.33 133.375L201.965 135.755L205.696 137.994C206.086 138.226 206.219 138.74 205.978 139.13C205.821 139.387 205.547 139.536 205.265 139.536C205.116 139.536 204.975 139.495 204.842 139.42L201.069 137.156L201.633 142.953C201.674 143.409 201.343 143.815 200.887 143.857C200.862 143.857 200.829 143.857 200.804 143.857C200.381 143.857 200.024 143.533 199.983 143.11L199.303 136.087L188.755 129.751V142.588L194.46 146.228C194.85 146.477 194.957 146.991 194.717 147.373C194.559 147.621 194.294 147.754 194.02 147.754C193.871 147.754 193.714 147.713 193.573 147.621L188.763 144.553V147.771C188.763 148.227 188.39 148.6 187.934 148.6C187.478 148.6 187.104 148.227 187.104 147.771V144.52L182.295 147.621C181.913 147.87 181.399 147.762 181.15 147.373C180.902 146.983 181.009 146.477 181.399 146.228L187.096 142.58V129.776L176.614 136.07L175.86 143.135C175.818 143.558 175.454 143.873 175.039 143.873C175.006 143.873 174.981 143.873 174.948 143.865C174.492 143.815 174.16 143.409 174.21 142.953L174.832 137.131L171.009 139.429C170.876 139.511 170.727 139.545 170.586 139.545C170.304 139.545 170.03 139.404 169.873 139.138C169.64 138.749 169.765 138.234 170.155 138.002L173.903 135.755L168.521 133.392C168.098 133.209 167.907 132.72 168.098 132.297C168.281 131.891 168.77 131.7 169.184 131.882Z" fill="white"/>
<path d="M0.842796 66.2945L5.52072 68.3482L13.2492 63.7123L5.52072 59.0764L0.842796 61.1302C0.764731 61.1662 0.680661 61.1782 0.602595 61.1782C0.374404 61.1782 0.152217 61.0461 0.0501316 60.8179C-0.081979 60.5116 0.056137 60.1573 0.356389 60.0252L4.25365 58.3138L1.53938 56.6864C1.25714 56.5183 1.16106 56.146 1.33521 55.8638C1.50935 55.5815 1.87566 55.4854 2.1579 55.6596L4.92622 57.323L4.47584 53.1074C4.43981 52.7772 4.68001 52.4829 5.01029 52.4469C5.34056 52.4109 5.63481 52.6511 5.67084 52.9813L6.2173 58.0976L13.8077 62.6554V53.6539L9.65218 50.7054C9.38195 50.5133 9.31589 50.141 9.50806 49.8707C9.70022 49.6005 10.0725 49.5344 10.3428 49.7266L13.8017 52.1827V49.6005C13.8017 49.2702 14.0719 49 14.4022 49C14.7324 49 15.0027 49.2702 15.0027 49.6005V52.1526L18.4676 49.7206C18.7378 49.5284 19.1161 49.5945 19.3023 49.8647C19.4944 50.135 19.4284 50.5133 19.1581 50.6994L15.0087 53.6119V62.6434L22.6471 58.0556L23.1395 52.9693C23.1695 52.639 23.4637 52.3988 23.794 52.4289C24.1243 52.4589 24.3645 52.7531 24.3345 53.0834L23.9261 57.2809L26.6584 55.6416C26.9407 55.4734 27.313 55.5635 27.4811 55.8457C27.6493 56.128 27.5592 56.5003 27.2769 56.6684L24.5747 58.2898L28.4599 60.0132C28.7602 60.1453 28.8983 60.4996 28.7662 60.8059C28.6641 61.0281 28.4479 61.1662 28.2197 61.1662C28.1357 61.1662 28.0576 61.1482 27.9795 61.1121L23.3256 59.0464L15.5791 63.6943L23.3256 68.3422L27.9795 66.2765C28.2858 66.1444 28.6401 66.2765 28.7722 66.5827C28.9043 66.883 28.7722 67.2433 28.4659 67.3754L24.5807 69.0988L27.2829 70.7202C27.5652 70.8883 27.6613 71.2606 27.4871 71.5429C27.373 71.729 27.1749 71.8371 26.9707 71.8371C26.8626 71.8371 26.7605 71.8071 26.6644 71.7531L23.9321 70.1137L24.3405 74.3112C24.3705 74.6415 24.1303 74.9357 23.8 74.9658C23.782 74.9658 23.758 74.9658 23.74 74.9658C23.4337 74.9658 23.1755 74.7316 23.1455 74.4253L22.6531 69.339L15.0147 64.7512V74.047L19.1461 76.6832C19.4284 76.8633 19.5064 77.2357 19.3323 77.5119C19.2182 77.692 19.026 77.7881 18.8279 77.7881C18.7198 77.7881 18.6057 77.7581 18.5036 77.692L15.0207 75.4702V77.8001C15.0207 78.1304 14.7504 78.4006 14.4202 78.4006C14.0899 78.4006 13.8197 78.1304 13.8197 77.8001V75.4462L10.3368 77.692C10.0605 77.8722 9.68821 77.7941 9.50806 77.5119C9.3279 77.2296 9.40597 76.8633 9.68821 76.6832L13.8137 74.041V64.7692L6.2233 69.327L5.67685 74.4433C5.64682 74.7496 5.3826 74.9778 5.08235 74.9778C5.05833 74.9778 5.04031 74.9778 5.01629 74.9718C4.68602 74.9357 4.44582 74.6415 4.48185 74.3112L4.93222 70.0957L2.1639 71.7591C2.06782 71.8191 1.95973 71.8431 1.85765 71.8431C1.65348 71.8431 1.45531 71.7411 1.34121 71.5489C1.17307 71.2667 1.26315 70.8943 1.54538 70.7262L4.25966 69.0988L0.362394 67.3874C0.0561374 67.2553 -0.0819787 66.901 0.056137 66.5947C0.188248 66.3005 0.542545 66.1624 0.842796 66.2945Z" fill="white"/>
<path d="M223.759 19.2006L228.952 21.4807L237.533 16.3338L228.952 11.187L223.759 13.4671C223.672 13.5071 223.579 13.5204 223.492 13.5204C223.239 13.5204 222.992 13.3737 222.879 13.1204C222.732 12.7804 222.886 12.387 223.219 12.2404L227.546 10.3403L224.532 8.5336C224.219 8.34692 224.112 7.93358 224.306 7.62023C224.499 7.30689 224.906 7.20022 225.219 7.39356L228.292 9.24028L227.792 4.56014C227.752 4.19346 228.019 3.86679 228.386 3.82678C228.752 3.78678 229.079 4.05346 229.119 4.42014L229.726 10.1003L238.153 15.1605V5.16683L233.539 1.89339C233.239 1.68005 233.166 1.26671 233.379 0.966696C233.593 0.666687 234.006 0.593352 234.306 0.806692L238.146 3.53344V0.666687C238.146 0.300009 238.446 0 238.813 0C239.179 0 239.479 0.300009 239.479 0.666687V3.50011L243.326 0.800025C243.626 0.586685 244.046 0.66002 244.253 0.96003C244.466 1.26004 244.393 1.68005 244.093 1.88672L239.486 5.12016V15.1471L247.966 10.0536L248.513 4.4068C248.546 4.04012 248.873 3.77345 249.24 3.80678C249.606 3.84012 249.873 4.16679 249.84 4.53347L249.386 9.19362L252.42 7.37356C252.733 7.18689 253.147 7.28689 253.333 7.60023C253.52 7.91358 253.42 8.32692 253.107 8.5136L250.106 10.3137L254.42 12.227C254.753 12.3737 254.907 12.7671 254.76 13.1071C254.647 13.3537 254.407 13.5071 254.153 13.5071C254.06 13.5071 253.973 13.4871 253.887 13.4471L248.72 11.1537L240.119 16.3138L248.72 21.474L253.887 19.1806C254.227 19.0339 254.62 19.1806 254.767 19.5206C254.913 19.8539 254.767 20.254 254.427 20.4006L250.113 22.314L253.113 24.1141C253.427 24.3007 253.533 24.7141 253.34 25.0274C253.213 25.2341 252.993 25.3541 252.767 25.3541C252.647 25.3541 252.533 25.3208 252.426 25.2608L249.393 23.4407L249.846 28.1009C249.88 28.4675 249.613 28.7942 249.246 28.8276C249.226 28.8276 249.2 28.8276 249.18 28.8276C248.84 28.8276 248.553 28.5675 248.52 28.2275L247.973 22.5807L239.493 17.4872V27.8075L244.08 30.7343C244.393 30.9343 244.48 31.3476 244.286 31.6543C244.16 31.8543 243.946 31.961 243.726 31.961C243.606 31.961 243.48 31.9276 243.366 31.8543L239.499 29.3876V31.9743C239.499 32.341 239.199 32.641 238.833 32.641C238.466 32.641 238.166 32.341 238.166 31.9743V29.3609L234.299 31.8543C233.993 32.0543 233.579 31.9676 233.379 31.6543C233.179 31.341 233.266 30.9343 233.579 30.7343L238.159 27.8009V17.5072L229.732 22.5674L229.126 28.2475C229.092 28.5875 228.799 28.8409 228.466 28.8409C228.439 28.8409 228.419 28.8409 228.392 28.8342C228.026 28.7942 227.759 28.4675 227.799 28.1009L228.299 23.4207L225.226 25.2674C225.119 25.3341 224.999 25.3608 224.886 25.3608C224.659 25.3608 224.439 25.2474 224.312 25.0341C224.126 24.7208 224.226 24.3074 224.539 24.1207L227.552 22.314L223.226 20.414C222.886 20.2673 222.732 19.8739 222.886 19.5339C223.032 19.2073 223.426 19.0539 223.759 19.2006Z" fill="white"/>
<path d="M110.512 24.6133L118.984 26.8804L120.658 25.9141L123.165 22.9889L120.657 20.0627L118.983 19.0964L110.512 21.3657C110.464 21.3788 110.417 21.3843 110.37 21.3843C110.128 21.3843 109.906 21.2231 109.841 20.9774C109.765 20.6845 109.938 20.384 110.23 20.3061L117.641 18.3209L114.331 16.4103L111.096 17.2779C111.048 17.291 111.001 17.2965 110.954 17.2965C110.71 17.2965 110.49 17.1353 110.424 16.8896C110.347 16.5968 110.519 16.2962 110.812 16.2184L112.986 15.6349L110.577 14.243C110.315 14.0917 110.225 13.756 110.374 13.4939C110.527 13.2307 110.86 13.1418 111.126 13.2932L113.532 14.6839L112.952 12.5134C112.874 12.2205 113.047 11.92 113.34 11.8421C113.636 11.7665 113.934 11.9376 114.013 12.2304L114.878 15.4627L118.188 17.3744L116.202 9.9655C116.124 9.67266 116.297 9.37213 116.59 9.29426C116.887 9.21748 117.183 9.38859 117.262 9.68253L119.529 18.1509L121.204 19.1183L124.994 19.8279L126.274 16.1888V14.2529L120.075 8.05268C119.862 7.83881 119.862 7.49112 120.075 7.27724C120.287 7.06337 120.637 7.06337 120.85 7.27724L126.274 12.702V8.88077L123.906 6.51387C123.694 6.29999 123.694 5.95231 123.906 5.73843C124.12 5.52455 124.468 5.52455 124.681 5.73843L126.274 7.32989V4.5484C126.274 4.24568 126.519 4 126.822 4C127.125 4 127.371 4.24568 127.371 4.5484V7.32989L128.962 5.73843C129.176 5.52455 129.524 5.52455 129.737 5.73843C129.95 5.95231 129.95 6.29999 129.737 6.51387L127.371 8.88077V12.702L132.795 7.27724C133.008 7.06337 133.357 7.06337 133.571 7.27724C133.784 7.49112 133.784 7.83881 133.571 8.05268L127.372 14.2529V16.1877L128.653 19.8236L132.44 19.1139L134.116 18.1465L136.383 9.67814C136.462 9.3853 136.758 9.2131 137.055 9.28987C137.348 9.36775 137.521 9.66937 137.444 9.96112L135.457 17.37L138.767 15.4583L139.633 12.226C139.712 11.9321 140.01 11.761 140.305 11.8377C140.598 11.9156 140.771 12.2172 140.693 12.509L140.111 14.6818L142.52 13.291C142.779 13.1418 143.117 13.2296 143.269 13.4917C143.421 13.7539 143.331 14.0895 143.068 14.2408L140.657 15.6327L142.832 16.2162C143.126 16.294 143.299 16.5957 143.22 16.8874C143.152 17.1331 142.932 17.2943 142.691 17.2943C142.643 17.2943 142.596 17.2888 142.548 17.2757L139.314 16.4081L136.003 18.3187L143.415 20.304C143.71 20.3818 143.882 20.6834 143.803 20.9752C143.738 21.2209 143.517 21.3821 143.275 21.3821C143.228 21.3821 143.181 21.3766 143.134 21.3635L134.663 19.0942L132.989 20.0605L130.48 22.9878L132.989 25.9141L134.663 26.8804L143.134 24.6122C143.421 24.5354 143.726 24.7065 143.805 25.0005C143.882 25.2955 143.71 25.5938 143.417 25.6706L136.006 27.6569L139.317 29.5697L142.549 28.7022C142.844 28.6254 143.143 28.7965 143.221 29.0904C143.299 29.3855 143.126 29.6838 142.833 29.7617L140.66 30.3441L143.07 31.7359C143.331 31.8884 143.421 32.2229 143.271 32.4872C143.17 32.6616 142.985 32.7614 142.796 32.7614C142.702 32.7614 142.607 32.7384 142.522 32.6868L140.112 31.2961L140.694 33.4667C140.771 33.7617 140.598 34.06 140.306 34.139C140.259 34.1522 140.212 34.1577 140.165 34.1577C139.922 34.1577 139.701 33.9975 139.635 33.7507L138.77 30.5185L135.461 28.6089L137.448 36.0189C137.525 36.3129 137.351 36.6123 137.06 36.688C137.011 36.7022 136.964 36.7088 136.917 36.7088C136.675 36.7088 136.453 36.5487 136.387 36.3019L134.12 27.8335L132.445 26.865L128.657 26.1543L127.375 29.7979V31.7304L133.574 37.9317C133.787 38.1445 133.787 38.4933 133.574 38.7072C133.36 38.92 133.011 38.92 132.799 38.7072L127.375 33.2813V37.1026L129.742 39.4684C129.955 39.6811 129.955 40.031 129.742 40.2438C129.528 40.4566 129.18 40.4566 128.966 40.2438L127.375 38.6523V41.4349C127.375 41.7355 127.129 41.9833 126.826 41.9833C126.524 41.9833 126.278 41.7355 126.278 41.4349V38.6523L124.686 40.2438C124.578 40.3524 124.438 40.4039 124.297 40.4039C124.157 40.4039 124.016 40.3502 123.909 40.2438C123.696 40.031 123.696 39.6811 123.909 39.4684L126.274 37.1004V33.2791L120.85 38.705C120.741 38.8125 120.601 38.8651 120.462 38.8651C120.322 38.8651 120.181 38.8103 120.073 38.705C119.861 38.4911 119.861 38.1423 120.073 37.9296L126.274 31.7282V29.7935L124.994 26.1587L121.203 26.8694L119.534 27.8335L117.265 36.3041C117.197 36.5509 116.976 36.711 116.736 36.711C116.688 36.711 116.641 36.7044 116.592 36.6913C116.299 36.6145 116.126 36.3107 116.204 36.0211L118.191 28.6111L114.879 30.5218L114.014 33.7529C113.946 33.9986 113.724 34.1598 113.484 34.1598C113.438 34.1598 113.39 34.1555 113.342 34.1412C113.048 34.0622 112.875 33.7595 112.954 33.47L113.535 31.2994L111.127 32.6901C111.04 32.7417 110.946 32.7647 110.853 32.7647C110.663 32.7647 110.478 32.6649 110.376 32.4905C110.223 32.2273 110.313 31.8928 110.578 31.7392L112.987 30.3474L110.814 29.765C110.52 29.6871 110.348 29.3855 110.426 29.0937C110.505 28.8009 110.806 28.6265 111.098 28.7055L114.331 29.573L117.642 27.6602L110.231 25.6761C109.937 25.5971 109.764 25.2944 109.843 25.0037C109.919 24.7098 110.223 24.5376 110.512 24.6133ZM124.067 25.2132L125.718 24.9061L126.275 26.4877L126.823 28.0452L127.372 26.4899L127.931 24.9061L129.578 25.2132L131.203 25.5192L130.129 24.2645L129.037 22.9889L130.13 21.7144L131.204 20.4619L129.579 20.7668L127.932 21.075L127.373 19.489L126.824 17.9338L126.276 19.4923L125.719 21.075L124.068 20.7657L122.444 20.4608L123.517 21.7144L124.611 22.99L123.517 24.2656L122.444 25.5214L124.067 25.2132Z" fill="white"/>
<path d="M188.329 64.1568L194.559 65.8238L195.79 65.1133L197.634 62.9624L195.789 60.8108L194.559 60.1003L188.329 61.7689C188.295 61.7785 188.26 61.7826 188.225 61.7826C188.047 61.7826 187.884 61.664 187.837 61.4834C187.78 61.268 187.908 61.0471 188.122 60.9898L193.571 59.5301L191.138 58.1252L188.759 58.7631C188.724 58.7728 188.689 58.7769 188.654 58.7769C188.475 58.7769 188.313 58.6583 188.265 58.4777C188.208 58.2623 188.335 58.0414 188.55 57.9841L190.149 57.5551L188.378 56.5316C188.185 56.4203 188.119 56.1736 188.229 55.9808C188.341 55.7873 188.586 55.7219 188.781 55.8332L190.55 56.8558L190.124 55.2598C190.067 55.0445 190.194 54.8235 190.409 54.7663C190.627 54.7106 190.846 54.8364 190.904 55.0518L191.54 57.4284L193.974 58.8341L192.513 53.3864C192.456 53.1711 192.584 52.9501 192.799 52.8928C193.017 52.8364 193.235 52.9622 193.293 53.1783L194.96 59.4051L196.192 60.1164L198.978 60.6382L199.919 57.9623V56.5389L195.361 51.9799C195.205 51.8227 195.205 51.567 195.361 51.4097C195.517 51.2525 195.775 51.2525 195.931 51.4097L199.919 55.3985V52.5888L198.178 50.8484C198.022 50.6912 198.022 50.4355 198.178 50.2783C198.335 50.121 198.592 50.121 198.748 50.2783L199.919 51.4484V49.4032C199.919 49.1806 200.1 49 200.322 49C200.545 49 200.726 49.1806 200.726 49.4032V51.4484L201.896 50.2783C202.053 50.121 202.309 50.121 202.466 50.2783C202.622 50.4355 202.622 50.6912 202.466 50.8484L200.726 52.5888V55.3985L204.714 51.4097C204.871 51.2525 205.127 51.2525 205.285 51.4097C205.441 51.567 205.441 51.8227 205.285 51.9799L200.726 56.5389V57.9615L201.668 60.635L204.453 60.1132L205.685 59.4019L207.352 53.1751C207.41 52.9598 207.628 52.8332 207.847 52.8896C208.062 52.9469 208.19 53.1687 208.132 53.3832L206.672 58.8309L209.106 57.4252L209.742 55.0485C209.8 54.8324 210.019 54.7066 210.236 54.763C210.452 54.8203 210.579 55.0421 210.522 55.2566L210.094 56.8542L211.865 55.8316C212.056 55.7219 212.304 55.7865 212.415 55.9792C212.528 56.172 212.461 56.4187 212.268 56.53L210.495 57.5534L212.094 57.9825C212.311 58.0397 212.438 58.2615 212.38 58.476C212.33 58.6567 212.168 58.7752 211.99 58.7752C211.956 58.7752 211.921 58.7712 211.886 58.7615L209.507 58.1236L207.073 59.5285L212.523 60.9882C212.74 61.0455 212.866 61.2672 212.808 61.4818C212.761 61.6624 212.598 61.781 212.42 61.781C212.386 61.781 212.351 61.7769 212.316 61.7673L206.088 60.0987L204.857 60.8092L203.012 62.9616L204.857 65.1133L206.088 65.8238L212.316 64.156C212.528 64.0996 212.752 64.2254 212.81 64.4415C212.866 64.6585 212.74 64.8778 212.524 64.9343L207.075 66.3948L209.51 67.8013L211.886 67.1634C212.103 67.1069 212.323 67.2327 212.381 67.4488C212.438 67.6658 212.311 67.8851 212.095 67.9424L210.498 68.3706L212.269 69.3941C212.461 69.5062 212.528 69.7521 212.417 69.9465C212.343 70.0747 212.207 70.1481 212.068 70.1481C211.999 70.1481 211.929 70.1312 211.866 70.0933L210.094 69.0707L210.523 70.6667C210.579 70.8836 210.452 71.103 210.237 71.161C210.202 71.1707 210.168 71.1747 210.133 71.1747C209.955 71.1747 209.792 71.057 209.744 70.8755L209.107 68.4989L206.674 67.0948L208.136 72.5433C208.192 72.7595 208.065 72.9796 207.85 73.0353C207.815 73.0458 207.78 73.0506 207.745 73.0506C207.567 73.0506 207.404 72.9329 207.356 72.7514L205.689 66.5246L204.457 65.8125L201.672 65.2899L200.729 67.969V69.39L205.287 73.9498C205.444 74.1063 205.444 74.3627 205.287 74.52C205.13 74.6764 204.873 74.6764 204.717 74.52L200.729 70.5304V73.3401L202.469 75.0797C202.626 75.2361 202.626 75.4934 202.469 75.6499C202.312 75.8063 202.056 75.8063 201.899 75.6499L200.729 74.4797V76.5257C200.729 76.7467 200.548 76.9289 200.326 76.9289C200.103 76.9289 199.922 76.7467 199.922 76.5257V74.4797L198.751 75.6499C198.672 75.7297 198.569 75.7676 198.466 75.7676C198.363 75.7676 198.259 75.7281 198.18 75.6499C198.024 75.4934 198.024 75.2361 198.18 75.0797L199.919 73.3385V70.5288L195.931 74.5184C195.851 74.5974 195.748 74.6361 195.646 74.6361C195.543 74.6361 195.439 74.5958 195.36 74.5184C195.204 74.3611 195.204 74.1047 195.36 73.9482L199.919 69.3884V67.9658L198.978 65.2931L196.191 65.8157L194.963 66.5246L193.295 72.753C193.245 72.9345 193.083 73.0522 192.906 73.0522C192.871 73.0522 192.836 73.0474 192.8 73.0377C192.585 72.9812 192.458 72.7578 192.515 72.5449L193.976 67.0964L191.541 68.5013L190.904 70.8772C190.854 71.0578 190.692 71.1764 190.515 71.1764C190.481 71.1764 190.446 71.1731 190.411 71.1626C190.195 71.1046 190.067 70.882 190.125 70.6691L190.553 69.0731L188.782 70.0957C188.718 70.1336 188.649 70.1505 188.58 70.1505C188.441 70.1505 188.304 70.0771 188.229 69.9489C188.117 69.7554 188.183 69.5094 188.379 69.3965L190.15 68.3731L188.552 67.9448C188.336 67.8876 188.209 67.6658 188.266 67.4513C188.325 67.2359 188.546 67.1077 188.761 67.1658L191.138 67.8037L193.572 66.3972L188.123 64.9383C187.907 64.8802 187.779 64.6576 187.837 64.4439C187.894 64.2278 188.117 64.1012 188.329 64.1568ZM198.297 64.598L199.51 64.3722L199.92 65.5351L200.323 66.6803L200.726 65.5367L201.138 64.3722L202.349 64.598L203.543 64.823L202.754 63.9004L201.951 62.9624L202.755 62.0253L203.544 61.1043L202.35 61.3285L201.139 61.5552L200.727 60.389L200.324 59.2454L199.921 60.3914L199.511 61.5552L198.297 61.3277L197.103 61.1035L197.893 62.0253L198.697 62.9633L197.893 63.9012L197.103 64.8246L198.297 64.598Z" fill="white"/>
<path d="M37.5328 135.043H42.4533L40.97 132.474C40.7759 132.141 40.889 131.713 41.2256 131.519C41.5636 131.325 41.9896 131.441 42.1809 131.776L44.0665 135.043H47.8096L43.998 128.438C43.8039 128.106 43.917 127.677 44.2536 127.484C44.5888 127.291 45.0148 127.404 45.209 127.74L49.4269 135.043H56.4104L58.5166 131.392L55.0249 125.344H46.5903C46.2076 125.344 45.8919 125.032 45.8919 124.646C45.8919 124.262 46.2076 123.948 46.5903 123.948H54.2204L52.3488 120.709L48.5792 120.71C48.1937 120.71 47.8808 120.397 47.8808 120.012C47.8808 119.628 48.1937 119.313 48.5792 119.313L51.5443 119.312L49.0834 115.049C48.8892 114.716 49.0038 114.288 49.339 114.095C49.6728 113.9 50.1002 114.014 50.2943 114.351L52.7566 118.614L54.2399 116.045C54.4327 115.713 54.8601 115.597 55.1939 115.79C55.5277 115.982 55.6422 116.41 55.4509 116.744L53.5653 120.01L55.4341 123.249L59.2457 116.644C59.4384 116.309 59.8658 116.195 60.1996 116.387C60.5334 116.582 60.6479 117.008 60.4566 117.343L56.2386 124.645L59.7303 130.694H63.9469L67.4386 124.646L63.222 117.343C63.0293 117.009 63.1438 116.582 63.4776 116.387C63.8128 116.195 64.2374 116.309 64.4316 116.644L68.2445 123.249L70.1147 120.01L68.2278 116.742C68.035 116.41 68.1495 115.981 68.4833 115.788C68.8172 115.594 69.2445 115.71 69.4373 116.044L70.9206 118.614L73.3759 114.35C73.5701 114.014 73.9975 113.901 74.3299 114.094C74.6637 114.287 74.7782 114.713 74.5855 115.048L72.1245 119.311H75.0883C75.4738 119.311 75.7866 119.625 75.7866 120.009C75.7866 120.395 75.4738 120.707 75.0883 120.707H71.3172L69.4471 123.946H77.073C77.4585 123.946 77.7713 124.259 77.7713 124.645C77.7713 125.03 77.4585 125.343 77.073 125.343H68.6398L65.1481 131.392L67.2584 135.043H74.2405L78.4613 127.74C78.654 127.406 79.0828 127.291 79.4152 127.484C79.749 127.677 79.8636 128.104 79.6708 128.438L75.8537 135.043H79.594L81.4795 131.778C81.6737 131.442 82.101 131.329 82.4335 131.521C82.7673 131.715 82.8818 132.141 82.689 132.476L81.2058 135.043H86.1249C86.5104 135.043 86.8232 135.356 86.8232 135.741C86.8232 136.125 86.5104 136.44 86.1249 136.44H81.2044L82.6877 139.01C82.8804 139.343 82.7659 139.771 82.4321 139.965C82.3217 140.028 82.2016 140.057 82.0829 140.057C81.8413 140.057 81.6066 139.931 81.4767 139.708L79.5912 136.44H75.8481L79.6638 143.045C79.8566 143.377 79.742 143.806 79.4082 144C79.2979 144.063 79.1778 144.092 79.0591 144.092C78.8174 144.092 78.5828 143.968 78.4529 143.743L74.2335 136.44H67.2515L65.1439 140.088L68.6356 146.137H77.0674C77.4529 146.137 77.7657 146.451 77.7657 146.835C77.7657 147.219 77.4529 147.534 77.0674 147.534H69.4429L71.313 150.772H75.0855C75.471 150.772 75.7838 151.085 75.7838 151.471C75.7838 151.855 75.471 152.169 75.0855 152.169H72.1189L74.5799 156.43C74.7726 156.763 74.6581 157.192 74.3243 157.386C74.214 157.449 74.0938 157.478 73.9751 157.478C73.7335 157.478 73.4988 157.354 73.369 157.129L70.908 152.866L69.4247 155.436C69.2948 155.661 69.0602 155.785 68.8185 155.785C68.6998 155.785 68.5797 155.756 68.4694 155.693C68.1356 155.499 68.021 155.073 68.2138 154.738L70.1021 151.469L68.2319 148.23L64.419 154.835C64.2891 155.06 64.0544 155.185 63.8128 155.185C63.6941 155.185 63.574 155.155 63.4637 155.092C63.1298 154.898 63.0153 154.474 63.2081 154.137L67.4261 146.834L63.9343 140.789H59.7163L56.2246 146.835L60.444 154.138C60.6368 154.472 60.5222 154.9 60.1884 155.094C60.0795 155.157 59.9594 155.186 59.8392 155.186C59.5962 155.186 59.3616 155.062 59.2331 154.837L55.4201 148.232L53.5486 151.471L55.4341 154.736C55.6268 155.069 55.5123 155.497 55.1771 155.692C55.0654 155.754 54.9453 155.784 54.8279 155.784C54.5849 155.784 54.3503 155.657 54.2204 155.435L52.7371 152.867L50.2747 157.13C50.1448 157.355 49.9102 157.479 49.6672 157.479C49.5499 157.479 49.4297 157.45 49.318 157.387C48.987 157.193 48.8725 156.768 49.061 156.432L51.5248 152.166H48.5596C48.1741 152.166 47.8613 151.853 47.8613 151.468C47.8613 151.084 48.1741 150.77 48.5596 150.77H52.3321L54.2008 147.531L46.5735 147.532C46.1894 147.532 45.8752 147.218 45.8752 146.834C45.8752 146.45 46.1894 146.135 46.5735 146.135L55.0081 146.134L58.4998 140.088L56.3908 136.438H49.4102L45.1908 143.743C45.0623 143.966 44.8277 144.092 44.5846 144.092C44.4659 144.092 44.3458 144.063 44.2355 144C43.903 143.806 43.7885 143.38 43.9799 143.045L47.8054 136.44H44.0595L42.1712 139.708C42.0399 139.933 41.8052 140.057 41.565 140.057C41.4449 140.057 41.3248 140.028 41.2158 139.965C40.8806 139.771 40.7661 139.346 40.9574 139.01L42.4407 136.44H37.5216C37.1389 136.44 36.8232 136.125 36.8232 135.741C36.833 135.356 37.1487 135.043 37.5328 135.043ZM58.0166 136.44L59.3183 138.694L59.7219 139.392H60.5264H63.1326H63.9385L64.3422 138.694L65.6411 136.44L66.0447 135.741L65.6411 135.043L64.3394 132.789L63.9357 132.09H63.1298H60.5264H59.7191L59.3155 132.789L58.0166 135.043L57.6129 135.741L58.0166 136.44Z" fill="white"/>
<path d="M99.3182 88.754H101.365L100.748 87.6855C100.667 87.5466 100.714 87.3688 100.854 87.288C100.995 87.2073 101.172 87.2555 101.252 87.3949L102.036 88.754H103.593L102.008 86.0063C101.927 85.868 101.974 85.6896 102.114 85.6094C102.254 85.5293 102.431 85.5763 102.512 85.7158L104.266 88.754H107.171L108.048 87.2352L106.595 84.7193H103.086C102.927 84.7193 102.796 84.5892 102.796 84.4288C102.796 84.269 102.927 84.1383 103.086 84.1383H106.26L105.482 82.7909L103.914 82.7915C103.753 82.7915 103.623 82.6613 103.623 82.5009C103.623 82.3412 103.753 82.2104 103.914 82.2104L105.147 82.2098L104.123 80.4365C104.043 80.2977 104.09 80.1199 104.23 80.0397C104.368 79.9584 104.546 80.006 104.627 80.146L105.651 81.9193L106.268 80.8508C106.349 80.7125 106.526 80.6643 106.665 80.7445C106.804 80.8247 106.852 81.0025 106.772 81.1413L105.988 82.5004L106.765 83.8478L108.351 81.1001C108.431 80.9606 108.609 80.913 108.748 80.9932C108.887 81.0739 108.934 81.2511 108.855 81.3906L107.1 84.4282L108.552 86.9446H110.307L111.759 84.4288L110.005 81.3906C109.925 81.2517 109.972 81.0739 110.111 80.9932C110.251 80.913 110.427 80.9606 110.508 81.1001L112.094 83.8478L112.872 82.5004L112.087 81.1408C112.007 81.0025 112.055 80.8241 112.194 80.7439C112.333 80.6631 112.51 80.7114 112.591 80.8502L113.208 81.9193L114.229 80.1455C114.31 80.006 114.488 79.9589 114.626 80.0391C114.765 80.1193 114.812 80.2965 114.732 80.436L113.709 82.2093H114.941C115.102 82.2093 115.232 82.34 115.232 82.4998C115.232 82.6601 115.102 82.7903 114.941 82.7903H113.373L112.595 84.1377H115.767C115.927 84.1377 116.058 84.2678 116.058 84.4282C116.058 84.5886 115.927 84.7187 115.767 84.7187H112.259L110.806 87.2352L111.684 88.754H114.589L116.345 85.7158C116.425 85.5769 116.603 85.5293 116.741 85.6094C116.88 85.6896 116.928 85.8674 116.848 86.0063L115.26 88.754H116.816L117.6 87.3955C117.681 87.2561 117.859 87.209 117.997 87.2886C118.136 87.3694 118.184 87.5466 118.103 87.686L117.486 88.754H119.533C119.693 88.754 119.823 88.8841 119.823 89.0445C119.823 89.2043 119.693 89.335 119.533 89.335H117.486L118.103 90.4041C118.183 90.543 118.135 90.7207 117.996 90.8015C117.951 90.8277 117.901 90.8399 117.851 90.8399C117.751 90.8399 117.653 90.7876 117.599 90.6946L116.815 89.335H115.258L116.845 92.0827C116.925 92.221 116.877 92.3993 116.739 92.4801C116.693 92.5062 116.643 92.5184 116.593 92.5184C116.493 92.5184 116.395 92.4667 116.341 92.3732L114.586 89.335H111.681L110.805 90.8526L112.257 93.3691H115.765C115.925 93.3691 116.055 93.4998 116.055 93.6596C116.055 93.8194 115.925 93.9501 115.765 93.9501H112.593L113.371 95.2975H114.94C115.101 95.2975 115.231 95.4277 115.231 95.588C115.231 95.7478 115.101 95.8785 114.94 95.8785H113.706L114.73 97.6513C114.81 97.7895 114.762 97.9679 114.624 98.0487C114.578 98.0748 114.528 98.087 114.478 98.087C114.378 98.087 114.28 98.0353 114.226 97.9418L113.202 96.1685L112.585 97.2376C112.531 97.3311 112.434 97.3828 112.333 97.3828C112.284 97.3828 112.234 97.3706 112.188 97.3445C112.049 97.2637 112.001 97.0865 112.082 96.947L112.867 95.5874L112.089 94.24L110.503 96.9877C110.449 97.0813 110.351 97.133 110.251 97.133C110.201 97.133 110.151 97.1208 110.106 97.0946C109.967 97.0139 109.919 96.8372 109.999 96.6972L111.754 93.659L110.301 91.1443H108.547L107.094 93.6596L108.849 96.6978C108.93 96.8367 108.882 97.0144 108.743 97.0952C108.698 97.1214 108.648 97.1336 108.598 97.1336C108.497 97.1336 108.399 97.0818 108.346 96.9883L106.759 94.2406L105.981 95.588L106.765 96.9465C106.845 97.0848 106.798 97.2631 106.658 97.3439C106.612 97.37 106.562 97.3822 106.513 97.3822C106.412 97.3822 106.314 97.3294 106.26 97.237L105.643 96.1691L104.619 97.9423C104.565 98.0359 104.467 98.0876 104.366 98.0876C104.317 98.0876 104.267 98.0754 104.221 98.0493C104.083 97.9685 104.036 97.7919 104.114 97.6518L105.139 95.8774H103.905C103.745 95.8774 103.615 95.7472 103.615 95.5869C103.615 95.4271 103.745 95.2963 103.905 95.2963H105.475L106.252 93.9489L103.079 93.9495C102.919 93.9495 102.789 93.8188 102.789 93.659C102.789 93.4992 102.919 93.3685 103.079 93.3685L106.588 93.3679L108.041 90.8526L107.163 89.3344H104.259L102.504 92.3732C102.45 92.4662 102.353 92.5184 102.252 92.5184C102.202 92.5184 102.152 92.5062 102.107 92.4801C101.968 92.3993 101.921 92.2221 102 92.0827L103.592 89.335H102.033L101.248 90.6946C101.193 90.7881 101.096 90.8399 100.996 90.8399C100.946 90.8399 100.896 90.8277 100.85 90.8015C100.711 90.7207 100.663 90.5441 100.743 90.4041L101.36 89.335H99.3135C99.1543 89.335 99.023 89.2043 99.023 89.0445C99.0271 88.8841 99.1584 88.754 99.3182 88.754ZM107.84 89.335L108.381 90.2728L108.549 90.5633H108.884H109.968H110.303L110.471 90.2728L111.011 89.335L111.179 89.0445L111.011 88.754L110.47 87.8162L110.302 87.5257H109.967H108.884H108.548L108.38 87.8162L107.84 88.754L107.672 89.0445L107.84 89.335Z" fill="white"/>
<path d="M250.377 102.414H254.215L253.058 100.41C252.906 100.15 252.995 99.8163 253.257 99.6649C253.521 99.5135 253.853 99.6039 254.002 99.8654L255.473 102.414H258.393L255.42 97.2617C255.268 97.0024 255.356 96.6679 255.619 96.5176C255.88 96.3672 256.213 96.4555 256.364 96.717L259.654 102.414H265.101L266.744 99.5658L264.021 94.8486H257.442C257.143 94.8486 256.897 94.6046 256.897 94.3039C256.897 94.0043 257.143 93.7592 257.442 93.7592H263.393L261.933 91.2328L258.993 91.2339C258.692 91.2339 258.448 90.9899 258.448 90.6892C258.448 90.3896 258.692 90.1445 258.993 90.1445L261.306 90.1434L259.386 86.8185C259.235 86.5581 259.324 86.2248 259.585 86.0744C259.846 85.9219 260.179 86.0113 260.331 86.2738L262.251 89.5987L263.408 87.5953C263.559 87.336 263.892 87.2456 264.152 87.3959C264.413 87.5462 264.502 87.8796 264.353 88.14L262.882 90.6881L264.34 93.2145L267.313 88.0626C267.463 87.8012 267.796 87.7118 268.057 87.8622C268.317 88.0136 268.406 88.3459 268.257 88.6073L264.967 94.3028L267.691 99.0211H270.98L273.703 94.3039L270.414 88.6073C270.264 88.347 270.353 88.0136 270.614 87.8622C270.875 87.7118 271.206 87.8012 271.358 88.0626L274.332 93.2145L275.791 90.6881L274.319 88.1389C274.168 87.8796 274.258 87.5452 274.518 87.3948C274.778 87.2434 275.112 87.3338 275.262 87.5942L276.419 89.5987L278.334 86.2727C278.486 86.0113 278.819 85.923 279.078 86.0734C279.339 86.2237 279.428 86.556 279.278 86.8174L277.358 90.1423H279.67C279.971 90.1423 280.215 90.3874 280.215 90.687C280.215 90.9877 279.971 91.2317 279.67 91.2317H276.729L275.27 93.7581H281.218C281.519 93.7581 281.763 94.0021 281.763 94.3028C281.763 94.6035 281.519 94.8475 281.218 94.8475H274.64L271.917 99.5658L273.563 102.414H279.009L282.301 96.717C282.451 96.4566 282.786 96.3672 283.045 96.5176C283.305 96.6679 283.395 97.0013 283.244 97.2617L280.267 102.414H283.184L284.655 99.8665C284.807 99.605 285.14 99.5168 285.399 99.666C285.66 99.8174 285.749 100.15 285.599 100.411L284.442 102.414H288.279C288.579 102.414 288.823 102.658 288.823 102.958C288.823 103.258 288.579 103.503 288.279 103.503H284.441L285.597 105.507C285.748 105.768 285.658 106.101 285.398 106.253C285.312 106.302 285.218 106.325 285.126 106.325C284.937 106.325 284.754 106.226 284.653 106.052L283.182 103.503H280.263L283.239 108.655C283.389 108.914 283.3 109.249 283.04 109.4C282.953 109.449 282.86 109.472 282.767 109.472C282.579 109.472 282.396 109.375 282.294 109.199L279.003 103.503H273.557L271.913 106.348L274.637 111.067H281.214C281.514 111.067 281.758 111.312 281.758 111.611C281.758 111.911 281.514 112.156 281.214 112.156H275.267L276.725 114.683H279.668C279.968 114.683 280.212 114.927 280.212 115.227C280.212 115.527 279.968 115.772 279.668 115.772H277.354L279.273 119.096C279.424 119.355 279.334 119.689 279.074 119.841C278.988 119.89 278.894 119.913 278.802 119.913C278.613 119.913 278.43 119.816 278.329 119.64L276.409 116.316L275.252 118.32C275.151 118.495 274.968 118.592 274.78 118.592C274.687 118.592 274.593 118.57 274.507 118.521C274.247 118.369 274.158 118.037 274.308 117.775L275.781 115.226L274.322 112.7L271.348 117.852C271.247 118.027 271.064 118.124 270.875 118.124C270.783 118.124 270.689 118.101 270.603 118.052C270.342 117.901 270.253 117.569 270.403 117.307L273.693 111.61L270.97 106.895H267.68L264.956 111.611L268.247 117.308C268.398 117.568 268.308 117.902 268.048 118.053C267.963 118.102 267.869 118.125 267.776 118.125C267.586 118.125 267.403 118.028 267.303 117.853L264.329 112.701L262.869 115.227L264.34 117.774C264.49 118.034 264.401 118.368 264.139 118.519C264.052 118.568 263.958 118.591 263.867 118.591C263.677 118.591 263.494 118.492 263.393 118.319L262.236 116.317L260.315 119.642C260.214 119.817 260.031 119.914 259.842 119.914C259.75 119.914 259.656 119.891 259.569 119.842C259.311 119.691 259.222 119.359 259.369 119.097L261.29 115.77H258.978C258.677 115.77 258.433 115.526 258.433 115.225C258.433 114.925 258.677 114.68 258.978 114.68H261.92L263.378 112.154L257.428 112.155C257.129 112.155 256.884 111.91 256.884 111.61C256.884 111.311 257.129 111.066 257.428 111.066L264.007 111.065L266.731 106.348L265.086 103.502H259.641L256.35 109.199C256.25 109.374 256.067 109.472 255.877 109.472C255.785 109.472 255.691 109.449 255.605 109.4C255.345 109.249 255.256 108.916 255.405 108.655L258.389 103.503H255.468L253.995 106.052C253.892 106.228 253.709 106.325 253.522 106.325C253.428 106.325 253.334 106.302 253.249 106.253C252.988 106.101 252.899 105.77 253.048 105.507L254.205 103.503H250.368C250.069 103.503 249.823 103.258 249.823 102.958C249.831 102.658 250.077 102.414 250.377 102.414ZM266.354 103.503L267.369 105.261L267.684 105.806H268.312H270.345H270.973L271.288 105.261L272.301 103.503L272.616 102.958L272.301 102.414L271.286 100.655L270.971 100.11H270.342H268.312H267.682L267.367 100.655L266.354 102.414L266.039 102.958L266.354 103.503Z" fill="white"/>
</svg>
