<svg width="2027" height="49" viewBox="0 0 2027 49" fill="none" xmlns="http://www.w3.org/2000/svg">
<path d="M8.00154 43.4029L-0.000106812 0H214.5L210.905 38.7439C210.794 39.943 209.049 39.959 208.916 38.7622L206.5 17.0698L202.983 36.1609C202.782 37.2527 201.218 37.2527 201.017 36.1609L197.5 17.0698L192.319 44.2079C192.12 45.2517 190.646 45.3053 190.371 44.2787L187.412 33.2146C187.152 32.2408 185.777 32.2205 185.488 33.1863L183.952 38.3187C183.668 39.2681 182.324 39.2704 182.037 38.322L179.008 28.3251C178.717 27.3645 177.35 27.3837 177.086 28.352L174.723 37.014C174.44 38.0531 172.94 37.9714 172.771 36.9076L168.5 10L164.343 24.968C164.05 26.022 162.521 25.9083 162.387 24.8225L161 13.5475L157.881 20.9175C157.543 21.7171 156.416 21.7351 156.052 20.9468L151 10L147.096 39.0618C146.954 40.1207 145.473 40.2486 145.152 39.2298L144.462 37.046C144.167 36.1117 142.844 36.115 142.553 37.0507L140.296 44.3253C139.981 45.3403 138.509 45.2283 138.352 44.1773L133 8.5L125.896 32.7128C125.62 33.6517 124.299 33.677 123.988 32.7493L119 17.8827L114.906 32.5254C114.638 33.4833 113.288 33.5053 112.989 32.5566L107 13.5475L99.4733 42.7269C99.2149 43.7285 97.7919 43.7267 97.536 42.7245L93.3173 26.201C93.0725 25.2422 91.7329 25.1833 91.4049 26.1169L87.1043 38.3571C86.7755 39.2929 85.4317 39.2307 85.1908 38.2685L79 13.5475L74.2002 26.5525C73.8529 27.4936 72.4909 27.3944 72.2836 26.413L68.5 8.5L62.045 36.9019C61.8056 37.9553 60.2975 37.9334 60.0887 36.8736L54.5 8.5L50.2183 19.7882C49.8634 20.7237 48.5067 20.6159 48.304 19.6361L46 8.5L40.1736 26.9924C39.8864 27.9039 38.6066 27.9318 38.28 27.0336L34.9524 17.8827L31.0354 32.2449C30.7678 33.2262 29.3766 33.2279 29.1066 32.2473L24.9273 17.0698L21.8452 26.7269C21.5463 27.6634 20.2172 27.6518 19.9347 26.7102L15.9859 13.5475L9.96526 43.4192C9.74779 44.4982 8.2011 44.4854 8.00154 43.4029Z" fill="white"/>
<path d="M209.002 43.4029L201 0H415.5L411.905 38.7439C411.794 39.943 410.049 39.959 409.916 38.7622L407.5 17.0698L403.983 36.1609C403.782 37.2527 402.218 37.2527 402.017 36.1609L398.5 17.0698L393.319 44.2079C393.12 45.2517 391.646 45.3053 391.371 44.2787L388.412 33.2146C388.152 32.2408 386.777 32.2205 386.488 33.1863L384.952 38.3187C384.668 39.2681 383.324 39.2704 383.037 38.322L380.008 28.3251C379.717 27.3645 378.35 27.3837 378.086 28.352L375.723 37.014C375.44 38.0531 373.94 37.9714 373.771 36.9076L369.5 10L365.343 24.968C365.05 26.022 363.521 25.9083 363.387 24.8225L362 13.5475L358.881 20.9175C358.543 21.7171 357.416 21.7351 357.052 20.9468L352 10L348.096 39.0618C347.954 40.1207 346.473 40.2486 346.152 39.2298L345.462 37.046C345.167 36.1117 343.844 36.115 343.553 37.0507L341.296 44.3253C340.981 45.3403 339.509 45.2283 339.352 44.1773L334 8.5L326.896 32.7128C326.62 33.6517 325.299 33.677 324.988 32.7493L320 17.8827L315.906 32.5254C315.638 33.4833 314.288 33.5053 313.989 32.5566L308 13.5475L300.473 42.7269C300.215 43.7285 298.792 43.7267 298.536 42.7245L294.317 26.201C294.072 25.2422 292.733 25.1833 292.405 26.1169L288.104 38.3571C287.775 39.2929 286.432 39.2307 286.191 38.2685L280 13.5475L275.2 26.5525C274.853 27.4936 273.491 27.3944 273.284 26.413L269.5 8.5L263.045 36.9019C262.806 37.9553 261.297 37.9334 261.089 36.8736L255.5 8.5L251.218 19.7882C250.863 20.7237 249.507 20.6159 249.304 19.6361L247 8.5L241.174 26.9924C240.886 27.9039 239.607 27.9318 239.28 27.0336L235.952 17.8827L232.035 32.2449C231.768 33.2262 230.377 33.2279 230.107 32.2473L225.927 17.0698L222.845 26.7269C222.546 27.6634 221.217 27.6518 220.935 26.7102L216.986 13.5475L210.965 43.4192C210.748 44.4982 209.201 44.4854 209.002 43.4029Z" fill="white"/>
<path d="M415.002 43.4029L407 0H621.5L617.905 38.7439C617.794 39.943 616.049 39.959 615.916 38.7622L613.5 17.0698L609.983 36.1609C609.782 37.2527 608.218 37.2527 608.017 36.1609L604.5 17.0698L599.319 44.2079C599.12 45.2517 597.646 45.3053 597.371 44.2787L594.412 33.2146C594.152 32.2408 592.777 32.2205 592.488 33.1863L590.952 38.3187C590.668 39.2681 589.324 39.2704 589.037 38.322L586.008 28.3251C585.717 27.3645 584.35 27.3837 584.086 28.352L581.723 37.014C581.44 38.0531 579.94 37.9714 579.771 36.9076L575.5 10L571.343 24.968C571.05 26.022 569.521 25.9083 569.387 24.8225L568 13.5475L564.881 20.9175C564.543 21.7171 563.416 21.7351 563.052 20.9468L558 10L554.096 39.0618C553.954 40.1207 552.473 40.2486 552.152 39.2298L551.462 37.046C551.167 36.1117 549.844 36.115 549.553 37.0507L547.296 44.3253C546.981 45.3403 545.509 45.2283 545.352 44.1773L540 8.5L532.896 32.7128C532.62 33.6517 531.299 33.677 530.988 32.7493L526 17.8827L521.906 32.5254C521.638 33.4833 520.288 33.5053 519.989 32.5566L514 13.5475L506.473 42.7269C506.215 43.7285 504.792 43.7267 504.536 42.7245L500.317 26.201C500.072 25.2422 498.733 25.1833 498.405 26.1169L494.104 38.3571C493.775 39.2929 492.432 39.2307 492.191 38.2685L486 13.5475L481.2 26.5525C480.853 27.4936 479.491 27.3944 479.284 26.413L475.5 8.5L469.045 36.9019C468.806 37.9553 467.297 37.9334 467.089 36.8736L461.5 8.5L457.218 19.7882C456.863 20.7237 455.507 20.6159 455.304 19.6361L453 8.5L447.174 26.9924C446.886 27.9039 445.607 27.9318 445.28 27.0336L441.952 17.8827L438.035 32.2449C437.768 33.2262 436.377 33.2279 436.107 32.2473L431.927 17.0698L428.845 26.7269C428.546 27.6634 427.217 27.6518 426.935 26.7102L422.986 13.5475L416.965 43.4192C416.748 44.4982 415.201 44.4854 415.002 43.4029Z" fill="white"/>
<path d="M616.002 43.4029L608 0H822.5L818.905 38.7439C818.794 39.943 817.049 39.959 816.916 38.7622L814.5 17.0698L810.983 36.1609C810.782 37.2527 809.218 37.2527 809.017 36.1609L805.5 17.0698L800.319 44.2079C800.12 45.2517 798.646 45.3053 798.371 44.2787L795.412 33.2146C795.152 32.2408 793.777 32.2205 793.488 33.1863L791.952 38.3187C791.668 39.2681 790.324 39.2704 790.037 38.322L787.008 28.3251C786.717 27.3645 785.35 27.3837 785.086 28.352L782.723 37.014C782.44 38.0531 780.94 37.9714 780.771 36.9076L776.5 10L772.343 24.968C772.05 26.022 770.521 25.9083 770.387 24.8225L769 13.5475L765.881 20.9175C765.543 21.7171 764.416 21.7351 764.052 20.9468L759 10L755.096 39.0618C754.954 40.1207 753.473 40.2486 753.152 39.2298L752.462 37.046C752.167 36.1117 750.844 36.115 750.553 37.0507L748.296 44.3253C747.981 45.3403 746.509 45.2283 746.352 44.1773L741 8.5L733.896 32.7128C733.62 33.6517 732.299 33.677 731.988 32.7493L727 17.8827L722.906 32.5254C722.638 33.4833 721.288 33.5053 720.989 32.5566L715 13.5475L707.473 42.7269C707.215 43.7285 705.792 43.7267 705.536 42.7245L701.317 26.201C701.072 25.2422 699.733 25.1833 699.405 26.1169L695.104 38.3571C694.775 39.2929 693.432 39.2307 693.191 38.2685L687 13.5475L682.2 26.5525C681.853 27.4936 680.491 27.3944 680.284 26.413L676.5 8.5L670.045 36.9019C669.806 37.9553 668.297 37.9334 668.089 36.8736L662.5 8.5L658.218 19.7882C657.863 20.7237 656.507 20.6159 656.304 19.6361L654 8.5L648.174 26.9924C647.886 27.9039 646.607 27.9318 646.28 27.0336L642.952 17.8827L639.035 32.2449C638.768 33.2262 637.377 33.2279 637.107 32.2473L632.927 17.0698L629.845 26.7269C629.546 27.6634 628.217 27.6518 627.935 26.7102L623.986 13.5475L617.965 43.4192C617.748 44.4982 616.201 44.4854 616.002 43.4029Z" fill="white"/>
<path d="M1219 43.4029L1211 0H1425.5L1421.91 38.7439C1421.79 39.943 1420.05 39.959 1419.92 38.7622L1417.5 17.0698L1413.98 36.1609C1413.78 37.2527 1412.22 37.2527 1412.02 36.1609L1408.5 17.0698L1403.32 44.2079C1403.12 45.2517 1401.65 45.3053 1401.37 44.2787L1398.41 33.2146C1398.15 32.2408 1396.78 32.2205 1396.49 33.1863L1394.95 38.3187C1394.67 39.2681 1393.32 39.2704 1393.04 38.322L1390.01 28.3251C1389.72 27.3645 1388.35 27.3837 1388.09 28.352L1385.72 37.014C1385.44 38.0531 1383.94 37.9714 1383.77 36.9076L1379.5 10L1375.34 24.968C1375.05 26.022 1373.52 25.9083 1373.39 24.8225L1372 13.5475L1368.88 20.9175C1368.54 21.7171 1367.42 21.7351 1367.05 20.9468L1362 10L1358.1 39.0618C1357.95 40.1207 1356.47 40.2486 1356.15 39.2298L1355.46 37.046C1355.17 36.1117 1353.84 36.115 1353.55 37.0507L1351.3 44.3253C1350.98 45.3403 1349.51 45.2283 1349.35 44.1773L1344 8.5L1336.9 32.7128C1336.62 33.6517 1335.3 33.677 1334.99 32.7493L1330 17.8827L1325.91 32.5254C1325.64 33.4833 1324.29 33.5053 1323.99 32.5566L1318 13.5475L1310.47 42.7269C1310.21 43.7285 1308.79 43.7267 1308.54 42.7245L1304.32 26.201C1304.07 25.2422 1302.73 25.1833 1302.4 26.1169L1298.1 38.3571C1297.78 39.2929 1296.43 39.2307 1296.19 38.2685L1290 13.5475L1285.2 26.5525C1284.85 27.4936 1283.49 27.3944 1283.28 26.413L1279.5 8.5L1273.05 36.9019C1272.81 37.9553 1271.3 37.9334 1271.09 36.8736L1265.5 8.5L1261.22 19.7882C1260.86 20.7237 1259.51 20.6159 1259.3 19.6361L1257 8.5L1251.17 26.9924C1250.89 27.9039 1249.61 27.9318 1249.28 27.0336L1245.95 17.8827L1242.04 32.2449C1241.77 33.2262 1240.38 33.2279 1240.11 32.2473L1235.93 17.0698L1232.85 26.7269C1232.55 27.6634 1231.22 27.6518 1230.93 26.7102L1226.99 13.5475L1220.97 43.4192C1220.75 44.4982 1219.2 44.4854 1219 43.4029Z" fill="white"/>
<path d="M1420 43.4029L1412 0H1626.5L1622.91 38.7439C1622.79 39.943 1621.05 39.959 1620.92 38.7622L1618.5 17.0698L1614.98 36.1609C1614.78 37.2527 1613.22 37.2527 1613.02 36.1609L1609.5 17.0698L1604.32 44.2079C1604.12 45.2517 1602.65 45.3053 1602.37 44.2787L1599.41 33.2146C1599.15 32.2408 1597.78 32.2205 1597.49 33.1863L1595.95 38.3187C1595.67 39.2681 1594.32 39.2704 1594.04 38.322L1591.01 28.3251C1590.72 27.3645 1589.35 27.3837 1589.09 28.352L1586.72 37.014C1586.44 38.0531 1584.94 37.9714 1584.77 36.9076L1580.5 10L1576.34 24.968C1576.05 26.022 1574.52 25.9083 1574.39 24.8225L1573 13.5475L1569.88 20.9175C1569.54 21.7171 1568.42 21.7351 1568.05 20.9468L1563 10L1559.1 39.0618C1558.95 40.1207 1557.47 40.2486 1557.15 39.2298L1556.46 37.046C1556.17 36.1117 1554.84 36.115 1554.55 37.0507L1552.3 44.3253C1551.98 45.3403 1550.51 45.2283 1550.35 44.1773L1545 8.5L1537.9 32.7128C1537.62 33.6517 1536.3 33.677 1535.99 32.7493L1531 17.8827L1526.91 32.5254C1526.64 33.4833 1525.29 33.5053 1524.99 32.5566L1519 13.5475L1511.47 42.7269C1511.21 43.7285 1509.79 43.7267 1509.54 42.7245L1505.32 26.201C1505.07 25.2422 1503.73 25.1833 1503.4 26.1169L1499.1 38.3571C1498.78 39.2929 1497.43 39.2307 1497.19 38.2685L1491 13.5475L1486.2 26.5525C1485.85 27.4936 1484.49 27.3944 1484.28 26.413L1480.5 8.5L1474.05 36.9019C1473.81 37.9553 1472.3 37.9334 1472.09 36.8736L1466.5 8.5L1462.22 19.7882C1461.86 20.7237 1460.51 20.6159 1460.3 19.6361L1458 8.5L1452.17 26.9924C1451.89 27.9039 1450.61 27.9318 1450.28 27.0336L1446.95 17.8827L1443.04 32.2449C1442.77 33.2262 1441.38 33.2279 1441.11 32.2473L1436.93 17.0698L1433.85 26.7269C1433.55 27.6634 1432.22 27.6518 1431.93 26.7102L1427.99 13.5475L1421.97 43.4192C1421.75 44.4982 1420.2 44.4854 1420 43.4029Z" fill="white"/>
<path d="M815.002 43.4029L807 0H1021.5L1017.91 38.7439C1017.79 39.943 1016.05 39.959 1015.92 38.7622L1013.5 17.0698L1009.98 36.1609C1009.78 37.2527 1008.22 37.2527 1008.02 36.1609L1004.5 17.0698L999.319 44.2079C999.12 45.2517 997.646 45.3053 997.371 44.2787L994.412 33.2146C994.152 32.2408 992.777 32.2205 992.488 33.1863L990.952 38.3187C990.668 39.2681 989.324 39.2704 989.037 38.322L986.008 28.3251C985.717 27.3645 984.35 27.3837 984.086 28.352L981.723 37.014C981.44 38.0531 979.94 37.9714 979.771 36.9076L975.5 10L971.343 24.968C971.05 26.022 969.521 25.9083 969.387 24.8225L968 13.5475L964.881 20.9175C964.543 21.7171 963.416 21.7351 963.052 20.9468L958 10L954.096 39.0618C953.954 40.1207 952.473 40.2486 952.152 39.2298L951.462 37.046C951.167 36.1117 949.844 36.115 949.553 37.0507L947.296 44.3253C946.981 45.3403 945.509 45.2283 945.352 44.1773L940 8.5L932.896 32.7128C932.62 33.6517 931.299 33.677 930.988 32.7493L926 17.8827L921.906 32.5254C921.638 33.4833 920.288 33.5053 919.989 32.5566L914 13.5475L906.473 42.7269C906.215 43.7285 904.792 43.7267 904.536 42.7245L900.317 26.201C900.072 25.2422 898.733 25.1833 898.405 26.1169L894.104 38.3571C893.775 39.2929 892.432 39.2307 892.191 38.2685L886 13.5475L881.2 26.5525C880.853 27.4936 879.491 27.3944 879.284 26.413L875.5 8.5L869.045 36.9019C868.806 37.9553 867.297 37.9334 867.089 36.8736L861.5 8.5L857.218 19.7882C856.863 20.7237 855.507 20.6159 855.304 19.6361L853 8.5L847.174 26.9924C846.886 27.9039 845.607 27.9318 845.28 27.0336L841.952 17.8827L838.035 32.2449C837.768 33.2262 836.377 33.2279 836.107 32.2473L831.927 17.0698L828.845 26.7269C828.546 27.6634 827.217 27.6518 826.935 26.7102L822.986 13.5475L816.965 43.4192C816.748 44.4982 815.201 44.4854 815.002 43.4029Z" fill="white"/>
<path d="M1016 43.4029L1008 0H1222.5L1218.91 38.7439C1218.79 39.943 1217.05 39.959 1216.92 38.7622L1214.5 17.0698L1210.98 36.1609C1210.78 37.2527 1209.22 37.2527 1209.02 36.1609L1205.5 17.0698L1200.32 44.2079C1200.12 45.2517 1198.65 45.3053 1198.37 44.2787L1195.41 33.2146C1195.15 32.2408 1193.78 32.2205 1193.49 33.1863L1191.95 38.3187C1191.67 39.2681 1190.32 39.2704 1190.04 38.322L1187.01 28.3251C1186.72 27.3645 1185.35 27.3837 1185.09 28.352L1182.72 37.014C1182.44 38.0531 1180.94 37.9714 1180.77 36.9076L1176.5 10L1172.34 24.968C1172.05 26.022 1170.52 25.9083 1170.39 24.8225L1169 13.5475L1165.88 20.9175C1165.54 21.7171 1164.42 21.7351 1164.05 20.9468L1159 10L1155.1 39.0618C1154.95 40.1207 1153.47 40.2486 1153.15 39.2298L1152.46 37.046C1152.17 36.1117 1150.84 36.115 1150.55 37.0507L1148.3 44.3253C1147.98 45.3403 1146.51 45.2283 1146.35 44.1773L1141 8.5L1133.9 32.7128C1133.62 33.6517 1132.3 33.677 1131.99 32.7493L1127 17.8827L1122.91 32.5254C1122.64 33.4833 1121.29 33.5053 1120.99 32.5566L1115 13.5475L1107.47 42.7269C1107.21 43.7285 1105.79 43.7267 1105.54 42.7245L1101.32 26.201C1101.07 25.2422 1099.73 25.1833 1099.4 26.1169L1095.1 38.3571C1094.78 39.2929 1093.43 39.2307 1093.19 38.2685L1087 13.5475L1082.2 26.5525C1081.85 27.4936 1080.49 27.3944 1080.28 26.413L1076.5 8.5L1070.05 36.9019C1069.81 37.9553 1068.3 37.9334 1068.09 36.8736L1062.5 8.5L1058.22 19.7882C1057.86 20.7237 1056.51 20.6159 1056.3 19.6361L1054 8.5L1048.17 26.9924C1047.89 27.9039 1046.61 27.9318 1046.28 27.0336L1042.95 17.8827L1039.04 32.2449C1038.77 33.2262 1037.38 33.2279 1037.11 32.2473L1032.93 17.0698L1029.85 26.7269C1029.55 27.6634 1028.22 27.6518 1027.93 26.7102L1023.99 13.5475L1017.97 43.4192C1017.75 44.4982 1016.2 44.4854 1016 43.4029Z" fill="white"/>
<path d="M1619 43.4029L1611 0H1825.5L1821.91 38.7439C1821.79 39.943 1820.05 39.959 1819.92 38.7622L1817.5 17.0698L1813.98 36.1609C1813.78 37.2527 1812.22 37.2527 1812.02 36.1609L1808.5 17.0698L1803.32 44.2079C1803.12 45.2517 1801.65 45.3053 1801.37 44.2787L1798.41 33.2146C1798.15 32.2408 1796.78 32.2205 1796.49 33.1863L1794.95 38.3187C1794.67 39.2681 1793.32 39.2704 1793.04 38.322L1790.01 28.3251C1789.72 27.3645 1788.35 27.3837 1788.09 28.352L1785.72 37.014C1785.44 38.0531 1783.94 37.9714 1783.77 36.9076L1779.5 10L1775.34 24.968C1775.05 26.022 1773.52 25.9083 1773.39 24.8225L1772 13.5475L1768.88 20.9175C1768.54 21.7171 1767.42 21.7351 1767.05 20.9468L1762 10L1758.1 39.0618C1757.95 40.1207 1756.47 40.2486 1756.15 39.2298L1755.46 37.046C1755.17 36.1117 1753.84 36.115 1753.55 37.0507L1751.3 44.3253C1750.98 45.3403 1749.51 45.2283 1749.35 44.1773L1744 8.5L1736.9 32.7128C1736.62 33.6517 1735.3 33.677 1734.99 32.7493L1730 17.8827L1725.91 32.5254C1725.64 33.4833 1724.29 33.5053 1723.99 32.5566L1718 13.5475L1710.47 42.7269C1710.21 43.7285 1708.79 43.7267 1708.54 42.7245L1704.32 26.201C1704.07 25.2422 1702.73 25.1833 1702.4 26.1169L1698.1 38.3571C1697.78 39.2929 1696.43 39.2307 1696.19 38.2685L1690 13.5475L1685.2 26.5525C1684.85 27.4936 1683.49 27.3944 1683.28 26.413L1679.5 8.5L1673.05 36.9019C1672.81 37.9553 1671.3 37.9334 1671.09 36.8736L1665.5 8.5L1661.22 19.7882C1660.86 20.7237 1659.51 20.6159 1659.3 19.6361L1657 8.5L1651.17 26.9924C1650.89 27.9039 1649.61 27.9318 1649.28 27.0336L1645.95 17.8827L1642.04 32.2449C1641.77 33.2262 1640.38 33.2279 1640.11 32.2473L1635.93 17.0698L1632.85 26.7269C1632.55 27.6634 1631.22 27.6518 1630.93 26.7102L1626.99 13.5475L1620.97 43.4192C1620.75 44.4982 1619.2 44.4854 1619 43.4029Z" fill="white"/>
<path d="M1820 43.4029L1812 0H2026.5L2022.91 38.7439C2022.79 39.943 2021.05 39.959 2020.92 38.7622L2018.5 17.0698L2014.98 36.1609C2014.78 37.2527 2013.22 37.2527 2013.02 36.1609L2009.5 17.0698L2004.32 44.2079C2004.12 45.2517 2002.65 45.3053 2002.37 44.2787L1999.41 33.2146C1999.15 32.2408 1997.78 32.2205 1997.49 33.1863L1995.95 38.3187C1995.67 39.2681 1994.32 39.2704 1994.04 38.322L1991.01 28.3251C1990.72 27.3645 1989.35 27.3837 1989.09 28.352L1986.72 37.014C1986.44 38.0531 1984.94 37.9714 1984.77 36.9076L1980.5 10L1976.34 24.968C1976.05 26.022 1974.52 25.9083 1974.39 24.8225L1973 13.5475L1969.88 20.9175C1969.54 21.7171 1968.42 21.7351 1968.05 20.9468L1963 10L1959.1 39.0618C1958.95 40.1207 1957.47 40.2486 1957.15 39.2298L1956.46 37.046C1956.17 36.1117 1954.84 36.115 1954.55 37.0507L1952.3 44.3253C1951.98 45.3403 1950.51 45.2283 1950.35 44.1773L1945 8.5L1937.9 32.7128C1937.62 33.6517 1936.3 33.677 1935.99 32.7493L1931 17.8827L1926.91 32.5254C1926.64 33.4833 1925.29 33.5053 1924.99 32.5566L1919 13.5475L1911.47 42.7269C1911.21 43.7285 1909.79 43.7267 1909.54 42.7245L1905.32 26.201C1905.07 25.2422 1903.73 25.1833 1903.4 26.1169L1899.1 38.3571C1898.78 39.2929 1897.43 39.2307 1897.19 38.2685L1891 13.5475L1886.2 26.5525C1885.85 27.4936 1884.49 27.3944 1884.28 26.413L1880.5 8.5L1874.05 36.9019C1873.81 37.9553 1872.3 37.9334 1872.09 36.8736L1866.5 8.5L1862.22 19.7882C1861.86 20.7237 1860.51 20.6159 1860.3 19.6361L1858 8.5L1852.17 26.9924C1851.89 27.9039 1850.61 27.9318 1850.28 27.0336L1846.95 17.8827L1843.04 32.2449C1842.77 33.2262 1841.38 33.2279 1841.11 32.2473L1836.93 17.0698L1833.85 26.7269C1833.55 27.6634 1832.22 27.6518 1831.93 26.7102L1827.99 13.5475L1821.97 43.4192C1821.75 44.4982 1820.2 44.4854 1820 43.4029Z" fill="white"/>
</svg>
