<?xml version="1.0"?>
<svg xmlns="http://www.w3.org/2000/svg" xmlns:xlink="http://www.w3.org/1999/xlink" version="1.1" xml:space="preserve">
  <defs>
    <symbol id="paperclip" width="100%" height="100%" viewBox="0 0 24 24">
      <path d="M14.9997 6.99996L8.4997 13.5C8.10188 13.8978 7.87838 14.4374 7.87838 15C7.87838 15.5626 8.10188 16.1021 8.4997 16.5C8.89753 16.8978 9.43709 17.1213 9.9997 17.1213C10.5623 17.1213 11.1019 16.8978 11.4997 16.5L17.9997 9.99996C18.7954 9.20432 19.2423 8.12518 19.2423 6.99996C19.2423 5.87475 18.7954 4.79561 17.9997 3.99996C17.2041 3.20432 16.1249 2.75732 14.9997 2.75732C13.8745 2.75732 12.7954 3.20432 11.9997 3.99996L5.4997 10.5C4.30623 11.6934 3.63574 13.3121 3.63574 15C3.63574 16.6878 4.30623 18.3065 5.4997 19.5C6.69318 20.6934 8.31188 21.3639 9.9997 21.3639C11.6875 21.3639 13.3062 20.6934 14.4997 19.5L20.9997 13" stroke="currentColor" fill="none" stroke-width="2" stroke-linecap="round" stroke-linejoin="round"/>
    </symbol>
    <symbol id="folder" width="100%" height="100%" viewBox="0 0 24 24">
      <path fill-rule="evenodd" clip-rule="evenodd" d="M2.58579 3.58579C2 4.17157 2 5.11438 2 7V9.25H12.1716C12.3869 9.25 12.5073 9.2495 12.5975 9.24264C12.6377 9.23959 12.6597 9.23599 12.671 9.23365C12.6763 9.23254 12.6791 9.23172 12.6802 9.2314L12.6815 9.23097L12.6827 9.23037L12.6853 9.22887L12.6908 9.22544C12.7004 9.21915 12.7185 9.20615 12.7491 9.17988C12.8177 9.12091 12.9032 9.03617 13.0555 8.88388L14.9393 7H14.2361C13.6347 7 13.334 7 13.0923 6.85065C12.8507 6.7013 12.7162 6.43234 12.4472 5.89443L12.1056 5.21115C11.5677 4.13531 11.2987 3.5974 10.8154 3.2987C10.3321 3 9.73068 3 8.52786 3H6C4.11438 3 3.17157 3 2.58579 3.58579ZM17.0586 7.00209L14.1161 9.94454L14.0596 10.0013C13.83 10.2322 13.5822 10.4815 13.2555 10.6168C12.9288 10.7521 12.5773 10.7511 12.2516 10.7502L12.1716 10.75H2V15C2 17.8284 2 19.2426 2.87868 20.1213C3.75736 21 5.17157 21 8 21H16C18.8284 21 20.2426 21 21.1213 20.1213C22 19.2426 22 17.8284 22 15V13C22 10.1716 22 8.75736 21.1213 7.87868C20.3599 7.11722 19.1962 7.01564 17.0586 7.00209Z" fill="currentColor" />
    </symbol>
    <symbol id="send" width="100%" height="100%" viewBox="0 0 24 24">
      <path fill-rule="evenodd" clip-rule="evenodd" d="M9.93933 12.6464L7.69209 11.8974L7.69208 11.8974L7.69207 11.8974C5.33887 11.113 4.16227 10.7208 4.16227 9.99999C4.16227 9.27923 5.33887 8.88703 7.69209 8.10263L16.2053 5.2649C17.861 4.71297 18.6889 4.43701 19.126 4.87403C19.563 5.31104 19.287 6.13894 18.7351 7.79473L15.8974 16.3079L15.8974 16.3079L15.8973 16.3079C15.1129 18.6611 14.7207 19.8377 14 19.8377C13.2792 19.8377 12.887 18.6611 12.1026 16.3079L11.3535 14.0607L15.7071 9.70711C16.0976 9.31658 16.0976 8.68342 15.7071 8.29289C15.3166 7.90237 14.6834 7.90237 14.2929 8.29289L9.93933 12.6464Z" fill="currentColor" />
    </symbol>
    <symbol id="copy" width="100%" height="100%" viewBox="0 0 28 28" fill="none">
      <path d="M16.3333 8.16666V8.16666C16.3333 7.07946 16.3333 6.53586 16.1557 6.10706C15.9189 5.53533 15.4646 5.08109 14.8929 4.84427C14.4641 4.66666 13.9205 4.66666 12.8333 4.66666H9.33332C7.13344 4.66666 6.03349 4.66666 5.35007 5.35007C4.66666 6.03349 4.66666 7.13344 4.66666 9.33333V12.8333C4.66666 13.9205 4.66666 14.4641 4.84427 14.8929C5.08109 15.4646 5.53533 15.9189 6.10706 16.1557C6.53586 16.3333 7.07946 16.3333 8.16666 16.3333V16.3333" stroke="currentColor" stroke-width="2.33333" />
      <rect x="11.6667" y="11.6667" width="11.6667" height="11.6667" rx="2.33333" stroke="currentColor" stroke-width="2.33333" />
    </symbol>
    <symbol id="thumb-up" width="100%" height="100%" viewBox="0 0 20 20">
      <path d="M2 10.5C2 9.67157 2.67157 9 3.5 9C4.32843 9 5 9.67157 5 10.5V16.5C5 17.3284 4.32843 18 3.5 18C2.67157 18 2 17.3284 2 16.5V10.5Z" fill="currentColor" />
      <path d="M6 10.3333V15.7639C6 16.5215 6.428 17.214 7.10557 17.5528L7.15542 17.5777C7.71084 17.8554 8.32329 18 8.94427 18H14.3604C15.3138 18 16.1346 17.3271 16.3216 16.3922L17.5216 10.3922C17.7691 9.15465 16.8225 8 15.5604 8H12V4C12 2.89543 11.1046 2 10 2C9.44772 2 9 2.44772 9 3V3.66667C9 4.53215 8.71929 5.37428 8.2 6.06667L6.8 7.93333C6.28071 8.62572 6 9.46785 6 10.3333Z" fill="currentColor" />
    </symbol>
    <symbol id="arrow-left" width="100%" height="100%" viewBox="0 0 16 10">
      <path fill-rule="evenodd" clip-rule="evenodd" d="M5.70711 0.292893C5.31658 -0.0976311 4.68342 -0.0976311 4.29289 0.292893L0.292892 4.29289C-0.0976334 4.68342 -0.0976334 5.31658 0.292892 5.70711L4.29289 9.70711C4.68342 10.0976 5.31658 10.0976 5.70711 9.70711C6.09763 9.31658 6.09763 8.68342 5.70711 8.29289L3.41421 6H15C15.5523 6 16 5.55228 16 5C16 4.44772 15.5523 4 15 4H3.41421L5.70711 1.70711C6.09763 1.31658 6.09763 0.683418 5.70711 0.292893Z" fill="currentColor" />
    </symbol>
    <symbol id="arrow-right" width="100%" height="100%" viewBox="0 0 16 10">
      <path fill-rule="evenodd" clip-rule="evenodd" d="M10.2929 0.292893C10.6834 -0.0976311 11.3166 -0.0976311 11.7071 0.292893L15.7071 4.29289C16.0976 4.68342 16.0976 5.31658 15.7071 5.70711L11.7071 9.70711C11.3166 10.0976 10.6834 10.0976 10.2929 9.70711C9.90237 9.31658 9.90237 8.68342 10.2929 8.29289L12.5858 6H1C0.447716 6 -2.41411e-08 5.55228 0 5C2.41411e-08 4.44772 0.447716 4 1 4H12.5858L10.2929 1.70711C9.90237 1.31658 9.90237 0.683418 10.2929 0.292893Z" fill="currentColor" />
    </symbol>
    <symbol id="badge-contur" width="100%" height="100%" viewBox="0 0 18 17">
      <path d="M7.22222 3.66667H2.77778C1.79594 3.66667 1 4.46261 1 5.44444V13.4444C1 14.4263 1.79594 15.2222 2.77778 15.2222H15.2222C16.2041 15.2222 17 14.4263 17 13.4444V5.44444C17 4.46261 16.2041 3.66667 15.2222 3.66667H10.7778M7.22222 3.66667V2.77778C7.22222 1.79594 8.01816 1 9 1C9.98184 1 10.7778 1.79594 10.7778 2.77778V3.66667M7.22222 3.66667C7.22222 4.64851 8.01816 5.44444 9 5.44444C9.98184 5.44444 10.7778 4.64851 10.7778 3.66667M6.33333 10.7778C7.31517 10.7778 8.11111 9.98184 8.11111 9C8.11111 8.01816 7.31517 7.22222 6.33333 7.22222C5.35149 7.22222 4.55556 8.01816 4.55556 9C4.55556 9.98184 5.35149 10.7778 6.33333 10.7778ZM6.33333 10.7778C7.49442 10.7778 8.48214 11.5198 8.84822 12.5556M6.33333 10.7778C5.17225 10.7778 4.18444 11.5198 3.81836 12.5556M11.6667 8.11111H14.3333M11.6667 11.6667H13.4444" stroke="currentColor" fill="none" stroke-width="1.6" stroke-linecap="round" stroke-linejoin="round" />
    </symbol>
    <symbol id="balcony-glazing" width="100%" height="100%" viewBox="0 0 15 16">
      <path d="M14.0625 1.40625V0.46875C14.0625 0.209717 13.8528 0 13.5938 0H0.46875C0.209717 0 0 0.209717 0 0.46875V1.40625C0 1.66528 0.209717 1.875 0.46875 1.875H13.5938C13.8528 1.875 14.0625 1.66528 14.0625 1.40625Z" fill="currentColor" />
      <path d="M3.75 2.8125H6.5625V5.65625H3.75V2.8125Z" fill="currentColor" />
      <path d="M7.5 6.59375H10.3125V9.40625H7.5V6.59375Z" fill="currentColor" />
      <path d="M3.75 6.59375H6.5625V9.40625H3.75V6.59375Z" fill="currentColor" />
      <path d="M3.75 10.3438H6.5625V13.1875H3.75V10.3438Z" fill="currentColor" />
      <path d="M0.9375 2.8125H2.8125V13.1875H0.9375V2.8125Z" fill="currentColor" />
      <path d="M11.25 2.8125H13.125V13.1875H11.25V2.8125Z" fill="currentColor" />
      <path d="M7.5 2.8125H10.3125V5.65625H7.5V2.8125Z" fill="currentColor" />
      <path d="M7.5 10.3438H10.3125V13.1875H7.5V10.3438Z" fill="currentColor" />
      <path d="M0 15.5312C0 15.7903 0.209717 16 0.46875 16H13.5938C13.8528 16 14.0625 15.7903 14.0625 15.5312V14.5938C14.0625 14.3347 13.8528 14.125 13.5938 14.125H0.46875C0.209717 14.125 0 14.3347 0 14.5938V15.5312Z" fill="currentColor" />
    </symbol>
    <symbol id="chart" width="100%" height="100%" viewBox="0 0 18 16">
      <path d="M4.09091 8.72727H0.818182C0.327273 8.72727 0 9.01818 0 9.45455V15.2727C0 15.7091 0.327273 16 0.818182 16H4.09091C4.58182 16 4.90909 15.7091 4.90909 15.2727V9.45455C4.90909 9.01818 4.58182 8.72727 4.09091 8.72727ZM17.1818 5.81818H13.9091C13.4182 5.81818 13.0909 6.10909 13.0909 6.54545V15.2727C13.0909 15.7091 13.4182 16 13.9091 16H17.1818C17.6727 16 18 15.7091 18 15.2727V6.54545C18 6.10909 17.6727 5.81818 17.1818 5.81818ZM10.6364 0H7.36364C6.87273 0 6.54545 0.290909 6.54545 0.727273V15.2727C6.54545 15.7091 6.87273 16 7.36364 16H10.6364C11.1273 16 11.4545 15.7091 11.4545 15.2727V0.727273C11.4545 0.290909 11.1273 0 10.6364 0Z" fill="currentColor" />
    </symbol>
    <symbol id="chart-contur" width="100%" height="100%" viewBox="0 0 18 16">
      <path d="M0.818182 9.52727H4.09091C4.09742 9.52727 4.10347 9.52741 4.10909 9.52764V15.1996C4.10347 15.1999 4.09742 15.2 4.09091 15.2H0.818182C0.81167 15.2 0.805617 15.1999 0.8 15.1996V9.52764C0.805617 9.52741 0.81167 9.52727 0.818182 9.52727ZM4.17041 9.53796C4.17038 9.53798 4.16984 9.53776 4.16883 9.53721L4.17041 9.53796ZM4.17041 15.1893C4.17043 15.1893 4.16992 15.1896 4.16883 15.1901L4.17041 15.1893ZM0.738685 15.1893C0.738702 15.1893 0.739245 15.1895 0.74026 15.1901L0.738685 15.1893ZM0.738685 9.53796C0.738667 9.53793 0.739175 9.53766 0.74026 9.53721L0.738685 9.53796ZM13.9091 6.61818H17.1818C17.1883 6.61818 17.1944 6.61832 17.2 6.61855V15.1996C17.1944 15.1999 17.1883 15.2 17.1818 15.2H13.9091C13.9026 15.2 13.8965 15.1999 13.8909 15.1996V6.61855C13.8965 6.61832 13.9026 6.61818 13.9091 6.61818ZM17.2613 6.62887C17.2613 6.62889 17.2608 6.62867 17.2597 6.62812L17.2613 6.62887ZM17.2613 15.1893C17.2613 15.1893 17.2608 15.1896 17.2598 15.19L17.2613 15.1893ZM13.8296 15.1893C13.8296 15.1893 13.8301 15.1895 13.8312 15.1901L13.8296 15.1893ZM13.8296 6.62887C13.8296 6.62884 13.8301 6.62856 13.8312 6.62812L13.8296 6.62887ZM7.36364 0.8H10.6364C10.6429 0.8 10.6489 0.800133 10.6545 0.800369V15.1996C10.6489 15.1999 10.6429 15.2 10.6364 15.2H7.36364C7.35713 15.2 7.35107 15.1999 7.34545 15.1996V0.800369C7.35107 0.800133 7.35713 0.8 7.36364 0.8ZM10.7159 0.810685C10.7158 0.810711 10.7153 0.810488 10.7143 0.809938L10.7159 0.810685ZM10.7159 15.1893C10.7159 15.1893 10.7154 15.1896 10.7143 15.1901L10.7159 15.1893ZM7.28414 15.1893C7.28415 15.1893 7.28469 15.1895 7.28572 15.1901L7.28414 15.1893ZM7.28414 0.810685C7.28412 0.810659 7.28463 0.810384 7.28572 0.809937L7.28414 0.810685Z" stroke="currentColor" fill="none" stroke-width="1.6" stroke-linecap="round" stroke-linejoin="round" />
    </symbol>
    <symbol id="chat" width="100%" height="100%" viewBox="0 0 18 16">
      <path fill-rule="evenodd" clip-rule="evenodd" d="M18 8C18 12.4183 13.9706 16 9 16C7.32191 16 5.75108 15.5918 4.40637 14.8809L0 16L1.50559 12.4312C0.554401 11.1626 0 9.63886 0 8C0 3.58172 4.02944 0 9 0C13.9706 0 18 3.58172 18 8ZM5.625 6.85714H3.375V9.14286H5.625V6.85714ZM14.625 6.85714H12.375V9.14286H14.625V6.85714ZM7.875 6.85714H10.125V9.14286H7.875V6.85714Z" fill="currentColor" />
    </symbol>
    <symbol id="chat-contur" width="100%" height="100%" viewBox="0 0 20 18">
      <path d="M6 9H6.01M10 9H10.01M14 9H14.01M19 9C19 13.4183 14.9706 17 10 17C8.46073 17 7.01172 16.6565 5.74467 16.0511L1 17L2.39499 13.28C1.51156 12.0423 1 10.5743 1 9C1 4.58172 5.02944 1 10 1C14.9706 1 19 4.58172 19 9Z" stroke="currentColor" fill="none" stroke-width="1.6" stroke-linecap="round" stroke-linejoin="round" />
    </symbol>
    <symbol id="check" width="100%" height="100%" viewBox="0 0 14 14">
      <path fill-rule="evenodd" clip-rule="evenodd" d="M7 14C10.866 14 14 10.866 14 7C14 3.13401 10.866 0 7 0C3.13401 0 0 3.13401 0 7C0 10.866 3.13401 14 7 14ZM10.2437 5.86872C10.5854 5.52701 10.5854 4.97299 10.2437 4.63128C9.90201 4.28957 9.34799 4.28957 9.00628 4.63128L6.125 7.51256L4.99372 6.38128C4.65201 6.03957 4.09799 6.03957 3.75628 6.38128C3.41457 6.72299 3.41457 7.27701 3.75628 7.61872L5.50628 9.36872C5.84799 9.71043 6.40201 9.71043 6.74372 9.36872L10.2437 5.86872Z" fill="currentColor" />
    </symbol>
    <symbol id="doc" width="100%" height="100%" viewBox="0 0 12 16">
      <path fill-rule="evenodd" clip-rule="evenodd" d="M0 2C0 0.895432 0.89543 0 2 0H6.58579C7.11622 0 7.62493 0.210714 8 0.585786L11.4142 4C11.7893 4.37507 12 4.88378 12 5.41421V14C12 15.1046 11.1046 16 10 16H2C0.89543 16 0 15.1046 0 14V2ZM2 8C2 7.44772 2.44772 7 3 7H9C9.55228 7 10 7.44772 10 8C10 8.55229 9.55228 9 9 9H3C2.44772 9 2 8.55229 2 8ZM3 11C2.44772 11 2 11.4477 2 12C2 12.5523 2.44772 13 3 13H9C9.55228 13 10 12.5523 10 12C10 11.4477 9.55228 11 9 11H3Z" fill="currentColor" />
    </symbol>
    <symbol id="doc-contur" width="100%" height="100%" viewBox="0 0 14 18">
      <path d="M4.42857 8.71428H9.57143M4.42857 12.1429H9.57143M11.2857 16.4286H2.71429C1.76751 16.4286 1 15.6611 1 14.7143V2.71429C1 1.76751 1.76751 1 2.71429 1H7.5021C7.72943 1 7.94745 1.09031 8.10819 1.25105L12.7489 5.89181C12.9097 6.05255 13 6.27057 13 6.4979V14.7143C13 15.6611 12.2325 16.4286 11.2857 16.4286Z" stroke="currentColor" fill="none" stroke-width="1.6" stroke-linecap="round" stroke-linejoin="round" />
    </symbol>
    <symbol id="gal-ochka" width="100%" height="100%" viewBox="0 0 12 10">
      <path d="M6.23497 8.79934C5.9649 9.16589 5.54433 9.39118 5.0896 9.41357C4.63487 9.43619 4.19445 9.25292 3.88975 8.91452L1.15929 5.88444C0.725328 5.40316 0.763876 4.66128 1.24515 4.22732C1.72689 3.79336 2.46831 3.83214 2.90227 4.31365L4.83407 6.45758C4.8627 6.48944 4.90425 6.50652 4.94695 6.50444C4.98988 6.50236 5.02912 6.4809 5.05475 6.44673L9.02546 1.06128C9.40979 0.539605 10.1443 0.428577 10.6662 0.813137C11.1876 1.1977 11.2984 1.93219 10.9139 2.45363L6.23497 8.79934Z" fill="currentColor" />
    </symbol>
    <symbol id="play-1" width="100%" height="100%" viewBox="0 0 16 16">
      <path fill-rule="evenodd" clip-rule="evenodd" d="M8 16C12.4183 16 16 12.4183 16 8C16 3.58172 12.4183 0 8 0C3.58172 0 0 3.58172 0 8C0 12.4183 3.58172 16 8 16ZM7.5547 5.16795C7.24784 4.96338 6.8533 4.94431 6.52814 5.11833C6.20298 5.29235 6 5.63121 6 6V10C6 10.3688 6.20298 10.7077 6.52814 10.8817C6.8533 11.0557 7.24784 11.0366 7.5547 10.8321L10.5547 8.83205C10.8329 8.64659 11 8.33435 11 8C11 7.66565 10.8329 7.35342 10.5547 7.16795L7.5547 5.16795Z" fill="currentColor" />
    </symbol>
    <symbol id="play" width="100%" height="100%" viewBox="0 0 47 52">
      <path d="M44.2443 21.5775L8.19476 0.660181C5.26574 -1.03853 0.780029 0.609923 0.780029 4.81147V46.636C0.780029 50.4053 4.94826 52.677 8.19476 50.7873L44.2443 29.8801C47.4601 28.0205 47.4703 23.437 44.2443 21.5775Z" fill="currentColor" />
    </symbol>
    <symbol id="image" width="100%" height="100%" viewBox="0 0 16 14">
      <path fill-rule="evenodd" clip-rule="evenodd" d="M2 0C0.895431 0 0 0.89543 0 2V12C0 13.1046 0.895431 14 2 14H14C15.1046 14 16 13.1046 16 12V2C16 0.895431 15.1046 0 14 0H2ZM14 12H2L6 4L9 10L11 6L14 12Z" fill="currentColor" />
    </symbol>
    <symbol id="wistle" width="100%" height="100%" viewBox="0 0 24 24">
      <path d="M22.9064 8.36912H11.1355V10.1783C11.1355 10.6321 10.7677 10.9999 10.3139 10.9999V10.9999C9.8632 10.9999 9.49663 10.6367 9.49245 10.186L9.47555 8.36414C6.88189 8.66977 4.64658 10.4931 3.80644 12.945C3.43348 12.7321 3.01071 12.6097 2.55049 12.6097C1.13955 12.6097 0 13.7535 0 15.1645C0 16.5754 1.14598 17.7192 2.55693 17.7192C3.01714 17.7192 3.44966 17.5968 3.82263 17.3839C4.74493 20.0758 7.29615 22.0117 10.3006 22.0117C14.0658 22.0117 17.1203 18.9726 17.1469 15.2138L23.1336 13.7512C23.6882 13.6168 24 13.2971 24 12.519V9.30283C24 8.73223 23.477 8.36912 22.9064 8.36912Z" fill="currentColor" />
    </symbol>
    <symbol id="search" width="100%" height="100%" viewBox="0 0 20 20">
      <path d="M19 19L13 13M15 8C15 11.866 11.866 15 8 15C4.13401 15 1 11.866 1 8C1 4.13401 4.13401 1 8 1C11.866 1 15 4.13401 15 8Z" stroke="currentColor" stroke-width="2" stroke-linecap="round" stroke-linejoin="round" fill="none" />
    </symbol>
    <symbol id="share" width="100%" height="100%" viewBox="0 0 20 16">
      <path d="M11.1637 4.89684V1L15.5129 5.23809L19 8.63612L15.451 11.5182L11.1637 15V11.1869C3.63703 10.6341 1 14.8784 1 14.8784C1 12.234 1.2236 9.48968 3.35706 7.4116C5.83702 4.99408 9.42852 4.82301 11.1637 4.89684Z" stroke="currentColor" fill="none" stroke-width="1.8" stroke-linecap="round" stroke-linejoin="round" />
    </symbol>
    <symbol id="star" width="100%" height="100%" viewBox="0 0 13 12">
      <path d="M6.30946 9.94987L2.41073 12L3.15536 7.65851L0 4.58336L4.35915 3.94989L6.30946 0L8.25914 3.94989L12.6183 4.58336L9.46356 7.65851L10.2088 12L6.30946 9.94987Z" fill="currentColor" />
    </symbol>
    <symbol id="to-right" width="100%" height="100%" viewBox="0 0 6 10">
      <path d="M4.09404 5L0.231231 1.29326C-0.0770772 0.997411 -0.0770772 0.517741 0.231231 0.221889C0.53954 -0.0739629 1.03941 -0.0739629 1.34772 0.221889L5.76877 4.46431C6.07708 4.76016 6.07708 5.23984 5.76877 5.53569L1.34772 9.77811C1.03941 10.074 0.53954 10.074 0.231231 9.77811C-0.0770772 9.48226 -0.0770772 9.00259 0.231231 8.70674L4.09404 5Z" fill="currentColor" />
    </symbol>
    <symbol id="to-right-double" width="100%" height="100%" viewBox="0 0 13 12">
      <path fill-rule="evenodd" clip-rule="evenodd" d="M0.292893 11.7071C0.683417 12.0976 1.31658 12.0976 1.70711 11.7071L6.70711 6.70711C7.09763 6.31658 7.09763 5.68342 6.70711 5.29289L1.70711 0.292894C1.31658 -0.0976307 0.683417 -0.0976306 0.292893 0.292894C-0.0976305 0.683418 -0.0976305 1.31658 0.292893 1.70711L4.58579 6L0.292893 10.2929C-0.0976305 10.6834 -0.0976305 11.3166 0.292893 11.7071ZM6.29289 11.7071C6.68342 12.0976 7.31658 12.0976 7.70711 11.7071L12.7071 6.70711C13.0976 6.31658 13.0976 5.68342 12.7071 5.29289L7.70711 0.292894C7.31658 -0.0976312 6.68342 -0.0976312 6.29289 0.292894C5.90237 0.683418 5.90237 1.31658 6.29289 1.70711L10.5858 6L6.29289 10.2929C5.90237 10.6834 5.90237 11.3166 6.29289 11.7071Z" fill="currentColor" />
    </symbol>
    <symbol id="to-left" width="100%" height="100%" viewBox="0 0 11 18">
      <path d="M3.76777 9L9.88388 2.88388C10.372 2.39573 10.372 1.60427 9.88388 1.11612C9.39573 0.627961 8.60427 0.627961 8.11612 1.11612L1.11612 8.11612C0.62796 8.60427 0.62796 9.39573 1.11612 9.88388L8.11612 16.8839C8.60427 17.372 9.39573 17.372 9.88388 16.8839C10.372 16.3957 10.372 15.6043 9.88388 15.1161L3.76777 9Z" fill="currentColor" />
    </symbol>
    <symbol id="to-left-double" width="100%" height="100%" viewBox="0 0 13 12">
      <path fill-rule="evenodd" clip-rule="evenodd" d="M12.7071 11.7071C12.3166 12.0976 11.6834 12.0976 11.2929 11.7071L6.29289 6.70711C5.90237 6.31658 5.90237 5.68342 6.29289 5.29289L11.2929 0.292894C11.6834 -0.0976307 12.3166 -0.0976306 12.7071 0.292894C13.0976 0.683418 13.0976 1.31658 12.7071 1.70711L8.41421 6L12.7071 10.2929C13.0976 10.6834 13.0976 11.3166 12.7071 11.7071ZM6.70711 11.7071C6.31658 12.0976 5.68342 12.0976 5.29289 11.7071L0.292894 6.70711C-0.0976312 6.31658 -0.0976312 5.68342 0.292894 5.29289L5.29289 0.292894C5.68342 -0.0976312 6.31658 -0.0976312 6.70711 0.292894C7.09763 0.683418 7.09763 1.31658 6.70711 1.70711L2.41421 6L6.70711 10.2929C7.09763 10.6834 7.09763 11.3166 6.70711 11.7071Z" fill="currentColor" />
    </symbol>
    <symbol id="to-down" width="100%" height="100%" viewBox="0 0 10 6">
      <path d="M5 4.09404L8.70674 0.231231C9.00259 -0.0770772 9.48226 -0.0770772 9.77811 0.231231C10.074 0.53954 10.074 1.03941 9.77811 1.34772L5.53569 5.76877C5.23983 6.07708 4.76016 6.07708 4.46431 5.76877L0.221888 1.34772C-0.0739642 1.03941 -0.0739641 0.53954 0.221888 0.231231C0.517739 -0.0770776 0.997412 -0.0770775 1.29326 0.231231L5 4.09404Z" fill="currentColor" />
    </symbol>
    <symbol id="to-top" width="100%" height="100%" viewBox="0 0 14 8">
      <path d="M7 2.54128L1.81057 7.69169C1.39638 8.10277 0.724837 8.10277 0.310644 7.69169C-0.103548 7.28061 -0.103548 6.61412 0.310644 6.20305L6.25004 0.308308C6.66423 -0.102771 7.33577 -0.10277 7.74996 0.308308L13.6894 6.20305C14.1035 6.61412 14.1035 7.28061 13.6894 7.69169C13.2752 8.10277 12.6036 8.10277 12.1894 7.69169L7 2.54128Z" fill="currentColor" />
    </symbol>
    <symbol id="wheelchair" width="100%" height="100%" viewBox="0 0 16 16">
      <path d="M11.6916 10.2297C14.1044 10.0063 16 7.97031 16 5.5C16 2.46719 13.5328 0 10.5 0C9.95644 0 8.81772 0 8.5 0C8.22388 0 8 0.223844 8 0.5C8 0.776156 8.22388 1 8.5 1H9V5H2.5V3C2.5 2.17287 1.82709 1.5 1 1.5H0.5C0.223875 1.5 0 1.72384 0 2C0 2.27616 0.223875 2.5 0.5 2.5H1C1.27569 2.5 1.5 2.72431 1.5 3V5.5C1.5 7.97031 3.39563 10.0063 5.80875 10.2297C5.81188 10.2297 5.79572 10.22 7.903 11.7613C6.29209 12.9395 6.35406 12.889 6.35719 12.8916C5.22162 11.9692 3.50531 12.7763 3.50531 14.25C3.50531 15.215 4.29031 16 5.25531 16C6.43706 16 7.28428 14.8437 6.92219 13.7175L8.74997 12.3807L10.5828 13.7212C10.2232 14.8421 11.0634 16 12.2475 16C13.2109 16 13.9947 15.2162 13.9947 14.2525C13.9947 12.7789 12.2783 11.9769 11.1478 12.8956L9.59694 11.7613C11.2639 10.5422 11.6947 10.2294 11.6916 10.2297ZM8.74997 11.1418L7.53062 10.25H9.96937L8.74997 11.1418Z" fill="currentColor" />
    </symbol>
    <!--  -->
    <!--  -->
    <!--  -->
    <symbol id="phone" width="100%" height="100%" viewBox="0 0 16 16">
      <path d="M8.53333 4.2666C8.23893 4.2666 8 4.50553 8 4.79993C8 5.09433 8.23893 5.33327 8.53333 5.33327C9.70987 5.33327 10.6667 6.29007 10.6667 7.4666C10.6667 7.761 10.9056 7.99993 11.2 7.99993C11.4944 7.99993 11.7333 7.761 11.7333 7.4666C11.7333 5.70233 10.2976 4.2666 8.53333 4.2666Z" fill="currentColor" />
      <path d="M8.53333 2.1333C8.23893 2.1333 8 2.37223 8 2.66663C8 2.96103 8.23893 3.19997 8.53333 3.19997C10.8864 3.19997 12.8 5.11357 12.8 7.46663C12.8 7.76103 13.0389 7.99997 13.3333 7.99997C13.6277 7.99997 13.8667 7.76103 13.8667 7.46663C13.8667 4.52583 11.4741 2.1333 8.53333 2.1333Z" fill="currentColor" />
      <path d="M8.53333 0C8.23893 0 8 0.238933 8 0.533333C8 0.827733 8.23893 1.06667 8.53333 1.06667C12.0629 1.06667 14.9333 3.93707 14.9333 7.46667C14.9333 7.76107 15.1723 8 15.4667 8C15.7611 8 16 7.76107 16 7.46667C16 3.34933 12.6496 0 8.53333 0Z" fill="currentColor" />
      <path d="M14.4 11.7333C12.8512 11.7333 11.376 11.3962 10.016 10.7317C9.888 10.6677 9.7408 10.6602 9.60747 10.7072C9.47307 10.7541 9.3632 10.8523 9.30133 10.9792L8.46293 12.7147C6.29333 11.504 4.49707 9.70878 3.28747 7.53918L5.02187 6.69865C5.14987 6.63678 5.24693 6.52692 5.29387 6.39252C5.33973 6.25918 5.3312 6.11198 5.26827 5.98398C4.60373 4.62398 4.26667 3.14878 4.26667 1.59998C4.26667 1.30558 4.02773 1.06665 3.73333 1.06665H0.533333C0.238933 1.06665 0 1.30558 0 1.59998C0 9.54025 6.45973 16 14.4 16C14.6944 16 14.9333 15.761 14.9333 15.4667V12.2666C14.9333 11.9722 14.6944 11.7333 14.4 11.7333Z" fill="currentColor" />
    </symbol>
    <symbol id="mail" width="100%" height="100%" viewBox="0 0 16 12">
      <path d="M0.00333343 1.88355L7.99995 5.88186L15.9967 1.8835C15.9363 0.833152 15.0655 0 14 0H2C0.934518 0 0.0636347 0.833179 0.00333343 1.88355Z" fill="currentColor" />
      <path d="M16 4.1179L7.99995 8.11793L0 4.11796V10C0 11.1046 0.895431 12 2 12H14C15.1046 12 16 11.1046 16 10V4.1179Z" fill="currentColor" />
    </symbol>
    <symbol id="i" width="100%" height="100%" viewBox="0 0 20 20">
      <path fill-rule="evenodd" clip-rule="evenodd" d="M19.6004 10C19.6004 15.302 15.3023 19.6 10.0004 19.6C4.69846 19.6 0.400391 15.302 0.400391 10C0.400391 4.69809 4.69846 0.400024 10.0004 0.400024C15.3023 0.400024 19.6004 4.69809 19.6004 10ZM11.2004 5.20002C11.2004 5.86277 10.6631 6.40002 10.0004 6.40002C9.33765 6.40002 8.80039 5.86277 8.80039 5.20002C8.80039 4.53728 9.33765 4.00002 10.0004 4.00002C10.6631 4.00002 11.2004 4.53728 11.2004 5.20002ZM8.80039 8.80002C8.13765 8.80002 7.60039 9.33728 7.60039 10C7.60039 10.6628 8.13765 11.2 8.80039 11.2V14.8C8.80039 15.4628 9.33765 16 10.0004 16H11.2004C11.8631 16 12.4004 15.4628 12.4004 14.8C12.4004 14.1373 11.8631 13.6 11.2004 13.6V10C11.2004 9.33728 10.6631 8.80002 10.0004 8.80002H8.80039Z" fill="currentColor" />
    </symbol>
    <symbol id="menu" width="100%" height="100%" viewBox="0 0 18 14">
      <path d="M1 1H17M1 7H17M1 13H17" fill="none" stroke="currentColor" stroke-width="2" stroke-linecap="round" stroke-linejoin="round" />
    </symbol>
    <symbol id="cross" width="100%" height="100%" viewBox="0 0 12 12">
      <path fill-rule="evenodd" clip-rule="evenodd" d="M0.292893 0.292893C0.683417 -0.0976311 1.31658 -0.0976311 1.70711 0.292893L6 4.58579L10.2929 0.292893C10.6834 -0.0976311 11.3166 -0.0976311 11.7071 0.292893C12.0976 0.683417 12.0976 1.31658 11.7071 1.70711L7.41421 6L11.7071 10.2929C12.0976 10.6834 12.0976 11.3166 11.7071 11.7071C11.3166 12.0976 10.6834 12.0976 10.2929 11.7071L6 7.41421L1.70711 11.7071C1.31658 12.0976 0.683417 12.0976 0.292893 11.7071C-0.0976311 11.3166 -0.0976311 10.6834 0.292893 10.2929L4.58579 6L0.292893 1.70711C-0.0976311 1.31658 -0.0976311 0.683417 0.292893 0.292893Z" fill="currentColor" />
    </symbol>
    <symbol id="photos" width="100%" height="100%" viewBox="0 0 14 15">
      <path d="M4 6.81348C4 5.70891 4.89543 4.81348 6 4.81348H12C13.1046 4.81348 14 5.70891 14 6.81348V12.8135C14 13.918 13.1046 14.8135 12 14.8135H6C4.89543 14.8135 4 13.918 4 12.8135V6.81348Z" fill="currentColor" />
      <path d="M2 0.813477C0.895431 0.813477 0 1.70891 0 2.81348V8.81348C0 9.91805 0.89543 10.8135 2 10.8135L2 2.81348H10C10 1.70891 9.10457 0.813477 8 0.813477H2Z" fill="currentColor" />
    </symbol>
    <symbol id="download" width="100%" height="100%" viewBox="0 0 12 16">
      <path fill-rule="evenodd" clip-rule="evenodd" d="M2 0C0.89543 0 0 0.895432 0 2V14C0 15.1046 0.89543 16 2 16H10C11.1046 16 12 15.1046 12 14V5.41421C12 4.88378 11.7893 4.37507 11.4142 4L8 0.585786C7.62493 0.210714 7.11622 0 6.58579 0H2ZM7 6C7 5.44772 6.55228 5 6 5C5.44772 5 5 5.44772 5 6V9.58579L3.70711 8.29289C3.31658 7.90237 2.68342 7.90237 2.29289 8.29289C1.90237 8.68342 1.90237 9.31658 2.29289 9.70711L5.29289 12.7071C5.68342 13.0976 6.31658 13.0976 6.70711 12.7071L9.70711 9.70711C10.0976 9.31658 10.0976 8.68342 9.70711 8.29289C9.31658 7.90237 8.68342 7.90237 8.29289 8.29289L7 9.58579V6Z" fill="currentColor" />
    </symbol>
    <symbol id="download-1" width="100%" height="100%" viewBox="0 0 10 12">
      <path d="M9.27751 4.16667H6.83306V0.5H3.1664V4.16667H0.721951L4.99973 9.05556L9.27751 4.16667ZM0.11084 10.2778H9.88862V11.5H0.11084V10.2778Z" fill="currentColor" />
    </symbol>
    <symbol id="net" width="100%" height="100%" viewBox="0 0 16 17">
      <path fill-rule="evenodd" clip-rule="evenodd" d="M2.08296 7.01074H4.02863C4.11783 5.46435 4.41228 4.03982 4.86644 2.89302C3.41752 3.78209 2.37513 5.26922 2.08296 7.01074ZM8 0.0107422C3.58172 0.0107422 0 3.59246 0 8.01074C0 12.429 3.58172 16.0107 8 16.0107C12.4183 16.0107 16 12.429 16 8.01074C16 3.59246 12.4183 0.0107422 8 0.0107422ZM8 2.01074C7.92395 2.01074 7.76787 2.04247 7.5347 2.27258C7.29723 2.50694 7.03751 2.89565 6.79782 3.45491C6.40914 4.36185 6.12491 5.59633 6.03237 7.01074H9.96763C9.87509 5.59633 9.59086 4.36185 9.20218 3.45491C8.96249 2.89565 8.70277 2.50694 8.4653 2.27258C8.23213 2.04247 8.07605 2.01074 8 2.01074ZM11.9714 7.01074C11.8822 5.46435 11.5877 4.03981 11.1336 2.89302C12.5825 3.78209 13.6249 5.26922 13.917 7.01074H11.9714ZM9.96763 9.01074H6.03237C6.12491 10.4252 6.40914 11.6596 6.79782 12.5666C7.03751 13.1258 7.29723 13.5145 7.5347 13.7489C7.76787 13.979 7.92395 14.0107 8 14.0107C8.07605 14.0107 8.23213 13.979 8.4653 13.7489C8.70277 13.5145 8.96249 13.1258 9.20218 12.5666C9.59086 11.6596 9.87509 10.4252 9.96763 9.01074ZM11.1336 13.1285C11.5877 11.9817 11.8822 10.5571 11.9714 9.01074H13.917C13.6249 10.7523 12.5825 12.2394 11.1336 13.1285ZM4.86644 13.1285C4.41228 11.9817 4.11783 10.5571 4.02863 9.01074H2.08296C2.37513 10.7523 3.41752 12.2394 4.86644 13.1285Z" fill="currentColor" />
    </symbol>
    <symbol id="map" width="100%" height="100%" viewBox="0 0 13 16">
      <path d="M6.17181 0.00407228C2.98436 0.115611 0.336378 2.5957 0.030462 5.76143C-0.032037 6.39457 0.00414668 7.00803 0.115987 7.59525C0.115987 7.59525 0.125855 7.66414 0.15875 7.79536C0.257432 8.23495 0.405456 8.66143 0.589664 9.06165C1.2311 10.5773 2.71463 13.1131 6.04353 15.8721C6.24747 16.0426 6.54681 16.0426 6.75404 15.8721C10.0829 13.1164 11.5665 10.5805 12.2112 9.05837C12.3987 8.65814 12.5434 8.23495 12.6421 7.79208C12.6717 7.66414 12.6849 7.59197 12.6849 7.59197C12.7605 7.1983 12.8 6.7948 12.8 6.38145C12.8 2.77941 9.80992 -0.123869 6.17181 0.00407228ZM6.39878 9.55701C4.68171 9.55701 3.29028 8.16934 3.29028 6.4569C3.29028 4.74446 4.68171 3.35679 6.39878 3.35679C8.11586 3.35679 9.50729 4.74446 9.50729 6.4569C9.50729 8.16934 8.11586 9.55701 6.39878 9.55701Z" fill="currentColor" />
    </symbol>
    <symbol id="user" width="100%" height="100%" viewBox="0 0 14 15">
      <path d="M7 6C8.65685 6 10 4.65685 10 3C10 1.34315 8.65685 0 7 0C5.34315 0 4 1.34315 4 3C4 4.65685 5.34315 6 7 6Z" fill="currentColor" />
      <path d="M0 15C0 11.134 3.13401 8 7 8C10.866 8 14 11.134 14 15H0Z" fill="currentColor" />
    </symbol>
    <symbol id="dropdown" width="100%" height="100%" viewBox="0 0 10 8">
      <path d="M5.82199 6.81355C5.42431 7.38756 4.57569 7.38756 4.178 6.81355L0.891225 2.06949C0.431745 1.40629 0.9064 0.5 1.71322 0.5L8.28678 0.500001C9.0936 0.500001 9.56825 1.40629 9.10877 2.0695L5.82199 6.81355Z" fill="currentColor" />
    </symbol>
    <symbol id="calendar" width="100%" height="100%" viewBox="0 0 13 14">
      <path d="M4.04688 7.875H2.95312C2.77266 7.875 2.625 7.72734 2.625 7.54688V6.45312C2.625 6.27266 2.77266 6.125 2.95312 6.125H4.04688C4.22734 6.125 4.375 6.27266 4.375 6.45312V7.54688C4.375 7.72734 4.22734 7.875 4.04688 7.875ZM7 7.54688V6.45312C7 6.27266 6.85234 6.125 6.67188 6.125H5.57812C5.39766 6.125 5.25 6.27266 5.25 6.45312V7.54688C5.25 7.72734 5.39766 7.875 5.57812 7.875H6.67188C6.85234 7.875 7 7.72734 7 7.54688ZM9.625 7.54688V6.45312C9.625 6.27266 9.47734 6.125 9.29688 6.125H8.20312C8.02266 6.125 7.875 6.27266 7.875 6.45312V7.54688C7.875 7.72734 8.02266 7.875 8.20312 7.875H9.29688C9.47734 7.875 9.625 7.72734 9.625 7.54688ZM7 10.1719V9.07812C7 8.89766 6.85234 8.75 6.67188 8.75H5.57812C5.39766 8.75 5.25 8.89766 5.25 9.07812V10.1719C5.25 10.3523 5.39766 10.5 5.57812 10.5H6.67188C6.85234 10.5 7 10.3523 7 10.1719ZM4.375 10.1719V9.07812C4.375 8.89766 4.22734 8.75 4.04688 8.75H2.95312C2.77266 8.75 2.625 8.89766 2.625 9.07812V10.1719C2.625 10.3523 2.77266 10.5 2.95312 10.5H4.04688C4.22734 10.5 4.375 10.3523 4.375 10.1719ZM9.625 10.1719V9.07812C9.625 8.89766 9.47734 8.75 9.29688 8.75H8.20312C8.02266 8.75 7.875 8.89766 7.875 9.07812V10.1719C7.875 10.3523 8.02266 10.5 8.20312 10.5H9.29688C9.47734 10.5 9.625 10.3523 9.625 10.1719ZM12.25 3.0625V12.6875C12.25 13.4121 11.6621 14 10.9375 14H1.3125C0.587891 14 0 13.4121 0 12.6875V3.0625C0 2.33789 0.587891 1.75 1.3125 1.75H2.625V0.328125C2.625 0.147656 2.77266 0 2.95312 0H4.04688C4.22734 0 4.375 0.147656 4.375 0.328125V1.75H7.875V0.328125C7.875 0.147656 8.02266 0 8.20312 0H9.29688C9.47734 0 9.625 0.147656 9.625 0.328125V1.75H10.9375C11.6621 1.75 12.25 2.33789 12.25 3.0625ZM10.9375 12.5234V4.375H1.3125V12.5234C1.3125 12.6137 1.38633 12.6875 1.47656 12.6875H10.7734C10.8637 12.6875 10.9375 12.6137 10.9375 12.5234Z" fill="currentColor" />
    </symbol>
    <symbol id="setting" width="100%" height="100%" viewBox="0 0 16 16">
      <path fill-rule="evenodd" clip-rule="evenodd" d="M9.48922 1.17094C9.1102 -0.390314 6.8898 -0.390314 6.51078 1.17094C6.26594 2.17949 5.11045 2.65811 4.22416 2.11809C2.85218 1.28212 1.28212 2.85218 2.11809 4.22416C2.65811 5.11045 2.17949 6.26593 1.17094 6.51078C-0.390314 6.8898 -0.390314 9.1102 1.17094 9.48922C2.17949 9.73407 2.65811 10.8896 2.11809 11.7758C1.28212 13.1478 2.85218 14.7179 4.22417 13.8819C5.11045 13.3419 6.26594 13.8205 6.51078 14.8291C6.8898 16.3903 9.1102 16.3903 9.48922 14.8291C9.73407 13.8205 10.8896 13.3419 11.7758 13.8819C13.1478 14.7179 14.7179 13.1478 13.8819 11.7758C13.3419 10.8896 13.8205 9.73407 14.8291 9.48922C16.3903 9.1102 16.3903 6.8898 14.8291 6.51078C13.8205 6.26593 13.3419 5.11045 13.8819 4.22416C14.7179 2.85218 13.1478 1.28212 11.7758 2.11809C10.8896 2.65811 9.73407 2.17949 9.48922 1.17094ZM8 11C9.65685 11 11 9.65685 11 8C11 6.34315 9.65685 5 8 5C6.34315 5 5 6.34315 5 8C5 9.65685 6.34315 11 8 11Z" fill="currentColor" />
    </symbol>
    <symbol id="plus" width="100%" height="100%" viewBox="0 0 16 16">
      <path fill-rule="evenodd" clip-rule="evenodd" d="M8 16C12.4183 16 16 12.4183 16 8C16 3.58172 12.4183 0 8 0C3.58172 0 0 3.58172 0 8C0 12.4183 3.58172 16 8 16ZM9 5C9 4.44772 8.55228 4 8 4C7.44772 4 7 4.44772 7 5V7H5C4.44772 7 4 7.44771 4 8C4 8.55228 4.44772 9 5 9H7V11C7 11.5523 7.44772 12 8 12C8.55228 12 9 11.5523 9 11V9H11C11.5523 9 12 8.55228 12 8C12 7.44772 11.5523 7 11 7H9V5Z" fill="currentColor" />
    </symbol>
    <symbol id="plus-1" width="100%" height="100%" viewBox="0 0 8 8">
      <path d="M4.78516 4.66406V7.79492H3.67773V4.66406H0.758789V3.55664H3.67773V0.500977H4.78516V3.55664H7.7041V4.66406H4.78516Z" fill="currentColor" />
    </symbol>
    <symbol id="exit" width="100%" height="100%" viewBox="0 0 18 18">
      <path d="M15.7346 18H7.86732C7.24683 18 6.71707 17.7805 6.27805 17.3415C5.83902 16.9024 5.61951 16.3727 5.61951 15.7522V14.6283C5.61951 14.3122 5.7278 14.0459 5.94439 13.8293C6.16098 13.6127 6.42439 13.5044 6.73463 13.5044C7.04488 13.5044 7.31122 13.6127 7.53366 13.8293C7.7561 14.0459 7.86732 14.3093 7.86732 14.6195C7.86732 14.9298 7.97561 15.1961 8.19219 15.4185C8.40878 15.641 8.67512 15.7522 8.99122 15.7522H13.4868C13.7912 15.7522 14.0546 15.641 14.2771 15.4185C14.4995 15.1961 14.6107 14.9327 14.6107 14.6283V3.37171C14.6107 3.06732 14.4995 2.8039 14.2771 2.58146C14.0546 2.35902 13.7912 2.2478 13.4868 2.2478H8.99122C8.67512 2.2478 8.40878 2.35902 8.19219 2.58146C7.97561 2.8039 7.86732 3.07024 7.86732 3.38049C7.86732 3.69073 7.7561 3.95707 7.53366 4.17951C7.31122 4.40195 7.04488 4.51317 6.73463 4.51317C6.42439 4.51317 6.16098 4.40195 5.94439 4.17951C5.7278 3.95707 5.61951 3.6878 5.61951 3.37171V2.2478C5.61951 1.62732 5.83902 1.09756 6.27805 0.658537C6.71707 0.219512 7.24683 0 7.86732 0H15.7346C16.3551 0 16.8849 0.219512 17.3239 0.658537C17.7629 1.09756 17.9824 1.62732 17.9824 2.2478V15.7522C17.9824 16.3727 17.7629 16.9024 17.3239 17.3415C16.8849 17.7805 16.3551 18 15.7346 18ZM12.3629 6.74341C12.6673 6.74341 12.9307 6.85463 13.1532 7.07707C13.3756 7.29951 13.4868 7.56293 13.4868 7.86732V10.1327C13.4868 10.4371 13.3756 10.7005 13.1532 10.9229C12.9307 11.1454 12.6673 11.2566 12.3629 11.2566H4.49561V13.0302C4.49561 13.159 4.41659 13.2702 4.25854 13.3639C4.10049 13.4576 3.91317 13.4985 3.69659 13.4868C3.48 13.4751 3.30732 13.4049 3.17854 13.2761L0.316098 9.7639C0.105366 9.55317 0 9.29854 0 9C0 8.70146 0.105366 8.44683 0.316098 8.2361L3.17854 4.7239C3.30732 4.59512 3.48 4.5278 3.69659 4.52195C3.91317 4.5161 4.10049 4.56 4.25854 4.65366C4.41659 4.74732 4.49561 4.86439 4.49561 5.00488V6.74341H12.3629Z" fill="currentColor" />
    </symbol>
    <symbol id="doc" width="100%" height="100%" viewBox="0 0 16 20">
      <path fill-rule="evenodd" clip-rule="evenodd" d="M8 0V5L7.99999 5.05441C7.99991 5.47848 7.99983 5.8906 8.04553 6.23052C8.09705 6.61372 8.22257 7.051 8.58579 7.41421C8.949 7.77743 9.38628 7.90295 9.76948 7.95447C10.1094 8.00017 10.5215 8.00009 10.9456 8.00001H10.9456H10.9456H10.9456L11 8H16V14C16 16.8284 16 18.2426 15.1213 19.1213C14.2426 20 12.8284 20 10 20H6C3.17157 20 1.75736 20 0.87868 19.1213C0 18.2426 0 16.8284 0 14V6C0 3.17157 0 1.75736 0.87868 0.87868C1.75736 0 3.17157 0 6 0H8ZM10 0.00462076V5C10 5.49967 10.0021 5.77383 10.0277 5.96402L10.0287 5.97131L10.036 5.97231C10.2262 5.99788 10.5003 6 11 6H15.9954C15.9852 5.58836 15.9525 5.31595 15.8478 5.06306C15.6955 4.69552 15.4065 4.40649 14.8284 3.82843L12.1716 1.17157C11.5935 0.593512 11.3045 0.304482 10.9369 0.152241C10.684 0.0474889 10.4116 0.0148133 10 0.00462076ZM4 11C4 10.4477 4.44772 10 5 10L11 10C11.5523 10 12 10.4477 12 11C12 11.5523 11.5523 12 11 12L5 12C4.44772 12 4 11.5523 4 11ZM5 14C4.44772 14 4 14.4477 4 15C4 15.5523 4.44772 16 5 16H9C9.55228 16 10 15.5523 10 15C10 14.4477 9.55229 14 9 14H5Z" fill="currentColor" />
    </symbol>
    <symbol id="flag" width="100%" height="100%" viewBox="0 0 11 12">
      <path d="M10.0835 0.06375C10.1347 0.0979781 10.1766 0.144277 10.2057 0.19856C10.2347 0.252842 10.2499 0.313439 10.25 0.375V6C10.25 6.07489 10.2275 6.14806 10.1856 6.21008C10.1436 6.27211 10.084 6.32014 10.0145 6.348L9.875 6L10.0145 6.348L10.0122 6.34875L10.0077 6.351L9.9905 6.35775C9.8919 6.39694 9.79263 6.43445 9.69275 6.47025C9.49475 6.5415 9.2195 6.6375 8.9075 6.73275C8.2955 6.92175 7.49825 7.125 6.875 7.125C6.23975 7.125 5.714 6.915 5.2565 6.73125L5.2355 6.72375C4.76 6.5325 4.355 6.375 3.875 6.375C3.35 6.375 2.6465 6.5475 2.04725 6.73275C1.77894 6.81637 1.51308 6.90766 1.25 7.0065V11.625C1.25 11.7245 1.21049 11.8198 1.14016 11.8902C1.06984 11.9605 0.974456 12 0.875 12C0.775544 12 0.680161 11.9605 0.609835 11.8902C0.539509 11.8198 0.5 11.7245 0.5 11.625V0.375C0.5 0.275544 0.539509 0.180161 0.609835 0.109835C0.680161 0.0395088 0.775544 0 0.875 0C0.974456 0 1.06984 0.0395088 1.14016 0.109835C1.21049 0.180161 1.25 0.275544 1.25 0.375V0.5865C1.4195 0.52725 1.622 0.459 1.8425 0.3915C2.4545 0.204 3.2525 0 3.875 0C4.505 0 5.018 0.20775 5.46575 0.38925L5.498 0.40275C5.9645 0.591 6.371 0.75 6.875 0.75C7.4 0.75 8.1035 0.5775 8.70275 0.39225C9.04423 0.285609 9.38171 0.16653 9.7145 0.03525L9.72875 0.03L9.73175 0.0285H9.7325" fill="currentColor" />
    </symbol>
    <symbol id="triangle-right" width="100%" height="100%" viewBox="0 0 5 6">
      <path d="M4.5 3.86603C5.16667 3.48112 5.16667 2.51888 4.5 2.13397L1.5 0.401923C0.833332 0.0170233 2.84205e-07 0.498149 2.50556e-07 1.26795L9.91352e-08 4.73205C6.54861e-08 5.50185 0.833334 5.98298 1.5 5.59808L4.5 3.86603Z" fill="currentColor" />
    </symbol>
    <symbol id="support" width="100%" height="100%" viewBox="0 0 40 40">
      <path d="M20 0.833496C9.4315 0.833496 0.833333 9.43166 0.833333 20.0002V27.9409C0.833333 29.9036 2.55258 31.5002 4.66667 31.5002H6.58333C7.09166 31.5002 7.57917 31.2982 7.93862 30.9388C8.29806 30.5793 8.5 30.0918 8.5 29.5835V19.7261C8.5 19.2177 8.29806 18.7302 7.93862 18.3708C7.57917 18.0113 7.09166 17.8094 6.58333 17.8094H4.843C5.90867 10.3919 12.2912 4.66683 20 4.66683C27.7088 4.66683 34.0913 10.3919 35.157 17.8094H33.4167C32.9083 17.8094 32.4208 18.0113 32.0614 18.3708C31.7019 18.7302 31.5 19.2177 31.5 19.7261V31.5002C31.5 33.6142 29.7807 35.3335 27.6667 35.3335H23.8333V33.4168H16.1667V39.1668H27.6667C31.8948 39.1668 35.3333 35.7283 35.3333 31.5002C37.4474 31.5002 39.1667 29.9036 39.1667 27.9409V20.0002C39.1667 9.43166 30.5685 0.833496 20 0.833496Z" fill="currentColor" />
    </symbol>
    <symbol id="trophy" width="100%" height="100%" viewBox="0 0 24 24">
      <path d="M23.044 1.61229C22.9121 1.48044 22.7333 1.40628 22.5468 1.40628H19.7342V0.703117C19.7342 0.314809 19.4194 0 19.0311 0H4.96879C4.58049 0 4.26568 0.314809 4.26568 0.703117V1.40633H1.45312C1.2666 1.40633 1.08773 1.48048 0.955919 1.61234C0.824015 1.7442 0.749953 1.92307 0.75 2.10958L0.750188 4.21879C0.750188 5.76959 2.01186 7.03126 3.56265 7.03126H6.03823C7.15324 8.37956 8.71603 9.34447 10.4964 9.69668L9.39346 10.7996C9.24253 10.9505 9.16832 11.1617 9.19176 11.3739L9.65371 15.5623H14.3462L14.8081 11.3739C14.8316 11.1617 14.7574 10.9505 14.6064 10.7996L13.5035 9.69668C15.2838 9.34442 16.8466 8.37951 17.9616 7.03126H20.4372C21.988 7.03126 23.2497 5.76959 23.2497 4.21879L23.2499 2.10958C23.2499 1.92307 23.1759 1.7442 23.044 1.61229ZM3.56265 5.62503C2.78726 5.62503 2.15642 4.99419 2.15642 4.21879L2.15628 2.81256H4.29797C4.38891 3.81736 4.67231 4.76741 5.11181 5.62503H3.56265ZM21.8435 4.21879C21.8435 4.99419 21.2127 5.62503 20.4373 5.62503H18.888C19.3276 4.76741 19.611 3.81736 19.7019 2.81256H21.8436L21.8435 4.21879Z" fill="currentColor" />
      <path d="M17.6252 22.594H16.7678L15.4946 17.5013C15.4164 17.1883 15.1351 16.9688 14.8125 16.9688H9.18725C8.86461 16.9688 8.58337 17.1884 8.50514 17.5013L7.23198 22.5939H6.3745C5.9862 22.5939 5.67139 22.9087 5.67139 23.297C5.67139 23.6854 5.9862 24.0002 6.3745 24.0002H17.6252C18.0135 24.0002 18.3283 23.6854 18.3283 23.297C18.3283 22.9088 18.0135 22.594 17.6252 22.594ZM12.7029 21.1876H11.2969C10.9085 21.1876 10.5938 20.8728 10.5938 20.4845C10.5938 20.0962 10.9085 19.7814 11.2969 19.7814H12.7029C13.0912 19.7814 13.406 20.0962 13.406 20.4845C13.406 20.8728 13.0912 21.1876 12.7029 21.1876Z" fill="currentColor" />
    </symbol>
    <symbol id="eye" width="100%" height="100%" viewBox="0 0 14 12">
      <path d="M5.18759 6C5.18759 6.46413 5.37196 6.90925 5.70015 7.23744C6.02834 7.56563 6.47346 7.75 6.93759 7.75C7.40172 7.75 7.84684 7.56563 8.17503 7.23744C8.50322 6.90925 8.68759 6.46413 8.68759 6C8.68759 5.53587 8.50322 5.09075 8.17503 4.76256C7.84684 4.43437 7.40172 4.25 6.93759 4.25C6.47346 4.25 6.02834 4.43437 5.70015 4.76256C5.37196 5.09075 5.18759 5.53587 5.18759 6ZM13.722 5.59688C12.2407 2.47656 10.0017 0.90625 7.00009 0.90625C3.99696 0.90625 1.75947 2.47656 0.278215 5.59844C0.218802 5.72425 0.187988 5.86165 0.187988 6.00078C0.187988 6.13991 0.218802 6.27732 0.278215 6.40312C1.75947 9.52344 3.99853 11.0938 7.00009 11.0938C10.0032 11.0938 12.2407 9.52344 13.722 6.40156C13.8423 6.14844 13.8423 5.85469 13.722 5.59688ZM6.93759 8.75C5.41884 8.75 4.18759 7.51875 4.18759 6C4.18759 4.48125 5.41884 3.25 6.93759 3.25C8.45634 3.25 9.68759 4.48125 9.68759 6C9.68759 7.51875 8.45634 8.75 6.93759 8.75Z" fill="currentColor" />
    </symbol>
    <symbol id="user-group" width="100%" height="100%" viewBox="0 0 22 19">
      <path d="M14.5992 4.2001C14.5992 6.18832 12.9874 7.8001 10.9992 7.8001C9.01099 7.8001 7.39922 6.18832 7.39922 4.2001C7.39922 2.21187 9.01099 0.600098 10.9992 0.600098C12.9874 0.600098 14.5992 2.21187 14.5992 4.2001Z" fill="currentColor" />
      <path d="M20.5992 6.6001C20.5992 7.92558 19.5247 9.0001 18.1992 9.0001C16.8737 9.0001 15.7992 7.92558 15.7992 6.6001C15.7992 5.27461 16.8737 4.2001 18.1992 4.2001C19.5247 4.2001 20.5992 5.27461 20.5992 6.6001Z" fill="currentColor" />
      <path d="M15.7992 15.0001C15.7992 12.3491 13.6502 10.2001 10.9992 10.2001C8.34825 10.2001 6.19922 12.3491 6.19922 15.0001V18.6001H15.7992V15.0001Z" fill="currentColor" />
      <path d="M6.19922 6.6001C6.19922 7.92558 5.1247 9.0001 3.79922 9.0001C2.47374 9.0001 1.39922 7.92558 1.39922 6.6001C1.39922 5.27461 2.47374 4.2001 3.79922 4.2001C5.1247 4.2001 6.19922 5.27461 6.19922 6.6001Z" fill="currentColor" />
      <path d="M18.1992 18.6001V15.0001C18.1992 13.7351 17.873 12.5463 17.3001 11.5133C17.5875 11.4394 17.8888 11.4001 18.1992 11.4001C20.1874 11.4001 21.7992 13.0119 21.7992 15.0001V18.6001H18.1992Z" fill="currentColor" />
      <path d="M4.69833 11.5133C4.12544 12.5463 3.79922 13.7351 3.79922 15.0001V18.6001H0.199219V15.0001C0.199219 13.0119 1.81099 11.4001 3.79922 11.4001C4.10967 11.4001 4.41094 11.4394 4.69833 11.5133Z" fill="currentColor" />
    </symbol>
    <symbol id="delete" width="100%" height="100%" viewBox="0 0 13 14">
      <path d="M12.3333 2.02312H9.5L9.08333 1.37568C8.5 0.48551 7.58331 0 6.49997 0C5.41664 0 4.5 0.48551 3.91667 1.37568L3.5 2.02312H0.666655C0.333322 2.02312 0 2.26589 0 2.67051C0 3.07514 0.249989 3.3179 0.666655 3.3179H1.75003V11.5723C1.75003 12.948 2.83336 14 4.25002 14H8.74998C10.1666 14 11.25 12.948 11.25 11.5723V3.3179H12.3333C12.6666 3.3179 13 3.07514 13 2.67051C13 2.26589 12.6666 2.02312 12.3333 2.02312ZM4.99999 2.02312C5.33332 1.53757 5.91664 1.21387 6.49997 1.21387C7.08331 1.21387 7.66668 1.53757 8.00001 2.02312H4.99999ZM5.50002 10.8439C5.50002 11.1676 5.24998 11.4913 4.83331 11.4913C4.49998 11.4913 4.16666 11.2485 4.16666 10.8439V5.66474C4.16666 5.34104 4.41665 5.0173 4.83331 5.0173C5.16664 5.0173 5.50002 5.26012 5.50002 5.66474V10.8439ZM8.74998 10.8439C8.74998 11.1676 8.49999 11.4913 8.08332 11.4913C7.74999 11.4913 7.41667 11.2485 7.41667 10.8439V5.66474C7.41667 5.34104 7.66666 5.0173 8.08332 5.0173C8.41666 5.0173 8.74998 5.26012 8.74998 5.66474V10.8439Z" fill="currentColor" />
    </symbol>
    <symbol id="book" width="100%" height="100%" viewBox="0 0 12 14">
      <path d="M10.6667 0.333008H2C1.196 0.333008 0 0.865674 0 2.33301V11.6663C0 13.1337 1.196 13.6663 2 13.6663H12V12.333H2.008C1.7 12.325 1.33333 12.2037 1.33333 11.6663C1.33333 11.599 1.33933 11.539 1.34933 11.4843C1.424 11.1003 1.73867 11.0063 2.008 10.9997H12V1.66634C12 1.31272 11.8595 0.97358 11.6095 0.723532C11.3594 0.473484 11.0203 0.333008 10.6667 0.333008ZM10.6667 6.33301L9.33333 5.66634L8 6.33301V1.66634H10.6667V6.33301Z" fill="currentColor" />
    </symbol>
    <symbol id="ball" width="100%" height="100%" viewBox="0 0 20 20">
      <path d="M18.4912 1.51004C17.9312 0.950039 16.3412 0.540039 14.3312 0.540039C11.2512 0.540039 7.18123 1.50004 4.35123 4.33004C-0.338774 9.03004 0.101227 17.07 1.51123 18.49C2.07123 19.05 3.66123 19.46 5.67123 19.46C8.75123 19.46 12.8212 18.5 15.6512 15.67C20.3412 10.97 19.9012 2.93004 18.4912 1.51004ZM5.76123 5.76004C8.40123 3.12004 12.1112 2.64004 13.7912 2.57004C11.7412 3.51004 9.33123 5.02004 7.18123 7.18004C5.26936 9.1062 3.70618 11.3495 2.56123 13.81C2.66123 11.33 3.44123 8.07004 5.76123 5.76004ZM14.2412 14.24C11.6012 16.88 7.89123 17.36 6.21123 17.43C8.26123 16.49 10.6712 14.98 12.8212 12.82C14.9812 10.66 16.4912 8.24004 17.4412 6.19004C17.3412 8.67004 16.5612 11.93 14.2412 14.24Z" fill="currentColor" />
    </symbol>
    <symbol id="ball-1" width="100%" height="100%" viewBox="0 0 14 14">
      <path d="M0.5 7C0.5 5.27609 1.18482 3.62279 2.40381 2.40381C3.62279 1.18482 5.27609 0.5 7 0.5C8.72391 0.5 10.3772 1.18482 11.5962 2.40381C12.8152 3.62279 13.5 5.27609 13.5 7C13.5 8.72391 12.8152 10.3772 11.5962 11.5962C10.3772 12.8152 8.72391 13.5 7 13.5C5.27609 13.5 3.62279 12.8152 2.40381 11.5962C1.18482 10.3772 0.5 8.72391 0.5 7ZM4.643 2.03C3.91347 2.37693 3.26897 2.87976 2.755 3.503L3.402 5.607L4.408 5.942L6.5 4.352V3.268L4.643 2.029V2.03ZM1.536 7.634C1.636 8.499 1.936 9.304 2.389 9.999H4.293L4.928 9.364L4.105 6.894L3.081 6.553L1.536 7.633V7.634ZM5.886 12.386C6.62096 12.5373 7.37904 12.5373 8.114 12.386L8.904 10.61L8.293 10H5.707L5.097 10.61L5.886 12.387V12.386ZM11.61 10C12.05 9.326 12.346 8.55 12.454 7.715L10.91 6.557L9.895 6.895L9.072 9.365L9.707 10H11.61ZM11.232 3.487C10.7202 2.8707 10.0804 2.37319 9.357 2.029L7.5 3.268V4.352L9.592 5.942L10.596 5.608L11.232 3.487Z" fill="currentColor" />
    </symbol>
    <symbol id="edit" width="100%" height="100%" viewBox="0 0 14 14">
      <path d="M10.5858 0.585786C11.3668 -0.195262 12.6332 -0.195262 13.4142 0.585786C14.1953 1.36683 14.1953 2.63316 13.4142 3.41421L12.6213 4.20711L9.79289 1.37868L10.5858 0.585786Z" fill="currentColor" />
      <path d="M8.37868 2.79289L0 11.1716V14H2.82842L11.2071 5.62132L8.37868 2.79289Z" fill="currentColor" />
    </symbol>
    <symbol id="menu-1" width="100%" height="100%" viewBox="0 0 18 16">
      <path fill-rule="evenodd" clip-rule="evenodd" d="M0.601562 1.9998C0.601562 1.33706 1.13882 0.799805 1.80156 0.799805H16.2016C16.8643 0.799805 17.4016 1.33706 17.4016 1.9998C17.4016 2.66255 16.8643 3.1998 16.2016 3.1998H1.80156C1.13882 3.1998 0.601562 2.66255 0.601562 1.9998Z" fill="currentColor" />
      <path fill-rule="evenodd" clip-rule="evenodd" d="M0.601562 7.9998C0.601562 7.33706 1.13882 6.7998 1.80156 6.7998H16.2016C16.8643 6.7998 17.4016 7.33706 17.4016 7.9998C17.4016 8.66255 16.8643 9.19981 16.2016 9.19981H1.80156C1.13882 9.19981 0.601562 8.66255 0.601562 7.9998Z" fill="currentColor" />
      <path fill-rule="evenodd" clip-rule="evenodd" d="M0.601562 13.9998C0.601562 13.3371 1.13882 12.7998 1.80156 12.7998H9.00156C9.6643 12.7998 10.2016 13.3371 10.2016 13.9998C10.2016 14.6625 9.6643 15.1998 9.00156 15.1998H1.80156C1.13882 15.1998 0.601562 14.6625 0.601562 13.9998Z" fill="currentColor" />
    </symbol>
    <symbol id="contest" width="100%" height="100%" viewBox="0 0 24 24">
      <path d="M23.5956 5.66001C23.1079 5.2419 22.3736 5.2983 21.9556 5.78595L19.6151 8.51577C19.6151 8.51577 18.4588 9.31206 15.7386 9.60048C13.0185 9.88889 11.8751 9.37093 10.8783 11.7602C10.368 12.9833 9.69061 14.3997 7.98516 15.6257L5.84049 16.1658L1.5022 15.5656C0.962897 15.4905 0.434675 15.8181 0.274549 16.356C0.0978887 16.9492 0.435613 17.5733 1.0288 17.7499L5.60889 19.1138C5.71484 19.145 5.83123 19.1581 5.94785 19.1471L6.17294 19.126L8.84366 18.8758L6.88345 20.6947L1.24768 20.0451C0.689141 19.9801 0.158925 20.3438 0.0291125 20.9045C-0.110375 21.5067 0.264816 22.1079 0.867032 22.2474L7.13756 23.6993C7.48866 23.7789 7.87628 23.7137 8.19037 23.4855L8.32992 23.384L12.1031 20.6419C14.2397 19.0066 15.9744 16.4108 16.8237 13.7482C17.002 13.1889 17.1353 12.6595 17.2353 12.1779L20.8396 10.8971C21.0503 10.8225 21.2416 10.6861 21.3838 10.4922L23.7763 7.23095C24.1305 6.74542 24.0596 6.05783 23.5956 5.66001Z" fill="currentColor" />
      <path d="M12.3716 9.57235C14.0633 9.57235 15.4347 8.20098 15.4347 6.50932C15.4347 4.81765 14.0633 3.44629 12.3716 3.44629C10.68 3.44629 9.30859 4.81765 9.30859 6.50932C9.30859 8.20098 10.68 9.57235 12.3716 9.57235Z" fill="currentColor" />
      <path d="M19.6452 6.36986C19.7694 6.46285 19.9162 6.50887 20.0626 6.50887C20.2282 6.50887 20.3935 6.45001 20.5247 6.33356C20.5879 6.27745 22.0737 4.9408 22.0455 3.30061C22.0169 1.64025 20.4629 0.457161 20.3968 0.407616C20.1322 0.209379 19.7647 0.224506 19.5173 0.44391C19.454 0.500021 17.9683 1.83661 17.9965 3.4768C18.0251 5.13728 19.5791 6.32031 19.6452 6.36986Z" fill="currentColor" />
    </symbol>
    <symbol id="ball-1" width="100%" height="100%" viewBox="0 0 74 73">
      <path d="M41.2119 2.8979C27.9414 6.6464 18.6399 13.7249 12.3399 22.3064C8.28089 27.8324 5.51789 33.9299 3.73589 40.0499L33.4179 69.7319C45.7569 66.4019 54.6219 59.6969 60.7914 51.3719C65.2329 45.3869 68.2299 38.6324 70.1424 31.8194L41.2119 2.8934V2.8979ZM45.3429 27.6569C45.5524 27.8659 45.7187 28.1142 45.8321 28.3875C45.9455 28.6609 46.0039 28.9539 46.0039 29.2499C46.0039 29.5458 45.9455 29.8389 45.8321 30.1122C45.7187 30.3856 45.5524 30.6339 45.3429 30.8429L31.8429 44.3429C31.6337 44.5521 31.3853 44.718 31.112 44.8313C30.8387 44.9445 30.5457 45.0027 30.2499 45.0027C29.954 45.0027 29.6611 44.9445 29.3878 44.8313C29.1144 44.718 28.8661 44.5521 28.6569 44.3429C28.4477 44.1337 28.2818 43.8854 28.1685 43.612C28.0553 43.3387 27.997 43.0457 27.9971 42.7499C27.997 42.4541 28.0553 42.1611 28.1685 41.8878C28.2818 41.6144 28.4477 41.3661 28.6569 41.1569L42.1569 27.6569C42.3659 27.4474 42.6142 27.2811 42.8875 27.1677C43.1609 27.0543 43.4539 26.9959 43.7499 26.9959C44.0458 26.9959 44.3389 27.0543 44.6122 27.1677C44.8856 27.2811 45.1339 27.4474 45.3429 27.6569ZM71.3844 26.7029C72.5724 20.8979 73.0404 15.1919 73.0134 10.0169C72.9864 4.3109 68.2434 -0.0721022 62.6634 -0.000102175C57.1816 0.0399328 51.7156 0.594364 46.3374 1.6559L71.3844 26.7029ZM28.2159 70.8929L2.47589 45.1529C1.3194 50.7907 0.839011 56.5463 1.04489 62.2979C1.23839 67.6079 5.54939 71.6759 10.7334 71.9189C17.1504 72.2159 22.9599 71.8379 28.2159 70.8974V70.8929Z" fill="currentColor" />
    </symbol>
    <symbol id="file-1" width="100%" height="100%" viewBox="0 0 20 20">
      <path fill-rule="evenodd" clip-rule="evenodd" d="M10.033 1.6665V5.49984L10.033 5.54668C10.0329 5.97762 10.0329 6.37749 10.0768 6.70371C10.1253 7.06473 10.2404 7.45277 10.5602 7.77263C10.8801 8.09249 11.2681 8.20755 11.6291 8.25609C11.9554 8.29995 12.3552 8.2999 12.7862 8.29984H12.7862L12.833 8.29984H16.6663V13.3332C16.6663 15.6902 16.6663 16.8687 15.9341 17.6009C15.2019 18.3332 14.0234 18.3332 11.6663 18.3332H8.33301C5.97599 18.3332 4.79747 18.3332 4.06524 17.6009C3.33301 16.8687 3.33301 15.6902 3.33301 13.3332V6.6665C3.33301 4.30948 3.33301 3.13097 4.06524 2.39874C4.79747 1.6665 5.97599 1.6665 8.33301 1.6665H10.033ZM11.633 1.66959V5.49984C11.633 5.99386 11.6347 6.28389 11.6625 6.49051C11.6736 6.5734 11.6861 6.61767 11.694 6.63881C11.7152 6.6467 11.7594 6.65921 11.8423 6.67036C12.049 6.69814 12.339 6.69984 12.833 6.69984H16.6632C16.6557 6.33803 16.6296 6.10322 16.5395 5.88572C16.4126 5.57944 16.1717 5.33858 15.69 4.85686L13.476 2.64281C12.9943 2.1611 12.7534 1.92024 12.4471 1.79337C12.2296 1.70328 11.9948 1.67717 11.633 1.66959ZM11.6776 6.6309C11.6779 6.63078 11.6804 6.63194 11.6842 6.63477C11.6791 6.63244 11.6773 6.63103 11.6776 6.6309ZM11.6981 6.64865C11.7009 6.65241 11.7021 6.65494 11.7019 6.65526C11.7018 6.65559 11.7004 6.65371 11.6981 6.64865ZM6.69967 10.8332C6.69967 10.3913 7.05785 10.0332 7.49967 10.0332L12.4997 10.0332C12.9415 10.0332 13.2997 10.3913 13.2997 10.8332C13.2997 11.275 12.9415 11.6332 12.4997 11.6332H7.49967C7.05785 11.6332 6.69967 11.275 6.69967 10.8332ZM7.49967 13.3665C7.05785 13.3665 6.69967 13.7247 6.69967 14.1665C6.69967 14.6083 7.05785 14.9665 7.49967 14.9665H10.833C11.2748 14.9665 11.633 14.6083 11.633 14.1665C11.633 13.7247 11.2748 13.3665 10.833 13.3665L7.49967 13.3665Z" fill="currentColor" />
    </symbol>
    <symbol id="print" width="100%" height="100%" viewBox="0 0 17 16">
      <path d="M11.8021 3.19696e-09C12.1826 -2.49089e-05 12.5486 0.145546 12.8252 0.406849C13.1017 0.668153 13.2678 1.02538 13.2894 1.40525L13.2917 1.48958V2.75H14.0938C15.4229 2.75 16.5 3.82708 16.5 5.15625V11.3438C16.5 11.7388 16.3431 12.1177 16.0637 12.397C15.7844 12.6764 15.4055 12.8333 15.0104 12.8333H13.2917V13.6354C13.2917 14.0305 13.1347 14.4094 12.8554 14.6887C12.576 14.9681 12.1971 15.125 11.8021 15.125H4.69792C4.30285 15.125 3.92397 14.9681 3.64462 14.6887C3.36527 14.4094 3.20833 14.0305 3.20833 13.6354V12.8333H1.48958C1.09452 12.8333 0.71564 12.6764 0.436289 12.397C0.156938 12.1177 0 11.7388 0 11.3438V5.15625C0 3.82708 1.07708 2.75 2.40625 2.75H3.20833V1.48958C3.20831 1.1091 3.35388 0.743037 3.61518 0.466477C3.87649 0.189918 4.23371 0.0238327 4.61358 0.00229172L4.69792 3.19696e-09H11.8021ZM4.35417 13.6354C4.35417 13.8252 4.50817 13.9792 4.69792 13.9792H11.8021C11.8933 13.9792 11.9807 13.943 12.0452 13.8785C12.1096 13.814 12.1458 13.7266 12.1458 13.6354V9.73958C12.1458 9.64842 12.1096 9.56098 12.0452 9.49652C11.9807 9.43205 11.8933 9.39583 11.8021 9.39583H4.69792C4.60675 9.39583 4.51931 9.43205 4.45485 9.49652C4.39038 9.56098 4.35417 9.64842 4.35417 9.73958V13.6354ZM11.8021 1.14583H4.69792C4.61485 1.14584 4.53459 1.17592 4.47199 1.23052C4.40939 1.28512 4.36867 1.36054 4.35738 1.44283L4.35417 1.48958V2.75H12.1458V1.48958C12.1458 1.40652 12.1157 1.32626 12.0611 1.26366C12.0065 1.20105 11.9311 1.16034 11.8488 1.14904L11.8021 1.14583Z" fill="currentColor" />
    </symbol>
    <symbol id="settings-1" width="100%" height="100%" viewBox="0 0 16 14">
      <path d="M7.1665 3.66669L14.6665 3.66669" fill="none" stroke="currentColor" stroke-width="2" stroke-linecap="round" />
      <path d="M1.3335 10.3333L9.66683 10.3333" fill="none" stroke="currentColor" stroke-width="2" stroke-linecap="round" />
      <ellipse cx="3.8335" cy="3.66669" rx="2.5" ry="2.5" transform="rotate(90 3.8335 3.66669)" fill="none" stroke="currentColor" stroke-width="2" stroke-linecap="round" />
      <ellipse cx="12.1665" cy="10.3333" rx="2.5" ry="2.5" transform="rotate(90 12.1665 10.3333)" fill="none" stroke="currentColor" stroke-width="2" stroke-linecap="round" />
    </symbol>
    <symbol id="settings-2" width="100%" height="100%" viewBox="0 0 20 22">
      <path fill-rule="evenodd" clip-rule="evenodd" d="M9.99997 0.484589C9.34253 0.484589 8.77058 0.906168 7.62667 1.74933L5.90576 3.01778C5.72555 3.15061 5.63545 3.21702 5.53871 3.27288C5.44198 3.32873 5.33941 3.37355 5.13427 3.4632L3.1753 4.31932C1.87315 4.8884 1.22208 5.17294 0.893356 5.74229C0.564637 6.31165 0.643758 7.01777 0.802 8.43L1.04006 10.5546C1.06499 10.7771 1.07745 10.8883 1.07745 11C1.07745 11.1117 1.06499 11.2229 1.04006 11.4454L0.802 13.57C0.643758 14.9822 0.564637 15.6883 0.893357 16.2577C1.22208 16.8271 1.87315 17.1116 3.1753 17.6807L5.13427 18.5368C5.33941 18.6264 5.44198 18.6713 5.53871 18.7271C5.63545 18.783 5.72555 18.8494 5.90576 18.9822L7.62667 20.2507C8.77058 21.0938 9.34253 21.5154 9.99997 21.5154C10.6574 21.5154 11.2294 21.0938 12.3733 20.2507L12.3733 20.2507L14.0942 18.9822C14.2744 18.8494 14.3645 18.783 14.4612 18.7271C14.558 18.6713 14.6605 18.6264 14.8657 18.5368L16.8246 17.6807C18.1268 17.1116 18.7779 16.8271 19.1066 16.2577C19.4353 15.6883 19.3562 14.9822 19.1979 13.57L18.9599 11.4454L18.9599 11.4454C18.935 11.2229 18.9225 11.1117 18.9225 11C18.9225 10.8883 18.9349 10.7771 18.9599 10.5546L18.9599 10.5546L19.1979 8.43001C19.3562 7.01777 19.4353 6.31165 19.1066 5.74229C18.7779 5.17294 18.1268 4.8884 16.8246 4.31932L14.8657 3.4632L14.8657 3.4632C14.6605 3.37355 14.558 3.32872 14.4612 3.27288C14.3645 3.21702 14.2744 3.15061 14.0942 3.01778L12.3733 1.74933C11.2294 0.906168 10.6574 0.484589 9.99997 0.484589ZM9.99997 15C12.2091 15 14 13.2091 14 11C14 8.79086 12.2091 7 9.99997 7C7.79083 7 5.99997 8.79086 5.99997 11C5.99997 13.2091 7.79083 15 9.99997 15Z" fill="currentColor" />
    </symbol>
    <symbol id="cross-1" width="100%" height="100%" viewBox="0 0 22 22">
      <path fill-rule="evenodd" clip-rule="evenodd" d="M11 22C17.0751 22 22 17.0751 22 11C22 4.92487 17.0751 0 11 0C4.92487 0 0 4.92487 0 11C0 17.0751 4.92487 22 11 22ZM9.22227 7.27773C8.6853 6.74076 7.8147 6.74076 7.27773 7.27773C6.74076 7.8147 6.74076 8.6853 7.27773 9.22227L9.05546 11L7.27773 12.7777C6.74076 13.3147 6.74076 14.1853 7.27773 14.7223C7.8147 15.2592 8.6853 15.2592 9.22227 14.7223L11 12.9445L12.7777 14.7223C13.3147 15.2592 14.1853 15.2592 14.7223 14.7223C15.2592 14.1853 15.2592 13.3147 14.7223 12.7777L12.9445 11L14.7223 9.22227C15.2592 8.6853 15.2592 7.8147 14.7223 7.27773C14.1853 6.74076 13.3147 6.74076 12.7777 7.27773L11 9.05546L9.22227 7.27773Z" fill="currentColor" />
    </symbol>
    <symbol id="cart" width="100%" height="100%" viewBox="0 0 16 17">
      <path d="M1 0C0.447715 0 0 0.447715 0 1C0 1.55228 0.447715 2 1 2H2.21922L2.52478 3.22224C2.52799 3.23637 2.5315 3.25039 2.5353 3.26429L3.89253 8.69321L2.99995 9.58578C1.74002 10.8457 2.63235 13 4.41416 13H13C13.5522 13 14 12.5523 14 12C14 11.4477 13.5522 11 13 11L4.41417 11L5.41416 10H12C12.3788 10 12.725 9.786 12.8944 9.44721L15.8944 3.44721C16.0494 3.13723 16.0329 2.76909 15.8507 2.47427C15.6684 2.17945 15.3466 2 15 2H4.28078L3.97014 0.757464C3.85885 0.312297 3.45887 0 3 0H1Z" fill="currentColor" />
      <path d="M14 15.5C14 16.3284 13.3284 17 12.5 17C11.6716 17 11 16.3284 11 15.5C11 14.6716 11.6716 14 12.5 14C13.3284 14 14 14.6716 14 15.5Z" fill="currentColor" />
      <path d="M4.5 17C5.32843 17 6 16.3284 6 15.5C6 14.6716 5.32843 14 4.5 14C3.67157 14 3 14.6716 3 15.5C3 16.3284 3.67157 17 4.5 17Z" fill="currentColor" />
    </symbol>
    <symbol id="marker-contur" width="100%" height="100%" viewBox="0 0 16 18">
      <path d="M12.9497 12.9497C12.1703 13.7292 10.582 15.3174 9.41397 16.4855C8.63292 17.2666 7.36745 17.2669 6.5864 16.4859C5.4391 15.3386 3.88037 13.7799 3.05025 12.9497C0.316582 10.2161 0.316582 5.78392 3.05025 3.05025C5.78392 0.316583 10.2161 0.316583 12.9497 3.05025C15.6834 5.78392 15.6834 10.2161 12.9497 12.9497Z" stroke="currentColor" stroke-width="1.6" stroke-linecap="round" stroke-linejoin="round" fill="none" />
      <path d="M10.625 8C10.625 9.44975 9.44975 10.625 8 10.625C6.55025 10.625 5.375 9.44975 5.375 8C5.375 6.55025 6.55025 5.375 8 5.375C9.44975 5.375 10.625 6.55025 10.625 8Z" stroke="currentColor" stroke-width="1.6" stroke-linecap="round" stroke-linejoin="round" fill="none" />
    </symbol>
    <symbol id="truck-contur" width="100%" height="100%" viewBox="0 0 18 15">
      <path d="M9.88889 11.4545H10.6889H9.88889ZM9.88889 4.34342H9.08889V4.34342L9.88889 4.34342ZM13.7048 3.71488L14.2705 3.1492L14.2705 3.1492L13.7048 3.71488ZM16.7396 6.74974L17.3053 6.18406V6.18406L16.7396 6.74974ZM1.88889 2.47676H9V0.876758H1.88889V2.47676ZM9.08889 2.56565V11.4545H10.6889V2.56565H9.08889ZM1.8 11.4545V2.56565H0.2V11.4545H1.8ZM2.77778 11.5434H1.88889V13.1434H2.77778V11.5434ZM9 11.5434H6.33333V13.1434H9V11.5434ZM0.2 11.4545C0.2 12.3873 0.956141 13.1434 1.88889 13.1434V11.5434C1.8398 11.5434 1.8 11.5036 1.8 11.4545H0.2ZM9.08889 11.4545C9.08889 11.5036 9.04909 11.5434 9 11.5434V13.1434C9.93275 13.1434 10.6889 12.3873 10.6889 11.4545H9.08889ZM9 2.47676C9.04909 2.47676 9.08889 2.51656 9.08889 2.56565H10.6889C10.6889 1.6329 9.93275 0.876758 9 0.876758V2.47676ZM1.88889 0.876758C0.956142 0.876758 0.2 1.6329 0.2 2.56565H1.8C1.8 2.51655 1.8398 2.47676 1.88889 2.47676V0.876758ZM10.6889 11.4545L10.6889 4.34342L9.08889 4.34342L9.08889 11.4545H10.6889ZM10.7778 4.25454H13.0763V2.65454H10.7778V4.25454ZM16.2 7.37828V11.4545H17.8V7.37828H16.2ZM13.1391 4.28057L16.174 7.31543L17.3053 6.18406L14.2705 3.1492L13.1391 4.28057ZM11.6667 11.5434H10.7778V13.1434H11.6667V11.5434ZM16.1111 11.5434H15.2222V13.1434H16.1111V11.5434ZM17.8 7.37828C17.8 6.93036 17.6221 6.50078 17.3053 6.18406L16.174 7.31543C16.1906 7.3321 16.2 7.35471 16.2 7.37828H17.8ZM13.0763 4.25454C13.0998 4.25454 13.1224 4.2639 13.1391 4.28057L14.2705 3.1492C13.9538 2.83247 13.5242 2.65454 13.0763 2.65454V4.25454ZM9.08889 11.4545C9.08889 12.3873 9.84503 13.1434 10.7778 13.1434V11.5434C10.7287 11.5434 10.6889 11.5036 10.6889 11.4545H9.08889ZM16.2 11.4545C16.2 11.5036 16.1602 11.5434 16.1111 11.5434V13.1434C17.0439 13.1434 17.8 12.3873 17.8 11.4545H16.2ZM10.6889 4.34342C10.6889 4.29433 10.7287 4.25454 10.7778 4.25454V2.65454C9.84503 2.65454 9.08889 3.41068 9.08889 4.34342H10.6889ZM5.53333 12.3434C5.53333 12.8834 5.09557 13.3212 4.55555 13.3212V14.9212C5.97922 14.9212 7.13333 13.7671 7.13333 12.3434H5.53333ZM4.55555 13.3212C4.01554 13.3212 3.57778 12.8834 3.57778 12.3434H1.97778C1.97778 13.7671 3.13189 14.9212 4.55555 14.9212V13.3212ZM3.57778 12.3434C3.57778 11.8034 4.01554 11.3656 4.55555 11.3656V9.76565C3.13189 9.76565 1.97778 10.9198 1.97778 12.3434H3.57778ZM4.55555 11.3656C5.09557 11.3656 5.53333 11.8034 5.53333 12.3434H7.13333C7.13333 10.9198 5.97922 9.76565 4.55555 9.76565V11.3656ZM14.4222 12.3434C14.4222 12.8834 13.9845 13.3212 13.4444 13.3212V14.9212C14.8681 14.9212 16.0222 13.7671 16.0222 12.3434H14.4222ZM13.4444 13.3212C12.9044 13.3212 12.4667 12.8834 12.4667 12.3434H10.8667C10.8667 13.7671 12.0208 14.9212 13.4444 14.9212V13.3212ZM12.4667 12.3434C12.4667 11.8034 12.9044 11.3656 13.4444 11.3656V9.76565C12.0208 9.76565 10.8667 10.9198 10.8667 12.3434H12.4667ZM13.4444 11.3656C13.9845 11.3656 14.4222 11.8034 14.4222 12.3434H16.0222C16.0222 10.9198 14.8681 9.76565 13.4444 9.76565V11.3656Z" fill="currentColor" />
    </symbol>
    <symbol id="rating" width="100%" height="100%" viewBox="0 0 24 24">
      <path fill-rule="evenodd" clip-rule="evenodd" d="M2.87868 3.87868C2 4.75736 2 6.17157 2 9V15C2 17.8284 2 19.2426 2.87868 20.1213C3.75736 21 5.17157 21 8 21H16C18.8284 21 20.2426 21 21.1213 20.1213C22 19.2426 22 17.8284 22 15V9C22 6.17157 22 4.75736 21.1213 3.87868C20.2426 3 18.8284 3 16 3H8C5.17157 3 3.75736 3 2.87868 3.87868ZM16 8C16.5523 8 17 8.44772 17 9V17C17 17.5523 16.5523 18 16 18C15.4477 18 15 17.5523 15 17V9C15 8.44772 15.4477 8 16 8ZM9 11C9 10.4477 8.55228 10 8 10C7.44772 10 7 10.4477 7 11V17C7 17.5523 7.44772 18 8 18C8.55229 18 9 17.5523 9 17V11ZM13 13C13 12.4477 12.5523 12 12 12C11.4477 12 11 12.4477 11 13V17C11 17.5523 11.4477 18 12 18C12.5523 18 13 17.5523 13 17V13Z" fill="currentColor" />
    </symbol>
    <symbol id="truck" width="100%" height="100%" viewBox="0 0 16 14">
      <path d="M6 12.5C6 13.3284 5.32843 14 4.5 14C3.67157 14 3 13.3284 3 12.5C3 11.6716 3.67157 11 4.5 11C5.32843 11 6 11.6716 6 12.5Z" fill="currentColor" />
      <path d="M13 12.5C13 13.3284 12.3284 14 11.5 14C10.6716 14 10 13.3284 10 12.5C10 11.6716 10.6716 11 11.5 11C12.3284 11 13 11.6716 13 12.5Z" fill="currentColor" />
      <path d="M1 0C0.447715 0 0 0.447715 0 1V11C0 11.5523 0.447715 12 1 12H2.05001C2.28164 10.8589 3.29052 10 4.5 10C5.70948 10 6.71836 10.8589 6.94999 12H8C8.55228 12 9 11.5523 9 11V1C9 0.447715 8.55228 0 8 0H1Z" fill="currentColor" />
      <path d="M12 3C11.4477 3 11 3.44772 11 4V10.05C11.1616 10.0172 11.3288 10 11.5 10C12.7095 10 13.7184 10.8589 13.95 12H15C15.5523 12 16 11.5523 16 11V6C16 5.73478 15.8946 5.48043 15.7071 5.29289L13.7071 3.29289C13.5196 3.10536 13.2652 3 13 3H12Z" fill="currentColor" />
    </symbol>
    <symbol id="circle-check" width="100%" height="100%" viewBox="0 0 16 16">
      <path fill-rule="evenodd" clip-rule="evenodd" d="M8 16C12.4183 16 16 12.4183 16 8C16 3.58172 12.4183 0 8 0C3.58172 0 0 3.58172 0 8C0 12.4183 3.58172 16 8 16ZM11.7071 6.70711C12.0976 6.31658 12.0976 5.68342 11.7071 5.29289C11.3166 4.90237 10.6834 4.90237 10.2929 5.29289L7 8.58579L5.70711 7.29289C5.31658 6.90237 4.68342 6.90237 4.29289 7.29289C3.90237 7.68342 3.90237 8.31658 4.29289 8.70711L6.29289 10.7071C6.68342 11.0976 7.31658 11.0976 7.70711 10.7071L11.7071 6.70711Z" fill="currentColor" />
    </symbol>
    <symbol id="wallet" width="100%" height="100%" viewBox="0 0 17 15">
      <path fill-rule="evenodd" clip-rule="evenodd" d="M0.87868 0.87868C0 1.75736 0 3.17157 0 6V9C0 11.8284 0 13.2426 0.87868 14.1213C1.75736 15 3.17157 15 6 15H13.3333C13.6429 15 13.7976 15 13.9281 14.9886C15.3785 14.8617 16.5284 13.7118 16.6553 12.2615C16.6667 12.131 16.6667 11.9762 16.6667 11.6667H11.6667C10.286 11.6667 9.16667 10.5474 9.16667 9.16667C9.16667 7.78595 10.286 6.66667 11.6667 6.66667H16.6667V6C16.6667 3.17157 16.6667 1.75736 15.788 0.87868C14.9093 0 13.4951 0 10.6667 0H6C3.17157 0 1.75736 0 0.87868 0.87868ZM4.16667 3.16667C3.61438 3.16667 3.16667 3.61438 3.16667 4.16667C3.16667 4.71895 3.61438 5.16667 4.16667 5.16667H6.66667C7.21895 5.16667 7.66667 4.71895 7.66667 4.16667C7.66667 3.61438 7.21895 3.16667 6.66667 3.16667H4.16667Z" fill="currentColor" />
      <path d="M12.5003 9.16675H11.667" stroke="currentColor" stroke-width="2" stroke-linecap="round" fill="none" />
    </symbol>
    <symbol id="cube" width="100%" height="100%" viewBox="0 0 18 20">
      <path d="M10.2001 18.4C10.2001 18.8159 10.4154 19.2022 10.7692 19.4208C11.123 19.6395 11.5648 19.6593 11.9368 19.4733L16.7368 17.0733C17.1433 16.8701 17.4001 16.4546 17.4001 16V9.08331C17.4001 8.66741 17.1848 8.28117 16.831 8.06253C16.4772 7.84388 16.0354 7.824 15.6634 8.00999L10.8634 10.41C10.4569 10.6133 10.2001 11.0288 10.2001 11.4833V18.4Z" fill="currentColor" />
      <path d="M15.2535 5.5317C15.66 5.32843 15.9168 4.91291 15.9168 4.45838C15.9168 4.00386 15.66 3.58834 15.2535 3.38507L9.53675 0.526712C9.19892 0.357795 8.80127 0.357795 8.46344 0.526712L2.74672 3.38507C2.34018 3.58834 2.08338 4.00386 2.08338 4.45838C2.08338 4.91291 2.34018 5.32843 2.74672 5.5317L8.46344 8.39006C8.80127 8.55897 9.19892 8.55897 9.53675 8.39006L15.2535 5.5317Z" fill="currentColor" />
      <path d="M2.33675 8.00999C1.96477 7.824 1.523 7.84388 1.16922 8.06253C0.81544 8.28117 0.600098 8.66741 0.600098 9.08331V16C0.600098 16.4546 0.8569 16.8701 1.26344 17.0733L6.06344 19.4733C6.43543 19.6593 6.87719 19.6395 7.23097 19.4208C7.58475 19.2022 7.8001 18.8159 7.8001 18.4V11.4833C7.8001 11.0288 7.54329 10.6133 7.13675 10.41L2.33675 8.00999Z" fill="currentColor" />
    </symbol>
    <symbol id="grid" width="100%" height="100%" viewBox="0 0 14 14">
      <path d="M0.333008 0.333374H3.66634V3.66671H0.333008V0.333374ZM0.333008 5.33337H3.66634V8.66671H0.333008V5.33337ZM3.66634 10.3334H0.333008V13.6667H3.66634V10.3334ZM5.33301 0.333374H8.66634V3.66671H5.33301V0.333374ZM8.66634 5.33337H5.33301V8.66671H8.66634V5.33337ZM5.33301 10.3334H8.66634V13.6667H5.33301V10.3334ZM13.6663 0.333374H10.333V3.66671H13.6663V0.333374ZM10.333 5.33337H13.6663V8.66671H10.333V5.33337ZM13.6663 10.3334H10.333V13.6667H13.6663V10.3334Z" fill="currentColor" />
    </symbol>
    <symbol id="link" width="100%" height="100%" viewBox="0 0 14 8">
      <path d="M8.75 0.75C11.75 0.75 13.25 2.25 13.25 4C13.25 5.75 11.75 7.25 8.75 7.25M4.75 4H9.25M5.25 0.75C2.25 0.75 0.75 2.25 0.75 4C0.75 5.75 2.25 7.25 5.25 7.25" stroke="currentColor" fill="none" stroke-width="1.5" stroke-linecap="round" stroke-linejoin="round" />
    </symbol>
    <symbol id="gold" width="100%" height="100%" viewBox="0 0 20 20">
      <path d="M18.3334 6.80197L18.3334 6.86241C18.3333 7.57969 18.3333 7.93834 18.1607 8.23177C17.988 8.52519 17.6745 8.69937 17.0475 9.04772L16.3864 9.41501C16.842 7.87489 16.9939 6.22014 17.0501 4.805C17.0525 4.74432 17.0553 4.6829 17.058 4.62082L17.0599 4.57734C17.6026 4.76582 17.9074 4.90633 18.0975 5.17009C18.3334 5.49746 18.3334 5.9323 18.3334 6.80197Z" fill="currentColor" />
      <path d="M1.66675 6.80197L1.66675 6.86241C1.66677 7.57969 1.66678 7.93834 1.83944 8.23177C2.01209 8.52519 2.32561 8.69937 2.95262 9.04772L3.61409 9.41521C3.15848 7.87503 3.00648 6.2202 2.95029 4.805C2.94788 4.74432 2.94517 4.6829 2.94242 4.62083L2.9405 4.57724C2.39759 4.76577 2.09279 4.90628 1.90266 5.17009C1.66671 5.49746 1.66673 5.9323 1.66675 6.80197Z" fill="currentColor" />
      <path fill-rule="evenodd" clip-rule="evenodd" d="M10.0002 1.66669C11.4865 1.66669 12.711 1.79759 13.6477 1.95564C14.5966 2.11575 15.0711 2.1958 15.4675 2.68405C15.864 3.17229 15.843 3.7 15.8011 4.75541C15.6573 8.37874 14.8753 12.9044 10.6251 13.3048V16.25H11.8169C12.2141 16.25 12.5562 16.5304 12.6341 16.9199L12.7917 17.7084H15.0001C15.3453 17.7084 15.6251 17.9882 15.6251 18.3334C15.6251 18.6785 15.3453 18.9584 15.0001 18.9584H5.00008C4.6549 18.9584 4.37508 18.6785 4.37508 18.3334C4.37508 17.9882 4.6549 17.7084 5.00008 17.7084H7.20842L7.3661 16.9199C7.44401 16.5304 7.78602 16.25 8.18325 16.25H9.37508V13.3047C5.12505 12.9042 4.34315 8.37866 4.19931 4.75541C4.15741 3.7 4.13645 3.17229 4.53289 2.68405C4.92932 2.1958 5.40379 2.11575 6.35273 1.95564C7.28945 1.79759 8.51392 1.66669 10.0002 1.66669ZM10.7937 5.16575L10.7118 5.01878C10.3951 4.45072 10.2368 4.16669 10.0001 4.16669C9.76337 4.16669 9.60503 4.45072 9.28837 5.01878L9.20645 5.16575C9.11646 5.32717 9.07147 5.40788 9.00132 5.46114C8.93116 5.51439 8.84379 5.53416 8.66905 5.5737L8.50996 5.60969C7.89505 5.74883 7.58759 5.81839 7.51444 6.05362C7.44129 6.28885 7.65089 6.53396 8.07011 7.02417L8.17856 7.15099C8.29769 7.2903 8.35725 7.35995 8.38405 7.44612C8.41084 7.53228 8.40184 7.62522 8.38383 7.81108L8.36743 7.98029C8.30405 8.63434 8.27236 8.96136 8.46387 9.10674C8.65538 9.25212 8.94325 9.11957 9.519 8.85448L9.66795 8.7859C9.83156 8.71056 9.91337 8.6729 10.0001 8.6729C10.0868 8.6729 10.1686 8.71056 10.3322 8.7859L10.4812 8.85448C11.0569 9.11957 11.3448 9.25212 11.5363 9.10674C11.7278 8.96136 11.6961 8.63434 11.6327 7.98029L11.6163 7.81108C11.5983 7.62522 11.5893 7.53228 11.6161 7.44612C11.6429 7.35995 11.7025 7.2903 11.8216 7.15099L11.9301 7.02417C12.3493 6.53395 12.5589 6.28885 12.4857 6.05362C12.4126 5.81839 12.1051 5.74883 11.4902 5.60969L11.3311 5.5737C11.1564 5.53416 11.069 5.51439 10.9988 5.46114C10.9287 5.40788 10.8837 5.32717 10.7937 5.16575Z" fill="currentColor" />
    </symbol>
    <symbol id="silver" width="100%" height="100%" viewBox="0 0 20 20">
      <path fill-rule="evenodd" clip-rule="evenodd" d="M10.0001 13.3334C13.2217 13.3334 15.8334 10.7217 15.8334 7.50002C15.8334 4.27836 13.2217 1.66669 10.0001 1.66669C6.77842 1.66669 4.16675 4.27836 4.16675 7.50002C4.16675 10.7217 6.77842 13.3334 10.0001 13.3334ZM10.0001 5.00002C9.76337 5.00002 9.60503 5.28405 9.28837 5.85211L9.20645 5.99908C9.11646 6.1605 9.07147 6.24122 9.00132 6.29447C8.93116 6.34773 8.84379 6.3675 8.66905 6.40703L8.50997 6.44303C7.89505 6.58216 7.58759 6.65173 7.51444 6.88695C7.44129 7.12218 7.65089 7.36729 8.07011 7.8575L8.17856 7.98433C8.29769 8.12363 8.35725 8.19328 8.38405 8.27945C8.41084 8.36562 8.40184 8.45855 8.38383 8.64441L8.36743 8.81362C8.30405 9.46767 8.27236 9.7947 8.46387 9.94007C8.65538 10.0855 8.94325 9.95291 9.519 9.68781L9.66795 9.61923C9.83156 9.5439 9.91337 9.50623 10.0001 9.50623C10.0868 9.50623 10.1686 9.5439 10.3322 9.61923L10.4812 9.68781C11.0569 9.95291 11.3448 10.0855 11.5363 9.94007C11.7278 9.7947 11.6961 9.46767 11.6327 8.81362L11.6163 8.64441C11.5983 8.45856 11.5893 8.36562 11.6161 8.27945C11.6429 8.19328 11.7025 8.12363 11.8216 7.98433L11.9301 7.8575C12.3493 7.36729 12.5589 7.12218 12.4857 6.88695C12.4126 6.65173 12.1051 6.58216 11.4902 6.44303L11.3311 6.40703C11.1564 6.3675 11.069 6.34773 10.9988 6.29447C10.9287 6.24122 10.8837 6.1605 10.7937 5.99908L10.7118 5.85211C10.3951 5.28405 10.2368 5.00002 10.0001 5.00002Z" fill="currentColor" />
      <path d="M5.91084 13.2845L5.5952 14.4358C5.07158 16.3457 4.80977 17.3006 5.15914 17.8234C5.28158 18.0066 5.44583 18.1536 5.63643 18.2507C6.18029 18.5276 7.02 18.09 8.69943 17.215C9.25822 16.9238 9.53764 16.7782 9.83452 16.7466C9.94457 16.7348 10.0554 16.7348 10.1655 16.7466C10.4624 16.7782 10.7418 16.9238 11.3006 17.2149C12.98 18.09 13.8197 18.5276 14.3636 18.2507C14.5542 18.1536 14.7184 18.0066 14.8409 17.8234C15.1902 17.3006 14.9284 16.3457 14.4048 14.4358L14.0892 13.2845C12.934 14.1025 11.5232 14.5833 10 14.5833C8.47684 14.5833 7.06596 14.1025 5.91084 13.2845Z" fill="currentColor" />
    </symbol>
    <symbol id="bronze" width="100%" height="100%" viewBox="0 0 20 20">
      <path d="M7.62772 4.50697C8.68326 2.61343 9.21103 1.66666 10.0001 1.66666C10.7891 1.66666 11.3169 2.61343 12.3724 4.50697L12.6455 4.99685C12.9455 5.53494 13.0955 5.80398 13.3293 5.9815C13.5631 6.15901 13.8544 6.22491 14.4368 6.3567L14.9671 6.47668C17.0169 6.94045 18.0417 7.17234 18.2856 7.95643C18.5294 8.74053 17.8307 9.55755 16.4333 11.1916L16.0718 11.6143C15.6747 12.0787 15.4762 12.3109 15.3869 12.5981C15.2975 12.8853 15.3276 13.1951 15.3876 13.8146L15.4423 14.3787C15.6535 16.5588 15.7591 17.6489 15.1208 18.1335C14.4824 18.6181 13.5229 18.1763 11.6037 17.2926L11.1072 17.064C10.5618 16.8129 10.2891 16.6874 10.0001 16.6874C9.71104 16.6874 9.43835 16.8129 8.89299 17.064L8.39648 17.2926C6.47731 18.1763 5.51773 18.6181 4.87937 18.1335C4.24102 17.6489 4.34665 16.5588 4.55791 14.3787L4.61257 13.8146C4.6726 13.1951 4.70262 12.8853 4.6133 12.5981C4.52398 12.3109 4.32544 12.0787 3.92835 11.6143L3.56683 11.1916C2.16946 9.55755 1.47077 8.74053 1.7146 7.95643C1.95843 7.17234 2.9833 6.94045 5.03303 6.47668L5.56332 6.3567C6.14579 6.22491 6.43703 6.15901 6.67087 5.9815C6.90471 5.80398 7.05469 5.53494 7.35464 4.99685L7.62772 4.50697Z" fill="currentColor" />
    </symbol>
    <symbol id="circle" width="100%" height="100%" viewBox="0 0 8 8">
      <circle cx="4" cy="4" r="4" fill="currentColor" />
    </symbol>
  </defs>
</svg>