<svg width="100" height="100" viewBox="0 0 100 100" fill="none" xmlns="http://www.w3.org/2000/svg">
<path d="M54.68 13.2196C39.935 17.3846 29.6 25.2496 22.6 34.7846C18.09 40.9246 15.02 47.6996 13.04 54.4996L46.02 87.4796C59.73 83.7796 69.58 76.3296 76.435 67.0796C81.37 60.4296 84.7 52.9246 86.825 45.3546L54.68 13.2146V13.2196ZM59.27 40.7296C59.5029 40.9619 59.6876 41.2377 59.8136 41.5415C59.9396 41.8452 60.0045 42.1708 60.0045 42.4996C60.0045 42.8285 59.9396 43.1541 59.8136 43.4578C59.6876 43.7615 59.5029 44.0374 59.27 44.2696L44.27 59.2696C44.0376 59.5021 43.7617 59.6865 43.458 59.8122C43.1543 59.938 42.8288 60.0028 42.5 60.0028C42.1713 60.0028 41.8458 59.938 41.5421 59.8122C41.2384 59.6865 40.9625 59.5021 40.73 59.2696C40.4976 59.0372 40.3132 58.7612 40.1874 58.4576C40.0616 58.1539 39.9969 57.8284 39.9969 57.4996C39.9969 57.1709 40.0616 56.8454 40.1874 56.5417C40.3132 56.238 40.4976 55.9621 40.73 55.7296L55.73 40.7296C55.9623 40.4968 56.2382 40.3121 56.5419 40.1861C56.8456 40.06 57.1712 39.9952 57.5 39.9952C57.8289 39.9952 58.1545 40.06 58.4582 40.1861C58.7619 40.3121 59.0378 40.4968 59.27 40.7296ZM88.205 39.6696C89.525 33.2196 90.045 26.8796 90.015 21.1296C89.985 14.7896 84.715 9.91963 78.515 9.99963C72.4241 10.0441 66.3508 10.6601 60.375 11.8396L88.205 39.6696ZM40.24 88.7696L11.64 60.1696C10.3551 66.4339 9.82129 72.829 10.05 79.2196C10.265 85.1196 15.055 89.6396 20.815 89.9096C27.945 90.2396 34.4 89.8196 40.24 88.7746V88.7696Z" fill="#D21C4B"/>
</svg>
