<?xml version="1.0"?>
<svg xmlns="http://www.w3.org/2000/svg" xmlns:xlink="http://www.w3.org/1999/xlink" version="1.1" xml:space="preserve">
	<defs>
		<symbol id="arrow-left" width="100%" height="100%" viewBox="0 0 16 10">
			<path fill-rule="evenodd" clip-rule="evenodd" d="M5.70711 0.292893C5.31658 -0.0976311 4.68342 -0.0976311 4.29289 0.292893L0.292892 4.29289C-0.0976334 4.68342 -0.0976334 5.31658 0.292892 5.70711L4.29289 9.70711C4.68342 10.0976 5.31658 10.0976 5.70711 9.70711C6.09763 9.31658 6.09763 8.68342 5.70711 8.29289L3.41421 6H15C15.5523 6 16 5.55228 16 5C16 4.44772 15.5523 4 15 4H3.41421L5.70711 1.70711C6.09763 1.31658 6.09763 0.683418 5.70711 0.292893Z" fill="currentColor" />
		</symbol>
		<symbol id="arrow-right" width="100%" height="100%" viewBox="0 0 16 10">
			<path fill-rule="evenodd" clip-rule="evenodd" d="M10.2929 0.292893C10.6834 -0.0976311 11.3166 -0.0976311 11.7071 0.292893L15.7071 4.29289C16.0976 4.68342 16.0976 5.31658 15.7071 5.70711L11.7071 9.70711C11.3166 10.0976 10.6834 10.0976 10.2929 9.70711C9.90237 9.31658 9.90237 8.68342 10.2929 8.29289L12.5858 6H1C0.447716 6 -2.41411e-08 5.55228 0 5C2.41411e-08 4.44772 0.447716 4 1 4H12.5858L10.2929 1.70711C9.90237 1.31658 9.90237 0.683418 10.2929 0.292893Z" fill="currentColor" />
		</symbol>
		<symbol id="badge-contur" width="100%" height="100%" viewBox="0 0 18 17">
			<path d="M7.22222 3.66667H2.77778C1.79594 3.66667 1 4.46261 1 5.44444V13.4444C1 14.4263 1.79594 15.2222 2.77778 15.2222H15.2222C16.2041 15.2222 17 14.4263 17 13.4444V5.44444C17 4.46261 16.2041 3.66667 15.2222 3.66667H10.7778M7.22222 3.66667V2.77778C7.22222 1.79594 8.01816 1 9 1C9.98184 1 10.7778 1.79594 10.7778 2.77778V3.66667M7.22222 3.66667C7.22222 4.64851 8.01816 5.44444 9 5.44444C9.98184 5.44444 10.7778 4.64851 10.7778 3.66667M6.33333 10.7778C7.31517 10.7778 8.11111 9.98184 8.11111 9C8.11111 8.01816 7.31517 7.22222 6.33333 7.22222C5.35149 7.22222 4.55556 8.01816 4.55556 9C4.55556 9.98184 5.35149 10.7778 6.33333 10.7778ZM6.33333 10.7778C7.49442 10.7778 8.48214 11.5198 8.84822 12.5556M6.33333 10.7778C5.17225 10.7778 4.18444 11.5198 3.81836 12.5556M11.6667 8.11111H14.3333M11.6667 11.6667H13.4444" stroke="currentColor" fill="none" stroke-width="1.6" stroke-linecap="round" stroke-linejoin="round" />
		</symbol>
		<symbol id="balcony-glazing" width="100%" height="100%" viewBox="0 0 15 16">
			<path d="M14.0625 1.40625V0.46875C14.0625 0.209717 13.8528 0 13.5938 0H0.46875C0.209717 0 0 0.209717 0 0.46875V1.40625C0 1.66528 0.209717 1.875 0.46875 1.875H13.5938C13.8528 1.875 14.0625 1.66528 14.0625 1.40625Z" fill="currentColor" />
			<path d="M3.75 2.8125H6.5625V5.65625H3.75V2.8125Z" fill="currentColor" />
			<path d="M7.5 6.59375H10.3125V9.40625H7.5V6.59375Z" fill="currentColor" />
			<path d="M3.75 6.59375H6.5625V9.40625H3.75V6.59375Z" fill="currentColor" />
			<path d="M3.75 10.3438H6.5625V13.1875H3.75V10.3438Z" fill="currentColor" />
			<path d="M0.9375 2.8125H2.8125V13.1875H0.9375V2.8125Z" fill="currentColor" />
			<path d="M11.25 2.8125H13.125V13.1875H11.25V2.8125Z" fill="currentColor" />
			<path d="M7.5 2.8125H10.3125V5.65625H7.5V2.8125Z" fill="currentColor" />
			<path d="M7.5 10.3438H10.3125V13.1875H7.5V10.3438Z" fill="currentColor" />
			<path d="M0 15.5312C0 15.7903 0.209717 16 0.46875 16H13.5938C13.8528 16 14.0625 15.7903 14.0625 15.5312V14.5938C14.0625 14.3347 13.8528 14.125 13.5938 14.125H0.46875C0.209717 14.125 0 14.3347 0 14.5938V15.5312Z" fill="currentColor" />
		</symbol>
		<symbol id="chart" width="100%" height="100%" viewBox="0 0 18 16">
			<path d="M4.09091 8.72727H0.818182C0.327273 8.72727 0 9.01818 0 9.45455V15.2727C0 15.7091 0.327273 16 0.818182 16H4.09091C4.58182 16 4.90909 15.7091 4.90909 15.2727V9.45455C4.90909 9.01818 4.58182 8.72727 4.09091 8.72727ZM17.1818 5.81818H13.9091C13.4182 5.81818 13.0909 6.10909 13.0909 6.54545V15.2727C13.0909 15.7091 13.4182 16 13.9091 16H17.1818C17.6727 16 18 15.7091 18 15.2727V6.54545C18 6.10909 17.6727 5.81818 17.1818 5.81818ZM10.6364 0H7.36364C6.87273 0 6.54545 0.290909 6.54545 0.727273V15.2727C6.54545 15.7091 6.87273 16 7.36364 16H10.6364C11.1273 16 11.4545 15.7091 11.4545 15.2727V0.727273C11.4545 0.290909 11.1273 0 10.6364 0Z" fill="currentColor" />
		</symbol>
		<symbol id="chart-contur" width="100%" height="100%" viewBox="0 0 18 16">
			<path d="M0.818182 9.52727H4.09091C4.09742 9.52727 4.10347 9.52741 4.10909 9.52764V15.1996C4.10347 15.1999 4.09742 15.2 4.09091 15.2H0.818182C0.81167 15.2 0.805617 15.1999 0.8 15.1996V9.52764C0.805617 9.52741 0.81167 9.52727 0.818182 9.52727ZM4.17041 9.53796C4.17038 9.53798 4.16984 9.53776 4.16883 9.53721L4.17041 9.53796ZM4.17041 15.1893C4.17043 15.1893 4.16992 15.1896 4.16883 15.1901L4.17041 15.1893ZM0.738685 15.1893C0.738702 15.1893 0.739245 15.1895 0.74026 15.1901L0.738685 15.1893ZM0.738685 9.53796C0.738667 9.53793 0.739175 9.53766 0.74026 9.53721L0.738685 9.53796ZM13.9091 6.61818H17.1818C17.1883 6.61818 17.1944 6.61832 17.2 6.61855V15.1996C17.1944 15.1999 17.1883 15.2 17.1818 15.2H13.9091C13.9026 15.2 13.8965 15.1999 13.8909 15.1996V6.61855C13.8965 6.61832 13.9026 6.61818 13.9091 6.61818ZM17.2613 6.62887C17.2613 6.62889 17.2608 6.62867 17.2597 6.62812L17.2613 6.62887ZM17.2613 15.1893C17.2613 15.1893 17.2608 15.1896 17.2598 15.19L17.2613 15.1893ZM13.8296 15.1893C13.8296 15.1893 13.8301 15.1895 13.8312 15.1901L13.8296 15.1893ZM13.8296 6.62887C13.8296 6.62884 13.8301 6.62856 13.8312 6.62812L13.8296 6.62887ZM7.36364 0.8H10.6364C10.6429 0.8 10.6489 0.800133 10.6545 0.800369V15.1996C10.6489 15.1999 10.6429 15.2 10.6364 15.2H7.36364C7.35713 15.2 7.35107 15.1999 7.34545 15.1996V0.800369C7.35107 0.800133 7.35713 0.8 7.36364 0.8ZM10.7159 0.810685C10.7158 0.810711 10.7153 0.810488 10.7143 0.809938L10.7159 0.810685ZM10.7159 15.1893C10.7159 15.1893 10.7154 15.1896 10.7143 15.1901L10.7159 15.1893ZM7.28414 15.1893C7.28415 15.1893 7.28469 15.1895 7.28572 15.1901L7.28414 15.1893ZM7.28414 0.810685C7.28412 0.810659 7.28463 0.810384 7.28572 0.809937L7.28414 0.810685Z" stroke="currentColor" fill="none" stroke-width="1.6" stroke-linecap="round" stroke-linejoin="round" />
		</symbol>
		<symbol id="chat" width="100%" height="100%" viewBox="0 0 18 16">
			<path fill-rule="evenodd" clip-rule="evenodd" d="M18 8C18 12.4183 13.9706 16 9 16C7.32191 16 5.75108 15.5918 4.40637 14.8809L0 16L1.50559 12.4312C0.554401 11.1626 0 9.63886 0 8C0 3.58172 4.02944 0 9 0C13.9706 0 18 3.58172 18 8ZM5.625 6.85714H3.375V9.14286H5.625V6.85714ZM14.625 6.85714H12.375V9.14286H14.625V6.85714ZM7.875 6.85714H10.125V9.14286H7.875V6.85714Z" fill="currentColor" />
		</symbol>
		<symbol id="chat-contur" width="100%" height="100%" viewBox="0 0 20 18">
			<path d="M6 9H6.01M10 9H10.01M14 9H14.01M19 9C19 13.4183 14.9706 17 10 17C8.46073 17 7.01172 16.6565 5.74467 16.0511L1 17L2.39499 13.28C1.51156 12.0423 1 10.5743 1 9C1 4.58172 5.02944 1 10 1C14.9706 1 19 4.58172 19 9Z" stroke="currentColor" fill="none" stroke-width="1.6" stroke-linecap="round" stroke-linejoin="round" />
		</symbol>
		<symbol id="check" width="100%" height="100%" viewBox="0 0 14 14">
			<path fill-rule="evenodd" clip-rule="evenodd" d="M7 14C10.866 14 14 10.866 14 7C14 3.13401 10.866 0 7 0C3.13401 0 0 3.13401 0 7C0 10.866 3.13401 14 7 14ZM10.2437 5.86872C10.5854 5.52701 10.5854 4.97299 10.2437 4.63128C9.90201 4.28957 9.34799 4.28957 9.00628 4.63128L6.125 7.51256L4.99372 6.38128C4.65201 6.03957 4.09799 6.03957 3.75628 6.38128C3.41457 6.72299 3.41457 7.27701 3.75628 7.61872L5.50628 9.36872C5.84799 9.71043 6.40201 9.71043 6.74372 9.36872L10.2437 5.86872Z" fill="currentColor" />
		</symbol>

		<symbol id="doc" width="100%" height="100%" viewBox="0 0 12 16">
			<path fill-rule="evenodd" clip-rule="evenodd" d="M0 2C0 0.895432 0.89543 0 2 0H6.58579C7.11622 0 7.62493 0.210714 8 0.585786L11.4142 4C11.7893 4.37507 12 4.88378 12 5.41421V14C12 15.1046 11.1046 16 10 16H2C0.89543 16 0 15.1046 0 14V2ZM2 8C2 7.44772 2.44772 7 3 7H9C9.55228 7 10 7.44772 10 8C10 8.55229 9.55228 9 9 9H3C2.44772 9 2 8.55229 2 8ZM3 11C2.44772 11 2 11.4477 2 12C2 12.5523 2.44772 13 3 13H9C9.55228 13 10 12.5523 10 12C10 11.4477 9.55228 11 9 11H3Z" fill="currentColor" />
		</symbol>
		<symbol id="doc-contur" width="100%" height="100%" viewBox="0 0 14 18">
			<path d="M4.42857 8.71428H9.57143M4.42857 12.1429H9.57143M11.2857 16.4286H2.71429C1.76751 16.4286 1 15.6611 1 14.7143V2.71429C1 1.76751 1.76751 1 2.71429 1H7.5021C7.72943 1 7.94745 1.09031 8.10819 1.25105L12.7489 5.89181C12.9097 6.05255 13 6.27057 13 6.4979V14.7143C13 15.6611 12.2325 16.4286 11.2857 16.4286Z" stroke="currentColor" fill="none" stroke-width="1.6" stroke-linecap="round" stroke-linejoin="round" />
		</symbol>


		<symbol id="gal-ochka" width="100%" height="100%" viewBox="0 0 12 10">
			<path d="M6.23497 8.79934C5.9649 9.16589 5.54433 9.39118 5.0896 9.41357C4.63487 9.43619 4.19445 9.25292 3.88975 8.91452L1.15929 5.88444C0.725328 5.40316 0.763876 4.66128 1.24515 4.22732C1.72689 3.79336 2.46831 3.83214 2.90227 4.31365L4.83407 6.45758C4.8627 6.48944 4.90425 6.50652 4.94695 6.50444C4.98988 6.50236 5.02912 6.4809 5.05475 6.44673L9.02546 1.06128C9.40979 0.539605 10.1443 0.428577 10.6662 0.813137C11.1876 1.1977 11.2984 1.93219 10.9139 2.45363L6.23497 8.79934Z" fill="currentColor" />
		</symbol>


		<symbol id="play" width="100%" height="100%" viewBox="0 0 47 52">
			<path d="M44.2443 21.5775L8.19476 0.660181C5.26574 -1.03853 0.780029 0.609923 0.780029 4.81147V46.636C0.780029 50.4053 4.94826 52.677 8.19476 50.7873L44.2443 29.8801C47.4601 28.0205 47.4703 23.437 44.2443 21.5775Z" fill="currentColor" />
		</symbol>
		<symbol id="search" width="100%" height="100%" viewBox="0 0 20 20">
			<path d="M19 19L13 13M15 8C15 11.866 11.866 15 8 15C4.13401 15 1 11.866 1 8C1 4.13401 4.13401 1 8 1C11.866 1 15 4.13401 15 8Z" stroke="currentColor" stroke-width="2" stroke-linecap="round" stroke-linejoin="round" fill="none" />
		</symbol>

		<symbol id="share" width="100%" height="100%" viewBox="0 0 20 16">
			<path d="M11.1637 4.89684V1L15.5129 5.23809L19 8.63612L15.451 11.5182L11.1637 15V11.1869C3.63703 10.6341 1 14.8784 1 14.8784C1 12.234 1.2236 9.48968 3.35706 7.4116C5.83702 4.99408 9.42852 4.82301 11.1637 4.89684Z" stroke="currentColor" fill="none" stroke-width="1.8" stroke-linecap="round" stroke-linejoin="round" />
		</symbol>
		<symbol id="star" width="100%" height="100%" viewBox="0 0 13 12">
			<path d="M6.30946 9.94987L2.41073 12L3.15536 7.65851L0 4.58336L4.35915 3.94989L6.30946 0L8.25914 3.94989L12.6183 4.58336L9.46356 7.65851L10.2088 12L6.30946 9.94987Z" fill="currentColor" />
		</symbol>
		<symbol id="to-right" width="100%" height="100%" viewBox="0 0 6 10">
			<path d="M4.09404 5L0.231231 1.29326C-0.0770772 0.997411 -0.0770772 0.517741 0.231231 0.221889C0.53954 -0.0739629 1.03941 -0.0739629 1.34772 0.221889L5.76877 4.46431C6.07708 4.76016 6.07708 5.23984 5.76877 5.53569L1.34772 9.77811C1.03941 10.074 0.53954 10.074 0.231231 9.77811C-0.0770772 9.48226 -0.0770772 9.00259 0.231231 8.70674L4.09404 5Z" fill="currentColor" />
		</symbol>
		<symbol id="to-right-double" width="100%" height="100%" viewBox="0 0 13 12">
			<path fill-rule="evenodd" clip-rule="evenodd" d="M0.292893 11.7071C0.683417 12.0976 1.31658 12.0976 1.70711 11.7071L6.70711 6.70711C7.09763 6.31658 7.09763 5.68342 6.70711 5.29289L1.70711 0.292894C1.31658 -0.0976307 0.683417 -0.0976306 0.292893 0.292894C-0.0976305 0.683418 -0.0976305 1.31658 0.292893 1.70711L4.58579 6L0.292893 10.2929C-0.0976305 10.6834 -0.0976305 11.3166 0.292893 11.7071ZM6.29289 11.7071C6.68342 12.0976 7.31658 12.0976 7.70711 11.7071L12.7071 6.70711C13.0976 6.31658 13.0976 5.68342 12.7071 5.29289L7.70711 0.292894C7.31658 -0.0976312 6.68342 -0.0976312 6.29289 0.292894C5.90237 0.683418 5.90237 1.31658 6.29289 1.70711L10.5858 6L6.29289 10.2929C5.90237 10.6834 5.90237 11.3166 6.29289 11.7071Z" fill="currentColor" />
		</symbol>
		<symbol id="to-left" width="100%" height="100%" viewBox="0 0 11 18">
			<path d="M3.76777 9L9.88388 2.88388C10.372 2.39573 10.372 1.60427 9.88388 1.11612C9.39573 0.627961 8.60427 0.627961 8.11612 1.11612L1.11612 8.11612C0.62796 8.60427 0.62796 9.39573 1.11612 9.88388L8.11612 16.8839C8.60427 17.372 9.39573 17.372 9.88388 16.8839C10.372 16.3957 10.372 15.6043 9.88388 15.1161L3.76777 9Z" fill="currentColor" />
		</symbol>
		<symbol id="to-left-double" width="100%" height="100%" viewBox="0 0 13 12">
			<path fill-rule="evenodd" clip-rule="evenodd" d="M12.7071 11.7071C12.3166 12.0976 11.6834 12.0976 11.2929 11.7071L6.29289 6.70711C5.90237 6.31658 5.90237 5.68342 6.29289 5.29289L11.2929 0.292894C11.6834 -0.0976307 12.3166 -0.0976306 12.7071 0.292894C13.0976 0.683418 13.0976 1.31658 12.7071 1.70711L8.41421 6L12.7071 10.2929C13.0976 10.6834 13.0976 11.3166 12.7071 11.7071ZM6.70711 11.7071C6.31658 12.0976 5.68342 12.0976 5.29289 11.7071L0.292894 6.70711C-0.0976312 6.31658 -0.0976312 5.68342 0.292894 5.29289L5.29289 0.292894C5.68342 -0.0976312 6.31658 -0.0976312 6.70711 0.292894C7.09763 0.683418 7.09763 1.31658 6.70711 1.70711L2.41421 6L6.70711 10.2929C7.09763 10.6834 7.09763 11.3166 6.70711 11.7071Z" fill="currentColor" />
		</symbol>
		<symbol id="to-down" width="100%" height="100%" viewBox="0 0 10 6">
			<path d="M5 4.09404L8.70674 0.231231C9.00259 -0.0770772 9.48226 -0.0770772 9.77811 0.231231C10.074 0.53954 10.074 1.03941 9.77811 1.34772L5.53569 5.76877C5.23983 6.07708 4.76016 6.07708 4.46431 5.76877L0.221888 1.34772C-0.0739642 1.03941 -0.0739641 0.53954 0.221888 0.231231C0.517739 -0.0770776 0.997412 -0.0770775 1.29326 0.231231L5 4.09404Z" fill="currentColor" />
		</symbol>
		<symbol id="wheelchair" width="100%" height="100%" viewBox="0 0 16 16">
			<path d="M11.6916 10.2297C14.1044 10.0063 16 7.97031 16 5.5C16 2.46719 13.5328 0 10.5 0C9.95644 0 8.81772 0 8.5 0C8.22388 0 8 0.223844 8 0.5C8 0.776156 8.22388 1 8.5 1H9V5H2.5V3C2.5 2.17287 1.82709 1.5 1 1.5H0.5C0.223875 1.5 0 1.72384 0 2C0 2.27616 0.223875 2.5 0.5 2.5H1C1.27569 2.5 1.5 2.72431 1.5 3V5.5C1.5 7.97031 3.39563 10.0063 5.80875 10.2297C5.81188 10.2297 5.79572 10.22 7.903 11.7613C6.29209 12.9395 6.35406 12.889 6.35719 12.8916C5.22162 11.9692 3.50531 12.7763 3.50531 14.25C3.50531 15.215 4.29031 16 5.25531 16C6.43706 16 7.28428 14.8437 6.92219 13.7175L8.74997 12.3807L10.5828 13.7212C10.2232 14.8421 11.0634 16 12.2475 16C13.2109 16 13.9947 15.2162 13.9947 14.2525C13.9947 12.7789 12.2783 11.9769 11.1478 12.8956L9.59694 11.7613C11.2639 10.5422 11.6947 10.2294 11.6916 10.2297ZM8.74997 11.1418L7.53062 10.25H9.96937L8.74997 11.1418Z" fill="currentColor" />
		</symbol>

		<!--  -->
		<!--  -->
		<!--  -->

		<symbol id="phone" width="100%" height="100%" viewBox="0 0 16 16">
			<path d="M8.53333 4.2666C8.23893 4.2666 8 4.50553 8 4.79993C8 5.09433 8.23893 5.33327 8.53333 5.33327C9.70987 5.33327 10.6667 6.29007 10.6667 7.4666C10.6667 7.761 10.9056 7.99993 11.2 7.99993C11.4944 7.99993 11.7333 7.761 11.7333 7.4666C11.7333 5.70233 10.2976 4.2666 8.53333 4.2666Z" fill="currentColor" />
			<path d="M8.53333 2.1333C8.23893 2.1333 8 2.37223 8 2.66663C8 2.96103 8.23893 3.19997 8.53333 3.19997C10.8864 3.19997 12.8 5.11357 12.8 7.46663C12.8 7.76103 13.0389 7.99997 13.3333 7.99997C13.6277 7.99997 13.8667 7.76103 13.8667 7.46663C13.8667 4.52583 11.4741 2.1333 8.53333 2.1333Z" fill="currentColor" />
			<path d="M8.53333 0C8.23893 0 8 0.238933 8 0.533333C8 0.827733 8.23893 1.06667 8.53333 1.06667C12.0629 1.06667 14.9333 3.93707 14.9333 7.46667C14.9333 7.76107 15.1723 8 15.4667 8C15.7611 8 16 7.76107 16 7.46667C16 3.34933 12.6496 0 8.53333 0Z" fill="currentColor" />
			<path d="M14.4 11.7333C12.8512 11.7333 11.376 11.3962 10.016 10.7317C9.888 10.6677 9.7408 10.6602 9.60747 10.7072C9.47307 10.7541 9.3632 10.8523 9.30133 10.9792L8.46293 12.7147C6.29333 11.504 4.49707 9.70878 3.28747 7.53918L5.02187 6.69865C5.14987 6.63678 5.24693 6.52692 5.29387 6.39252C5.33973 6.25918 5.3312 6.11198 5.26827 5.98398C4.60373 4.62398 4.26667 3.14878 4.26667 1.59998C4.26667 1.30558 4.02773 1.06665 3.73333 1.06665H0.533333C0.238933 1.06665 0 1.30558 0 1.59998C0 9.54025 6.45973 16 14.4 16C14.6944 16 14.9333 15.761 14.9333 15.4667V12.2666C14.9333 11.9722 14.6944 11.7333 14.4 11.7333Z" fill="currentColor" />
		</symbol>
		<symbol id="mail" width="100%" height="100%" viewBox="0 0 16 12">
			<path d="M0.00333343 1.88355L7.99995 5.88186L15.9967 1.8835C15.9363 0.833152 15.0655 0 14 0H2C0.934518 0 0.0636347 0.833179 0.00333343 1.88355Z" fill="currentColor" />
			<path d="M16 4.1179L7.99995 8.11793L0 4.11796V10C0 11.1046 0.895431 12 2 12H14C15.1046 12 16 11.1046 16 10V4.1179Z" fill="currentColor" />
		</symbol>
		<symbol id="i" width="100%" height="100%" viewBox="0 0 20 20">
			<path fill-rule="evenodd" clip-rule="evenodd" d="M19.6004 10C19.6004 15.302 15.3023 19.6 10.0004 19.6C4.69846 19.6 0.400391 15.302 0.400391 10C0.400391 4.69809 4.69846 0.400024 10.0004 0.400024C15.3023 0.400024 19.6004 4.69809 19.6004 10ZM11.2004 5.20002C11.2004 5.86277 10.6631 6.40002 10.0004 6.40002C9.33765 6.40002 8.80039 5.86277 8.80039 5.20002C8.80039 4.53728 9.33765 4.00002 10.0004 4.00002C10.6631 4.00002 11.2004 4.53728 11.2004 5.20002ZM8.80039 8.80002C8.13765 8.80002 7.60039 9.33728 7.60039 10C7.60039 10.6628 8.13765 11.2 8.80039 11.2V14.8C8.80039 15.4628 9.33765 16 10.0004 16H11.2004C11.8631 16 12.4004 15.4628 12.4004 14.8C12.4004 14.1373 11.8631 13.6 11.2004 13.6V10C11.2004 9.33728 10.6631 8.80002 10.0004 8.80002H8.80039Z" fill="currentColor" />
		</symbol>
		<symbol id="menu" width="100%" height="100%" viewBox="0 0 18 14">
			<path d="M1 1H17M1 7H17M1 13H17" fill="none" stroke="currentColor" stroke-width="2" stroke-linecap="round" stroke-linejoin="round" />
		</symbol>
		<symbol id="cross" width="100%" height="100%" viewBox="0 0 12 12">
			<path fill-rule="evenodd" clip-rule="evenodd" d="M0.292893 0.292893C0.683417 -0.0976311 1.31658 -0.0976311 1.70711 0.292893L6 4.58579L10.2929 0.292893C10.6834 -0.0976311 11.3166 -0.0976311 11.7071 0.292893C12.0976 0.683417 12.0976 1.31658 11.7071 1.70711L7.41421 6L11.7071 10.2929C12.0976 10.6834 12.0976 11.3166 11.7071 11.7071C11.3166 12.0976 10.6834 12.0976 10.2929 11.7071L6 7.41421L1.70711 11.7071C1.31658 12.0976 0.683417 12.0976 0.292893 11.7071C-0.0976311 11.3166 -0.0976311 10.6834 0.292893 10.2929L4.58579 6L0.292893 1.70711C-0.0976311 1.31658 -0.0976311 0.683417 0.292893 0.292893Z" fill="currentColor" />
		</symbol>
		<symbol id="photos" width="100%" height="100%" viewBox="0 0 14 15">
			<path d="M4 6.81348C4 5.70891 4.89543 4.81348 6 4.81348H12C13.1046 4.81348 14 5.70891 14 6.81348V12.8135C14 13.918 13.1046 14.8135 12 14.8135H6C4.89543 14.8135 4 13.918 4 12.8135V6.81348Z" fill="currentColor" />
			<path d="M2 0.813477C0.895431 0.813477 0 1.70891 0 2.81348V8.81348C0 9.91805 0.89543 10.8135 2 10.8135L2 2.81348H10C10 1.70891 9.10457 0.813477 8 0.813477H2Z" fill="currentColor" />
		</symbol>
		<symbol id="download" width="100%" height="100%" viewBox="0 0 12 16">
			<path fill-rule="evenodd" clip-rule="evenodd" d="M2 0C0.89543 0 0 0.895432 0 2V14C0 15.1046 0.89543 16 2 16H10C11.1046 16 12 15.1046 12 14V5.41421C12 4.88378 11.7893 4.37507 11.4142 4L8 0.585786C7.62493 0.210714 7.11622 0 6.58579 0H2ZM7 6C7 5.44772 6.55228 5 6 5C5.44772 5 5 5.44772 5 6V9.58579L3.70711 8.29289C3.31658 7.90237 2.68342 7.90237 2.29289 8.29289C1.90237 8.68342 1.90237 9.31658 2.29289 9.70711L5.29289 12.7071C5.68342 13.0976 6.31658 13.0976 6.70711 12.7071L9.70711 9.70711C10.0976 9.31658 10.0976 8.68342 9.70711 8.29289C9.31658 7.90237 8.68342 7.90237 8.29289 8.29289L7 9.58579V6Z" fill="currentColor" />
		</symbol>
		<symbol id="net" width="100%" height="100%" viewBox="0 0 16 17">
			<path fill-rule="evenodd" clip-rule="evenodd" d="M2.08296 7.01074H4.02863C4.11783 5.46435 4.41228 4.03982 4.86644 2.89302C3.41752 3.78209 2.37513 5.26922 2.08296 7.01074ZM8 0.0107422C3.58172 0.0107422 0 3.59246 0 8.01074C0 12.429 3.58172 16.0107 8 16.0107C12.4183 16.0107 16 12.429 16 8.01074C16 3.59246 12.4183 0.0107422 8 0.0107422ZM8 2.01074C7.92395 2.01074 7.76787 2.04247 7.5347 2.27258C7.29723 2.50694 7.03751 2.89565 6.79782 3.45491C6.40914 4.36185 6.12491 5.59633 6.03237 7.01074H9.96763C9.87509 5.59633 9.59086 4.36185 9.20218 3.45491C8.96249 2.89565 8.70277 2.50694 8.4653 2.27258C8.23213 2.04247 8.07605 2.01074 8 2.01074ZM11.9714 7.01074C11.8822 5.46435 11.5877 4.03981 11.1336 2.89302C12.5825 3.78209 13.6249 5.26922 13.917 7.01074H11.9714ZM9.96763 9.01074H6.03237C6.12491 10.4252 6.40914 11.6596 6.79782 12.5666C7.03751 13.1258 7.29723 13.5145 7.5347 13.7489C7.76787 13.979 7.92395 14.0107 8 14.0107C8.07605 14.0107 8.23213 13.979 8.4653 13.7489C8.70277 13.5145 8.96249 13.1258 9.20218 12.5666C9.59086 11.6596 9.87509 10.4252 9.96763 9.01074ZM11.1336 13.1285C11.5877 11.9817 11.8822 10.5571 11.9714 9.01074H13.917C13.6249 10.7523 12.5825 12.2394 11.1336 13.1285ZM4.86644 13.1285C4.41228 11.9817 4.11783 10.5571 4.02863 9.01074H2.08296C2.37513 10.7523 3.41752 12.2394 4.86644 13.1285Z" fill="currentColor" />
		</symbol>

		<symbol id="map" width="100%" height="100%" viewBox="0 0 13 16">
			<path d="M6.17181 0.00407228C2.98436 0.115611 0.336378 2.5957 0.030462 5.76143C-0.032037 6.39457 0.00414668 7.00803 0.115987 7.59525C0.115987 7.59525 0.125855 7.66414 0.15875 7.79536C0.257432 8.23495 0.405456 8.66143 0.589664 9.06165C1.2311 10.5773 2.71463 13.1131 6.04353 15.8721C6.24747 16.0426 6.54681 16.0426 6.75404 15.8721C10.0829 13.1164 11.5665 10.5805 12.2112 9.05837C12.3987 8.65814 12.5434 8.23495 12.6421 7.79208C12.6717 7.66414 12.6849 7.59197 12.6849 7.59197C12.7605 7.1983 12.8 6.7948 12.8 6.38145C12.8 2.77941 9.80992 -0.123869 6.17181 0.00407228ZM6.39878 9.55701C4.68171 9.55701 3.29028 8.16934 3.29028 6.4569C3.29028 4.74446 4.68171 3.35679 6.39878 3.35679C8.11586 3.35679 9.50729 4.74446 9.50729 6.4569C9.50729 8.16934 8.11586 9.55701 6.39878 9.55701Z" fill="currentColor" />
		</symbol>

		<symbol id="user" width="100%" height="100%" viewBox="0 0 14 15">
			<path d="M7 6C8.65685 6 10 4.65685 10 3C10 1.34315 8.65685 0 7 0C5.34315 0 4 1.34315 4 3C4 4.65685 5.34315 6 7 6Z" fill="currentColor" />
			<path d="M0 15C0 11.134 3.13401 8 7 8C10.866 8 14 11.134 14 15H0Z" fill="currentColor" />
		</symbol>
		<symbol id="dropdown" width="100%" height="100%" viewBox="0 0 10 8">
			<path d="M5.82199 6.81355C5.42431 7.38756 4.57569 7.38756 4.178 6.81355L0.891225 2.06949C0.431745 1.40629 0.9064 0.5 1.71322 0.5L8.28678 0.500001C9.0936 0.500001 9.56825 1.40629 9.10877 2.0695L5.82199 6.81355Z" fill="currentColor" />
		</symbol>
		<symbol id="calendar" width="100%" height="100%" viewBox="0 0 13 14">
			<path d="M4.04688 7.875H2.95312C2.77266 7.875 2.625 7.72734 2.625 7.54688V6.45312C2.625 6.27266 2.77266 6.125 2.95312 6.125H4.04688C4.22734 6.125 4.375 6.27266 4.375 6.45312V7.54688C4.375 7.72734 4.22734 7.875 4.04688 7.875ZM7 7.54688V6.45312C7 6.27266 6.85234 6.125 6.67188 6.125H5.57812C5.39766 6.125 5.25 6.27266 5.25 6.45312V7.54688C5.25 7.72734 5.39766 7.875 5.57812 7.875H6.67188C6.85234 7.875 7 7.72734 7 7.54688ZM9.625 7.54688V6.45312C9.625 6.27266 9.47734 6.125 9.29688 6.125H8.20312C8.02266 6.125 7.875 6.27266 7.875 6.45312V7.54688C7.875 7.72734 8.02266 7.875 8.20312 7.875H9.29688C9.47734 7.875 9.625 7.72734 9.625 7.54688ZM7 10.1719V9.07812C7 8.89766 6.85234 8.75 6.67188 8.75H5.57812C5.39766 8.75 5.25 8.89766 5.25 9.07812V10.1719C5.25 10.3523 5.39766 10.5 5.57812 10.5H6.67188C6.85234 10.5 7 10.3523 7 10.1719ZM4.375 10.1719V9.07812C4.375 8.89766 4.22734 8.75 4.04688 8.75H2.95312C2.77266 8.75 2.625 8.89766 2.625 9.07812V10.1719C2.625 10.3523 2.77266 10.5 2.95312 10.5H4.04688C4.22734 10.5 4.375 10.3523 4.375 10.1719ZM9.625 10.1719V9.07812C9.625 8.89766 9.47734 8.75 9.29688 8.75H8.20312C8.02266 8.75 7.875 8.89766 7.875 9.07812V10.1719C7.875 10.3523 8.02266 10.5 8.20312 10.5H9.29688C9.47734 10.5 9.625 10.3523 9.625 10.1719ZM12.25 3.0625V12.6875C12.25 13.4121 11.6621 14 10.9375 14H1.3125C0.587891 14 0 13.4121 0 12.6875V3.0625C0 2.33789 0.587891 1.75 1.3125 1.75H2.625V0.328125C2.625 0.147656 2.77266 0 2.95312 0H4.04688C4.22734 0 4.375 0.147656 4.375 0.328125V1.75H7.875V0.328125C7.875 0.147656 8.02266 0 8.20312 0H9.29688C9.47734 0 9.625 0.147656 9.625 0.328125V1.75H10.9375C11.6621 1.75 12.25 2.33789 12.25 3.0625ZM10.9375 12.5234V4.375H1.3125V12.5234C1.3125 12.6137 1.38633 12.6875 1.47656 12.6875H10.7734C10.8637 12.6875 10.9375 12.6137 10.9375 12.5234Z" fill="currentColor" />
		</symbol>
		<symbol id="setting" width="100%" height="100%" viewBox="0 0 16 16">
			<path fill-rule="evenodd" clip-rule="evenodd" d="M9.48922 1.17094C9.1102 -0.390314 6.8898 -0.390314 6.51078 1.17094C6.26594 2.17949 5.11045 2.65811 4.22416 2.11809C2.85218 1.28212 1.28212 2.85218 2.11809 4.22416C2.65811 5.11045 2.17949 6.26593 1.17094 6.51078C-0.390314 6.8898 -0.390314 9.1102 1.17094 9.48922C2.17949 9.73407 2.65811 10.8896 2.11809 11.7758C1.28212 13.1478 2.85218 14.7179 4.22417 13.8819C5.11045 13.3419 6.26594 13.8205 6.51078 14.8291C6.8898 16.3903 9.1102 16.3903 9.48922 14.8291C9.73407 13.8205 10.8896 13.3419 11.7758 13.8819C13.1478 14.7179 14.7179 13.1478 13.8819 11.7758C13.3419 10.8896 13.8205 9.73407 14.8291 9.48922C16.3903 9.1102 16.3903 6.8898 14.8291 6.51078C13.8205 6.26593 13.3419 5.11045 13.8819 4.22416C14.7179 2.85218 13.1478 1.28212 11.7758 2.11809C10.8896 2.65811 9.73407 2.17949 9.48922 1.17094ZM8 11C9.65685 11 11 9.65685 11 8C11 6.34315 9.65685 5 8 5C6.34315 5 5 6.34315 5 8C5 9.65685 6.34315 11 8 11Z" fill="currentColor" />
		</symbol>
		<symbol id="plus" width="100%" height="100%" viewBox="0 0 16 16">
			<path fill-rule="evenodd" clip-rule="evenodd" d="M8 16C12.4183 16 16 12.4183 16 8C16 3.58172 12.4183 0 8 0C3.58172 0 0 3.58172 0 8C0 12.4183 3.58172 16 8 16ZM9 5C9 4.44772 8.55228 4 8 4C7.44772 4 7 4.44772 7 5V7H5C4.44772 7 4 7.44771 4 8C4 8.55228 4.44772 9 5 9H7V11C7 11.5523 7.44772 12 8 12C8.55228 12 9 11.5523 9 11V9H11C11.5523 9 12 8.55228 12 8C12 7.44772 11.5523 7 11 7H9V5Z" fill="currentColor" />
		</symbol>
	</defs>
</svg>